<svg width="400" height="400" viewBox="0 0 400 400" fill="none" xmlns="http://www.w3.org/2000/svg">
<path d="M379.344 201.166C379.344 201.166 379.344 195.56 372.33 187.791C365.316 180.021 360.867 175.514 360.867 175.514C360.867 175.514 357.38 188.34 363.873 196.155C368.64 201.643 373.808 206.676 379.324 211.2L379.344 201.166Z" fill="#1fcb63"/>
<path d="M369.224 235.989C369.224 235.989 369.224 230.383 362.21 222.613C355.196 214.844 350.767 210.337 350.767 210.337C350.767 210.337 347.27 223.163 353.773 230.977C358.54 236.465 363.708 241.498 369.224 246.023V235.989Z" fill="#1fcb63"/>
<path d="M378.903 210.662C378.903 210.662 379.434 205.124 387.109 198.184C394.784 191.244 399.664 187.342 399.664 187.342C399.664 187.342 401.919 200.505 394.744 207.523C389.487 212.418 383.873 216.813 377.961 220.663L378.903 210.662Z" fill="#1fcb63"/>
<path d="M366.679 251.785C366.679 251.785 367.681 246.337 376.007 240.339C384.334 234.34 389.504 231.033 389.504 231.033C389.504 231.033 390.506 244.397 382.721 250.507C377.032 254.759 371.036 258.471 364.795 261.607L366.679 251.785Z" fill="#1fcb63"/>
<path d="M368.973 296.631C368.973 296.631 368.973 291.025 375.987 283.245C383.001 275.464 387.44 270.979 387.44 270.979C387.44 270.979 390.937 283.805 384.434 291.608C379.669 297.102 374.501 302.139 368.983 306.665L368.973 296.631Z" fill="#1fcb63"/>
<path d="M368.863 307.573C368.863 307.573 369.565 302.057 363.653 293.223C357.741 284.388 353.864 279.253 353.864 279.253C353.864 279.253 348.783 291.395 354.204 300.151C358.223 306.344 362.697 312.149 367.581 317.507L368.863 307.573Z" fill="#1fcb63"/>
<path d="M361.979 340.008C361.979 340.008 361.979 334.402 368.993 326.633C376.007 318.863 380.456 314.356 380.456 314.356C380.456 314.356 383.943 327.182 377.45 334.996C372.682 340.486 367.514 345.523 362 350.053L361.979 340.008Z" fill="#1fcb63"/>
<path d="M366.639 369.415C366.639 369.415 365.376 364.023 370.356 354.493C375.336 344.963 378.673 339.38 378.673 339.38C378.673 339.38 384.945 350.793 380.446 360.188C377.08 366.849 373.223 373.183 368.913 379.124L366.639 369.415Z" fill="#1fcb63"/>
<path d="M379.975 199.742C379.624 205.547 378.989 211.326 378.071 217.053C375.306 232.995 368.412 243.287 365.657 257.683C362.901 272.078 370.817 290.633 368.663 309.132C366.508 327.63 360.116 337.911 361.949 350.255C363.783 362.599 373.442 396.031 373.442 396.031" stroke="#263238" stroke-linecap="round" stroke-linejoin="round"/>
<path d="M378.843 214.373L386.358 207.915" stroke="#263238" stroke-linecap="round" stroke-linejoin="round"/>
<path d="M379.194 206.94L376.037 200.673" stroke="#263238" stroke-linecap="round" stroke-linejoin="round"/>
<path d="M366.078 257.021C366.078 257.021 372.37 251.741 378.843 246.46" stroke="#263238" stroke-linecap="round" stroke-linejoin="round"/>
<path d="M369.224 246.023C369.224 246.023 363.974 234.52 358.032 226.896" stroke="#263238" stroke-linecap="round" stroke-linejoin="round"/>
<path d="M369.224 304.569C372.813 297.146 377.35 290.348 382.691 284.388" stroke="#263238" stroke-linecap="round" stroke-linejoin="round"/>
<path d="M368.002 312.394C366.092 307.361 363.81 302.516 361.178 297.909C357.511 291.844 356.98 291.059 356.98 291.059" stroke="#263238" stroke-linecap="round" stroke-linejoin="round"/>
<path d="M361.979 350.255C363.577 345.836 365.473 341.56 367.651 337.463C369.83 333.655 372.286 330.055 374.995 326.7" stroke="#263238" stroke-linecap="round" stroke-linejoin="round"/>
<path d="M368.913 379.124C368.548 374.899 369.198 370.642 370.797 366.792C373.422 361.119 376.388 353.686 377.611 350.748" stroke="#263238" stroke-linecap="round" stroke-linejoin="round"/>
<path d="M322.411 275.666C322.411 275.666 321.87 272.168 325.487 266.416C329.104 260.665 331.499 257.335 331.499 257.335C331.499 257.335 334.926 264.959 331.619 270.632C329.164 274.656 326.412 278.443 323.393 281.955L322.411 275.666Z" fill="#1fcb63"/>
<path d="M332.141 296.272C332.141 296.272 331.599 292.774 335.217 287.023C338.834 281.271 341.229 277.942 341.229 277.942C341.229 277.942 344.655 285.565 341.349 291.25C338.891 295.269 336.14 299.052 333.122 302.562L332.141 296.272Z" fill="#1fcb63"/>
<path d="M323.604 281.563C323.604 281.563 322.742 278.199 317.251 274.735C311.76 271.271 308.333 269.455 308.333 269.455C308.333 269.455 308.193 277.986 313.343 281.507C317.114 283.936 321.059 286.009 325.137 287.707L323.604 281.563Z" fill="#1fcb63"/>
<path d="M335.267 305.869C335.267 305.869 334.084 302.573 328.313 299.815C322.541 297.057 318.934 295.622 318.934 295.622C318.934 295.622 319.596 304.12 325.086 307.013C329.065 308.985 333.185 310.583 337.401 311.789L335.267 305.869Z" fill="#1fcb63"/>
<path d="M338.172 334.268C338.172 334.268 337.641 330.77 332.501 326.722C327.361 322.675 324.125 320.422 324.125 320.422C324.125 320.422 323.183 328.886 328.002 332.99C331.523 335.858 335.254 338.39 339.154 340.557L338.172 334.268Z" fill="#1fcb63"/>
<path d="M339.315 341.118C339.315 341.118 338.313 337.754 341.188 331.476C344.064 325.198 345.968 321.531 345.968 321.531C345.968 321.531 350.327 328.527 347.781 334.682C345.864 339.052 343.622 343.234 341.078 347.183L339.315 341.118Z" fill="#1fcb63"/>
<path d="M348.072 369.314C348.072 369.314 348.433 365.794 353.352 361.466C358.272 357.139 361.368 354.639 361.368 354.639C361.368 354.639 362.741 363.036 358.142 367.442C354.773 370.526 351.18 373.29 347.401 375.705L348.072 369.314Z" fill="#1fcb63"/>
<path d="M346.759 360.614C346.759 360.614 346.218 357.116 341.088 353.069C335.958 349.022 332.732 346.768 332.732 346.768C332.732 346.768 331.79 355.233 336.609 359.347C340.133 362.212 343.863 364.743 347.761 366.915L346.759 360.614Z" fill="#1fcb63"/>
<path d="M346.759 379.629C346.759 379.629 347.02 376.086 342.972 370.716C338.924 365.346 336.299 362.251 336.299 362.251C336.299 362.251 333.463 370.166 337.2 375.514C339.94 379.28 342.956 382.783 346.218 385.986L346.759 379.629Z" fill="#1fcb63"/>
<path d="M321.88 274.836C322.664 278.435 323.624 281.983 324.756 285.464C328.032 295.129 333.353 300.746 336.479 309.434C339.605 318.123 336.479 330.736 339.565 342.071C342.651 353.405 347.761 359.078 347.761 367.039C347.761 374.999 344.996 397.141 344.996 397.141" stroke="#263238" stroke-linecap="round" stroke-linejoin="round"/>
<path d="M324.014 283.872L318.674 280.744" stroke="#263238" stroke-linecap="round" stroke-linejoin="round"/>
<path d="M323.073 279.253L324.435 274.948" stroke="#263238" stroke-linecap="round" stroke-linejoin="round"/>
<path d="M336.148 309.076C336.148 309.076 331.69 306.531 327.131 303.997" stroke="#263238" stroke-linecap="round" stroke-linejoin="round"/>
<path d="M333.112 302.562C334.427 297.942 336.156 293.484 338.273 289.254" stroke="#263238" stroke-linecap="round" stroke-linejoin="round"/>
<path d="M338.794 339.268C335.82 335.058 332.317 331.353 328.393 328.27" stroke="#263238" stroke-linecap="round" stroke-linejoin="round"/>
<path d="M340.317 344.022C341.03 340.639 341.992 337.327 343.192 334.122C344.906 329.873 345.196 329.312 345.196 329.312" stroke="#263238" stroke-linecap="round" stroke-linejoin="round"/>
<path d="M347.521 373.081C349.259 370.672 351.183 368.44 353.272 366.411C354.601 365.316 355.848 364.101 357 362.778" stroke="#263238" stroke-linecap="round" stroke-linejoin="round"/>
<path d="M347.761 367.038C346.33 364.455 344.726 361.996 342.962 359.684C341.225 357.563 339.335 355.605 337.311 353.831" stroke="#263238" stroke-linecap="round" stroke-linejoin="round"/>
<path d="M346.218 385.986C346.039 383.29 345.219 380.697 343.844 378.474C341.649 375.234 339.064 370.929 338.012 369.236" stroke="#263238" stroke-linecap="round" stroke-linejoin="round"/>
<path d="M37.8176 226.829L33.429 212.803L37.8176 218.757L34.3708 197.713L39.7014 212.803L41.5851 183.329L44.7213 211.391L48.1681 205.785V212.803L52.2462 203.33L50.0519 219.811L53.8093 217.008L47.8575 226.123L37.8176 226.829Z" fill="#1fcb63"/>
<path d="M51.615 223.32H35.3127L38.2486 260.149H48.6792L51.615 223.32Z" fill="#263238" stroke="#263238" stroke-linecap="round" stroke-linejoin="round"/>
<path d="M82.1955 259.734H26.6555V391.356H82.1955V259.734Z" fill="white" stroke="#263238" stroke-linecap="round" stroke-linejoin="round"/>
<path d="M85.2314 259.734H54.4204V391.356H85.2314V259.734Z" fill="white" stroke="#263238" stroke-linecap="round" stroke-linejoin="round"/>
<path d="M81.7646 259.734H54.4204V391.356H81.7646V259.734Z" fill="#263238" stroke="#263238" stroke-linecap="round" stroke-linejoin="round"/>
<path d="M78.6885 360.749H54.4204V387.701H78.6885V360.749Z" fill="#1fcb63" stroke="#263238" stroke-linecap="round" stroke-linejoin="round"/>
<path d="M78.6885 362.206H54.4204V365.66H78.6885V362.206Z" fill="white" stroke="#263238" stroke-linecap="round" stroke-linejoin="round"/>
<path d="M78.6885 382.051H54.4204V385.504H78.6885V382.051Z" fill="white" stroke="#263238" stroke-linecap="round" stroke-linejoin="round"/>
<path d="M59.0198 361.309V395.392" stroke="#263238" stroke-linecap="round" stroke-linejoin="round"/>
<path d="M67.4863 361.309V395.392" stroke="#263238" stroke-linecap="round" stroke-linejoin="round"/>
<path d="M74.9211 361.309V395.392" stroke="#263238" stroke-linecap="round" stroke-linejoin="round"/>
<path d="M78.6885 264.622H54.4204V304.255H78.6885V264.622Z" fill="#1fcb63" stroke="#263238" stroke-linecap="round" stroke-linejoin="round"/>
<path d="M78.6885 266.282H54.4204V270.206H78.6885V266.282Z" fill="white" stroke="#263238" stroke-linecap="round" stroke-linejoin="round"/>
<path d="M78.6885 291.687H54.4204V295.611H78.6885V291.687Z" fill="white" stroke="#263238" stroke-linecap="round" stroke-linejoin="round"/>
<path d="M59.0198 265.25V303.986" stroke="#263238" stroke-linecap="round" stroke-linejoin="round"/>
<path d="M67.4863 265.25V303.986" stroke="#263238" stroke-linecap="round" stroke-linejoin="round"/>
<path d="M74.9211 265.25V303.986" stroke="#263238" stroke-linecap="round" stroke-linejoin="round"/>
<path d="M78.6885 312.383H54.4204V352.015H78.6885V312.383Z" fill="#1fcb63" stroke="#263238" stroke-linecap="round" stroke-linejoin="round"/>
<path d="M78.6885 314.042H54.4204V317.966H78.6885V314.042Z" fill="white" stroke="#263238" stroke-linecap="round" stroke-linejoin="round"/>
<path d="M78.6885 339.447H54.4204V343.371H78.6885V339.447Z" fill="white" stroke="#263238" stroke-linecap="round" stroke-linejoin="round"/>
<path d="M59.0198 313.022V351.746" stroke="#263238" stroke-linecap="round" stroke-linejoin="round"/>
<path d="M67.4863 313.022V351.746" stroke="#263238" stroke-linecap="round" stroke-linejoin="round"/>
<path d="M74.9211 313.022V351.746" stroke="#263238" stroke-linecap="round" stroke-linejoin="round"/>
<path d="M82.1854 303.705H54.4204V308.212H82.1854V303.705Z" fill="white" stroke="#263238" stroke-linecap="round" stroke-linejoin="round"/>
<path d="M82.1854 351.769H54.4204V356.276H82.1854V351.769Z" fill="white" stroke="#263238" stroke-linecap="round" stroke-linejoin="round"/>
<path d="M82.1855 259.734V391.345" stroke="#263238" stroke-linecap="round" stroke-linejoin="round"/>
<path d="M50.5029 259.734V391.345H54.4207V264.622H81.7047V259.678L50.5029 259.734Z" fill="white" stroke="#263238" stroke-linecap="round" stroke-linejoin="round"/>
<path d="M54.4204 264.622V259.734" stroke="#263238" stroke-linecap="round" stroke-linejoin="round"/>
<path d="M81.9751 199.271C79.0593 192.982 77.8369 188.475 77.8369 187.432C77.8369 185.369 81.8449 184.136 81.8449 184.136C88.0972 180.436 117.505 185.784 130.742 188.25C138.151 189.696 145.647 190.52 153.166 190.717C153.166 190.717 155 189.08 157.174 187.017C159.348 184.954 169.669 171.389 173.717 170.2C177.765 169.012 181.432 171.848 181.432 171.848C181.432 171.848 188.055 176.333 186.943 177.196C185.831 178.059 169.669 193.643 165.621 196.524C161.573 199.406 153.126 198.173 145.771 199.821C139.439 201.233 113.788 202.982 107.906 203.52C103.489 204.693 98.8533 204.261 94.6703 202.287" fill="white"/>
<mask id="mask0_662_306" style="mask-type:luminance" maskUnits="userSpaceOnUse" x="77" y="169" width="111" height="36">
<path d="M81.9751 199.271C79.0593 192.982 77.8369 188.475 77.8369 187.432C77.8369 185.369 81.8449 184.136 81.8449 184.136C88.0972 180.436 117.505 185.784 130.742 188.25C138.151 189.696 145.647 190.52 153.166 190.717C153.166 190.717 155 189.08 157.174 187.017C159.348 184.954 169.669 171.389 173.717 170.2C177.765 169.012 181.432 171.848 181.432 171.848C181.432 171.848 188.055 176.333 186.943 177.196C185.831 178.059 169.669 193.643 165.621 196.524C161.573 199.406 153.126 198.173 145.771 199.821C139.439 201.233 113.788 202.982 107.906 203.52C103.489 204.693 98.8533 204.261 94.6703 202.287" fill="white"/>
</mask>
<g mask="url(#mask0_662_306)">
<path d="M181.502 171.803C181.502 171.803 177.825 168.922 173.787 170.155C169.749 171.389 159.448 184.966 157.244 186.972C155.04 188.979 153.236 190.672 153.236 190.672C145.717 190.475 138.221 189.651 130.812 188.206C117.576 185.739 88.1673 180.358 81.9149 184.091C81.9149 184.091 77.907 185.324 77.907 187.387C78.0462 188.54 78.3121 189.67 78.6986 190.751L79.2497 190.975C79.2497 190.975 86.5942 190.112 102.446 190.538C118.297 190.964 154.96 193.397 157.314 194.349C158.316 194.776 165.42 192.982 173.296 189.865C179.308 184.383 186.372 177.532 187.083 177.05C188.125 176.322 181.502 171.803 181.502 171.803Z" fill="#1fcb63"/>
<path opacity="0.5" d="M181.502 171.803C181.502 171.803 177.825 168.922 173.787 170.155C169.749 171.389 159.448 184.966 157.244 186.972C155.04 188.979 153.236 190.672 153.236 190.672C145.717 190.475 138.221 189.651 130.812 188.206C117.576 185.739 88.1673 180.358 81.9149 184.091C81.9149 184.091 77.907 185.324 77.907 187.387C78.0462 188.54 78.3121 189.67 78.6986 190.751L79.2497 190.975C79.2497 190.975 86.5942 190.112 102.446 190.538C118.297 190.964 154.96 193.397 157.314 194.349C158.316 194.776 165.42 192.982 173.296 189.865C179.308 184.383 186.372 177.532 187.083 177.05C188.125 176.322 181.502 171.803 181.502 171.803Z" fill="white"/>
</g>
<path d="M81.9751 199.271C79.0593 192.982 77.8369 188.475 77.8369 187.432C77.8369 185.369 81.8449 184.136 81.8449 184.136C88.0972 180.436 117.505 185.784 130.742 188.25C138.151 189.696 145.647 190.52 153.166 190.717C153.166 190.717 155 189.08 157.174 187.017C159.348 184.954 169.669 171.389 173.717 170.2C177.765 169.012 181.432 171.848 181.432 171.848C181.432 171.848 188.055 176.333 186.943 177.196C185.831 178.059 169.669 193.643 165.621 196.524C161.573 199.406 153.126 198.173 145.771 199.821C139.439 201.233 113.788 202.982 107.906 203.52C103.489 204.693 98.8533 204.261 94.6703 202.287" stroke="#263238" stroke-linecap="round" stroke-linejoin="round"/>
<path d="M227.172 235.843C227.838 234.43 228.835 233.248 230.057 232.424C231.279 231.6 232.679 231.166 234.106 231.168H300.939C300.939 231.168 305.768 231.168 304.325 241.437C302.882 251.707 283.063 314.412 278.274 333.371C273.484 352.329 272.472 392.287 272.472 392.287H192.313C192.313 392.287 198.666 296.732 227.172 235.843Z" fill="white"/>
<mask id="mask1_662_306" style="mask-type:luminance" maskUnits="userSpaceOnUse" x="192" y="231" width="113" height="162">
<path d="M227.172 235.843C227.838 234.43 228.835 233.248 230.057 232.424C231.279 231.6 232.679 231.166 234.106 231.168H300.939C300.939 231.168 305.768 231.168 304.325 241.437C302.882 251.707 283.063 314.412 278.274 333.371C273.484 352.329 272.472 392.287 272.472 392.287H192.313C192.313 392.287 198.666 296.732 227.172 235.843Z" fill="white"/>
</mask>
<g mask="url(#mask1_662_306)">
<path opacity="0.16" d="M257.272 231.168H234.106C232.679 231.166 231.279 231.6 230.057 232.424C228.835 233.248 227.838 234.43 227.173 235.843C198.666 296.732 192.243 392.253 192.243 392.253H228.195L237.062 354.571L274.035 363.103C274.296 359.942 274.596 356.724 274.947 353.551L274.136 343.461C274.136 343.461 266.561 334.548 264.176 332.317C261.791 330.086 263.374 326.061 262.973 308.672C262.573 291.283 248.625 278.782 243.435 268.076C238.245 257.369 246.23 250.675 253.405 239.969C255.96 236.101 257.002 233.253 257.272 231.168Z" fill="black"/>
</g>
<path d="M227.172 235.843C227.838 234.43 228.835 233.248 230.057 232.424C231.279 231.6 232.679 231.166 234.106 231.168H300.939C300.939 231.168 305.768 231.168 304.325 241.437C302.882 251.707 283.063 314.412 278.274 333.371C273.484 352.329 272.472 392.287 272.472 392.287H192.313C192.313 392.287 198.666 296.732 227.172 235.843Z" stroke="#263238" stroke-linecap="round" stroke-linejoin="round"/>
<path d="M289.346 249.005C282.592 266.641 268.304 336.454 265.979 392.253H272.432C272.432 392.253 273.434 352.251 278.234 333.337C283.033 314.423 302.873 251.707 304.285 241.404C305.698 231.1 300.899 231.134 300.899 231.134C300.899 231.134 294.767 234.867 289.346 249.005Z" fill="#263238" stroke="#263238" stroke-linecap="round" stroke-linejoin="round"/>
<path d="M171.943 213.756C171.943 213.756 161.282 206.76 157.244 194.428C153.206 182.095 188.857 162.341 204.337 161.108C219.818 159.874 224.187 164.393 233.395 182.084C242.603 199.776 248.835 224.037 244.056 235.966C239.276 247.895 231.19 250.776 237.042 260.631C242.894 270.486 259.466 298.47 258.364 311.632C257.262 324.794 245.869 336.297 229.307 337.553C212.744 338.808 190.7 327.675 172.324 309.524C153.947 291.373 158.717 264.679 165.31 256.046C171.903 247.413 181.853 244.117 182.584 235.484C183.316 226.851 171.943 213.756 171.943 213.756Z" fill="#263238" stroke="#263238" stroke-linecap="round" stroke-linejoin="round"/>
<path d="M217.383 194.237C223.045 206.032 230.129 221.829 232.343 231.369C236.211 248.074 216.311 258.591 221.832 266.629" stroke="white" stroke-linecap="round" stroke-linejoin="round"/>
<path d="M209.668 178.788C209.668 178.788 211.872 182.992 214.918 189.181" stroke="white" stroke-linecap="round" stroke-linejoin="round"/>
<path d="M239.367 208.465C240.02 210.675 240.443 212.962 240.629 215.281" stroke="white" stroke-linecap="round" stroke-linejoin="round"/>
<path d="M213.496 172.655C213.496 172.655 230.91 187.051 237.864 204.283" stroke="white" stroke-linecap="round" stroke-linejoin="round"/>
<path d="M189.328 183.452C176.893 187.354 159.008 193.688 160.46 197.343" stroke="white" stroke-linecap="round" stroke-linejoin="round"/>
<path d="M200.82 180.021C200.82 180.021 198.165 180.761 194.207 181.95" stroke="white" stroke-linecap="round" stroke-linejoin="round"/>
<path d="M185.44 172.756C192.563 170.245 200.023 169.144 207.484 169.505" stroke="white" stroke-linecap="round" stroke-linejoin="round"/>
<path d="M180.37 175.077C181.496 174.421 182.661 173.851 183.857 173.373" stroke="white" stroke-linecap="round" stroke-linejoin="round"/>
<path d="M81.9751 199.271C80.2875 195.813 78.9435 192.159 77.9672 188.374C78.9388 192.161 80.283 195.816 81.9751 199.271ZM77.857 187.735C77.857 187.802 77.857 187.88 77.857 187.981C77.877 187.88 77.867 187.802 77.857 187.735ZM81.9751 199.26C85.7225 207.202 90.3847 214.56 95.8426 221.145C109.079 237.188 147.314 279.152 150.952 282.034C154.589 284.915 153.527 293.133 150.952 301.362C148.377 309.591 138.818 321.543 139.188 334.682C139.559 347.822 143.196 368.003 142.866 372.117C142.535 376.232 133.337 390.224 133.337 390.224H228.185C228.185 390.224 216.361 373.407 216.361 367.655C216.361 361.904 232.593 288.211 233.325 282.863C234.056 277.516 231.12 273.816 225.239 273.401C219.357 272.986 196.933 267.638 195.831 263.524C194.728 259.409 201.712 243.78 201.712 243.78L179.669 245.014C179.669 245.014 178.566 255.709 177.093 257.772C175.621 259.835 173.416 255.709 168.266 252.839C163.116 249.969 153.236 247.491 149.519 244.195C145.801 240.899 110.552 203.834 110.552 203.834" fill="white"/>
<mask id="mask2_662_306" style="mask-type:luminance" maskUnits="userSpaceOnUse" x="77" y="187" width="157" height="204">
<path d="M81.9751 199.271C80.2875 195.813 78.9435 192.159 77.9672 188.374C78.9388 192.161 80.283 195.816 81.9751 199.271ZM77.857 187.735C77.857 187.802 77.857 187.88 77.857 187.981C77.877 187.88 77.867 187.802 77.857 187.735ZM81.9751 199.26C85.7225 207.202 90.3847 214.56 95.8426 221.145C109.079 237.188 147.314 279.152 150.952 282.034C154.589 284.915 153.527 293.133 150.952 301.362C148.377 309.591 138.818 321.543 139.188 334.682C139.559 347.822 143.196 368.003 142.866 372.117C142.535 376.232 133.337 390.224 133.337 390.224H228.185C228.185 390.224 216.361 373.407 216.361 367.655C216.361 361.904 232.593 288.211 233.325 282.863C234.056 277.516 231.12 273.816 225.239 273.401C219.357 272.986 196.933 267.638 195.831 263.524C194.728 259.409 201.712 243.78 201.712 243.78L179.669 245.014C179.669 245.014 178.566 255.709 177.093 257.772C175.621 259.835 173.416 255.709 168.266 252.839C163.116 249.969 153.236 247.491 149.519 244.195C145.801 240.899 110.552 203.834 110.552 203.834" fill="white"/>
</mask>
<g mask="url(#mask2_662_306)">
<path d="M155.15 247.368C156.984 250.956 158.817 254.196 158.817 254.196C158.817 254.196 164.999 258.086 166.542 258.086C168.086 258.086 177.364 263.692 177.364 263.692C177.364 263.692 185.099 261.528 182.374 254.173C181.514 252.291 180.429 250.548 179.147 248.994C178.687 252.256 177.945 256.528 177.073 257.75C175.6 259.802 173.396 255.687 168.246 252.817C164.909 250.956 159.509 249.252 155.15 247.368Z" fill="#1fcb63"/>
<path d="M136.273 230.719C124.92 218.958 110.552 203.879 110.552 203.879L102.195 202.534L101.193 203.162C101.193 203.162 124.78 226.515 129.8 229.116C131.831 230.16 134.038 230.707 136.273 230.719Z" fill="#1fcb63"/>
<path d="M148.166 242.895L147.264 241.998C147.725 242.85 147.986 243.388 147.986 243.388L148.166 242.895Z" fill="#1fcb63"/>
<g opacity="0.5">
<path d="M155.15 247.368C156.984 250.956 158.817 254.196 158.817 254.196C158.817 254.196 164.999 258.086 166.542 258.086C168.086 258.086 177.364 263.692 177.364 263.692C177.364 263.692 185.099 261.528 182.374 254.173C181.514 252.291 180.429 250.548 179.147 248.994C178.687 252.256 177.945 256.528 177.073 257.75C175.6 259.802 173.396 255.687 168.246 252.817C164.909 250.956 159.509 249.252 155.15 247.368Z" fill="white"/>
<path d="M136.273 230.719C124.92 218.958 110.552 203.879 110.552 203.879L102.195 202.534L101.193 203.162C101.193 203.162 124.78 226.515 129.8 229.116C131.831 230.16 134.038 230.707 136.273 230.719Z" fill="white"/>
<path d="M148.166 242.895L147.264 241.998C147.725 242.85 147.986 243.388 147.986 243.388L148.166 242.895Z" fill="white"/>
</g>
</g>
<path d="M77.8369 187.432C77.8324 187.51 77.8324 187.589 77.8369 187.667M77.9672 188.374C78.9435 192.159 80.2875 195.813 81.9751 199.271C80.283 195.816 78.9388 192.161 77.9672 188.374ZM77.9672 188.374C77.9395 188.267 77.9194 188.159 77.907 188.049M81.9751 199.26C85.7225 207.202 90.3847 214.56 95.8426 221.145C109.079 237.188 147.314 279.152 150.952 282.034C154.589 284.915 153.527 293.133 150.952 301.362C148.377 309.591 138.818 321.543 139.188 334.682C139.559 347.822 143.196 368.003 142.866 372.117C142.535 376.232 133.337 390.224 133.337 390.224H228.185C228.185 390.224 216.361 373.407 216.361 367.655C216.361 361.904 232.593 288.211 233.325 282.863C234.056 277.516 231.12 273.816 225.239 273.401C219.357 272.986 196.933 267.638 195.831 263.524C194.728 259.409 201.712 243.78 201.712 243.78L179.669 245.014C179.669 245.014 178.566 255.709 177.093 257.772C175.621 259.835 173.416 255.709 168.266 252.839C163.116 249.969 153.236 247.491 149.519 244.195C145.801 240.899 110.552 203.834 110.552 203.834M77.857 187.735C77.857 187.802 77.857 187.88 77.857 187.981C77.877 187.88 77.867 187.802 77.857 187.735Z" stroke="#263238" stroke-linecap="round" stroke-linejoin="round"/>
<path d="M110.552 203.879C110.552 203.879 98.8083 204.126 92.2554 198.083" stroke="#263238" stroke-linecap="round" stroke-linejoin="round"/>
<path d="M195.841 263.524C194.738 259.42 201.722 243.78 201.722 243.78L179.679 245.014C179.679 245.014 178.576 255.709 177.104 257.772C175.631 259.835 173.426 255.709 168.276 252.839C167.885 252.615 167.454 252.402 167.014 252.189L165.681 275.632C165.681 275.632 167.615 298.335 190.801 294.019C200.189 292.27 210.209 282.897 218.856 272.358C209.959 270.531 196.682 266.674 195.841 263.524Z" fill="white"/>
<mask id="mask3_662_306" style="mask-type:luminance" maskUnits="userSpaceOnUse" x="165" y="243" width="54" height="52">
<path d="M195.841 263.524C194.738 259.42 201.722 243.78 201.722 243.78L179.679 245.014C179.679 245.014 178.576 255.709 177.104 257.772C175.631 259.835 173.426 255.709 168.276 252.839C167.885 252.615 167.454 252.402 167.014 252.189L165.681 275.632C165.681 275.632 167.615 298.335 190.801 294.019C200.189 292.27 210.209 282.897 218.856 272.358C209.959 270.531 196.682 266.674 195.841 263.524Z" fill="white"/>
</mask>
<g mask="url(#mask3_662_306)">
<path d="M195.219 246.886C195.219 246.886 193.887 255.25 192.815 264.499C191.742 273.749 190.951 280.632 190.951 280.632L195.841 263.524L201.352 245.395C201.352 245.395 196.021 245.395 195.219 246.886Z" fill="#1fcb63"/>
<path opacity="0.5" d="M195.219 246.886C195.219 246.886 193.887 255.25 192.815 264.499C191.742 273.749 190.951 280.632 190.951 280.632L195.841 263.524L201.352 245.395C201.352 245.395 196.021 245.395 195.219 246.886Z" fill="white"/>
</g>
<path d="M195.841 263.524C194.738 259.42 201.722 243.78 201.722 243.78L179.679 245.014C179.679 245.014 178.576 255.709 177.104 257.772C175.631 259.835 173.426 255.709 168.276 252.839C167.885 252.615 167.454 252.402 167.014 252.189L165.681 275.632C165.681 275.632 167.615 298.335 190.801 294.019C200.189 292.27 210.209 282.897 218.856 272.358C209.959 270.531 196.682 266.674 195.841 263.524Z" stroke="#263238" stroke-linecap="round" stroke-linejoin="round"/>
<path d="M177.093 257.772C175.62 259.824 173.416 255.709 168.266 252.839C165.019 251.012 159.849 249.353 155.571 247.559C154.358 244.341 152.755 240.148 151.723 237.614C149.89 233.13 146.944 235.966 146.944 235.966C145.407 234.01 144.165 231.788 143.266 229.385C141.433 224.9 138.487 225.27 134.449 224.452C130.411 223.634 121.944 214.99 121.944 214.99C121.944 214.99 117.986 211.626 116.353 209.956C114.449 214.149 109.89 221.526 100.031 226.134C115.752 244.509 147.645 279.421 150.992 282.045C154.669 284.915 153.567 293.144 150.992 301.373C148.417 309.603 138.858 321.554 139.228 334.694C139.599 347.833 143.236 368.014 142.906 372.128C142.575 375.795 135.24 387.286 133.647 389.753L137.385 390.224H156.843C156.733 379.192 156.743 334.167 163.486 316.228C171.212 295.611 177.093 257.772 177.093 257.772Z" fill="#1fcb63"/>
<mask id="mask4_662_306" style="mask-type:luminance" maskUnits="userSpaceOnUse" x="100" y="209" width="78" height="182">
<path d="M177.093 257.772C175.62 259.824 173.416 255.709 168.266 252.839C165.019 251.012 159.849 249.353 155.571 247.559C154.358 244.341 152.755 240.148 151.723 237.614C149.89 233.13 146.944 235.966 146.944 235.966C145.407 234.01 144.165 231.788 143.266 229.385C141.433 224.9 138.487 225.27 134.449 224.452C130.411 223.634 121.944 214.99 121.944 214.99C121.944 214.99 117.986 211.626 116.353 209.956C114.449 214.149 109.89 221.526 100.031 226.134C115.752 244.509 147.645 279.421 150.992 282.045C154.669 284.915 153.567 293.144 150.992 301.373C148.417 309.603 138.858 321.554 139.228 334.694C139.599 347.833 143.236 368.014 142.906 372.128C142.575 375.795 135.24 387.286 133.647 389.753L137.385 390.224H156.843C156.733 379.192 156.743 334.167 163.486 316.228C171.212 295.611 177.093 257.772 177.093 257.772Z" fill="white"/>
</mask>
<g mask="url(#mask4_662_306)">
<path opacity="0.16" d="M168.266 252.839C165.02 251.012 159.849 249.353 155.571 247.559C154.359 244.341 152.755 240.148 151.723 237.614C149.89 233.13 146.944 235.966 146.944 235.966C145.407 234.01 144.165 231.788 143.267 229.385C141.433 224.9 138.487 225.27 134.449 224.452C130.411 223.634 121.944 214.99 121.944 214.99C121.944 214.99 117.986 211.626 116.353 209.956C115.538 211.736 114.568 213.422 113.458 214.99C120.031 221.212 127.285 227.804 129.82 229.116C134.83 231.706 136.002 229.542 139.84 232.143C143.677 234.744 147.956 243.354 147.956 243.354C147.956 243.354 150.28 236.426 152.214 241.191C154.148 245.955 158.787 254.162 158.787 254.162C158.787 254.162 164.97 258.053 166.513 258.053C167.725 258.053 173.667 261.506 176.192 262.997C176.753 259.712 177.063 257.739 177.063 257.739C175.621 259.824 173.416 255.709 168.266 252.839Z" fill="black"/>
</g>
<path d="M177.093 257.772C175.62 259.824 173.416 255.709 168.266 252.839C165.019 251.012 159.849 249.353 155.571 247.559C154.358 244.341 152.755 240.148 151.723 237.614C149.89 233.13 146.944 235.966 146.944 235.966C145.407 234.01 144.165 231.788 143.266 229.385C141.433 224.9 138.487 225.27 134.449 224.452C130.411 223.634 121.944 214.99 121.944 214.99C121.944 214.99 117.986 211.626 116.353 209.956C114.449 214.149 109.89 221.526 100.031 226.134C115.752 244.509 147.645 279.421 150.992 282.045C154.669 284.915 153.567 293.144 150.992 301.373C148.417 309.603 138.858 321.554 139.228 334.694C139.599 347.833 143.236 368.014 142.906 372.128C142.575 375.795 135.24 387.286 133.647 389.753L137.385 390.224H156.843C156.733 379.192 156.743 334.167 163.486 316.228C171.212 295.611 177.093 257.772 177.093 257.772Z" stroke="#263238" stroke-linecap="round" stroke-linejoin="round"/>
<path d="M177.354 256.337C177.354 256.337 172.785 254.768 169.969 257.526C167.154 260.284 162.955 274.432 160.48 289.781C158.955 298.716 160.008 307.962 163.486 316.184C163.486 316.184 169.268 299.221 171.021 290.958C172.775 282.695 177.354 256.337 177.354 256.337Z" fill="#1fcb63"/>
<mask id="mask5_662_306" style="mask-type:luminance" maskUnits="userSpaceOnUse" x="159" y="255" width="19" height="62">
<path d="M177.354 256.337C177.354 256.337 172.785 254.768 169.969 257.526C167.154 260.284 162.955 274.432 160.48 289.781C158.955 298.716 160.008 307.962 163.486 316.184C163.486 316.184 169.268 299.221 171.021 290.958C172.775 282.695 177.354 256.337 177.354 256.337Z" fill="white"/>
</mask>
<g mask="url(#mask5_662_306)">
<path opacity="0.16" d="M168.586 258.837C168.586 258.837 171.893 257.94 173.256 258.456C174.403 259.007 175.476 259.735 176.442 260.62L177.354 256.337C175.986 255.555 174.435 255.269 172.915 255.519C170.641 256.035 168.586 258.837 168.586 258.837Z" fill="black"/>
</g>
<path d="M177.354 256.337C177.354 256.337 172.785 254.768 169.969 257.526C167.154 260.284 162.955 274.432 160.48 289.781C158.955 298.716 160.008 307.962 163.486 316.184C163.486 316.184 169.268 299.221 171.021 290.958C172.775 282.695 177.354 256.337 177.354 256.337Z" stroke="#263238" stroke-linecap="round" stroke-linejoin="round"/>
<path d="M146.583 257.683L152.465 284.422L139.229 250.687" stroke="#263238" stroke-linecap="round" stroke-linejoin="round"/>
<path d="M185.33 390.224H228.194C228.194 390.224 216.371 373.407 216.371 367.655C216.371 361.904 232.603 288.211 233.335 282.863C234.066 277.516 231.13 273.816 225.249 273.401C219.367 272.986 196.943 267.638 195.84 263.524C195.84 263.524 187.384 296.844 184.448 319.469C181.923 338.876 184.538 379.147 185.33 390.224Z" fill="#1fcb63"/>
<mask id="mask6_662_306" style="mask-type:luminance" maskUnits="userSpaceOnUse" x="183" y="263" width="51" height="128">
<path d="M185.33 390.224H228.194C228.194 390.224 216.371 373.407 216.371 367.655C216.371 361.904 232.603 288.211 233.335 282.863C234.066 277.516 231.13 273.816 225.249 273.401C219.367 272.986 196.943 267.638 195.84 263.524C195.84 263.524 187.384 296.844 184.448 319.469C181.923 338.876 184.538 379.147 185.33 390.224Z" fill="white"/>
</mask>
<g mask="url(#mask6_662_306)">
<path opacity="0.16" d="M225.249 273.401C220.429 273.065 204.508 269.41 198.305 265.844L200.56 271.674C204.645 274.099 209.038 275.808 213.586 276.742C221.05 278.233 227.994 277.942 232.533 285.408L232.754 285.778C233.034 284.343 233.225 283.334 233.285 282.863C234.076 277.516 231.13 273.816 225.249 273.401Z" fill="black"/>
</g>
<path d="M185.33 390.224H228.194C228.194 390.224 216.371 373.407 216.371 367.655C216.371 361.904 232.603 288.211 233.335 282.863C234.066 277.516 231.13 273.816 225.249 273.401C219.367 272.986 196.943 267.638 195.84 263.524C195.84 263.524 187.384 296.844 184.448 319.469C181.923 338.876 184.538 379.147 185.33 390.224Z" stroke="#263238" stroke-linecap="round" stroke-linejoin="round"/>
<path d="M195.841 263.524C195.841 263.524 184.498 303.885 184.448 319.469C184.448 319.469 200.56 297.64 202.664 282.303C204.768 266.966 195.841 263.524 195.841 263.524Z" fill="#1fcb63"/>
<mask id="mask7_662_306" style="mask-type:luminance" maskUnits="userSpaceOnUse" x="184" y="263" width="19" height="57">
<path d="M195.841 263.524C195.841 263.524 184.498 303.885 184.448 319.469C184.448 319.469 200.56 297.64 202.664 282.303C204.768 266.966 195.841 263.524 195.841 263.524Z" fill="white"/>
</mask>
<g mask="url(#mask7_662_306)">
<path opacity="0.16" d="M193.887 268.681C195.591 268.617 197.284 269.019 198.818 269.851C200.353 270.683 201.683 271.921 202.694 273.457C202.694 273.457 200.47 266.136 195.841 263.524L193.887 268.681Z" fill="black"/>
</g>
<path d="M195.841 263.524C195.841 263.524 184.498 303.885 184.448 319.469C184.448 319.469 200.56 297.64 202.664 282.303C204.768 266.966 195.841 263.524 195.841 263.524Z" stroke="#263238" stroke-linecap="round" stroke-linejoin="round"/>
<path d="M316.93 382.634C316.93 382.634 325.237 383.015 330.677 383.889C334.306 384.44 337.959 384.765 341.619 384.865C341.619 384.865 338.613 378.071 335.407 376.153C332.201 374.236 326.389 370.806 321.519 371.568C316.65 372.33 309.686 377.824 310.267 379.573C310.848 381.322 313.443 382.107 316.93 382.634Z" fill="white"/>
<mask id="mask8_662_306" style="mask-type:luminance" maskUnits="userSpaceOnUse" x="310" y="371" width="32" height="14">
<path d="M316.93 382.634C316.93 382.634 325.237 383.015 330.677 383.889C334.306 384.44 337.959 384.765 341.619 384.865C341.619 384.865 338.613 378.071 335.407 376.153C332.201 374.236 326.389 370.806 321.519 371.568C316.65 372.33 309.686 377.824 310.267 379.573C310.848 381.322 313.443 382.107 316.93 382.634Z" fill="white"/>
</mask>
<g mask="url(#mask8_662_306)">
<path d="M316.93 382.634C316.93 382.634 325.237 383.015 330.677 383.889C334.306 384.44 337.959 384.765 341.619 384.865C341.619 384.865 338.613 378.071 335.407 376.153C332.201 374.236 326.389 370.806 321.519 371.568C316.65 372.33 309.686 377.824 310.267 379.573C310.848 381.322 313.443 382.107 316.93 382.634Z" fill="#1fcb63"/>
<path opacity="0.5" d="M316.93 382.634C316.93 382.634 325.237 383.015 330.677 383.889C334.306 384.44 337.959 384.765 341.619 384.865C341.619 384.865 338.613 378.071 335.407 376.153C332.201 374.236 326.389 370.806 321.519 371.568C316.65 372.33 309.686 377.824 310.267 379.573C310.848 381.322 313.443 382.107 316.93 382.634Z" fill="white"/>
</g>
<path d="M316.93 382.634C316.93 382.634 325.237 383.015 330.677 383.889C334.306 384.44 337.959 384.765 341.619 384.865C341.619 384.865 338.613 378.071 335.407 376.153C332.201 374.236 326.389 370.806 321.519 371.568C316.65 372.33 309.686 377.824 310.267 379.573C310.848 381.322 313.443 382.107 316.93 382.634Z" stroke="#263238" stroke-linecap="round" stroke-linejoin="round"/>
<path d="M330.728 379.853C330.728 379.853 337.311 376.03 338.954 376.086C340.597 376.142 351.519 384.405 350.978 385.728C350.61 386.341 350.08 386.81 349.461 387.068C348.843 387.325 348.167 387.359 347.531 387.163C346.318 386.524 338.964 383.026 338.964 383.026L334.154 384.293L330.728 379.853Z" fill="white"/>
<mask id="mask9_662_306" style="mask-type:luminance" maskUnits="userSpaceOnUse" x="330" y="376" width="21" height="12">
<path d="M330.728 379.853C330.728 379.853 337.311 376.03 338.954 376.086C340.597 376.142 351.519 384.405 350.978 385.728C350.61 386.341 350.08 386.81 349.461 387.068C348.843 387.325 348.167 387.359 347.531 387.163C346.318 386.524 338.964 383.026 338.964 383.026L334.154 384.293L330.728 379.853Z" fill="white"/>
</mask>
<g mask="url(#mask9_662_306)">
<path d="M330.728 379.853C330.728 379.853 337.311 376.03 338.954 376.086C340.597 376.142 351.519 384.405 350.978 385.728C350.437 387.051 347.851 388.127 347.531 387.163C347.21 386.199 338.964 383.026 338.964 383.026L334.154 384.293L330.728 379.853Z" fill="#1fcb63"/>
<path opacity="0.5" d="M330.728 379.853C330.728 379.853 337.311 376.03 338.954 376.086C340.597 376.142 351.519 384.405 350.978 385.728C350.437 387.051 347.851 388.127 347.531 387.163C347.21 386.199 338.964 383.026 338.964 383.026L334.154 384.293L330.728 379.853Z" fill="white"/>
</g>
<path d="M330.728 379.853C330.728 379.853 337.311 376.03 338.954 376.086C340.597 376.142 351.519 384.405 350.978 385.728C350.61 386.341 350.08 386.81 349.461 387.068C348.843 387.325 348.167 387.359 347.531 387.163C346.318 386.524 338.964 383.026 338.964 383.026L334.154 384.293L330.728 379.853Z" stroke="#263238" stroke-linecap="round" stroke-linejoin="round"/>
<path d="M326.028 373.564C326.028 373.564 334.806 373.25 336.549 374.236C338.293 375.223 346.168 390.336 344.986 391.434C343.804 392.533 340.537 392.208 340.637 390.986C340.737 389.764 333.383 381.669 333.383 381.669L327.662 380.268L326.028 373.564Z" fill="white"/>
<mask id="mask10_662_306" style="mask-type:luminance" maskUnits="userSpaceOnUse" x="326" y="373" width="20" height="20">
<path d="M326.028 373.564C326.028 373.564 334.806 373.25 336.549 374.236C338.293 375.223 346.168 390.336 344.986 391.434C343.804 392.533 340.537 392.208 340.637 390.986C340.737 389.764 333.383 381.669 333.383 381.669L327.662 380.268L326.028 373.564Z" fill="white"/>
</mask>
<g mask="url(#mask10_662_306)">
<path d="M326.028 373.564C326.028 373.564 334.806 373.25 336.549 374.236C338.293 375.223 346.168 390.336 344.986 391.434C343.804 392.533 340.537 392.208 340.637 390.986C340.737 389.764 333.383 381.669 333.383 381.669L327.662 380.268L326.028 373.564Z" fill="#1fcb63"/>
<path opacity="0.5" d="M326.028 373.564C326.028 373.564 334.806 373.25 336.549 374.236C338.293 375.223 346.168 390.336 344.986 391.434C343.804 392.533 340.537 392.208 340.637 390.986C340.737 389.764 333.383 381.669 333.383 381.669L327.662 380.268L326.028 373.564Z" fill="white"/>
</g>
<path d="M326.028 373.564C326.028 373.564 334.806 373.25 336.549 374.236C338.293 375.223 346.168 390.336 344.986 391.434C343.804 392.533 340.537 392.208 340.637 390.986C340.737 389.764 333.383 381.669 333.383 381.669L327.662 380.268L326.028 373.564Z" stroke="#263238" stroke-linecap="round" stroke-linejoin="round"/>
<path d="M320.828 371.534C320.828 371.534 329.716 371.209 331.479 372.218C333.243 373.227 341.218 388.508 340.016 389.629C338.814 390.751 335.527 390.403 335.627 389.17C335.728 387.937 328.283 379.741 328.283 379.741L322.491 378.317L320.828 371.534Z" fill="white"/>
<mask id="mask11_662_306" style="mask-type:luminance" maskUnits="userSpaceOnUse" x="320" y="371" width="21" height="20">
<path d="M320.828 371.534C320.828 371.534 329.716 371.209 331.479 372.218C333.243 373.227 341.218 388.508 340.016 389.629C338.814 390.751 335.527 390.403 335.627 389.17C335.728 387.937 328.283 379.741 328.283 379.741L322.491 378.317L320.828 371.534Z" fill="white"/>
</mask>
<g mask="url(#mask11_662_306)">
<path d="M320.828 371.534C320.828 371.534 329.716 371.209 331.479 372.218C333.243 373.227 341.218 388.508 340.016 389.629C338.814 390.751 335.527 390.403 335.627 389.17C335.728 387.937 328.283 379.741 328.283 379.741L322.491 378.317L320.828 371.534Z" fill="#1fcb63"/>
<path opacity="0.5" d="M320.828 371.534C320.828 371.534 329.716 371.209 331.479 372.218C333.243 373.227 341.218 388.508 340.016 389.629C338.814 390.751 335.527 390.403 335.627 389.17C335.728 387.937 328.283 379.741 328.283 379.741L322.491 378.317L320.828 371.534Z" fill="white"/>
</g>
<path d="M320.828 371.534C320.828 371.534 329.716 371.209 331.479 372.218C333.243 373.227 341.218 388.508 340.016 389.629C338.814 390.751 335.527 390.403 335.627 389.17C335.728 387.937 328.283 379.741 328.283 379.741L322.491 378.317L320.828 371.534Z" stroke="#263238" stroke-linecap="round" stroke-linejoin="round"/>
<path d="M219.778 314.558C226.211 325.646 239.126 353.742 242.894 356.903C248.775 361.836 288.093 373.81 291.881 377.084C295.668 380.358 295.408 383.643 298.995 384.842C302.582 386.042 316.028 389.484 321.159 390.022C326.289 390.56 323.994 387.006 323.994 387.006L315.247 380.279L322.872 378.171C322.872 378.171 330.517 388.463 331.95 389.024C333.383 389.585 335.908 389.024 335.747 387.757C335.467 385.728 327.311 369.124 324.415 368.417C321.519 367.711 303.945 370.436 303.945 370.436C303.945 370.436 267.082 342.62 266.42 341.633C266.42 341.633 264.216 334.638 262.412 331.756C260.609 328.875 259.466 329.705 259.466 329.705C259.466 329.705 260.208 325.994 259.106 324.76L253.224 318.179L253.014 318.493C252.012 316.251 251.01 313.695 249.908 310.78C246.831 302.674 235.94 279.926 234.106 276.641C232.734 274.186 221.231 272.426 215.399 271.686" fill="#1fcb63"/>
<mask id="mask12_662_306" style="mask-type:luminance" maskUnits="userSpaceOnUse" x="215" y="271" width="121" height="120">
<path d="M219.778 314.558C226.211 325.646 239.126 353.742 242.894 356.903C248.775 361.836 288.093 373.81 291.881 377.084C295.668 380.358 295.408 383.643 298.995 384.842C302.582 386.042 316.028 389.484 321.159 390.022C326.289 390.56 323.994 387.006 323.994 387.006L315.247 380.279L322.872 378.171C322.872 378.171 330.517 388.463 331.95 389.024C333.383 389.585 335.908 389.024 335.747 387.757C335.467 385.728 327.311 369.124 324.415 368.417C321.519 367.711 303.945 370.436 303.945 370.436C303.945 370.436 267.082 342.62 266.42 341.633C266.42 341.633 264.216 334.638 262.412 331.756C260.609 328.875 259.466 329.705 259.466 329.705C259.466 329.705 260.208 325.994 259.106 324.76L253.224 318.179L253.014 318.493C252.012 316.251 251.01 313.695 249.908 310.78C246.831 302.674 235.94 279.926 234.106 276.641C232.734 274.186 221.231 272.426 215.399 271.686" fill="white"/>
</mask>
<g mask="url(#mask12_662_306)">
<path opacity="0.16" d="M245.389 315.264C250.198 320.04 248.595 320.04 247.523 324.233C246.451 328.427 248.324 322.742 252.863 323.045C257.402 323.348 256.07 329.906 255.529 331.106C254.988 332.306 261.14 333.797 260.068 336.476C258.996 339.156 252.863 343.046 249.397 346.937C245.93 350.827 258.464 340.658 262.733 340.367C264.036 340.266 265.108 340.456 266.009 340.434C265.063 337.434 263.848 334.549 262.382 331.824C260.539 328.942 259.436 329.772 259.436 329.772C259.436 329.772 260.178 326.061 259.076 324.828L253.194 318.247L252.984 318.56C251.982 316.318 250.98 313.762 249.877 310.847C246.801 302.741 235.91 279.993 234.076 276.708C232.703 274.253 221.201 272.493 215.369 271.753L215.9 276.944L216.03 277.056C216.03 277.056 223.235 278.547 225.639 278.85C228.044 279.152 230.98 281.529 230.71 283.334C230.439 285.139 223.505 293.189 225.639 293.794C227.774 294.4 230.178 287.819 232.583 288.716C234.988 289.613 240.549 310.488 245.389 315.264Z" fill="black"/>
</g>
<path d="M219.778 314.558C226.211 325.646 239.126 353.742 242.894 356.903C248.775 361.836 288.093 373.81 291.881 377.084C295.668 380.358 295.408 383.643 298.995 384.842C302.582 386.042 316.028 389.484 321.159 390.022C326.289 390.56 323.994 387.006 323.994 387.006L315.247 380.279L322.872 378.171C322.872 378.171 330.517 388.463 331.95 389.024C333.383 389.585 335.908 389.024 335.747 387.757C335.467 385.728 327.311 369.124 324.415 368.417C321.519 367.711 303.945 370.436 303.945 370.436C303.945 370.436 267.082 342.62 266.42 341.633C266.42 341.633 264.216 334.638 262.412 331.756C260.609 328.875 259.466 329.705 259.466 329.705C259.466 329.705 260.208 325.994 259.106 324.76L253.224 318.179L253.014 318.493C252.012 316.251 251.01 313.695 249.908 310.78C246.831 302.674 235.94 279.926 234.106 276.641C232.734 274.186 221.231 272.426 215.399 271.686" stroke="#263238" stroke-linecap="round" stroke-linejoin="round"/>
<path d="M219.878 299.344C219.608 300.353 219.377 301.362 219.197 302.394" stroke="#263238" stroke-linecap="round" stroke-linejoin="round"/>
<path d="M229.617 280.789C226.469 284.805 223.813 289.273 221.722 294.075" stroke="#263238" stroke-linecap="round" stroke-linejoin="round"/>
<path d="M244.337 344.448C247.042 339.963 251.351 334.279 256.1 332.653" stroke="#263238" stroke-linecap="round" stroke-linejoin="round"/>
<path d="M241.341 349.964C241.341 349.964 241.822 348.91 242.683 347.318" stroke="#263238" stroke-linecap="round" stroke-linejoin="round"/>
<path d="M241.341 342.878C241.341 342.878 246.261 329.11 251.18 325.568C256.1 322.025 253.284 329.11 253.284 329.11" stroke="#263238" stroke-linecap="round" stroke-linejoin="round"/>
<path d="M291.881 377.095C295.678 380.38 295.408 383.654 298.995 384.853C302.582 386.053 316.028 389.495 321.159 390.033C326.289 390.571 323.994 387.017 323.994 387.017L315.247 380.29L322.872 378.183C322.872 378.183 330.517 388.475 331.95 389.035C333.383 389.596 336.108 389.798 335.748 387.768C335.046 383.844 327.311 369.135 324.415 368.429C321.519 367.722 303.945 370.447 303.945 370.447C303.945 370.447 270.368 344.661 266.691 341.869C252.433 343.405 245.649 351.757 242.793 356.769L242.894 356.859C248.775 361.836 288.093 373.81 291.881 377.095Z" fill="white"/>
<mask id="mask13_662_306" style="mask-type:luminance" maskUnits="userSpaceOnUse" x="242" y="341" width="94" height="50">
<path d="M291.881 377.095C295.678 380.38 295.408 383.654 298.995 384.853C302.582 386.053 316.028 389.495 321.159 390.033C326.289 390.571 323.994 387.017 323.994 387.017L315.247 380.29L322.872 378.183C322.872 378.183 330.517 388.475 331.95 389.035C333.383 389.596 336.108 389.798 335.748 387.768C335.046 383.844 327.311 369.135 324.415 368.429C321.519 367.722 303.945 370.447 303.945 370.447C303.945 370.447 270.368 344.661 266.691 341.869C252.433 343.405 245.649 351.757 242.793 356.769L242.894 356.859C248.775 361.836 288.093 373.81 291.881 377.095Z" fill="white"/>
</mask>
<g mask="url(#mask13_662_306)">
<path d="M335.738 387.813C333.914 382.824 327.301 369.18 324.405 368.474C321.509 367.767 303.935 370.492 303.935 370.492C303.935 370.492 270.358 344.705 266.681 341.914C262.938 342.278 259.267 343.272 255.789 344.862C261.09 348.226 296.42 370.649 300.879 371.646C305.608 372.768 321.389 369.864 324.165 371.949C325.928 373.272 331.179 382.589 334.726 389.203C335.738 389.035 336.108 388.822 335.738 387.813Z" fill="#1fcb63"/>
<path opacity="0.5" d="M335.738 387.813C332.892 380.672 327.301 369.18 324.405 368.474C321.509 367.767 303.935 370.492 303.935 370.492C303.935 370.492 270.358 344.705 266.681 341.914C262.938 342.278 259.267 343.272 255.789 344.862C261.09 348.226 296.42 370.649 300.879 371.646C305.608 372.768 321.389 369.864 324.165 371.949C325.928 373.272 331.179 382.589 334.726 389.203C335.738 389.035 336.138 388.811 335.738 387.813Z" fill="white"/>
</g>
<path d="M291.881 377.095C295.678 380.38 295.408 383.654 298.995 384.853C302.582 386.053 316.028 389.495 321.159 390.033C326.289 390.571 323.994 387.017 323.994 387.017L315.247 380.29L322.872 378.183C322.872 378.183 330.517 388.475 331.95 389.035C333.383 389.596 336.108 389.798 335.748 387.768C335.046 383.844 327.311 369.135 324.415 368.429C321.519 367.722 303.945 370.447 303.945 370.447C303.945 370.447 270.368 344.661 266.691 341.869C252.433 343.405 245.649 351.757 242.793 356.769L242.894 356.859C248.775 361.836 288.093 373.81 291.881 377.095Z" stroke="#263238" stroke-linecap="round" stroke-linejoin="round"/>
<path d="M203.325 181.322L173.146 195.415C172.78 201.349 171.467 207.163 169.268 212.579C165.701 221.021 167.785 236.998 171.212 245.619C174.639 254.241 189.739 250.866 195.259 249.79C199.004 248.993 202.671 247.795 206.211 246.213C207.823 246.908 209.566 247.133 211.277 246.866C212.988 246.6 214.61 245.85 215.99 244.689C215.99 244.689 199.839 193.957 203.325 181.322Z" fill="white"/>
<mask id="mask14_662_306" style="mask-type:luminance" maskUnits="userSpaceOnUse" x="167" y="181" width="49" height="71">
<path d="M203.325 181.322L173.146 195.415C172.78 201.349 171.467 207.163 169.268 212.579C165.701 221.021 167.785 236.998 171.212 245.619C174.639 254.241 189.739 250.866 195.259 249.79C199.004 248.993 202.671 247.795 206.211 246.213C207.823 246.908 209.566 247.133 211.277 246.866C212.988 246.6 214.61 245.85 215.99 244.689C215.99 244.689 199.839 193.957 203.325 181.322Z" fill="white"/>
</mask>
<g mask="url(#mask14_662_306)">
<path d="M203.325 181.322L173.146 195.415C172.78 201.349 171.467 207.163 169.268 212.579C165.701 221.021 167.785 236.998 171.212 245.619C171.785 247.006 172.708 248.174 173.867 248.983V248.332C173.867 248.332 168.266 232.805 169.328 223.847C170.39 214.889 174.939 210.393 175.47 204.731C176.001 199.069 175.731 196.379 185.881 192.197C196.031 188.015 200.289 184.136 201.352 188.307C202.414 192.477 206.692 219.967 209.628 226.537C212.564 233.107 212.293 239.991 207.764 242.962C203.187 246.037 198.282 248.455 193.165 250.16L195.3 249.745C199.044 248.948 202.711 247.75 206.251 246.169C207.863 246.864 209.606 247.088 211.317 246.822C213.028 246.555 214.65 245.805 216.031 244.644C216.031 244.644 199.839 193.957 203.325 181.322Z" fill="#1fcb63"/>
<path opacity="0.5" d="M203.325 181.322L173.146 195.415C172.78 201.349 171.467 207.163 169.268 212.579C165.701 221.021 167.785 236.998 171.212 245.619C171.785 247.006 172.708 248.174 173.867 248.983V248.332C173.867 248.332 168.266 232.805 169.328 223.847C170.39 214.889 174.939 210.393 175.47 204.731C176.001 199.069 175.731 196.379 185.881 192.197C196.031 188.015 200.289 184.136 201.352 188.307C202.414 192.477 206.692 219.967 209.628 226.537C212.564 233.107 212.293 239.991 207.764 242.962C203.187 246.037 198.282 248.455 193.165 250.16L195.3 249.745C199.044 248.948 202.711 247.75 206.251 246.169C207.863 246.864 209.606 247.088 211.317 246.822C213.028 246.555 214.65 245.805 216.031 244.644C216.031 244.644 199.839 193.957 203.325 181.322Z" fill="white"/>
</g>
<path d="M203.325 181.322L173.146 195.415C172.78 201.349 171.467 207.163 169.268 212.579C165.701 221.021 167.785 236.998 171.212 245.619C174.639 254.241 189.739 250.866 195.259 249.79C199.004 248.993 202.671 247.795 206.211 246.213C207.823 246.908 209.566 247.133 211.277 246.866C212.988 246.6 214.61 245.85 215.99 244.689C215.99 244.689 199.839 193.957 203.325 181.322Z" stroke="#263238" stroke-linecap="round" stroke-linejoin="round"/>
<path d="M188.075 203.419C188.157 205.405 187.937 207.391 187.424 209.294C186.622 211.537 179.057 220.349 179.288 221.302C179.518 222.255 180.2 225.315 181.542 225.607" stroke="#263238" stroke-linecap="round" stroke-linejoin="round"/>
<path d="M196.462 211.301C197.514 208.947 200.971 211.245 200.921 216.548" stroke="#263238" stroke-linecap="round" stroke-linejoin="round"/>
<path d="M179.328 204.372C179.328 204.372 182.274 202.926 184.909 208.263" stroke="#263238" stroke-linecap="round" stroke-linejoin="round"/>
<path d="M192.273 219.071C195.677 219.262 198.914 220.781 201.422 223.365" stroke="#263238" stroke-width="0.5" stroke-linecap="round" stroke-linejoin="round"/>
<path d="M175.771 212.063C177.531 212.326 179.25 212.858 180.881 213.644" stroke="#263238" stroke-width="0.5" stroke-linecap="round" stroke-linejoin="round"/>
<path d="M187.745 198.442C186.967 197.981 186.104 197.73 185.224 197.706C184.344 197.683 183.471 197.889 182.675 198.307C179.979 199.753 178.326 201.345 178.506 199.495C178.687 197.646 181.853 195.605 182.805 195.336C183.757 195.067 188.015 194.327 187.745 198.442Z" fill="#263238"/>
<path d="M195.3 194.26C198.108 196.803 200.34 200.053 201.812 203.745C203.816 209.35 205.4 203.229 203.816 199.563C202.233 195.897 197.654 191.995 195.3 194.26Z" fill="#263238"/>
<path d="M216.431 254.274C216.431 256.887 215.109 259.006 213.485 259.006C211.862 259.006 210.55 256.887 210.55 254.274C210.55 251.662 211.862 245.014 213.485 245.014C215.109 245.014 216.431 251.662 216.431 254.274Z" fill="#1fcb63" stroke="#263238" stroke-linecap="round" stroke-linejoin="round"/>
<path d="M196.722 210.281C196.607 210.623 196.517 210.976 196.452 211.335C196.161 212.994 195.871 216.458 196.452 216.604C197.033 216.75 198.456 213.51 198.706 211.85C198.763 211.525 198.796 211.195 198.806 210.864C198.123 210.624 197.427 210.429 196.722 210.281Z" fill="#263238"/>
<path d="M179.628 204.047C179.539 204.34 179.469 204.64 179.418 204.944C179.117 206.604 179.127 210.247 179.759 210.382C180.39 210.516 181.422 207.108 181.713 205.449C181.785 205.046 181.825 204.637 181.833 204.227C181.116 204.006 180.367 203.945 179.628 204.047Z" fill="#263238"/>
<path d="M196.462 211.357L197.464 209.272C199.052 209.618 200.492 210.55 201.552 211.918" stroke="#263238" stroke-width="0.75" stroke-linecap="round" stroke-linejoin="round"/>
<path d="M179.628 204.047L180.63 202.736C180.63 202.736 181.061 202.5 183.426 203.7" stroke="#263238" stroke-width="0.75" stroke-linecap="round" stroke-linejoin="round"/>
<path d="M175.831 234.453C175.831 234.453 177.514 230.988 179.769 230.988C182.023 230.988 183.707 236.65 183.707 236.65" stroke="#263238" stroke-linecap="round" stroke-linejoin="round"/>
<path d="M103.277 383.856C101.098 383.734 98.9584 383.164 96.9647 382.174C96.6867 382.059 96.4325 381.882 96.2176 381.653C96.0028 381.425 95.8317 381.15 95.7148 380.845C95.598 380.54 95.5378 380.212 95.5379 379.881C95.538 379.549 95.5985 379.221 95.7156 378.916C95.8327 378.611 96.0039 378.337 96.219 378.108C96.434 377.88 96.6883 377.703 96.9664 377.588C97.2445 377.474 97.5405 377.423 97.8365 377.441C98.1325 377.458 98.4222 377.543 98.6881 377.689C100.692 378.642 103.287 379.237 103.979 378.9C105.251 377.308 107.205 367.689 104.68 363.047C104.109 362.016 103.578 361.825 103.227 361.78C101.794 361.556 99.67 363.204 98.9185 364.023C98.7093 364.244 98.4633 364.416 98.1945 364.531C97.9256 364.645 97.6393 364.699 97.3518 364.69C97.0643 364.68 96.7813 364.608 96.5188 364.476C96.2564 364.344 96.0198 364.156 95.8224 363.922C95.625 363.688 95.4708 363.412 95.3685 363.112C95.2662 362.811 95.2179 362.49 95.2263 362.169C95.2346 361.847 95.2996 361.53 95.4173 361.237C95.5351 360.943 95.7034 360.678 95.9126 360.457C96.3034 360.031 99.9205 356.388 103.778 356.971C104.735 357.127 105.647 357.528 106.443 358.142C107.238 358.757 107.897 359.568 108.367 360.514C112.085 367.296 109.54 380.201 106.684 382.757C105.692 383.542 104.491 383.93 103.277 383.856Z" fill="white"/>
<mask id="mask15_662_306" style="mask-type:luminance" maskUnits="userSpaceOnUse" x="95" y="356" width="16" height="28">
<path d="M103.277 383.856C101.098 383.734 98.9584 383.164 96.9647 382.174C96.6867 382.059 96.4325 381.882 96.2176 381.653C96.0028 381.425 95.8317 381.15 95.7148 380.845C95.598 380.54 95.5378 380.212 95.5379 379.881C95.538 379.549 95.5985 379.221 95.7156 378.916C95.8327 378.611 96.0039 378.337 96.219 378.108C96.434 377.88 96.6883 377.703 96.9664 377.588C97.2445 377.474 97.5405 377.423 97.8365 377.441C98.1325 377.458 98.4222 377.543 98.6881 377.689C100.692 378.642 103.287 379.237 103.979 378.9C105.251 377.308 107.205 367.689 104.68 363.047C104.109 362.016 103.578 361.825 103.227 361.78C101.794 361.556 99.67 363.204 98.9185 364.023C98.7093 364.244 98.4633 364.416 98.1945 364.531C97.9256 364.645 97.6393 364.699 97.3518 364.69C97.0643 364.68 96.7813 364.608 96.5188 364.476C96.2564 364.344 96.0198 364.156 95.8224 363.922C95.625 363.688 95.4708 363.412 95.3685 363.112C95.2662 362.811 95.2179 362.49 95.2263 362.169C95.2346 361.847 95.2996 361.53 95.4173 361.237C95.5351 360.943 95.7034 360.678 95.9126 360.457C96.3034 360.031 99.9205 356.388 103.778 356.971C104.735 357.127 105.647 357.528 106.443 358.142C107.238 358.757 107.897 359.568 108.367 360.514C112.085 367.296 109.54 380.201 106.684 382.757C105.692 383.542 104.491 383.93 103.277 383.856Z" fill="white"/>
</mask>
<g mask="url(#mask15_662_306)">
<path d="M106.213 362.307C105.95 361.611 105.539 360.997 105.015 360.52C104.491 360.043 103.87 359.718 103.207 359.572C100.702 359.123 98.3475 361.937 98.087 362.251C97.8475 362.574 97.6995 362.969 97.662 363.387C97.6245 363.804 97.6992 364.225 97.8766 364.594C98.2707 364.506 98.635 364.296 98.9286 363.989C99.6801 363.204 101.804 361.556 103.237 361.747C103.588 361.747 104.119 361.982 104.69 363.014C107.215 367.61 105.261 377.275 103.989 378.867C103.297 379.203 100.712 378.609 98.6982 377.656C98.4503 377.539 98.1854 377.475 97.9166 377.465C97.9349 377.772 98.0215 378.07 98.1684 378.33C98.3154 378.591 98.5182 378.806 98.7583 378.956C100.025 379.713 101.423 380.157 102.856 380.257C103.674 380.301 104.476 379.987 105.091 379.382C106.975 377.443 108.638 367.521 106.213 362.307Z" fill="#1fcb63"/>
<path opacity="0.5" d="M106.213 362.307C105.95 361.611 105.539 360.997 105.015 360.52C104.491 360.043 103.87 359.718 103.207 359.572C100.702 359.123 98.3475 361.937 98.087 362.251C97.8475 362.574 97.6995 362.969 97.662 363.387C97.6245 363.804 97.6992 364.225 97.8766 364.594C98.2707 364.506 98.635 364.296 98.9286 363.989C99.6801 363.204 101.804 361.556 103.237 361.747C103.588 361.747 104.119 361.982 104.69 363.014C107.215 367.61 105.261 377.275 103.989 378.867C103.297 379.203 100.712 378.609 98.6982 377.656C98.4503 377.539 98.1854 377.475 97.9166 377.465C97.9349 377.772 98.0215 378.07 98.1684 378.33C98.3154 378.591 98.5182 378.806 98.7583 378.956C100.025 379.713 101.423 380.157 102.856 380.257C103.674 380.301 104.476 379.987 105.091 379.382C106.975 377.443 108.638 367.521 106.213 362.307Z" fill="white"/>
</g>
<path d="M103.277 383.856C101.098 383.734 98.9584 383.164 96.9647 382.174C96.6867 382.059 96.4325 381.882 96.2176 381.653C96.0028 381.425 95.8317 381.15 95.7148 380.845C95.598 380.54 95.5378 380.212 95.5379 379.881C95.538 379.549 95.5985 379.221 95.7156 378.916C95.8327 378.611 96.0039 378.337 96.219 378.108C96.434 377.88 96.6883 377.703 96.9664 377.588C97.2445 377.474 97.5405 377.423 97.8365 377.441C98.1325 377.458 98.4222 377.543 98.6881 377.689C100.692 378.642 103.287 379.237 103.979 378.9C105.251 377.308 107.205 367.689 104.68 363.047C104.109 362.016 103.578 361.825 103.227 361.78C101.794 361.556 99.67 363.204 98.9185 364.023C98.7093 364.244 98.4633 364.416 98.1945 364.531C97.9256 364.645 97.6393 364.699 97.3518 364.69C97.0643 364.68 96.7813 364.608 96.5188 364.476C96.2564 364.344 96.0198 364.156 95.8224 363.922C95.625 363.688 95.4708 363.412 95.3685 363.112C95.2662 362.811 95.2179 362.49 95.2263 362.169C95.2346 361.847 95.2996 361.53 95.4173 361.237C95.5351 360.943 95.7034 360.678 95.9126 360.457C96.3034 360.031 99.9205 356.388 103.778 356.971C104.735 357.127 105.647 357.528 106.443 358.142C107.238 358.757 107.897 359.568 108.367 360.514C112.085 367.296 109.54 380.201 106.684 382.757C105.692 383.542 104.491 383.93 103.277 383.856Z" stroke="#263238" stroke-linecap="round" stroke-linejoin="round"/>
<path d="M99.4498 354.93H75.3521V390.717H99.4498V354.93Z" fill="white"/>
<mask id="mask16_662_306" style="mask-type:luminance" maskUnits="userSpaceOnUse" x="75" y="354" width="25" height="37">
<path d="M99.4498 354.93H75.3521V390.717H99.4498V354.93Z" fill="white"/>
</mask>
<g mask="url(#mask16_662_306)">
<path d="M85.2216 354.93H75.3521V390.717H85.2216V354.93Z" fill="#1fcb63"/>
<path opacity="0.5" d="M85.2216 354.93H75.3521V390.717H85.2216V354.93Z" fill="white"/>
</g>
<path d="M99.4498 354.93H75.3521V390.717H99.4498V354.93Z" stroke="#263238" stroke-linecap="round" stroke-linejoin="round"/>
<path d="M231.872 390.224H128.928L125.571 326.902C125.479 326.288 125.506 325.659 125.652 325.058C125.797 324.457 126.058 323.898 126.415 323.421C126.772 322.943 127.217 322.558 127.721 322.292C128.224 322.026 128.772 321.885 129.329 321.879H231.431C231.991 321.878 232.544 322.015 233.052 322.278C233.56 322.541 234.011 322.925 234.372 323.404C234.734 323.882 234.998 324.443 235.146 325.047C235.294 325.651 235.322 326.284 235.229 326.902L231.872 390.224Z" fill="#263238" stroke="#263238" stroke-linecap="round" stroke-linejoin="round"/>
<path d="M133.998 323.393H230.69C231.236 323.386 231.777 323.514 232.274 323.766C232.772 324.018 233.214 324.389 233.57 324.852C233.926 325.316 234.187 325.861 234.335 326.449C234.483 327.038 234.515 327.655 234.427 328.258" stroke="white" stroke-linecap="round" stroke-linejoin="round"/>
<path d="M126.323 327.261C126.404 326.201 126.838 325.214 127.54 324.497C128.242 323.78 129.16 323.386 130.11 323.393" stroke="white" stroke-linecap="round" stroke-linejoin="round"/>
<path d="M232.303 384.057H128.497V390.224H232.303V384.057Z" fill="white" stroke="#263238" stroke-linecap="round" stroke-linejoin="round"/>
<path d="M180.029 361.231C184.091 361.231 187.384 359.022 187.384 356.298C187.384 353.574 184.091 351.365 180.029 351.365C175.968 351.365 172.675 353.574 172.675 356.298C172.675 359.022 175.968 361.231 180.029 361.231Z" fill="white" stroke="#263238" stroke-linecap="round" stroke-linejoin="round"/>
<path d="M388.873 389.495H2.24731V400H388.873V389.495Z" fill="#263238"/>
<path d="M288.624 0H102.626C96.3561 0 91.2734 5.68711 91.2734 12.7025V132.115C91.2734 139.13 96.3561 144.818 102.626 144.818H288.624C294.894 144.818 299.977 139.13 299.977 132.115V12.7025C299.977 5.68711 294.894 0 288.624 0Z" fill="#1fcb63"/>
<path d="M200.533 83.2223C217.405 80.1884 228.884 62.425 226.173 43.5467C223.461 24.6684 207.586 11.8241 190.714 14.858C173.842 17.892 162.363 35.6553 165.074 54.5336C167.786 73.4119 183.661 86.2563 200.533 83.2223Z" fill="#263238"/>
<path d="M195.39 55.4403L185.079 70.2506C184.729 70.8671 184.247 71.3764 183.677 71.7326C183.106 72.0888 182.466 72.2807 181.813 72.291C180.917 72.3047 180.053 71.9219 179.408 71.226C179.08 70.8896 178.821 70.4781 178.648 70.0196C178.475 69.5611 178.393 69.0663 178.406 68.5689C178.439 67.4549 178.79 66.3819 179.408 65.5081L191.161 49.2404L180.14 32.9615C179.627 32.1975 179.347 31.2706 179.338 30.3156C179.335 29.7461 179.438 29.1821 179.64 28.6592C179.842 28.1363 180.138 27.6658 180.51 27.2773C180.86 26.8689 181.28 26.5441 181.745 26.3224C182.21 26.1008 182.71 25.9871 183.216 25.988C183.863 25.9998 184.497 26.1926 185.061 26.549C185.624 26.9054 186.099 27.4141 186.442 28.0285L196.402 42.7042L206.422 28.2751C206.78 27.602 207.281 27.038 207.88 26.6332C208.48 26.2284 209.159 25.9952 209.858 25.9544C210.292 25.9532 210.722 26.0521 211.12 26.245C211.518 26.4379 211.877 26.7206 212.173 27.0755C212.489 27.4082 212.741 27.8094 212.913 28.2548C213.085 28.7001 213.174 29.1801 213.175 29.6653C213.164 30.5337 212.897 31.3736 212.414 32.0534L200.62 48.9377L212.013 65.7548C212.551 66.5065 212.851 67.4374 212.864 68.4007C212.868 68.9577 212.763 69.5089 212.557 70.0161C212.351 70.5232 212.049 70.9743 211.672 71.3381C210.937 72.1291 209.957 72.5711 208.937 72.5713C208.286 72.5623 207.648 72.3708 207.081 72.0143C206.514 71.6578 206.036 71.1477 205.69 70.5309L195.39 55.4403Z" fill="white"/>
<path d="M254.577 119.738H136.633C134.242 119.738 131.948 118.675 130.257 116.782C128.566 114.89 127.615 112.324 127.615 109.647C127.615 106.971 128.566 104.405 130.257 102.513C131.948 100.62 134.242 99.5572 136.633 99.5572H254.577C256.969 99.5572 259.262 100.62 260.953 102.513C262.645 104.405 263.595 106.971 263.595 109.647C263.595 112.324 262.645 114.89 260.953 116.782C259.262 118.675 256.969 119.738 254.577 119.738Z" fill="white"/>
<path d="M152.795 112.899C152.717 112.899 152.639 112.881 152.566 112.846C152.494 112.811 152.429 112.761 152.374 112.697C152.315 112.631 152.269 112.552 152.238 112.466C152.207 112.379 152.192 112.286 152.194 112.192C152.194 112.035 152.232 111.88 152.304 111.744L153.206 110.174H151.362C151.277 110.179 151.192 110.164 151.113 110.129C151.033 110.094 150.961 110.041 150.902 109.973C150.799 109.838 150.742 109.667 150.742 109.49C150.742 109.314 150.799 109.143 150.902 109.008C150.961 108.94 151.033 108.887 151.113 108.852C151.192 108.817 151.277 108.802 151.362 108.807L153.176 108.863L152.374 107.405C152.294 107.256 152.249 107.086 152.244 106.912C152.242 106.818 152.257 106.725 152.288 106.639C152.319 106.552 152.365 106.473 152.425 106.407C152.481 106.343 152.548 106.292 152.622 106.258C152.696 106.223 152.775 106.205 152.855 106.206C152.968 106.204 153.078 106.239 153.172 106.307C153.267 106.374 153.341 106.472 153.386 106.587L154.268 108.347L155.11 106.665C155.163 106.534 155.247 106.422 155.353 106.341C155.459 106.26 155.583 106.213 155.711 106.206C155.79 106.206 155.868 106.223 155.94 106.258C156.012 106.293 156.078 106.344 156.132 106.407C156.191 106.469 156.237 106.544 156.268 106.627C156.299 106.71 156.314 106.799 156.312 106.889C156.311 107.049 156.269 107.204 156.192 107.338L155.31 108.919L157.144 108.863C157.229 108.857 157.315 108.872 157.394 108.907C157.474 108.942 157.546 108.996 157.605 109.064C157.708 109.199 157.764 109.37 157.764 109.547C157.764 109.723 157.708 109.894 157.605 110.029C157.546 110.098 157.474 110.151 157.394 110.186C157.315 110.221 157.229 110.236 157.144 110.23H155.29L156.112 111.665C156.205 111.839 156.256 112.035 156.262 112.237C156.265 112.328 156.251 112.419 156.222 112.503C156.193 112.588 156.149 112.665 156.092 112.731C156.039 112.793 155.975 112.844 155.905 112.878C155.834 112.913 155.758 112.931 155.681 112.932C155.557 112.929 155.436 112.886 155.333 112.809C155.231 112.731 155.149 112.622 155.1 112.495L154.268 110.847L153.437 112.495C153.376 112.625 153.284 112.732 153.17 112.804C153.056 112.876 152.926 112.909 152.795 112.899Z" fill="black"/>
<path d="M161.994 112.899C161.915 112.899 161.837 112.881 161.765 112.846C161.692 112.811 161.627 112.761 161.573 112.697C161.513 112.631 161.467 112.552 161.436 112.466C161.405 112.379 161.39 112.286 161.392 112.192C161.392 112.035 161.43 111.88 161.503 111.744L162.404 110.174H160.561C160.475 110.179 160.39 110.164 160.311 110.129C160.231 110.094 160.159 110.041 160.1 109.973C159.997 109.838 159.94 109.667 159.94 109.49C159.94 109.314 159.997 109.143 160.1 109.008C160.159 108.94 160.231 108.887 160.311 108.852C160.39 108.817 160.475 108.802 160.561 108.807L162.374 108.863L161.523 107.349C161.442 107.2 161.397 107.03 161.392 106.856C161.39 106.762 161.405 106.669 161.436 106.583C161.467 106.496 161.513 106.417 161.573 106.351C161.629 106.287 161.696 106.236 161.77 106.202C161.844 106.167 161.923 106.149 162.004 106.149C162.116 106.148 162.226 106.183 162.32 106.251C162.415 106.318 162.489 106.416 162.535 106.531L163.416 108.291L164.258 106.609C164.311 106.478 164.395 106.366 164.501 106.285C164.607 106.204 164.731 106.157 164.859 106.149C164.938 106.149 165.016 106.167 165.088 106.202C165.16 106.237 165.226 106.287 165.28 106.351C165.339 106.413 165.385 106.488 165.416 106.571C165.447 106.654 165.462 106.743 165.46 106.833C165.459 106.993 165.417 107.148 165.34 107.282L164.458 108.863L166.292 108.807C166.377 108.801 166.463 108.816 166.542 108.851C166.622 108.886 166.694 108.939 166.753 109.008C166.856 109.143 166.913 109.314 166.913 109.49C166.913 109.667 166.856 109.838 166.753 109.973C166.694 110.041 166.622 110.095 166.542 110.13C166.463 110.165 166.377 110.18 166.292 110.174H164.438L165.26 111.609C165.353 111.783 165.404 111.979 165.41 112.181C165.413 112.272 165.4 112.363 165.37 112.447C165.341 112.532 165.297 112.609 165.24 112.674C165.187 112.737 165.124 112.788 165.053 112.822C164.982 112.857 164.906 112.875 164.829 112.876C164.705 112.874 164.584 112.832 164.481 112.754C164.377 112.677 164.297 112.567 164.248 112.439L163.416 110.791L162.585 112.439C162.535 112.571 162.454 112.684 162.349 112.765C162.244 112.846 162.121 112.893 161.994 112.899Z" fill="black"/>
<path d="M171.192 112.899C171.113 112.899 171.035 112.881 170.963 112.846C170.891 112.811 170.825 112.761 170.771 112.697C170.712 112.631 170.665 112.552 170.634 112.466C170.603 112.379 170.588 112.286 170.591 112.192C170.59 112.035 170.629 111.88 170.701 111.744L171.603 110.174H169.759C169.674 110.179 169.589 110.164 169.509 110.129C169.43 110.094 169.358 110.041 169.298 109.973C169.195 109.838 169.138 109.667 169.138 109.49C169.138 109.314 169.195 109.143 169.298 109.008C169.358 108.94 169.43 108.887 169.509 108.852C169.589 108.817 169.674 108.802 169.759 108.807L171.573 108.863L170.721 107.349C170.64 107.2 170.596 107.03 170.591 106.856C170.588 106.762 170.603 106.669 170.634 106.583C170.665 106.496 170.712 106.417 170.771 106.351C170.827 106.287 170.894 106.236 170.968 106.202C171.042 106.167 171.122 106.149 171.202 106.149C171.314 106.148 171.424 106.183 171.519 106.251C171.613 106.318 171.688 106.416 171.733 106.531L172.615 108.291L173.456 106.609C173.509 106.478 173.593 106.366 173.699 106.285C173.805 106.204 173.929 106.157 174.057 106.149C174.136 106.149 174.214 106.167 174.286 106.202C174.359 106.237 174.424 106.287 174.478 106.351C174.537 106.413 174.583 106.488 174.615 106.571C174.646 106.654 174.661 106.743 174.659 106.833C174.657 106.993 174.616 107.148 174.538 107.282L173.657 108.863L175.49 108.807C175.576 108.801 175.661 108.816 175.741 108.851C175.82 108.886 175.892 108.939 175.951 109.008C176.054 109.143 176.111 109.314 176.111 109.49C176.111 109.667 176.054 109.838 175.951 109.973C175.892 110.041 175.82 110.095 175.741 110.13C175.661 110.165 175.576 110.18 175.49 110.174H173.637L174.458 111.609C174.551 111.783 174.603 111.979 174.609 112.181C174.611 112.272 174.598 112.363 174.569 112.447C174.539 112.532 174.495 112.609 174.438 112.674C174.385 112.737 174.322 112.788 174.251 112.822C174.181 112.857 174.105 112.875 174.027 112.876C173.903 112.874 173.782 112.832 173.679 112.754C173.576 112.677 173.495 112.567 173.446 112.439L172.615 110.791L171.783 112.439C171.734 112.571 171.652 112.684 171.547 112.765C171.442 112.846 171.319 112.893 171.192 112.899Z" fill="black"/>
<path d="M180.43 112.899C180.351 112.899 180.273 112.881 180.201 112.846C180.129 112.811 180.064 112.761 180.009 112.697C179.95 112.631 179.903 112.552 179.872 112.466C179.841 112.379 179.827 112.286 179.829 112.192C179.829 112.035 179.867 111.88 179.939 111.744L180.841 110.174H178.997C178.912 110.179 178.827 110.164 178.747 110.129C178.668 110.094 178.596 110.041 178.536 109.973C178.433 109.838 178.377 109.667 178.377 109.49C178.377 109.314 178.433 109.143 178.536 109.008C178.596 108.94 178.668 108.887 178.747 108.852C178.827 108.817 178.912 108.802 178.997 108.807L180.811 108.863L179.959 107.349C179.879 107.2 179.834 107.03 179.829 106.856C179.827 106.762 179.841 106.669 179.872 106.583C179.903 106.496 179.95 106.417 180.009 106.351C180.065 106.287 180.132 106.236 180.206 106.202C180.28 106.167 180.36 106.149 180.44 106.149C180.552 106.148 180.662 106.183 180.757 106.251C180.851 106.318 180.926 106.416 180.971 106.531L181.853 108.291L182.695 106.609C182.748 106.478 182.832 106.366 182.938 106.285C183.044 106.204 183.168 106.157 183.296 106.149C183.374 106.149 183.452 106.167 183.525 106.202C183.597 106.237 183.662 106.287 183.717 106.351C183.775 106.413 183.822 106.488 183.853 106.571C183.884 106.654 183.899 106.743 183.897 106.833C183.896 106.993 183.854 107.148 183.777 107.282L182.895 108.863L184.729 108.807C184.814 108.801 184.899 108.816 184.979 108.851C185.058 108.886 185.13 108.939 185.19 109.008C185.292 109.143 185.349 109.314 185.349 109.49C185.349 109.667 185.292 109.838 185.19 109.973C185.13 110.041 185.058 110.095 184.979 110.13C184.899 110.165 184.814 110.18 184.729 110.174H182.875L183.697 111.609C183.789 111.783 183.841 111.979 183.847 112.181C183.85 112.272 183.836 112.363 183.807 112.447C183.778 112.532 183.733 112.609 183.677 112.674C183.624 112.737 183.56 112.788 183.49 112.822C183.419 112.857 183.343 112.875 183.266 112.876C183.142 112.873 183.021 112.83 182.918 112.752C182.815 112.675 182.734 112.566 182.685 112.439L181.853 110.791L181.021 112.439C180.972 112.571 180.89 112.684 180.785 112.765C180.681 112.846 180.557 112.893 180.43 112.899Z" fill="black"/>
<path d="M189.588 112.899C189.51 112.899 189.432 112.881 189.359 112.846C189.287 112.811 189.222 112.761 189.167 112.697C189.108 112.631 189.062 112.552 189.031 112.466C189 112.379 188.985 112.286 188.987 112.192C188.992 112.035 189.03 111.882 189.097 111.744L189.999 110.174H188.155C188.07 110.179 187.985 110.164 187.906 110.129C187.826 110.094 187.754 110.041 187.695 109.973C187.592 109.838 187.535 109.667 187.535 109.49C187.535 109.314 187.592 109.143 187.695 109.008C187.754 108.94 187.826 108.887 187.906 108.852C187.985 108.817 188.07 108.802 188.155 108.807L189.969 108.863L189.117 107.349C189.037 107.2 188.992 107.03 188.987 106.856C188.985 106.762 189 106.669 189.031 106.583C189.062 106.496 189.108 106.417 189.167 106.351C189.224 106.287 189.291 106.236 189.365 106.202C189.439 106.167 189.518 106.149 189.598 106.149C189.71 106.148 189.821 106.183 189.915 106.251C190.01 106.318 190.084 106.416 190.129 106.531L191.011 108.291L191.853 106.609C191.906 106.478 191.99 106.366 192.096 106.285C192.202 106.204 192.326 106.157 192.454 106.149C192.533 106.148 192.611 106.165 192.684 106.2C192.756 106.235 192.821 106.286 192.875 106.351C192.934 106.413 192.98 106.488 193.011 106.571C193.042 106.654 193.057 106.743 193.055 106.833C193.054 106.993 193.012 107.148 192.935 107.282L192.053 108.863L193.887 108.807C193.972 108.801 194.057 108.816 194.137 108.851C194.217 108.886 194.288 108.939 194.348 109.008C194.451 109.143 194.507 109.314 194.507 109.49C194.507 109.667 194.451 109.838 194.348 109.973C194.288 110.041 194.217 110.095 194.137 110.13C194.057 110.165 193.972 110.18 193.887 110.174H192.033L192.855 111.609C192.947 111.783 192.999 111.979 193.005 112.181C193.008 112.272 192.994 112.363 192.965 112.447C192.936 112.532 192.891 112.609 192.835 112.674C192.782 112.737 192.718 112.788 192.648 112.822C192.577 112.857 192.501 112.875 192.424 112.876C192.3 112.873 192.179 112.83 192.076 112.752C191.973 112.675 191.892 112.566 191.843 112.439L191.011 110.791L190.179 112.439C190.13 112.571 190.048 112.684 189.944 112.765C189.839 112.846 189.716 112.893 189.588 112.899Z" fill="black"/>
<path d="M198.787 112.899C198.708 112.899 198.63 112.881 198.558 112.846C198.485 112.811 198.42 112.761 198.366 112.697C198.306 112.631 198.26 112.552 198.229 112.466C198.198 112.379 198.183 112.286 198.185 112.192C198.19 112.035 198.228 111.882 198.296 111.744L199.197 110.174H197.364C197.277 110.18 197.19 110.165 197.109 110.13C197.028 110.095 196.954 110.042 196.893 109.973C196.79 109.838 196.733 109.667 196.733 109.49C196.733 109.314 196.79 109.143 196.893 109.008C196.954 108.939 197.028 108.885 197.109 108.851C197.19 108.816 197.277 108.801 197.364 108.807L199.167 108.863L198.316 107.349C198.235 107.2 198.19 107.03 198.185 106.856C198.183 106.762 198.198 106.669 198.229 106.583C198.26 106.496 198.306 106.417 198.366 106.351C198.422 106.287 198.489 106.236 198.563 106.202C198.637 106.167 198.716 106.149 198.797 106.149C198.909 106.148 199.019 106.183 199.113 106.251C199.208 106.318 199.282 106.416 199.328 106.531L200.209 108.291L201.051 106.609C201.104 106.478 201.188 106.366 201.294 106.285C201.4 106.204 201.524 106.157 201.652 106.149C201.731 106.148 201.809 106.165 201.882 106.2C201.954 106.235 202.02 106.286 202.073 106.351C202.132 106.413 202.178 106.488 202.209 106.571C202.24 106.654 202.255 106.743 202.253 106.833C202.252 106.993 202.21 107.148 202.133 107.282L201.251 108.863L203.085 108.807C203.17 108.801 203.256 108.816 203.335 108.851C203.415 108.886 203.487 108.939 203.546 109.008C203.649 109.143 203.706 109.314 203.706 109.49C203.706 109.667 203.649 109.838 203.546 109.973C203.487 110.041 203.415 110.095 203.335 110.13C203.256 110.165 203.17 110.18 203.085 110.174H201.231L202.053 111.609C202.146 111.783 202.197 111.979 202.203 112.181C202.206 112.272 202.193 112.363 202.163 112.447C202.134 112.532 202.09 112.609 202.033 112.674C201.98 112.737 201.917 112.788 201.846 112.822C201.775 112.857 201.699 112.875 201.622 112.876C201.498 112.873 201.378 112.83 201.275 112.752C201.172 112.675 201.091 112.566 201.041 112.439L200.209 110.791L199.378 112.439C199.328 112.571 199.247 112.684 199.142 112.765C199.037 112.846 198.914 112.893 198.787 112.899Z" fill="black"/>
<path d="M207.985 112.899C207.906 112.899 207.828 112.881 207.756 112.846C207.683 112.811 207.618 112.761 207.564 112.697C207.504 112.631 207.458 112.552 207.427 112.466C207.396 112.379 207.381 112.286 207.383 112.192C207.383 112.035 207.421 111.88 207.494 111.744L208.395 110.174H206.552C206.466 110.179 206.381 110.164 206.302 110.129C206.222 110.094 206.15 110.041 206.091 109.973C205.988 109.838 205.931 109.667 205.931 109.49C205.931 109.314 205.988 109.143 206.091 109.008C206.15 108.94 206.222 108.887 206.302 108.852C206.381 108.817 206.466 108.802 206.552 108.807L208.365 108.863L207.484 107.405C207.403 107.256 207.358 107.086 207.353 106.912C207.351 106.818 207.366 106.725 207.397 106.639C207.428 106.552 207.474 106.473 207.534 106.407C207.59 106.343 207.657 106.292 207.731 106.258C207.805 106.223 207.884 106.205 207.964 106.206C208.077 106.204 208.187 106.239 208.281 106.307C208.376 106.374 208.45 106.472 208.496 106.587L209.377 108.347L210.219 106.665C210.272 106.534 210.356 106.422 210.462 106.341C210.568 106.26 210.692 106.213 210.82 106.206C210.899 106.204 210.977 106.221 211.05 106.256C211.122 106.291 211.187 106.342 211.241 106.407C211.3 106.469 211.346 106.544 211.377 106.627C211.408 106.71 211.423 106.799 211.421 106.889C211.42 107.049 211.378 107.204 211.301 107.338L210.419 108.919L212.253 108.863C212.338 108.857 212.424 108.872 212.503 108.907C212.583 108.942 212.655 108.996 212.714 109.064C212.817 109.199 212.873 109.37 212.873 109.547C212.873 109.723 212.817 109.894 212.714 110.029C212.655 110.098 212.583 110.151 212.503 110.186C212.424 110.221 212.338 110.236 212.253 110.23H210.399L211.221 111.665C211.314 111.839 211.365 112.035 211.371 112.237C211.374 112.328 211.36 112.419 211.331 112.503C211.302 112.588 211.258 112.665 211.201 112.731C211.148 112.793 211.085 112.844 211.014 112.878C210.943 112.913 210.867 112.931 210.79 112.932C210.666 112.929 210.545 112.886 210.442 112.809C210.34 112.731 210.258 112.622 210.209 112.495L209.377 110.847L208.546 112.495C208.492 112.611 208.411 112.71 208.313 112.78C208.215 112.851 208.101 112.892 207.985 112.899Z" fill="black"/>
<path d="M217.183 112.899C217.104 112.899 217.026 112.881 216.954 112.846C216.882 112.811 216.816 112.761 216.762 112.697C216.703 112.631 216.656 112.552 216.625 112.466C216.594 112.379 216.579 112.286 216.582 112.192C216.586 112.035 216.624 111.882 216.692 111.744L217.594 110.174H215.76C215.675 110.182 215.589 110.167 215.509 110.132C215.429 110.097 215.357 110.043 215.299 109.973C215.19 109.842 215.129 109.669 215.129 109.49C215.129 109.311 215.19 109.139 215.299 109.008C215.357 108.938 215.429 108.884 215.509 108.849C215.589 108.814 215.675 108.799 215.76 108.807L217.564 108.863L216.712 107.349C216.631 107.2 216.587 107.03 216.582 106.856C216.579 106.764 216.593 106.673 216.622 106.587C216.652 106.502 216.696 106.424 216.753 106.358C216.81 106.292 216.879 106.239 216.954 106.204C217.03 106.168 217.111 106.149 217.193 106.149C217.305 106.148 217.415 106.183 217.51 106.251C217.604 106.318 217.679 106.416 217.724 106.531L218.606 108.291L219.447 106.609C219.5 106.478 219.584 106.366 219.69 106.285C219.796 106.204 219.92 106.157 220.048 106.149C220.128 106.147 220.206 106.163 220.279 106.198C220.352 106.233 220.417 106.285 220.469 106.351C220.528 106.413 220.574 106.488 220.606 106.571C220.637 106.654 220.652 106.743 220.65 106.833C220.648 106.993 220.607 107.148 220.529 107.282L219.648 108.863L221.481 108.807C221.567 108.801 221.652 108.816 221.732 108.851C221.811 108.886 221.883 108.939 221.942 109.008C222.045 109.143 222.102 109.314 222.102 109.49C222.102 109.667 222.045 109.838 221.942 109.973C221.883 110.041 221.811 110.095 221.732 110.13C221.652 110.165 221.567 110.18 221.481 110.174H219.628L220.449 111.609C220.542 111.783 220.594 111.979 220.6 112.181C220.602 112.27 220.589 112.358 220.562 112.44C220.534 112.523 220.492 112.599 220.438 112.664C220.384 112.728 220.319 112.78 220.247 112.817C220.175 112.853 220.097 112.873 220.018 112.876C219.894 112.873 219.774 112.83 219.671 112.753C219.568 112.675 219.487 112.566 219.437 112.439L218.606 110.791L217.774 112.439C217.725 112.571 217.643 112.684 217.538 112.765C217.433 112.846 217.31 112.893 217.183 112.899Z" fill="black"/>
<path d="M226.381 112.899C226.302 112.899 226.224 112.881 226.152 112.846C226.08 112.811 226.014 112.761 225.96 112.697C225.901 112.631 225.854 112.552 225.823 112.466C225.792 112.379 225.778 112.286 225.78 112.192C225.785 112.035 225.822 111.882 225.89 111.744L226.792 110.174H224.948C224.864 110.18 224.781 110.165 224.703 110.13C224.625 110.095 224.555 110.041 224.497 109.973C224.388 109.842 224.327 109.669 224.327 109.49C224.327 109.311 224.388 109.139 224.497 109.008C224.555 108.94 224.625 108.886 224.703 108.851C224.781 108.816 224.864 108.801 224.948 108.807L226.762 108.863L225.91 107.349C225.83 107.2 225.785 107.03 225.78 106.856C225.777 106.764 225.791 106.673 225.82 106.587C225.85 106.502 225.895 106.424 225.952 106.358C226.009 106.292 226.077 106.239 226.152 106.204C226.228 106.168 226.309 106.149 226.391 106.149C226.503 106.148 226.613 106.183 226.708 106.251C226.802 106.318 226.877 106.416 226.922 106.531L227.804 108.291L228.646 106.609C228.699 106.478 228.783 106.366 228.889 106.285C228.995 106.204 229.118 106.157 229.247 106.149C229.326 106.147 229.404 106.163 229.477 106.198C229.55 106.233 229.615 106.285 229.668 106.351C229.726 106.413 229.773 106.488 229.804 106.571C229.835 106.654 229.85 106.743 229.848 106.833C229.847 106.993 229.805 107.148 229.728 107.282L228.846 108.863L230.68 108.807C230.765 108.801 230.85 108.816 230.93 108.851C231.009 108.886 231.081 108.939 231.14 109.008C231.243 109.143 231.3 109.314 231.3 109.49C231.3 109.667 231.243 109.838 231.14 109.973C231.081 110.041 231.009 110.095 230.93 110.13C230.85 110.165 230.765 110.18 230.68 110.174H228.826L229.647 111.609C229.74 111.783 229.792 111.979 229.798 112.181C229.8 112.27 229.788 112.358 229.76 112.44C229.732 112.523 229.69 112.599 229.636 112.664C229.582 112.728 229.517 112.78 229.445 112.817C229.373 112.853 229.296 112.873 229.217 112.876C229.093 112.873 228.972 112.83 228.869 112.753C228.766 112.675 228.685 112.566 228.635 112.439L227.804 110.791L226.972 112.439C226.923 112.571 226.841 112.684 226.736 112.765C226.632 112.846 226.508 112.893 226.381 112.899Z" fill="black"/>
<path d="M235.539 112.899C235.461 112.899 235.383 112.881 235.31 112.846C235.238 112.811 235.173 112.761 235.118 112.697C235.059 112.631 235.013 112.552 234.982 112.466C234.95 112.379 234.936 112.286 234.938 112.192C234.943 112.035 234.98 111.882 235.048 111.744L235.95 110.174H234.106C234.023 110.18 233.939 110.165 233.861 110.13C233.783 110.095 233.713 110.041 233.655 109.973C233.546 109.842 233.486 109.669 233.486 109.49C233.486 109.311 233.546 109.139 233.655 109.008C233.713 108.94 233.783 108.886 233.861 108.851C233.939 108.816 234.023 108.801 234.106 108.807L235.92 108.863L235.068 107.349C234.988 107.2 234.943 107.03 234.938 106.856C234.936 106.762 234.95 106.669 234.982 106.583C235.013 106.496 235.059 106.417 235.118 106.351C235.175 106.287 235.242 106.236 235.316 106.202C235.39 106.167 235.469 106.149 235.549 106.149C235.661 106.148 235.772 106.183 235.866 106.251C235.961 106.318 236.035 106.416 236.08 106.531L236.962 108.291L237.804 106.609C237.857 106.478 237.941 106.366 238.047 106.285C238.153 106.204 238.277 106.157 238.405 106.149C238.484 106.147 238.563 106.163 238.635 106.198C238.708 106.233 238.773 106.285 238.826 106.351C238.884 106.413 238.931 106.488 238.962 106.571C238.993 106.654 239.008 106.743 239.006 106.833C239.005 106.993 238.963 107.148 238.886 107.282L238.004 108.863L239.838 108.807C239.923 108.801 240.008 108.816 240.088 108.851C240.168 108.886 240.239 108.939 240.299 109.008C240.402 109.143 240.458 109.314 240.458 109.49C240.458 109.667 240.402 109.838 240.299 109.973C240.239 110.041 240.168 110.095 240.088 110.13C240.008 110.165 239.923 110.18 239.838 110.174H237.984L238.806 111.609C238.898 111.783 238.95 111.979 238.956 112.181C238.959 112.272 238.945 112.363 238.916 112.447C238.887 112.532 238.842 112.609 238.786 112.674C238.733 112.737 238.669 112.788 238.599 112.822C238.528 112.857 238.452 112.875 238.375 112.876C238.251 112.873 238.13 112.83 238.027 112.753C237.924 112.675 237.843 112.566 237.794 112.439L236.962 110.791L236.13 112.439C236.081 112.571 235.999 112.684 235.895 112.765C235.79 112.846 235.667 112.893 235.539 112.899Z" fill="black"/>
<path d="M267.062 137.698H279.316" stroke="white" stroke-width="3" stroke-linecap="round" stroke-linejoin="round"/>
<path d="M97.0952 36.7397V127.81C97.0952 130.447 98.0316 132.977 99.6983 134.842C101.365 136.707 103.626 137.754 105.983 137.754H255.429" stroke="white" stroke-width="3" stroke-linecap="round" stroke-linejoin="round"/>
<path d="M97.0952 12.5904V26.2459" stroke="white" stroke-width="3" stroke-linecap="round" stroke-linejoin="round"/>
</svg>
