<svg width="400" height="400" viewBox="0 0 400 400" fill="none" xmlns="http://www.w3.org/2000/svg">
<g clip-path="url(#clip0_655_1135)">
<path d="M374.809 347.097C351.143 379.599 302.489 395.993 227.677 399.396C130.005 403.837 85.3045 383.831 40.092 338.395H366.764L374.809 347.097Z" fill="white"/>
<path d="M0.665527 338.357H362.993" stroke="#263238" stroke-linecap="round" stroke-linejoin="round"/>
<path d="M366.781 42.6697V338.357L390.734 364.635" stroke="white" stroke-linecap="round" stroke-linejoin="round"/>
<path d="M295.235 60.1785V8.76703" stroke="white" stroke-linecap="round" stroke-linejoin="round"/>
<path d="M275.009 82.3674C274.953 79.4157 275.435 76.4812 276.426 73.7358C277.418 70.991 278.898 68.4905 280.781 66.3812C282.664 64.2719 284.912 62.5961 287.394 61.4521C289.875 60.3081 292.539 59.7188 295.231 59.7188C297.922 59.7188 300.586 60.3081 303.068 61.4521C305.549 62.5961 307.796 64.2719 309.68 66.3812C311.563 68.4905 313.044 70.991 314.035 73.7358C315.026 76.4812 315.508 79.4157 315.452 82.3674H275.009Z" stroke="white" stroke-linecap="round" stroke-linejoin="round"/>
<path d="M40.0919 338.357H23.5325" stroke="#263238" stroke-linecap="round" stroke-linejoin="round"/>
<path d="M107.216 219.951H89.8489V338.367H107.216V219.951Z" stroke="white" stroke-linecap="round" stroke-linejoin="round"/>
<path d="M83.6366 228.739H13.4631V257.495H83.6366V228.739Z" stroke="white" stroke-linecap="round" stroke-linejoin="round"/>
<path d="M83.6366 260.63H13.4631V289.386H83.6366V260.63Z" stroke="white" stroke-linecap="round" stroke-linejoin="round"/>
<path d="M83.6366 292.531H13.4631V321.287H83.6366V292.531Z" stroke="white" stroke-linecap="round" stroke-linejoin="round"/>
<path d="M41.1694 230.817C41.1694 231.666 41.477 232.481 42.0245 233.081C42.5719 233.682 43.3145 234.019 44.0886 234.019H53.0113C53.3954 234.02 53.7759 233.938 54.1311 233.778C54.4863 233.617 54.8091 233.382 55.0811 233.084C55.3531 232.787 55.5689 232.433 55.7161 232.044C55.8634 231.655 55.9392 231.238 55.9392 230.817" stroke="white" stroke-linecap="round" stroke-linejoin="round"/>
<path d="M41.1694 262.708C41.1763 263.553 41.4866 264.361 42.0331 264.958C42.5796 265.553 43.3181 265.889 44.0886 265.892H53.0113C53.7878 265.892 54.5326 265.553 55.0816 264.951C55.6307 264.348 55.9392 263.531 55.9392 262.68" stroke="white" stroke-linecap="round" stroke-linejoin="round"/>
<path d="M41.1694 294.609C41.1694 295.459 41.4767 296.275 42.0239 296.877C42.5712 297.479 43.3137 297.818 44.0886 297.821H53.0113C53.3958 297.821 53.7766 297.738 54.1318 297.577C54.487 297.415 54.8098 297.179 55.0816 296.88C55.3535 296.582 55.5692 296.228 55.7163 295.838C55.8635 295.448 55.9392 295.031 55.9392 294.609" stroke="white" stroke-linecap="round" stroke-linejoin="round"/>
<path d="M87.0077 338.367H7.78125V219.951H87.0077" stroke="white" stroke-linecap="round" stroke-linejoin="round"/>
<path d="M154.679 280.875V325.671L176.061 333.935C176.327 334.038 176.558 334.228 176.721 334.481C176.885 334.734 176.972 335.036 176.972 335.346V336.737C176.973 336.968 176.924 337.197 176.83 337.404C176.736 337.611 176.599 337.791 176.431 337.93C176.262 338.069 176.066 338.162 175.858 338.204C175.651 338.245 175.438 338.232 175.235 338.167L153.272 331.095L152.872 336.88C152.847 337.283 152.684 337.661 152.414 337.935C152.144 338.21 151.789 338.361 151.421 338.357H150.292C149.925 338.356 149.572 338.204 149.303 337.93C149.034 337.656 148.869 337.281 148.841 336.88L148.441 331.095L126.487 338.167C126.284 338.23 126.071 338.241 125.864 338.199C125.658 338.157 125.462 338.063 125.295 337.925C125.126 337.786 124.989 337.607 124.895 337.401C124.8 337.195 124.75 336.968 124.749 336.737V335.346C124.749 335.036 124.837 334.734 125 334.481C125.163 334.228 125.394 334.038 125.661 333.935L147.051 325.671V280.875" stroke="white" stroke-linecap="round" stroke-linejoin="round"/>
<path d="M144.922 264.652V251.671" stroke="white" stroke-linecap="round" stroke-linejoin="round"/>
<path d="M139.909 251.671V264.652" stroke="white" stroke-linecap="round" stroke-linejoin="round"/>
<path d="M123.228 249.364C119.666 249.212 117.147 246.676 117.147 242.292V219.56C117.205 218.184 117.625 216.857 118.357 215.738C119.09 214.62 120.103 213.759 121.273 213.26" stroke="white" stroke-linecap="round" stroke-linejoin="round"/>
<path d="M122.246 216.681V242.197C122.246 246.6 125.452 249.031 129.492 248.25C138.306 246.468 147.372 246.904 156.008 249.527C159.987 250.708 163.116 248.574 163.116 244.189V218.674C163.064 217.56 162.724 216.485 162.135 215.576C161.545 214.668 160.731 213.963 159.788 213.546C148.779 209.457 136.937 208.885 125.643 211.897C124.692 212.205 123.854 212.833 123.244 213.69C122.635 214.549 122.286 215.595 122.246 216.681Z" stroke="white" stroke-linecap="round" stroke-linejoin="round"/>
<path d="M138.65 266.54H127.094C126.121 266.538 125.156 266.747 124.256 267.155C123.356 267.563 122.538 268.162 121.848 268.917C121.159 269.673 120.613 270.569 120.24 271.556C119.867 272.543 119.675 273.601 119.675 274.67C119.675 275.658 120.033 276.606 120.67 277.305C121.307 278.004 122.171 278.397 123.072 278.397H136.513" stroke="white" stroke-linecap="round" stroke-linejoin="round"/>
<path d="M140.465 278.397H178.624C179.524 278.397 180.389 278.004 181.026 277.305C181.662 276.606 182.021 275.658 182.021 274.67C182.021 273.601 181.828 272.543 181.455 271.556C181.082 270.569 180.536 269.673 179.847 268.917C179.157 268.162 178.339 267.563 177.439 267.155C176.539 266.747 175.575 266.538 174.601 266.54H144.488C143.514 266.538 142.549 266.747 141.649 267.155C140.749 267.563 139.931 268.162 139.242 268.917C138.553 269.673 138.006 270.569 137.633 271.556C137.26 272.543 137.068 273.601 137.068 274.67C137.068 275.658 137.426 276.606 138.063 277.305C138.7 278.004 139.565 278.397 140.465 278.397Z" stroke="white" stroke-linecap="round" stroke-linejoin="round"/>
<path d="M320.126 199.973C320.58 199.963 321.016 199.774 321.353 199.439C321.69 199.104 321.905 198.648 321.959 198.153L325.764 159.294C325.794 159.064 325.777 158.831 325.715 158.609C325.654 158.387 325.549 158.183 325.409 158.01C325.269 157.837 325.096 157.699 324.902 157.607C324.709 157.514 324.499 157.469 324.288 157.474" stroke="white" stroke-linecap="round" stroke-linejoin="round"/>
<path d="M226.008 235.734H348.458V223.268H226.008V235.734Z" stroke="white" stroke-linecap="round" stroke-linejoin="round"/>
<path d="M182.42 223.258V235.725H224.114" stroke="white" stroke-linecap="round" stroke-linejoin="round"/>
<path d="M352.393 221.924V214.128H232.994" stroke="white" stroke-linecap="round" stroke-linejoin="round"/>
<path d="M178.476 221.933H231.091V214.136H178.476V221.933Z" stroke="white" stroke-linecap="round" stroke-linejoin="round"/>
<path d="M341.812 237.812V338.357H344.461L345.417 237.812" stroke="white" stroke-linecap="round" stroke-linejoin="round"/>
<path d="M338.214 237.812L339.161 338.357H341.812V237.812" stroke="white" stroke-linecap="round" stroke-linejoin="round"/>
<path d="M306.799 237.812V338.357H309.448L310.395 237.812" stroke="white" stroke-linecap="round" stroke-linejoin="round"/>
<path d="M303.202 237.812L304.148 338.357H306.799V237.812" stroke="white" stroke-linecap="round" stroke-linejoin="round"/>
<path d="M224.071 237.812V338.357H226.729L227.677 237.812" stroke="white" stroke-linecap="round" stroke-linejoin="round"/>
<path d="M220.474 237.812L221.421 338.357H224.071V237.812" stroke="white" stroke-linecap="round" stroke-linejoin="round"/>
<path d="M189.058 237.812V338.357H191.708L192.655 237.812" stroke="white" stroke-linecap="round" stroke-linejoin="round"/>
<path d="M185.461 237.812L186.408 338.357H189.058V237.812" stroke="white" stroke-linecap="round" stroke-linejoin="round"/>
<path d="M278.71 211.707H252.95V214.127H278.71V211.707Z" stroke="white" stroke-linecap="round" stroke-linejoin="round"/>
<path d="M326.051 214.128H320.074C319.675 214.128 319.293 213.954 319.011 213.645C318.729 213.335 318.571 212.916 318.571 212.478V210.401H327.555V212.478C327.555 212.916 327.396 213.335 327.114 213.645C326.833 213.954 326.45 214.128 326.051 214.128Z" stroke="white" stroke-linecap="round" stroke-linejoin="round"/>
<path d="M327.555 210.419C327.555 209.009 325.539 207.856 323.054 207.856C320.569 207.856 318.562 209.009 318.562 210.419H327.555Z" stroke="white" stroke-linecap="round" stroke-linejoin="round"/>
<path d="M318.562 210.419C318.562 209.009 320.578 207.856 323.054 207.856V210.419H318.562Z" stroke="white" stroke-linecap="round" stroke-linejoin="round"/>
<path d="M318.258 199.973H268.041C267.83 199.979 267.621 199.933 267.427 199.84C267.233 199.748 267.06 199.61 266.92 199.437C266.779 199.264 266.675 199.06 266.614 198.838C266.552 198.616 266.535 198.383 266.564 198.153L270.369 159.295C270.425 158.8 270.642 158.345 270.978 158.011C271.314 157.677 271.749 157.486 272.203 157.474H322.429C322.639 157.47 322.848 157.517 323.041 157.61C323.234 157.703 323.406 157.841 323.547 158.013C323.686 158.186 323.791 158.39 323.853 158.611C323.915 158.832 323.933 159.065 323.905 159.295L320.1 198.153C320.045 198.65 319.829 199.107 319.49 199.442C319.151 199.777 318.714 199.965 318.258 199.973Z" stroke="white" stroke-linecap="round" stroke-linejoin="round"/>
<path d="M300.413 201.012L301.273 209.762H303.167L302.307 201.012" stroke="white" stroke-linecap="round" stroke-linejoin="round"/>
<path d="M288.093 201.012L288.953 209.762H301.273L300.413 201.012" stroke="white" stroke-linecap="round" stroke-linejoin="round"/>
<path d="M316.164 197.161H270.691C270.507 197.166 270.325 197.127 270.157 197.047C269.988 196.966 269.837 196.847 269.715 196.697C269.593 196.546 269.502 196.368 269.448 196.176C269.394 195.983 269.38 195.779 269.405 195.579L272.707 161.868C272.755 161.437 272.943 161.04 273.237 160.749C273.53 160.458 273.91 160.294 274.306 160.286H319.778C319.963 160.281 320.145 160.32 320.314 160.4C320.482 160.481 320.632 160.6 320.755 160.751C320.877 160.901 320.968 161.079 321.022 161.272C321.075 161.464 321.09 161.668 321.064 161.868L317.763 195.579C317.715 196.01 317.527 196.407 317.233 196.698C316.939 196.989 316.56 197.153 316.164 197.161Z" stroke="white" stroke-linecap="round" stroke-linejoin="round"/>
<path d="M305.07 209.762H280.091V214.136H305.07V209.762Z" stroke="white" stroke-linecap="round" stroke-linejoin="round"/>
<path d="M312.376 209.762H305.07V214.136H312.376V209.762Z" stroke="white" stroke-linecap="round" stroke-linejoin="round"/>
<path d="M336.086 168.53H254.288V188.745H336.086V168.53Z" fill="white" stroke="white" stroke-linecap="round" stroke-linejoin="round"/>
<path d="M264.175 180.759L262.854 179.653L263.071 181.426C263.091 181.543 263.086 181.663 263.058 181.778C263.03 181.892 262.98 181.999 262.91 182.09C262.84 182.18 262.753 182.254 262.655 182.303C262.557 182.353 262.45 182.379 262.342 182.379C262.233 182.379 262.126 182.353 262.028 182.303C261.93 182.254 261.843 182.18 261.774 182.09C261.704 181.999 261.653 181.892 261.625 181.778C261.597 181.663 261.593 181.543 261.612 181.426L261.829 179.653L260.5 180.759C260.417 180.827 260.321 180.875 260.22 180.899C260.119 180.924 260.015 180.925 259.913 180.903C259.811 180.881 259.715 180.835 259.63 180.769C259.546 180.703 259.475 180.618 259.423 180.52C259.37 180.422 259.337 180.312 259.326 180.198C259.315 180.085 259.327 179.97 259.36 179.862C259.392 179.754 259.446 179.654 259.517 179.571C259.588 179.487 259.674 179.42 259.77 179.376L261.29 178.681L259.77 177.985C259.674 177.939 259.587 177.873 259.517 177.788C259.445 177.703 259.392 177.603 259.359 177.494C259.326 177.385 259.315 177.27 259.326 177.155C259.337 177.041 259.37 176.931 259.423 176.832C259.474 176.733 259.545 176.647 259.629 176.58C259.714 176.513 259.81 176.467 259.912 176.444C260.014 176.421 260.119 176.423 260.221 176.449C260.322 176.475 260.417 176.524 260.5 176.593L261.82 177.699L261.603 175.926C261.584 175.809 261.589 175.689 261.617 175.575C261.644 175.46 261.695 175.353 261.765 175.262C261.834 175.171 261.921 175.098 262.02 175.048C262.118 174.998 262.225 174.972 262.333 174.973C262.441 174.972 262.548 174.998 262.647 175.048C262.745 175.098 262.832 175.171 262.902 175.262C262.971 175.353 263.021 175.46 263.049 175.575C263.077 175.689 263.082 175.809 263.063 175.926L262.846 177.699L264.166 176.593C264.249 176.524 264.344 176.475 264.446 176.449C264.547 176.423 264.652 176.421 264.754 176.444C264.856 176.467 264.953 176.513 265.037 176.58C265.121 176.647 265.192 176.733 265.244 176.832C265.296 176.931 265.329 177.041 265.34 177.155C265.351 177.27 265.34 177.385 265.307 177.494C265.274 177.603 265.22 177.703 265.149 177.788C265.079 177.873 264.992 177.939 264.896 177.985L263.376 178.681L264.896 179.376C264.992 179.42 265.078 179.487 265.149 179.571C265.22 179.654 265.274 179.754 265.306 179.862C265.34 179.97 265.351 180.085 265.34 180.198C265.329 180.312 265.296 180.422 265.244 180.52C265.191 180.617 265.121 180.7 265.037 180.765C264.953 180.83 264.858 180.875 264.757 180.898C264.657 180.92 264.553 180.919 264.452 180.895C264.353 180.871 264.258 180.825 264.175 180.759Z" fill="#0F0A38"/>
<path d="M275.965 180.759L274.644 179.653L274.861 181.426C274.881 181.543 274.876 181.663 274.848 181.778C274.82 181.892 274.769 181.999 274.7 182.09C274.63 182.18 274.543 182.254 274.445 182.303C274.347 182.353 274.24 182.379 274.132 182.379C274.023 182.379 273.917 182.354 273.819 182.304C273.721 182.254 273.634 182.181 273.565 182.09C273.496 181.999 273.447 181.891 273.42 181.777C273.393 181.662 273.39 181.542 273.41 181.426L273.627 179.653L272.307 180.759C272.223 180.827 272.127 180.875 272.025 180.9C271.923 180.924 271.818 180.926 271.716 180.904C271.613 180.881 271.517 180.835 271.432 180.769C271.346 180.703 271.275 180.618 271.221 180.52C271.17 180.421 271.139 180.311 271.129 180.197C271.119 180.083 271.132 179.969 271.166 179.861C271.199 179.753 271.253 179.654 271.324 179.571C271.395 179.487 271.482 179.421 271.577 179.376L273.089 178.681L271.577 177.985C271.481 177.939 271.395 177.872 271.324 177.788C271.253 177.704 271.199 177.604 271.165 177.496C271.131 177.386 271.119 177.271 271.129 177.157C271.139 177.043 271.17 176.932 271.221 176.832C271.274 176.732 271.345 176.646 271.43 176.579C271.515 176.512 271.613 176.466 271.715 176.444C271.818 176.421 271.923 176.423 272.026 176.449C272.128 176.475 272.224 176.524 272.307 176.594L273.627 177.699L273.41 175.926C273.39 175.81 273.393 175.69 273.42 175.575C273.447 175.46 273.496 175.354 273.565 175.263C273.634 175.171 273.721 175.098 273.819 175.048C273.917 174.998 274.023 174.972 274.132 174.973C274.24 174.972 274.347 174.998 274.445 175.048C274.543 175.098 274.63 175.171 274.7 175.262C274.769 175.353 274.82 175.46 274.848 175.575C274.876 175.689 274.881 175.809 274.861 175.926L274.644 177.699L275.965 176.594C276.047 176.524 276.142 176.475 276.244 176.449C276.345 176.423 276.451 176.421 276.552 176.444C276.655 176.467 276.751 176.513 276.835 176.58C276.92 176.647 276.99 176.733 277.042 176.832C277.095 176.931 277.127 177.041 277.139 177.155C277.149 177.27 277.138 177.385 277.105 177.494C277.072 177.603 277.019 177.703 276.948 177.788C276.877 177.873 276.791 177.939 276.695 177.985L275.183 178.681L276.695 179.376C276.791 179.42 276.877 179.487 276.948 179.571C277.018 179.654 277.072 179.754 277.105 179.862C277.138 179.97 277.149 180.085 277.139 180.198C277.127 180.312 277.095 180.422 277.042 180.52C276.99 180.618 276.918 180.703 276.834 180.769C276.749 180.835 276.654 180.881 276.552 180.903C276.45 180.925 276.345 180.924 276.244 180.899C276.143 180.875 276.048 180.827 275.965 180.759Z" fill="#0F0A38"/>
<path d="M287.754 180.759L286.434 179.653L286.651 181.426C286.672 181.542 286.668 181.662 286.642 181.777C286.615 181.891 286.565 181.999 286.497 182.09C286.427 182.181 286.341 182.254 286.243 182.304C286.145 182.354 286.038 182.379 285.93 182.379C285.821 182.381 285.713 182.357 285.615 182.307C285.516 182.258 285.428 182.185 285.358 182.093C285.288 182.002 285.237 181.895 285.21 181.779C285.183 181.664 285.179 181.543 285.2 181.426L285.418 179.653L284.097 180.759C284.013 180.827 283.918 180.875 283.817 180.899C283.716 180.924 283.611 180.926 283.51 180.903C283.408 180.881 283.312 180.835 283.227 180.769C283.143 180.703 283.072 180.618 283.02 180.52C282.967 180.422 282.934 180.312 282.923 180.198C282.913 180.085 282.924 179.97 282.956 179.862C282.99 179.754 283.043 179.654 283.114 179.571C283.185 179.487 283.271 179.421 283.367 179.376L284.879 178.681L283.367 177.985C283.271 177.94 283.184 177.873 283.114 177.788C283.042 177.704 282.989 177.603 282.956 177.494C282.923 177.385 282.912 177.27 282.923 177.155C282.934 177.042 282.966 176.931 283.02 176.832C283.071 176.733 283.141 176.647 283.226 176.58C283.311 176.513 283.407 176.467 283.509 176.445C283.611 176.422 283.716 176.423 283.818 176.449C283.919 176.475 284.014 176.524 284.097 176.594L285.418 177.699L285.2 175.926C285.179 175.809 285.183 175.688 285.21 175.573C285.237 175.458 285.288 175.35 285.358 175.259C285.428 175.167 285.516 175.094 285.615 175.045C285.713 174.996 285.821 174.971 285.93 174.973C286.038 174.972 286.145 174.998 286.243 175.048C286.341 175.098 286.427 175.171 286.497 175.263C286.565 175.354 286.615 175.46 286.642 175.575C286.668 175.69 286.672 175.81 286.651 175.926L286.434 177.699L287.754 176.594C287.837 176.524 287.932 176.475 288.034 176.449C288.135 176.423 288.24 176.422 288.342 176.445C288.445 176.467 288.541 176.513 288.626 176.58C288.71 176.647 288.78 176.733 288.832 176.832C288.883 176.932 288.915 177.043 288.924 177.157C288.934 177.271 288.921 177.386 288.887 177.495C288.854 177.604 288.8 177.704 288.729 177.788C288.658 177.872 288.572 177.939 288.476 177.985L286.964 178.681L288.476 179.376C288.572 179.421 288.658 179.487 288.729 179.571C288.799 179.654 288.853 179.754 288.886 179.862C288.919 179.97 288.931 180.085 288.92 180.198C288.909 180.312 288.876 180.422 288.823 180.52C288.77 180.617 288.7 180.7 288.616 180.765C288.533 180.831 288.437 180.875 288.337 180.898C288.236 180.92 288.133 180.92 288.032 180.896C287.932 180.872 287.838 180.825 287.754 180.759Z" fill="#0F0A38"/>
<path d="M299.596 180.759L298.267 179.653L298.484 181.426C298.505 181.542 298.502 181.662 298.475 181.777C298.448 181.891 298.398 181.999 298.33 182.09C298.26 182.181 298.174 182.254 298.076 182.304C297.978 182.354 297.871 182.379 297.763 182.379C297.655 182.379 297.548 182.353 297.45 182.303C297.351 182.254 297.265 182.18 297.195 182.09C297.125 181.999 297.074 181.892 297.047 181.778C297.019 181.663 297.014 181.543 297.033 181.426L297.251 179.653L295.93 180.759C295.847 180.827 295.752 180.875 295.651 180.899C295.55 180.924 295.444 180.925 295.343 180.903C295.241 180.881 295.145 180.835 295.06 180.769C294.977 180.703 294.905 180.618 294.853 180.52C294.8 180.422 294.767 180.312 294.756 180.198C294.746 180.085 294.757 179.97 294.789 179.862C294.823 179.754 294.876 179.654 294.947 179.571C295.018 179.487 295.104 179.42 295.2 179.376L296.721 178.681L295.2 177.985C295.104 177.939 295.018 177.873 294.947 177.788C294.876 177.703 294.822 177.603 294.789 177.494C294.756 177.385 294.745 177.27 294.756 177.155C294.767 177.041 294.8 176.931 294.853 176.832C294.905 176.733 294.975 176.647 295.059 176.58C295.144 176.513 295.24 176.467 295.342 176.444C295.444 176.421 295.55 176.423 295.651 176.449C295.752 176.475 295.848 176.524 295.93 176.594L297.251 177.699L297.033 175.926C297.014 175.809 297.019 175.689 297.047 175.575C297.074 175.46 297.125 175.353 297.195 175.262C297.265 175.171 297.351 175.098 297.45 175.048C297.548 174.998 297.655 174.972 297.763 174.973C297.871 174.972 297.978 174.998 298.076 175.048C298.174 175.098 298.26 175.171 298.33 175.263C298.398 175.354 298.448 175.46 298.475 175.575C298.502 175.69 298.505 175.81 298.484 175.926L298.267 177.699L299.596 176.594C299.679 176.524 299.775 176.475 299.876 176.449C299.977 176.423 300.083 176.421 300.184 176.444C300.286 176.467 300.383 176.513 300.467 176.58C300.552 176.647 300.622 176.733 300.674 176.832C300.725 176.931 300.757 177.042 300.767 177.155C300.778 177.269 300.766 177.384 300.733 177.493C300.7 177.601 300.647 177.701 300.577 177.786C300.507 177.871 300.421 177.939 300.326 177.985L298.805 178.681L300.318 179.376C300.413 179.421 300.499 179.487 300.571 179.571C300.641 179.654 300.696 179.753 300.729 179.861C300.763 179.969 300.775 180.083 300.766 180.197C300.756 180.311 300.725 180.421 300.674 180.52C300.621 180.618 300.551 180.703 300.466 180.769C300.382 180.835 300.285 180.881 300.183 180.903C300.082 180.925 299.977 180.924 299.876 180.899C299.775 180.875 299.679 180.827 299.596 180.759Z" fill="#0F0A38"/>
<path d="M311.342 180.759L310.022 179.653L310.239 181.426C310.258 181.543 310.254 181.663 310.226 181.778C310.198 181.892 310.148 181.999 310.078 182.09C310.008 182.18 309.922 182.254 309.823 182.303C309.725 182.353 309.618 182.379 309.51 182.379C309.401 182.379 309.295 182.353 309.196 182.303C309.098 182.254 309.011 182.18 308.941 182.09C308.871 181.999 308.821 181.892 308.793 181.778C308.765 181.663 308.761 181.543 308.779 181.426L308.997 179.653L307.677 180.759C307.593 180.827 307.498 180.875 307.397 180.899C307.296 180.924 307.191 180.925 307.089 180.903C306.988 180.881 306.891 180.835 306.807 180.769C306.723 180.703 306.652 180.618 306.599 180.52C306.546 180.422 306.513 180.312 306.503 180.198C306.492 180.085 306.503 179.97 306.536 179.862C306.569 179.754 306.622 179.654 306.694 179.571C306.764 179.487 306.851 179.42 306.946 179.376L308.467 178.681L306.946 177.985C306.85 177.939 306.764 177.873 306.693 177.788C306.622 177.703 306.568 177.603 306.536 177.494C306.503 177.385 306.491 177.27 306.503 177.155C306.513 177.041 306.546 176.931 306.599 176.832C306.651 176.733 306.721 176.647 306.805 176.58C306.89 176.513 306.986 176.467 307.088 176.444C307.19 176.421 307.296 176.423 307.397 176.449C307.498 176.475 307.593 176.524 307.677 176.593L308.997 177.699L308.779 175.926C308.761 175.809 308.765 175.689 308.793 175.575C308.821 175.46 308.871 175.353 308.941 175.262C309.011 175.171 309.098 175.098 309.196 175.048C309.295 174.998 309.401 174.972 309.51 174.973C309.618 174.972 309.725 174.998 309.823 175.048C309.922 175.098 310.008 175.171 310.078 175.262C310.148 175.353 310.198 175.46 310.226 175.575C310.254 175.689 310.258 175.809 310.239 175.926L310.022 177.632L311.342 176.526C311.425 176.457 311.521 176.408 311.622 176.382C311.723 176.357 311.828 176.355 311.931 176.377C312.033 176.4 312.129 176.446 312.214 176.513C312.298 176.58 312.368 176.666 312.42 176.765C312.473 176.864 312.506 176.974 312.517 177.089C312.528 177.203 312.517 177.318 312.483 177.428C312.451 177.537 312.397 177.637 312.326 177.721C312.255 177.806 312.168 177.873 312.073 177.918L310.552 178.614L312.073 179.31C312.168 179.354 312.255 179.42 312.326 179.503C312.397 179.587 312.45 179.687 312.483 179.795C312.516 179.903 312.527 180.018 312.517 180.132C312.506 180.246 312.473 180.355 312.42 180.453C312.373 180.557 312.306 180.648 312.224 180.721C312.142 180.793 312.047 180.846 311.945 180.875C311.842 180.903 311.736 180.908 311.632 180.888C311.528 180.868 311.43 180.824 311.342 180.759Z" fill="#0F0A38"/>
<path d="M331.056 178.642C331.056 178.642 328.649 181.931 325.687 181.931C322.724 181.931 320.326 178.642 320.326 178.642C320.326 178.642 322.724 175.344 325.661 175.344C328.597 175.344 331.056 178.642 331.056 178.642Z" fill="white" stroke="#0F0A38" stroke-linecap="round" stroke-linejoin="round"/>
<path d="M327.537 178.642C327.539 179.044 327.432 179.438 327.229 179.773C327.027 180.108 326.739 180.37 326.401 180.525C326.063 180.68 325.691 180.721 325.331 180.644C324.971 180.567 324.641 180.375 324.381 180.091C324.121 179.808 323.944 179.446 323.872 179.052C323.8 178.658 323.836 178.249 323.976 177.878C324.116 177.505 324.353 177.188 324.658 176.964C324.962 176.741 325.32 176.622 325.687 176.622C325.929 176.62 326.17 176.672 326.394 176.773C326.618 176.874 326.823 177.022 326.994 177.21C327.167 177.398 327.303 177.621 327.396 177.867C327.489 178.112 327.537 178.376 327.537 178.642Z" fill="#0F0A38" stroke="#0F0A38" stroke-linecap="round" stroke-linejoin="round"/>
<path d="M310.352 266.711C310.352 266.711 300.405 289.253 291.664 277.815C282.924 266.377 297.694 262.089 297.694 262.089C297.694 262.089 279.901 264.395 279.901 253.816C279.901 243.236 292.568 249.85 292.568 249.85C292.568 249.85 276.113 235.773 284.123 229.835C289.701 225.698 303.115 240.634 303.115 240.634C303.115 240.634 297.989 226.032 303.984 225.698C309.979 225.364 313.941 246.543 313.941 246.543C313.941 246.543 317.251 230.94 323.28 235.43C329.31 239.919 318.545 257.247 318.545 257.247C318.545 257.247 326.295 248.85 328.406 254.807C330.517 260.763 318.545 264.729 318.545 264.729C318.545 264.729 318.458 286.565 311.829 283.915C305.2 281.265 310.352 266.711 310.352 266.711Z" fill="#92E3A9"/>
<path d="M331.56 315.664C331.56 315.664 331.56 265.396 304.297 250.174" stroke="#263238" stroke-linecap="round" stroke-linejoin="round"/>
<path d="M314.045 258.2C314.045 258.2 306.434 259.687 297.842 269.942" stroke="#263238" stroke-linecap="round" stroke-linejoin="round"/>
<path d="M308.719 253.129C308.719 253.129 300.326 255.941 292.211 254.921" stroke="#263238" stroke-linecap="round" stroke-linejoin="round"/>
<path d="M311.082 255.14C315.002 252.26 318.097 248.218 320.005 243.484" stroke="#263238" stroke-linecap="round" stroke-linejoin="round"/>
<path d="M362.072 281.532C362.072 281.532 370.464 300.547 377.841 290.901C385.217 281.256 372.75 277.625 372.75 277.625C372.75 277.625 387.763 279.578 387.763 270.648C387.763 261.716 377.076 267.293 377.076 267.293C377.076 267.293 390.978 255.417 384.201 250.403C379.491 246.924 368.171 259.515 368.171 259.515C368.171 259.515 372.515 247.201 367.416 246.924C362.315 246.648 359.014 264.509 359.014 264.509C359.014 264.509 356.216 251.337 351.134 255.131C346.051 258.924 355.13 273.545 355.13 273.545C355.13 273.545 348.588 266.454 346.807 271.486C345.026 276.519 355.13 279.855 355.13 279.855C355.13 279.855 355.2 298.269 360.795 296.058C366.39 293.847 362.072 281.532 362.072 281.532Z" fill="#92E3A9"/>
<mask id="mask0_655_1135" style="mask-type:luminance" maskUnits="userSpaceOnUse" x="346" y="246" width="42" height="51">
<path d="M362.072 281.532C362.072 281.532 370.464 300.547 377.841 290.901C385.217 281.256 372.75 277.625 372.75 277.625C372.75 277.625 387.763 279.578 387.763 270.648C387.763 261.716 377.076 267.293 377.076 267.293C377.076 267.293 390.978 255.417 384.201 250.403C379.491 246.924 368.171 259.515 368.171 259.515C368.171 259.515 372.515 247.201 367.416 246.924C362.315 246.648 359.014 264.509 359.014 264.509C359.014 264.509 356.216 251.337 351.134 255.131C346.051 258.924 355.13 273.545 355.13 273.545C355.13 273.545 348.588 266.454 346.807 271.486C345.026 276.519 355.13 279.855 355.13 279.855C355.13 279.855 355.2 298.269 360.795 296.058C366.39 293.847 362.072 281.532 362.072 281.532Z" fill="white"/>
</mask>
<g mask="url(#mask0_655_1135)">
<path opacity="0.1" d="M362.072 281.532C362.072 281.532 370.464 300.547 377.841 290.901C385.217 281.256 372.75 277.625 372.75 277.625C372.75 277.625 387.763 279.578 387.763 270.648C387.763 261.716 377.076 267.293 377.076 267.293C377.076 267.293 390.978 255.417 384.201 250.403C379.491 246.924 368.171 259.515 368.171 259.515C368.171 259.515 372.515 247.201 367.416 246.924C362.315 246.648 359.014 264.509 359.014 264.509C359.014 264.509 356.216 251.337 351.134 255.131C346.051 258.924 355.13 273.545 355.13 273.545C355.13 273.545 348.588 266.454 346.807 271.486C345.026 276.519 355.13 279.855 355.13 279.855C355.13 279.855 355.2 298.269 360.795 296.058C366.39 293.847 362.072 281.532 362.072 281.532Z" fill="black"/>
</g>
<path d="M361.056 271.058C349.197 280.446 347.502 312.995 347.502 312.995" stroke="#263238" stroke-linecap="round" stroke-linejoin="round"/>
<path d="M357.555 274.832C362.34 276.855 366.649 280.034 370.161 284.134" stroke="#263238" stroke-linecap="round" stroke-linejoin="round"/>
<path d="M364.887 255.14C364.887 262.25 361.047 271.058 361.047 271.058L363.862 272.011" stroke="#263238" stroke-linecap="round" stroke-linejoin="round"/>
<path d="M366.182 272.773C366.182 272.773 373.332 274.527 378.753 272.773" stroke="#263238" stroke-linecap="round" stroke-linejoin="round"/>
<path d="M336.564 232.532C336.564 232.532 316.486 233.485 317.746 221.685C318.797 211.83 333.01 218.416 333.01 218.416C333.01 218.416 321.351 203.5 329.362 197.609C337.372 191.719 342.168 208.875 342.168 208.875C342.168 208.875 347.277 184.094 356.234 188.05C362.472 190.833 352.316 211.372 352.316 211.372C352.316 211.372 364.123 202.537 367.737 207.846C371.351 213.155 353.888 224.554 353.888 224.554C353.888 224.554 367.546 218.883 367.502 226.88C367.459 234.877 348.345 234.715 348.345 234.715C348.345 234.715 359.023 237.107 355.687 242.339C352.35 247.572 342.654 238.88 342.654 238.88C342.654 238.88 329.579 249.259 327.885 241.739C326.19 234.219 336.564 232.532 336.564 232.532Z" fill="#92E3A9"/>
<mask id="mask1_655_1135" style="mask-type:luminance" maskUnits="userSpaceOnUse" x="317" y="187" width="52" height="58">
<path d="M336.564 232.532C336.564 232.532 316.486 233.485 317.746 221.685C318.797 211.83 333.01 218.416 333.01 218.416C333.01 218.416 321.351 203.5 329.362 197.609C337.372 191.719 342.168 208.875 342.168 208.875C342.168 208.875 347.277 184.094 356.234 188.05C362.472 190.833 352.316 211.372 352.316 211.372C352.316 211.372 364.123 202.537 367.737 207.846C371.351 213.155 353.888 224.554 353.888 224.554C353.888 224.554 367.546 218.883 367.502 226.88C367.459 234.877 348.345 234.715 348.345 234.715C348.345 234.715 359.023 237.107 355.687 242.339C352.35 247.572 342.654 238.88 342.654 238.88C342.654 238.88 329.579 249.259 327.885 241.739C326.19 234.219 336.564 232.532 336.564 232.532Z" fill="white"/>
</mask>
<g mask="url(#mask1_655_1135)">
<path opacity="0.2" d="M336.564 232.532C336.564 232.532 316.486 233.485 317.746 221.685C318.797 211.83 333.01 218.416 333.01 218.416C333.01 218.416 321.351 203.5 329.362 197.609C337.372 191.719 342.168 208.875 342.168 208.875C342.168 208.875 347.277 184.094 356.234 188.05C362.472 190.833 352.316 211.372 352.316 211.372C352.316 211.372 364.123 202.537 367.737 207.846C371.351 213.155 353.888 224.554 353.888 224.554C353.888 224.554 367.546 218.883 367.502 226.88C367.459 234.877 348.345 234.715 348.345 234.715C348.345 234.715 359.023 237.107 355.687 242.339C352.35 247.572 342.654 238.88 342.654 238.88C342.654 238.88 329.579 249.259 327.885 241.739C326.19 234.219 336.564 232.532 336.564 232.532Z" fill="white"/>
</g>
<path d="M339.336 315.663C339.336 315.663 336.13 253.444 347.494 211.773" stroke="#263238" stroke-linecap="round" stroke-linejoin="round"/>
<path d="M325.391 223.134C325.391 223.134 333.854 222.353 343.854 228.376" stroke="#263238" stroke-linecap="round" stroke-linejoin="round"/>
<path d="M332.429 203.538C332.429 203.538 340.891 212.631 344.34 225.698" stroke="#263238" stroke-linecap="round" stroke-linejoin="round"/>
<path d="M345.095 221.848C345.095 221.848 350.595 215.175 357.555 213.46" stroke="#263238" stroke-linecap="round" stroke-linejoin="round"/>
<path d="M360.873 309.507H317.633L321.108 352.521C321.145 352.974 321.334 353.395 321.64 353.702C321.945 354.009 322.345 354.179 322.759 354.18L323.627 364.807C323.667 365.261 323.858 365.681 324.165 365.988C324.472 366.295 324.872 366.465 325.287 366.465H353.219C353.633 366.465 354.032 366.294 354.337 365.987C354.643 365.681 354.833 365.259 354.87 364.807L355.738 354.18C356.154 354.179 356.554 354.009 356.861 353.703C357.167 353.396 357.359 352.974 357.398 352.521L360.873 309.507Z" fill="white" stroke="#263238" stroke-linecap="round" stroke-linejoin="round"/>
<path d="M361.151 313.023H317.354C316.535 313.021 315.75 312.662 315.17 312.027C314.59 311.391 314.264 310.529 314.261 309.63C314.264 308.731 314.59 307.87 315.17 307.233C315.75 306.598 316.535 306.24 317.354 306.237H361.151C361.97 306.24 362.755 306.598 363.332 307.234C363.911 307.87 364.235 308.732 364.235 309.63C364.235 310.528 363.911 311.39 363.332 312.026C362.755 312.662 361.97 313.021 361.151 313.023Z" fill="#616161" stroke="#616161" stroke-linecap="round" stroke-linejoin="round"/>
<path d="M347.763 354.303H350.629" stroke="#263238" stroke-linecap="round" stroke-linejoin="round"/>
<path d="M327.868 354.303H344.887" stroke="#263238" stroke-linecap="round" stroke-linejoin="round"/>
<path d="M243.35 0.665527H231.508V249.126H243.35C245.235 249.123 247.043 248.3 248.375 246.836C249.708 245.372 250.457 243.388 250.457 241.32V8.47158C250.457 6.40296 249.708 4.4189 248.375 2.95524C247.043 1.49159 245.235 0.668056 243.35 0.665527Z" fill="#999999" stroke="#263238" stroke-linecap="round" stroke-linejoin="round"/>
<path d="M240.152 0.665527H137.103C133.504 0.665527 130.587 3.86599 130.587 7.81395V241.977C130.587 245.925 133.504 249.126 137.103 249.126H240.152C243.751 249.126 246.668 245.925 246.668 241.977V7.81395C246.668 3.86599 243.751 0.665527 240.152 0.665527Z" fill="#263238" stroke="#263238" stroke-linecap="round" stroke-linejoin="round"/>
<path d="M208.727 11.5979C208.56 13.1203 207.891 14.5228 206.846 15.5411C205.8 16.5594 204.452 17.1232 203.054 17.126H173.219C171.82 17.1276 170.468 16.5656 169.421 15.5467C168.373 14.5278 167.703 13.1227 167.537 11.5979C167.362 10.0834 166.689 8.69116 165.644 7.68217C164.6 6.67319 163.256 6.11687 161.864 6.11747H140.882C139.371 6.11745 137.921 6.77429 136.849 7.94427C135.778 9.11419 135.173 10.7021 135.165 12.3604V237.402C135.168 239.065 135.771 240.659 136.842 241.834C137.914 243.01 139.367 243.672 140.882 243.674H236.373C237.889 243.674 239.343 243.014 240.415 241.837C241.487 240.661 242.09 239.066 242.09 237.402V12.3604C242.091 11.5365 241.944 10.7204 241.657 9.95891C241.37 9.19745 240.949 8.5056 240.418 7.92297C239.887 7.34034 239.256 6.87844 238.562 6.56372C237.868 6.24898 237.124 6.08762 236.373 6.08887H214.401C213.005 6.08915 211.658 6.6495 210.613 7.66427C209.568 8.67911 208.897 10.0782 208.727 11.5979Z" fill="#92E3A9"/>
<mask id="mask2_655_1135" style="mask-type:luminance" maskUnits="userSpaceOnUse" x="135" y="6" width="108" height="238">
<path d="M208.727 11.5979C208.56 13.1203 207.891 14.5228 206.846 15.5411C205.8 16.5594 204.452 17.1232 203.054 17.126H173.219C171.82 17.1276 170.468 16.5656 169.421 15.5467C168.373 14.5278 167.703 13.1227 167.537 11.5979C167.362 10.0834 166.689 8.69116 165.644 7.68217C164.6 6.67319 163.256 6.11687 161.864 6.11747H140.882C139.371 6.11745 137.921 6.77429 136.849 7.94427C135.778 9.11419 135.173 10.7021 135.165 12.3604V237.402C135.168 239.065 135.771 240.659 136.842 241.834C137.914 243.01 139.367 243.672 140.882 243.674H236.373C237.889 243.674 239.343 243.014 240.415 241.837C241.487 240.661 242.09 239.066 242.09 237.402V12.3604C242.091 11.5365 241.944 10.7204 241.657 9.95891C241.37 9.19745 240.949 8.5056 240.418 7.92297C239.887 7.34034 239.256 6.87844 238.562 6.56372C237.868 6.24898 237.124 6.08762 236.373 6.08887H214.401C213.005 6.08915 211.658 6.6495 210.613 7.66427C209.568 8.67911 208.897 10.0782 208.727 11.5979Z" fill="white"/>
</mask>
<g mask="url(#mask2_655_1135)">
<path opacity="0.4" d="M166.66 259.477H131.768L215.877 -12.1635H250.769L166.66 259.477Z" fill="white"/>
<path opacity="0.4" d="M191.056 259.477H181.777L265.895 -12.1635H275.174L191.056 259.477Z" fill="white"/>
</g>
<path d="M208.727 11.5979C208.56 13.1203 207.891 14.5228 206.846 15.5411C205.8 16.5594 204.452 17.1232 203.054 17.126H173.219C171.82 17.1276 170.468 16.5656 169.421 15.5467C168.373 14.5278 167.703 13.1227 167.537 11.5979C167.362 10.0834 166.689 8.69116 165.644 7.68217C164.6 6.67319 163.256 6.11687 161.864 6.11747H140.882C139.371 6.11745 137.921 6.77429 136.849 7.94427C135.778 9.11419 135.173 10.7021 135.165 12.3604V237.402C135.168 239.065 135.771 240.659 136.842 241.834C137.914 243.01 139.367 243.672 140.882 243.674H236.373C237.889 243.674 239.343 243.014 240.415 241.837C241.487 240.661 242.09 239.066 242.09 237.402V12.3604C242.091 11.5365 241.944 10.7204 241.657 9.95891C241.37 9.19745 240.949 8.5056 240.418 7.92297C239.887 7.34034 239.256 6.87844 238.562 6.56372C237.868 6.24898 237.124 6.08762 236.373 6.08887H214.401C213.005 6.08915 211.658 6.6495 210.613 7.66427C209.568 8.67911 208.897 10.0782 208.727 11.5979Z" stroke="#263238" stroke-linecap="round" stroke-linejoin="round"/>
<path d="M178.363 9.33898C178.363 9.90451 178.21 10.4573 177.923 10.9275C177.637 11.3978 177.23 11.7643 176.754 11.9807C176.278 12.1971 175.754 12.2537 175.248 12.1434C174.742 12.0331 174.278 11.7607 173.913 11.3609C173.549 10.9609 173.301 10.4515 173.2 9.89679C173.1 9.34218 173.151 8.7672 173.348 8.24474C173.545 7.72228 173.88 7.27569 174.308 6.96148C174.737 6.64731 175.241 6.47961 175.756 6.47961C176.448 6.47961 177.111 6.78085 177.599 7.31708C178.088 7.85332 178.363 8.58065 178.363 9.33898Z" fill="#92E3A9" stroke="#263238" stroke-linecap="round" stroke-linejoin="round"/>
<path d="M198.971 6.56537H185.782C185.112 6.56537 184.469 6.85761 183.995 7.37775C183.521 7.89788 183.254 8.60337 183.254 9.33895C183.254 10.0746 183.521 10.78 183.995 11.3002C184.469 11.8203 185.112 12.1125 185.782 12.1125H198.971C199.641 12.1125 200.284 11.8203 200.759 11.3002C201.233 10.78 201.499 10.0746 201.499 9.33895C201.499 8.60337 201.233 7.89788 200.759 7.37775C200.284 6.85761 199.641 6.56537 198.971 6.56537Z" fill="#999999" stroke="#263238" stroke-linecap="round" stroke-linejoin="round"/>
<path d="M200.552 231.455H175.201C174.509 231.455 173.846 231.756 173.358 232.293C172.868 232.829 172.594 233.556 172.594 234.314C172.594 235.073 172.868 235.8 173.358 236.336C173.846 236.873 174.509 237.174 175.201 237.174H200.552C201.243 237.174 201.906 236.873 202.395 236.336C202.884 235.8 203.159 235.073 203.159 234.314C203.159 233.556 202.884 232.829 202.395 232.293C201.906 231.756 201.243 231.455 200.552 231.455Z" fill="#999999" stroke="#263238" stroke-linecap="round" stroke-linejoin="round"/>
<path d="M251.751 63.8959V45.31C251.751 44.8979 251.602 44.5028 251.336 44.2114C251.071 43.92 250.71 43.7563 250.335 43.7563C249.959 43.7563 249.599 43.92 249.333 44.2114C249.068 44.5028 248.918 44.8979 248.918 45.31V63.8959C248.918 64.3079 249.068 64.703 249.333 64.9944C249.599 65.2858 249.959 65.4495 250.335 65.4495C250.71 65.4495 251.071 65.2858 251.336 64.9944C251.602 64.703 251.751 64.3079 251.751 63.8959Z" fill="#263238"/>
<path d="M251.751 77.6972V71.5115C251.751 71.0995 251.602 70.7042 251.336 70.4126C251.071 70.1218 250.71 69.9581 250.335 69.9581C249.959 69.9581 249.599 70.1218 249.333 70.4126C249.068 70.7042 248.918 71.0995 248.918 71.5115V77.6972C248.918 78.1091 249.068 78.5045 249.333 78.796C249.599 79.0869 249.959 79.2506 250.335 79.2506C250.71 79.2506 251.071 79.0869 251.336 78.796C251.602 78.5045 251.751 78.1091 251.751 77.6972Z" fill="#263238"/>
<path d="M254.383 91.403H126.573V122.99H254.383V91.403Z" fill="white" stroke="#263238" stroke-linecap="round" stroke-linejoin="round"/>
<path d="M142.021 110.532L139.953 108.807L140.292 111.581C140.314 111.758 140.302 111.939 140.255 112.11C140.208 112.282 140.129 112.441 140.022 112.576C139.915 112.711 139.783 112.821 139.635 112.895C139.487 112.97 139.325 113.01 139.162 113.01C138.998 113.011 138.836 112.972 138.687 112.898C138.537 112.824 138.404 112.715 138.296 112.58C138.188 112.445 138.109 112.285 138.061 112.112C138.015 111.94 138.002 111.759 138.024 111.581L138.363 108.807L136.26 110.532C136.131 110.64 135.983 110.717 135.825 110.758C135.667 110.799 135.503 110.802 135.343 110.767C135.184 110.733 135.033 110.662 134.901 110.559C134.768 110.457 134.657 110.323 134.575 110.17V110.113C134.493 109.958 134.442 109.786 134.425 109.608C134.409 109.43 134.427 109.251 134.479 109.081C134.531 108.912 134.615 108.756 134.726 108.625C134.837 108.494 134.972 108.39 135.122 108.321L137.494 107.235L135.122 106.138C134.972 106.069 134.837 105.965 134.726 105.834C134.615 105.703 134.531 105.548 134.479 105.378C134.427 105.209 134.409 105.029 134.425 104.851C134.442 104.673 134.493 104.501 134.575 104.347V104.299C134.651 104.139 134.757 103.999 134.887 103.889C135.017 103.778 135.167 103.699 135.326 103.658C135.486 103.616 135.653 103.613 135.814 103.648C135.975 103.683 136.127 103.755 136.26 103.86L138.328 105.585L137.989 102.812C137.967 102.634 137.979 102.453 138.027 102.282C138.074 102.109 138.154 101.951 138.262 101.816C138.37 101.681 138.503 101.573 138.652 101.5C138.802 101.427 138.964 101.39 139.127 101.392C139.291 101.392 139.452 101.43 139.599 101.504C139.748 101.577 139.88 101.685 139.987 101.82C140.095 101.954 140.174 102.112 140.22 102.284C140.267 102.455 140.28 102.635 140.257 102.812L139.918 105.585L141.986 103.86C142.115 103.752 142.264 103.677 142.423 103.637C142.581 103.597 142.745 103.594 142.905 103.629C143.064 103.665 143.215 103.736 143.347 103.84C143.48 103.944 143.59 104.078 143.671 104.232V104.28C143.753 104.435 143.804 104.606 143.82 104.784C143.837 104.962 143.819 105.142 143.767 105.312C143.715 105.481 143.631 105.637 143.52 105.768C143.409 105.899 143.275 106.003 143.124 106.072L140.752 107.167L143.124 108.254C143.275 108.323 143.409 108.427 143.52 108.558C143.631 108.69 143.715 108.845 143.767 109.014C143.819 109.184 143.837 109.364 143.82 109.541C143.804 109.72 143.753 109.892 143.671 110.046V110.103C143.594 110.257 143.488 110.391 143.361 110.497C143.234 110.602 143.088 110.678 142.932 110.718C142.777 110.759 142.616 110.763 142.459 110.731C142.302 110.699 142.152 110.631 142.021 110.532Z" fill="#0F0A38"/>
<path d="M160.448 110.532L158.38 108.807L158.719 111.581C158.74 111.758 158.726 111.939 158.679 112.111C158.631 112.283 158.551 112.441 158.443 112.576C158.335 112.711 158.203 112.82 158.055 112.895C157.906 112.97 157.744 113.009 157.581 113.01C157.418 113.01 157.257 112.97 157.108 112.895C156.96 112.821 156.828 112.711 156.721 112.576C156.614 112.441 156.534 112.282 156.488 112.111C156.442 111.939 156.429 111.758 156.451 111.581L156.781 108.807L154.723 110.532C154.594 110.64 154.445 110.717 154.287 110.758C154.129 110.799 153.965 110.802 153.806 110.767C153.646 110.733 153.495 110.662 153.363 110.559C153.23 110.457 153.119 110.323 153.037 110.17V110.113C152.955 109.958 152.904 109.786 152.888 109.609C152.871 109.43 152.889 109.251 152.941 109.081C152.993 108.912 153.077 108.756 153.188 108.625C153.299 108.494 153.434 108.39 153.585 108.321L155.947 107.235L153.585 106.138C153.434 106.069 153.299 105.965 153.188 105.834C153.077 105.703 152.993 105.548 152.941 105.378C152.889 105.209 152.871 105.029 152.888 104.851C152.904 104.673 152.955 104.501 153.037 104.347V104.299C153.119 104.144 153.229 104.011 153.361 103.907C153.494 103.803 153.644 103.731 153.804 103.696C153.963 103.661 154.127 103.663 154.286 103.703C154.444 103.743 154.593 103.82 154.723 103.927L156.781 105.653L156.451 102.879C156.429 102.702 156.441 102.522 156.488 102.35C156.534 102.179 156.614 102.021 156.721 101.886C156.828 101.752 156.96 101.644 157.109 101.57C157.257 101.496 157.418 101.458 157.581 101.458C157.744 101.458 157.905 101.496 158.054 101.57C158.203 101.644 158.335 101.752 158.443 101.886C158.551 102.021 158.631 102.178 158.679 102.349C158.726 102.521 158.74 102.702 158.719 102.879L158.38 105.653L160.448 103.927C160.577 103.82 160.725 103.743 160.883 103.703C161.041 103.664 161.205 103.661 161.363 103.697C161.521 103.732 161.672 103.804 161.803 103.908C161.935 104.011 162.044 104.145 162.124 104.299V104.347C162.206 104.501 162.258 104.673 162.274 104.851C162.291 105.029 162.272 105.209 162.22 105.378C162.168 105.548 162.085 105.703 161.973 105.834C161.863 105.965 161.728 106.069 161.577 106.138L159.205 107.235L161.577 108.321C161.728 108.39 161.863 108.494 161.973 108.625C162.085 108.756 162.168 108.912 162.22 109.081C162.272 109.251 162.291 109.43 162.274 109.609C162.258 109.786 162.206 109.958 162.124 110.113V110.17C162.043 110.323 161.933 110.456 161.802 110.559C161.67 110.662 161.519 110.733 161.361 110.767C161.202 110.801 161.039 110.798 160.881 110.757C160.724 110.717 160.576 110.64 160.448 110.532Z" fill="#0F0A38"/>
<path d="M178.832 110.532L176.773 108.807L177.112 111.581C177.133 111.758 177.119 111.939 177.072 112.111C177.024 112.283 176.944 112.441 176.836 112.576C176.728 112.711 176.596 112.82 176.447 112.895C176.299 112.97 176.137 113.009 175.973 113.01C175.81 113.009 175.649 112.97 175.5 112.895C175.351 112.82 175.219 112.711 175.111 112.576C175.004 112.441 174.923 112.283 174.876 112.111C174.828 111.939 174.815 111.758 174.835 111.581L175.174 108.807L173.15 110.532C173.021 110.64 172.873 110.717 172.714 110.758C172.557 110.799 172.392 110.802 172.233 110.767C172.073 110.733 171.923 110.662 171.79 110.559C171.658 110.457 171.547 110.323 171.464 110.17V110.113C171.382 109.958 171.332 109.786 171.315 109.609C171.299 109.43 171.317 109.251 171.368 109.081C171.42 108.912 171.505 108.756 171.615 108.625C171.727 108.494 171.862 108.39 172.012 108.321L174.383 107.235L172.012 106.138C171.862 106.069 171.727 105.965 171.615 105.834C171.505 105.703 171.42 105.548 171.368 105.378C171.317 105.209 171.299 105.029 171.315 104.851C171.332 104.673 171.382 104.501 171.464 104.347V104.299C171.546 104.144 171.657 104.011 171.788 103.907C171.921 103.803 172.071 103.731 172.231 103.696C172.39 103.661 172.555 103.663 172.713 103.703C172.871 103.743 173.02 103.82 173.15 103.927L175.209 105.653L174.87 102.879C174.849 102.702 174.863 102.521 174.911 102.349C174.958 102.178 175.038 102.021 175.146 101.886C175.254 101.752 175.386 101.644 175.536 101.57C175.684 101.496 175.845 101.458 176.008 101.458C176.172 101.458 176.333 101.496 176.481 101.57C176.63 101.644 176.763 101.752 176.871 101.886C176.978 102.021 177.058 102.178 177.106 102.349C177.154 102.521 177.167 102.702 177.146 102.879L176.807 105.653L178.832 103.86C178.962 103.752 179.11 103.677 179.269 103.637C179.427 103.597 179.591 103.594 179.751 103.629C179.91 103.665 180.061 103.736 180.193 103.84C180.326 103.944 180.436 104.078 180.517 104.232V104.28C180.601 104.433 180.654 104.605 180.672 104.783C180.689 104.96 180.672 105.141 180.621 105.311C180.57 105.48 180.486 105.637 180.375 105.768C180.264 105.899 180.129 106.003 179.979 106.072L177.607 107.168L179.97 108.254C180.121 108.323 180.256 108.427 180.366 108.558C180.477 108.69 180.561 108.845 180.613 109.014C180.665 109.184 180.683 109.364 180.667 109.541C180.65 109.72 180.599 109.892 180.517 110.046V110.103C180.441 110.262 180.334 110.401 180.204 110.511C180.073 110.62 179.924 110.698 179.764 110.739C179.604 110.779 179.438 110.782 179.277 110.747C179.117 110.711 178.965 110.638 178.832 110.532Z" fill="#0F0A38"/>
<path d="M197.294 110.532L195.226 108.807L195.565 111.581C195.587 111.758 195.575 111.939 195.528 112.11C195.482 112.282 195.402 112.441 195.296 112.576C195.189 112.711 195.057 112.82 194.908 112.895C194.76 112.97 194.599 113.009 194.436 113.01C194.271 113.01 194.11 112.972 193.96 112.898C193.811 112.823 193.678 112.715 193.57 112.58C193.462 112.444 193.382 112.285 193.335 112.112C193.288 111.94 193.275 111.758 193.297 111.581L193.637 108.807L191.569 110.532C191.44 110.64 191.291 110.717 191.133 110.757C190.975 110.798 190.811 110.801 190.652 110.767C190.492 110.733 190.341 110.662 190.209 110.559C190.076 110.456 189.965 110.323 189.883 110.17V110.112C189.801 109.958 189.75 109.786 189.734 109.608C189.717 109.43 189.736 109.251 189.787 109.081C189.839 108.911 189.923 108.756 190.034 108.625C190.145 108.494 190.28 108.39 190.431 108.321L192.802 107.234L190.431 106.138C190.28 106.069 190.145 105.965 190.034 105.834C189.923 105.703 189.839 105.547 189.787 105.378C189.736 105.209 189.717 105.029 189.734 104.851C189.75 104.673 189.801 104.501 189.883 104.346V104.299C189.965 104.144 190.075 104.011 190.207 103.907C190.339 103.803 190.49 103.731 190.649 103.696C190.809 103.661 190.973 103.663 191.131 103.703C191.29 103.742 191.439 103.819 191.569 103.927L193.637 105.652L193.297 102.879C193.275 102.701 193.288 102.52 193.334 102.348C193.382 102.176 193.462 102.017 193.57 101.882C193.678 101.748 193.812 101.64 193.961 101.567C194.11 101.493 194.272 101.456 194.436 101.458C194.598 101.458 194.759 101.496 194.908 101.569C195.056 101.643 195.188 101.751 195.295 101.886C195.402 102.021 195.482 102.179 195.528 102.35C195.575 102.521 195.587 102.701 195.565 102.879L195.226 105.652L197.294 103.927C197.424 103.819 197.573 103.742 197.731 103.703C197.889 103.663 198.054 103.661 198.213 103.696C198.373 103.731 198.523 103.803 198.656 103.907C198.787 104.011 198.898 104.144 198.98 104.299V104.346C199.061 104.501 199.112 104.673 199.129 104.851C199.145 105.029 199.127 105.209 199.075 105.378C199.024 105.547 198.939 105.703 198.829 105.834C198.717 105.965 198.582 106.069 198.432 106.138L196.069 107.234L198.432 108.321C198.582 108.39 198.717 108.494 198.829 108.625C198.939 108.756 199.024 108.911 199.075 109.081C199.127 109.251 199.145 109.43 199.129 109.608C199.112 109.786 199.061 109.958 198.98 110.112V110.17C198.897 110.323 198.786 110.456 198.653 110.559C198.521 110.662 198.371 110.733 198.211 110.767C198.052 110.801 197.887 110.798 197.73 110.757C197.571 110.717 197.423 110.64 197.294 110.532Z" fill="#0F0A38"/>
<path d="M215.722 110.532L213.654 108.807L213.993 111.581C214.013 111.758 214 111.939 213.952 112.111C213.905 112.283 213.824 112.441 213.717 112.576C213.609 112.711 213.477 112.82 213.329 112.895C213.179 112.97 213.018 113.009 212.855 113.01C212.692 113.01 212.53 112.97 212.382 112.895C212.234 112.821 212.101 112.711 211.995 112.576C211.888 112.441 211.808 112.282 211.762 112.111C211.715 111.939 211.703 111.758 211.725 111.581L212.055 108.807L209.996 110.532C209.867 110.64 209.719 110.717 209.561 110.758C209.402 110.799 209.239 110.802 209.079 110.767C208.92 110.733 208.769 110.662 208.636 110.559C208.504 110.457 208.393 110.323 208.311 110.17V110.113C208.229 109.958 208.178 109.786 208.161 109.609C208.145 109.43 208.163 109.251 208.215 109.081C208.267 108.912 208.351 108.756 208.462 108.625C208.572 108.494 208.708 108.39 208.858 108.321L211.221 107.235L208.858 106.138C208.708 106.069 208.572 105.965 208.462 105.834C208.351 105.703 208.267 105.548 208.215 105.378C208.163 105.209 208.145 105.029 208.161 104.851C208.178 104.673 208.229 104.501 208.311 104.347V104.299C208.392 104.144 208.503 104.011 208.635 103.907C208.767 103.803 208.918 103.731 209.077 103.696C209.237 103.661 209.401 103.663 209.56 103.703C209.718 103.743 209.867 103.82 209.996 103.927L212.055 105.653L211.725 102.879C211.703 102.702 211.715 102.522 211.762 102.35C211.808 102.179 211.888 102.021 211.995 101.886C212.102 101.752 212.234 101.644 212.382 101.57C212.531 101.496 212.692 101.458 212.855 101.458C213.018 101.458 213.179 101.496 213.328 101.57C213.476 101.644 213.609 101.752 213.717 101.886C213.824 102.021 213.905 102.178 213.952 102.349C214 102.521 214.014 102.702 213.993 102.879L213.654 105.653L215.722 103.927C215.85 103.82 215.999 103.743 216.156 103.703C216.314 103.664 216.478 103.661 216.637 103.697C216.795 103.732 216.946 103.804 217.077 103.908C217.208 104.011 217.318 104.145 217.398 104.299V104.347C217.48 104.501 217.532 104.673 217.548 104.851C217.564 105.029 217.546 105.209 217.494 105.378C217.442 105.548 217.358 105.703 217.247 105.834C217.136 105.965 217.001 106.069 216.851 106.138L214.479 107.235L216.851 108.321C217.001 108.39 217.136 108.494 217.247 108.625C217.358 108.756 217.442 108.912 217.494 109.081C217.546 109.251 217.564 109.43 217.548 109.609C217.532 109.786 217.48 109.958 217.398 110.113V110.17C217.317 110.323 217.207 110.456 217.075 110.559C216.943 110.662 216.793 110.733 216.634 110.767C216.476 110.801 216.312 110.798 216.155 110.757C215.997 110.717 215.85 110.64 215.722 110.532Z" fill="#0F0A38"/>
<path d="M246.521 107.196C246.521 107.196 242.767 112.333 238.137 112.333C233.506 112.333 229.762 107.196 229.762 107.196C229.762 107.196 233.506 102.049 238.137 102.049C242.767 102.049 246.521 107.196 246.521 107.196Z" fill="white" stroke="#0F0A38" stroke-linecap="round" stroke-linejoin="round"/>
<path d="M241.021 107.196C241.021 107.822 240.852 108.434 240.535 108.954C240.218 109.475 239.768 109.88 239.241 110.12C238.713 110.359 238.134 110.422 237.574 110.299C237.014 110.178 236.5 109.876 236.097 109.434C235.694 108.991 235.419 108.427 235.308 107.814C235.197 107.2 235.254 106.564 235.472 105.985C235.69 105.407 236.06 104.913 236.534 104.565C237.008 104.218 237.566 104.032 238.137 104.032C238.902 104.032 239.635 104.365 240.176 104.958C240.717 105.552 241.021 106.357 241.021 107.196Z" fill="#0F0A38" stroke="#0F0A38" stroke-linecap="round" stroke-linejoin="round"/>
<path d="M151.447 138.764H143.828C141.923 138.764 140.379 140.458 140.379 142.548V153.318C140.379 155.408 141.923 157.102 143.828 157.102H151.447C153.352 157.102 154.896 155.408 154.896 153.318V142.548C154.896 140.458 153.352 138.764 151.447 138.764Z" fill="#92E3A9" stroke="#263238" stroke-linecap="round" stroke-linejoin="round"/>
<path d="M167.642 138.764H160.022C158.117 138.764 156.573 140.458 156.573 142.548V153.318C156.573 155.408 158.117 157.102 160.022 157.102H167.642C169.547 157.102 171.091 155.408 171.091 153.318V142.548C171.091 140.458 169.547 138.764 167.642 138.764Z" fill="#92E3A9" stroke="#263238" stroke-linecap="round" stroke-linejoin="round"/>
<path d="M183.828 138.764H176.208C174.304 138.764 172.759 140.458 172.759 142.548V153.318C172.759 155.408 174.304 157.102 176.208 157.102H183.828C185.732 157.102 187.277 155.408 187.277 153.318V142.548C187.277 140.458 185.732 138.764 183.828 138.764Z" fill="#92E3A9" stroke="#263238" stroke-linecap="round" stroke-linejoin="round"/>
<path d="M200.013 138.764H192.394C190.489 138.764 188.945 140.458 188.945 142.548V153.318C188.945 155.408 190.489 157.102 192.394 157.102H200.013C201.918 157.102 203.463 155.408 203.463 153.318V142.548C203.463 140.458 201.918 138.764 200.013 138.764Z" fill="#92E3A9" stroke="#263238" stroke-linecap="round" stroke-linejoin="round"/>
<path d="M216.208 138.764H208.588C206.684 138.764 205.139 140.458 205.139 142.548V153.318C205.139 155.408 206.684 157.102 208.588 157.102H216.208C218.113 157.102 219.657 155.408 219.657 153.318V142.548C219.657 140.458 218.113 138.764 216.208 138.764Z" fill="#92E3A9" stroke="#263238" stroke-linecap="round" stroke-linejoin="round"/>
<path d="M232.394 138.764H224.775C222.87 138.764 221.325 140.458 221.325 142.548V153.318C221.325 155.408 222.87 157.102 224.775 157.102H232.394C234.299 157.102 235.843 155.408 235.843 153.318V142.548C235.843 140.458 234.299 138.764 232.394 138.764Z" fill="#92E3A9" stroke="#263238" stroke-linecap="round" stroke-linejoin="round"/>
<path d="M159.545 160.019H151.925C150.02 160.019 148.476 161.713 148.476 163.802V174.572C148.476 176.662 150.02 178.357 151.925 178.357H159.545C161.45 178.357 162.994 176.662 162.994 174.572V163.802C162.994 161.713 161.45 160.019 159.545 160.019Z" fill="#92E3A9" stroke="#263238" stroke-linecap="round" stroke-linejoin="round"/>
<path d="M175.731 160.019H168.111C166.206 160.019 164.662 161.713 164.662 163.802V174.572C164.662 176.662 166.206 178.357 168.111 178.357H175.731C177.635 178.357 179.179 176.662 179.179 174.572V163.802C179.179 161.713 177.635 160.019 175.731 160.019Z" fill="#92E3A9" stroke="#263238" stroke-linecap="round" stroke-linejoin="round"/>
<path d="M191.925 160.019H184.306C182.401 160.019 180.856 161.713 180.856 163.802V174.572C180.856 176.662 182.401 178.357 184.306 178.357H191.925C193.83 178.357 195.374 176.662 195.374 174.572V163.802C195.374 161.713 193.83 160.019 191.925 160.019Z" fill="#92E3A9" stroke="#263238" stroke-linecap="round" stroke-linejoin="round"/>
<path d="M208.11 160.019H200.491C198.586 160.019 197.042 161.713 197.042 163.802V174.572C197.042 176.662 198.586 178.357 200.491 178.357H208.11C210.016 178.357 211.56 176.662 211.56 174.572V163.802C211.56 161.713 210.016 160.019 208.11 160.019Z" fill="#92E3A9" stroke="#263238" stroke-linecap="round" stroke-linejoin="round"/>
<path d="M224.297 160.019H216.677C214.772 160.019 213.228 161.713 213.228 163.802V174.572C213.228 176.662 214.772 178.357 216.677 178.357H224.297C226.202 178.357 227.746 176.662 227.746 174.572V163.802C227.746 161.713 226.202 160.019 224.297 160.019Z" fill="#92E3A9" stroke="#263238" stroke-linecap="round" stroke-linejoin="round"/>
<path d="M151.447 181.273H143.828C141.923 181.273 140.379 182.967 140.379 185.057V195.827C140.379 197.917 141.923 199.611 143.828 199.611H151.447C153.352 199.611 154.896 197.917 154.896 195.827V185.057C154.896 182.967 153.352 181.273 151.447 181.273Z" fill="#92E3A9" stroke="#263238" stroke-linecap="round" stroke-linejoin="round"/>
<path d="M167.642 181.273H160.022C158.117 181.273 156.573 182.967 156.573 185.057V195.827C156.573 197.917 158.117 199.611 160.022 199.611H167.642C169.547 199.611 171.091 197.917 171.091 195.827V185.057C171.091 182.967 169.547 181.273 167.642 181.273Z" fill="#92E3A9" stroke="#263238" stroke-linecap="round" stroke-linejoin="round"/>
<path d="M183.828 181.273H176.208C174.304 181.273 172.759 182.967 172.759 185.057V195.827C172.759 197.917 174.304 199.611 176.208 199.611H183.828C185.732 199.611 187.277 197.917 187.277 195.827V185.057C187.277 182.967 185.732 181.273 183.828 181.273Z" fill="#92E3A9" stroke="#263238" stroke-linecap="round" stroke-linejoin="round"/>
<path d="M200.013 181.273H192.394C190.489 181.273 188.945 182.967 188.945 185.057V195.827C188.945 197.917 190.489 199.611 192.394 199.611H200.013C201.918 199.611 203.463 197.917 203.463 195.827V185.057C203.463 182.967 201.918 181.273 200.013 181.273Z" fill="#92E3A9" stroke="#263238" stroke-linecap="round" stroke-linejoin="round"/>
<path d="M216.208 181.273H208.588C206.684 181.273 205.139 182.967 205.139 185.057V195.827C205.139 197.917 206.684 199.611 208.588 199.611H216.208C218.113 199.611 219.657 197.917 219.657 195.827V185.057C219.657 182.967 218.113 181.273 216.208 181.273Z" fill="#92E3A9" stroke="#263238" stroke-linecap="round" stroke-linejoin="round"/>
<path d="M232.394 181.273H224.775C222.87 181.273 221.325 182.967 221.325 185.057V195.827C221.325 197.917 222.87 199.611 224.775 199.611H232.394C234.299 199.611 235.843 197.917 235.843 195.827V185.057C235.843 182.967 234.299 181.273 232.394 181.273Z" fill="#92E3A9" stroke="#263238" stroke-linecap="round" stroke-linejoin="round"/>
<path d="M159.545 202.528H151.925C150.02 202.528 148.476 204.222 148.476 206.312V217.082C148.476 219.172 150.02 220.866 151.925 220.866H159.545C161.45 220.866 162.994 219.172 162.994 217.082V206.312C162.994 204.222 161.45 202.528 159.545 202.528Z" fill="#92E3A9" stroke="#263238" stroke-linecap="round" stroke-linejoin="round"/>
<path d="M175.731 202.528H168.111C166.206 202.528 164.662 204.222 164.662 206.312V217.082C164.662 219.172 166.206 220.866 168.111 220.866H175.731C177.635 220.866 179.179 219.172 179.179 217.082V206.312C179.179 204.222 177.635 202.528 175.731 202.528Z" fill="#92E3A9" stroke="#263238" stroke-linecap="round" stroke-linejoin="round"/>
<path d="M191.925 202.528H184.306C182.401 202.528 180.856 204.222 180.856 206.312V217.082C180.856 219.172 182.401 220.866 184.306 220.866H191.925C193.83 220.866 195.374 219.172 195.374 217.082V206.312C195.374 204.222 193.83 202.528 191.925 202.528Z" fill="#92E3A9" stroke="#263238" stroke-linecap="round" stroke-linejoin="round"/>
<path d="M208.11 202.528H200.491C198.586 202.528 197.042 204.222 197.042 206.312V217.082C197.042 219.172 198.586 220.866 200.491 220.866H208.11C210.016 220.866 211.56 219.172 211.56 217.082V206.312C211.56 204.222 210.016 202.528 208.11 202.528Z" fill="#92E3A9" stroke="#263238" stroke-linecap="round" stroke-linejoin="round"/>
<path d="M224.297 202.528H216.677C214.772 202.528 213.228 204.222 213.228 206.312V217.082C213.228 219.172 214.772 220.866 216.677 220.866H224.297C226.202 220.866 227.746 219.172 227.746 217.082V206.312C227.746 204.222 226.202 202.528 224.297 202.528Z" fill="#92E3A9" stroke="#263238" stroke-linecap="round" stroke-linejoin="round"/>
<path d="M209.273 66.0193C215.542 53.067 211.054 36.9911 199.247 30.1129C187.44 23.2347 172.787 28.1588 166.517 41.1112C160.247 54.0635 164.736 70.1391 176.543 77.0177C188.349 83.8955 203.002 78.9717 209.273 66.0193Z" fill="white" stroke="#263238" stroke-linecap="round" stroke-linejoin="round"/>
<path d="M187.894 80.1085C193.183 80.1205 198.329 78.2176 202.533 74.6948C196.86 72.3847 190.861 71.1847 184.809 71.1494C180.475 71.186 176.178 72.0399 172.107 73.6752C176.495 77.8296 182.098 80.1138 187.894 80.1085Z" fill="#92E3A9" stroke="#263238" stroke-linecap="round" stroke-linejoin="round"/>
<path d="M181.378 65.4018C181.378 65.4018 181.169 56.7474 178.954 50.4187C176.738 44.09 175.478 34.7399 183.932 33.4435C192.385 32.1473 195.73 33.6819 200.57 33.2624C209.865 32.4714 199.623 44.1853 199.623 44.1853L187.173 49.5323C187.173 49.5323 182.854 65.8212 181.378 65.4018Z" fill="#0F0A38" stroke="#0F0A38" stroke-linecap="round" stroke-linejoin="round"/>
<path d="M180.813 67.9181L183.011 58.1104L189.093 60.131L190.926 68.1185C191.097 68.8825 191.42 69.596 191.869 70.209C192.32 70.8213 192.888 71.3185 193.532 71.6639C194.449 72.1311 195.322 72.6962 196.138 73.3511C196.138 73.3511 188.892 83.5394 174.983 73.3511C175.903 72.6156 176.901 72.0047 177.955 71.5301C178.657 71.2186 179.282 70.7288 179.78 70.1012C180.276 69.4735 180.63 68.7248 180.813 67.9181Z" fill="white"/>
<mask id="mask3_655_1135" style="mask-type:luminance" maskUnits="userSpaceOnUse" x="174" y="58" width="23" height="20">
<path d="M180.813 67.9181L183.011 58.1104L189.093 60.131L190.926 68.1185C191.097 68.8825 191.42 69.596 191.869 70.209C192.32 70.8213 192.888 71.3185 193.532 71.6639C194.449 72.1311 195.322 72.6962 196.138 73.3511C196.138 73.3511 188.892 83.5394 174.983 73.3511C175.903 72.6156 176.901 72.0047 177.955 71.5301C178.657 71.2186 179.282 70.7288 179.78 70.1012C180.276 69.4735 180.63 68.7248 180.813 67.9181Z" fill="white"/>
</mask>
<g mask="url(#mask3_655_1135)">
<path d="M199.813 44.4902L200.613 50.3328C200.693 50.9497 200.645 51.5783 200.474 52.1724L200.013 53.7641L200.283 57.5766C200.295 57.7733 200.295 57.9708 200.283 58.1675C200.161 60.0738 199.301 69.4336 194.201 69.8622C189.657 70.2436 185.122 65.0967 183.515 62.6567C183.113 62.0484 182.818 61.3631 182.646 60.6361L181.959 57.6719C181.312 57.6671 180.683 57.4376 180.162 57.0165C179.64 56.5953 179.254 56.004 179.057 55.3272C178.371 52.9349 177.233 51.3908 179.44 50.1994C181.646 49.008 182.411 52.3916 182.411 52.3916C182.411 52.3916 182.985 48.4552 183.592 47.3305C184.201 46.2058 186.078 45.1383 186.651 44.1757C186.975 43.4115 187.237 42.6173 187.433 41.8024C187.433 41.8024 194.149 43.2225 199.248 42.0883L199.813 44.4902Z" fill="#263238" stroke="#263238" stroke-linecap="round" stroke-linejoin="round"/>
</g>
<path d="M180.813 67.9181L183.011 58.1104L189.093 60.131L190.926 68.1185C191.097 68.8825 191.42 69.596 191.869 70.209C192.32 70.8213 192.888 71.3185 193.532 71.6639C194.449 72.1311 195.322 72.6962 196.138 73.3511C196.138 73.3511 188.892 83.5394 174.983 73.3511C175.903 72.6156 176.901 72.0047 177.955 71.5301C178.657 71.2186 179.282 70.7288 179.78 70.1012C180.276 69.4735 180.63 68.7248 180.813 67.9181Z" stroke="#263238" stroke-linecap="round" stroke-linejoin="round"/>
<path d="M199.814 43.4514L200.613 49.294C200.693 49.9109 200.645 50.5395 200.474 51.1335L200.013 52.7253L200.283 56.5378C200.296 56.7377 200.296 56.9383 200.283 57.1383C200.161 59.0445 199.301 68.404 194.201 68.8333C189.657 69.214 185.122 64.0674 183.515 61.6274C183.115 61.018 182.82 60.3331 182.646 59.6068L181.959 56.6426C181.309 56.6418 180.676 56.4143 180.151 55.9928C179.627 55.5713 179.237 54.9778 179.04 54.2979C178.354 51.9056 177.216 50.3615 179.423 49.1701C181.629 47.9787 182.411 51.3432 182.411 51.3432C182.411 51.3432 182.985 47.4068 183.593 46.2822C184.201 45.1575 186.078 44.0899 186.651 43.1273C186.975 42.3631 187.237 41.5689 187.433 40.754C187.433 40.754 194.149 42.1742 199.249 41.04L199.814 43.4514Z" fill="white" stroke="#263238" stroke-linecap="round" stroke-linejoin="round"/>
<path d="M196.208 53.2017L197.876 57.6242C197.937 57.7681 197.964 57.9265 197.955 58.0848C197.946 58.2431 197.901 58.3964 197.824 58.5308C197.747 58.6652 197.641 58.7765 197.515 58.8545C197.389 58.9326 197.247 58.9748 197.103 58.9776L195.026 59.1301" stroke="#263238" stroke-width="0.75" stroke-linecap="round" stroke-linejoin="round"/>
<path d="M191.039 60.7789C191.205 61.1556 191.446 61.4874 191.743 61.751C192.039 62.0146 192.385 62.2036 192.755 62.3045C193.126 62.4054 193.512 62.4158 193.886 62.335C194.26 62.2542 194.614 62.0842 194.923 61.8369" stroke="#263238" stroke-width="0.75" stroke-linecap="round" stroke-linejoin="round"/>
<path d="M190.995 36.4746C181.995 35.3498 180.335 39.2481 180.335 39.2481" stroke="#7F7F7F" stroke-width="0.75" stroke-linecap="round" stroke-linejoin="round"/>
<path d="M200.874 35.3974C198.289 36.1061 195.639 36.4803 192.976 36.5125" stroke="#7F7F7F" stroke-width="0.75" stroke-linecap="round" stroke-linejoin="round"/>
<path d="M192.733 39.3149C195.296 39.3149 200.474 38.7906 202.542 36.1981" stroke="#7F7F7F" stroke-width="0.75" stroke-linecap="round" stroke-linejoin="round"/>
<path d="M188.945 38.8383C189.609 39.0049 190.282 39.1259 190.96 39.2005" stroke="#7F7F7F" stroke-width="0.75" stroke-linecap="round" stroke-linejoin="round"/>
<path d="M192.594 52.5632C192.594 53.3257 192.316 53.9357 191.968 53.9357C191.621 53.9357 191.343 53.3257 191.343 52.5632C191.343 51.8007 191.629 51.1907 191.968 51.1907C192.307 51.1907 192.594 51.8102 192.594 52.5632Z" fill="#263238"/>
<path d="M198.485 52.3915C198.485 53.0492 198.241 53.583 197.946 53.583C197.651 53.583 197.398 53.0492 197.398 52.3915C197.398 51.7339 197.642 51.2001 197.946 51.2001C198.25 51.2001 198.485 51.7244 198.485 52.3915Z" fill="#263238"/>
<path d="M189.927 50.5425C189.927 50.5425 190.674 48.093 191.968 48.1597C192.368 48.2012 192.751 48.3544 193.081 48.6047C193.411 48.855 193.677 49.1941 193.854 49.5893" stroke="#263238" stroke-width="0.75" stroke-linecap="round" stroke-linejoin="round"/>
<path d="M198.892 49.5323C198.65 48.8747 198.276 48.1312 197.78 48.1693C196.912 48.2266 196.486 49.599 196.486 49.599" stroke="#263238" stroke-width="0.75" stroke-linecap="round" stroke-linejoin="round"/>
<path d="M64.2274 165.261C65.965 160.628 61.7165 146.618 59.8139 140.87C59.7033 140.538 59.5201 140.24 59.2802 140.003C59.0404 139.766 58.7513 139.598 58.4383 139.513C58.1252 139.427 57.7979 139.427 57.4848 139.512C57.1718 139.598 56.8826 139.766 56.6427 140.003C54.9051 141.69 52.8287 144.968 52.4811 151.05C52.4811 151.05 39.2231 176.66 39.2231 188.345C39.2231 199.297 58.9624 222.105 58.9624 222.105C61.1881 221.346 63.0693 219.691 64.2274 217.473C64.2274 217.473 56.8512 197.457 51.1258 188.879C51.1171 188.889 62.2726 170.389 64.2274 165.261Z" fill="#616161"/>
<mask id="mask4_655_1135" style="mask-type:luminance" maskUnits="userSpaceOnUse" x="39" y="139" width="26" height="84">
<path d="M64.2274 165.261C65.965 160.628 61.7165 146.618 59.8139 140.87C59.7033 140.538 59.5201 140.24 59.2802 140.003C59.0404 139.766 58.7513 139.598 58.4383 139.513C58.1252 139.427 57.7979 139.427 57.4848 139.512C57.1718 139.598 56.8826 139.766 56.6427 140.003C54.9051 141.69 52.8287 144.968 52.4811 151.05C52.4811 151.05 39.2231 176.66 39.2231 188.345C39.2231 199.297 58.9624 222.105 58.9624 222.105C61.1881 221.346 63.0693 219.691 64.2274 217.473C64.2274 217.473 56.8512 197.457 51.1258 188.879C51.1171 188.889 62.2726 170.389 64.2274 165.261Z" fill="white"/>
</mask>
<g mask="url(#mask4_655_1135)">
<path opacity="0.2" d="M62.0119 172.752C62.0119 172.752 55.6956 157.988 53.3238 159.313C50.9519 160.638 44.8008 185.533 47.1552 189.498C49.5097 193.464 62.3507 221.457 65.5653 220.895C68.7799 220.332 62.0119 172.752 62.0119 172.752Z" fill="black"/>
</g>
<path d="M64.2274 165.261C65.965 160.628 61.7165 146.618 59.8139 140.87C59.7033 140.538 59.5201 140.24 59.2802 140.003C59.0404 139.766 58.7513 139.598 58.4383 139.513C58.1252 139.427 57.7979 139.427 57.4848 139.512C57.1718 139.598 56.8826 139.766 56.6427 140.003C54.9051 141.69 52.8287 144.968 52.4811 151.05C52.4811 151.05 39.2231 176.66 39.2231 188.345C39.2231 199.297 58.9624 222.105 58.9624 222.105C61.1881 221.346 63.0693 219.691 64.2274 217.473C64.2274 217.473 56.8512 197.457 51.1258 188.879C51.1171 188.889 62.2726 170.389 64.2274 165.261Z" stroke="#616161" stroke-linecap="round" stroke-linejoin="round"/>
<path d="M62.5509 215.662L65.5309 220.894C65.5309 220.894 74.8094 224.078 75.7738 227.442C76.7382 230.807 71.9861 235.496 69.1622 234.552C66.3389 233.609 61.7342 224.268 61.7342 224.268L57.981 219.503L62.5509 215.662Z" fill="white" stroke="#616161" stroke-linecap="round" stroke-linejoin="round"/>
<path d="M56.7036 220.78L58.7105 223.315C61.5328 222.449 63.9455 220.43 65.4525 217.673L64.2361 214.499C64.2361 214.499 62.5246 218.902 56.7036 220.78Z" fill="#92E3A9" stroke="#616161" stroke-linecap="round" stroke-linejoin="round"/>
<path d="M68.5976 361.061L65.9911 372.927C65.9045 373.324 65.9012 373.738 65.9812 374.138C66.0613 374.537 66.2227 374.911 66.4535 375.232C66.6841 375.553 66.9783 375.813 67.3137 375.991C67.6485 376.17 68.0166 376.263 68.3893 376.263H83.6106C83.9713 376.263 84.3274 376.177 84.6542 376.01C84.981 375.844 85.2711 375.601 85.5034 375.299C85.7364 374.996 85.9054 374.642 86.0006 374.26C86.0951 373.879 86.1124 373.479 86.0518 373.089C85.934 372.197 85.6478 371.342 85.2106 370.579C84.774 369.816 84.1963 369.161 83.5147 368.657C80.0399 366.179 78.3893 358.421 78.3893 358.421L68.5976 361.061Z" fill="#616161" stroke="#616161" stroke-linecap="round" stroke-linejoin="round"/>
<path d="M106.104 363.044C106.104 363.044 103.645 366.922 103.246 373.842C103.233 374.155 103.278 374.468 103.378 374.761C103.478 375.054 103.632 375.322 103.829 375.548C104.027 375.774 104.264 375.955 104.526 376.077C104.789 376.2 105.072 376.264 105.357 376.263H132.351C132.877 376.266 133.392 376.089 133.823 375.757C134.254 375.425 134.58 374.954 134.756 374.409C134.932 373.864 134.948 373.273 134.804 372.717C134.66 372.16 134.361 371.668 133.949 371.307C132.801 370.369 131.439 369.796 130.013 369.649C123.393 368.695 117.529 365.36 116.469 361.07L106.104 363.044Z" fill="#616161" stroke="#616161" stroke-linecap="round" stroke-linejoin="round"/>
<path d="M64.2275 217.473C64.2275 217.473 61.1693 231.35 62.3769 261.316L63.1589 295.247C63.1589 295.247 58.7627 319.076 67.1988 362.214C67.1988 362.214 69.8051 368.6 80.3089 360.613L81.5256 294.799L92.5159 222.105L64.2275 217.473Z" fill="#999999"/>
<mask id="mask5_655_1135" style="mask-type:luminance" maskUnits="userSpaceOnUse" x="62" y="217" width="31" height="148">
<path d="M64.2275 217.473C64.2275 217.473 61.1693 231.35 62.3769 261.316L63.1589 295.247C63.1589 295.247 58.7627 319.076 67.1988 362.214C67.1988 362.214 69.8051 368.6 80.3089 360.613L81.5256 294.799L92.5159 222.105L64.2275 217.473Z" fill="white"/>
</mask>
<g mask="url(#mask5_655_1135)">
<path opacity="0.2" d="M86.0866 248.097C86.0866 248.097 81.6034 267.703 79.7965 279.159C77.9895 290.616 67.242 289.738 65.9478 297.268C64.6532 304.798 77.2421 295.943 76.0174 323.002C74.7921 350.062 70.3875 364.854 77.3033 364.635C84.2191 364.416 84.4188 343.094 84.4188 343.094L88.6324 278.111V269.075L89.6401 251.919L86.0866 248.097Z" fill="black"/>
</g>
<path d="M64.2275 217.473C64.2275 217.473 61.1693 231.35 62.3769 261.316L63.1589 295.247C63.1589 295.247 58.7627 319.076 67.1988 362.214C67.1988 362.214 69.8051 368.6 80.3089 360.613L81.5256 294.799L92.5159 222.105L64.2275 217.473Z" stroke="#616161" stroke-linecap="round" stroke-linejoin="round"/>
<path d="M65.9478 302.606C65.4805 303.284 65.0483 303.99 64.6533 304.722" stroke="#616161" stroke-linecap="round" stroke-linejoin="round"/>
<path d="M66.4951 295.133C66.4951 295.133 76.5731 292.493 77.2599 295.133C77.8503 297.43 72.4033 294.733 67.025 301.176" stroke="#616161" stroke-linecap="round" stroke-linejoin="round"/>
<path d="M83.9668 252.862C91.7864 266.711 102.794 293.961 102.794 293.961C102.794 293.961 101.134 297.115 102.794 302.405C102.794 302.405 98.45 320.81 104.749 364.816C104.749 364.816 110.17 368.628 118.007 361.957C118.007 361.957 121.916 295.81 120.413 286.889C118.911 277.967 104.775 219.045 104.775 219.045H73.7065" fill="#999999"/>
<mask id="mask6_655_1135" style="mask-type:luminance" maskUnits="userSpaceOnUse" x="73" y="219" width="48" height="147">
<path d="M83.9668 252.862C91.7864 266.711 102.794 293.961 102.794 293.961C102.794 293.961 101.134 297.115 102.794 302.405C102.794 302.405 98.45 320.81 104.749 364.816C104.749 364.816 110.17 368.628 118.007 361.957C118.007 361.957 121.916 295.81 120.413 286.889C118.911 277.967 104.775 219.045 104.775 219.045H73.7065" fill="white"/>
</mask>
<g mask="url(#mask6_655_1135)">
<path opacity="0.2" d="M82.2031 253.825C82.2031 253.825 86.9386 256.465 96.0174 253.825C105.096 251.185 97.5722 262.403 100.579 274.641C103.585 286.879 112.029 292.493 110.674 297.774C109.319 303.054 105.305 304.388 104.445 318.599C103.585 332.81 114.949 359.06 110.474 364.435C106 369.81 95.1575 357.096 95.1575 357.096L86.0867 289.72L82.2031 253.825Z" fill="black"/>
</g>
<path d="M83.9668 252.862C91.7864 266.711 102.794 293.961 102.794 293.961C102.794 293.961 101.134 297.115 102.794 302.405C102.794 302.405 98.45 320.81 104.749 364.816C104.749 364.816 110.17 368.628 118.007 361.957C118.007 361.957 121.916 295.81 120.413 286.889C118.911 277.967 104.775 219.045 104.775 219.045H73.7065" stroke="#616161" stroke-linecap="round" stroke-linejoin="round"/>
<path d="M108.546 296.296C112.116 295.705 116.678 295.343 116.495 297.115C116.2 300.089 109.831 297.068 105.956 302.072" stroke="#616161" stroke-linecap="round" stroke-linejoin="round"/>
<path d="M104.445 297.116C104.445 297.116 105.07 296.963 106.035 296.763" stroke="#616161" stroke-linecap="round" stroke-linejoin="round"/>
<path d="M129.31 125.515L129.875 119.225C129.875 119.225 128.745 112.677 129.31 110.456C129.875 108.235 134.827 94.1577 136.399 94.7774C137.972 95.3963 134.037 103.05 134.149 105.261C134.149 105.261 136.243 105.386 136.755 106.863C136.755 106.863 138.745 107.235 138.858 109.207C139.344 109.547 139.736 110.026 139.993 110.592C140.25 111.157 140.363 111.789 140.317 112.419C140.1 114.516 136.269 120.197 136.269 120.197L136.495 128.346L129.31 125.515Z" fill="white" stroke="#616161" stroke-linecap="round" stroke-linejoin="round"/>
<path d="M96.0001 114.888C96.0001 114.888 93.7845 110.122 93.463 108.33C93.2281 107.082 93.6973 104.518 93.463 103.26C92.9246 100.353 89.2148 92.3561 89.2148 92.3561C89.0657 92.012 88.838 91.7165 88.5545 91.4982L86.3821 94.4339H80.492L71.491 107.473L75.9216 119.177L74.6271 120.864C75.4178 121.722 75.9216 122.218 75.9216 122.218L74.6271 130.709L87.3119 132.12L87.6074 126.735H91.465C91.9855 126.735 92.4846 126.508 92.8534 126.104C93.2214 125.7 93.4284 125.153 93.4284 124.581V117.204L95.1662 116.651C95.3332 116.608 95.491 116.526 95.6267 116.411C95.7625 116.295 95.8743 116.148 95.9535 115.981C96.0327 115.813 96.078 115.629 96.086 115.44C96.094 115.251 96.0647 115.063 96.0001 114.888Z" fill="white" stroke="#616161" stroke-linecap="round" stroke-linejoin="round"/>
<path d="M65.3222 110.646C70.4306 118.9 75.9214 122.218 75.9214 122.218L78.0851 116.317C78.0851 116.317 73.7411 115.812 74.3926 111.18C75.4089 104.346 80.4738 110.494 80.4738 110.494L81.5687 105.214C81.5687 105.214 84.2708 102.03 84.0798 100.915C83.9347 100.105 83.7437 99.3058 83.5061 98.5224C83.5061 98.5224 93.2805 88.3148 92.2462 82.6249C92.2462 82.6249 84.1058 84.4353 74.3926 86.4372C62.568 88.782 59.5533 101.344 65.3222 110.646Z" fill="#616161" stroke="#616161" stroke-linecap="round" stroke-linejoin="round"/>
<path d="M91.4994 126.735C91.4994 126.735 84.6967 125.468 82.0991 121.969C79.5014 118.472 81.5686 122.218 82.7853 124.362C85.3916 128.946 87.6072 126.735 91.4994 126.735Z" fill="#616161"/>
<path d="M87.3118 116.003C87.781 116.586 88.3733 117.034 89.0362 117.308C89.6998 117.582 90.4139 117.674 91.1174 117.576" stroke="#616161" stroke-width="0.75" stroke-linecap="round" stroke-linejoin="round"/>
<path d="M92.2643 106.882C92.2643 107.549 92.038 108.083 91.7511 108.083C91.465 108.083 91.2473 107.549 91.2473 106.882C91.2473 106.214 91.4736 105.681 91.7511 105.681C92.0293 105.681 92.2643 106.224 92.2643 106.882Z" fill="#616161"/>
<path d="M92.1684 103.374C91.4649 103.205 90.7295 103.315 90.0932 103.685C89.4563 104.055 88.9604 104.661 88.6929 105.395" stroke="#616161" stroke-width="0.75" stroke-linecap="round" stroke-linejoin="round"/>
<path d="M67.998 134.417C67.998 134.417 67.998 127.898 78.2416 128.908C90.6916 130.148 95.7132 137.143 95.7132 137.143L67.998 134.417Z" fill="#92E3A9" stroke="#616161" stroke-linecap="round" stroke-linejoin="round"/>
<path d="M88.0853 133.245C95.8437 134.198 109.371 136.248 108.563 159.132C107.755 182.017 104.749 219.026 104.749 219.026C104.749 219.026 65.9478 237.212 61.543 220.341C61.543 220.341 63.5586 201.279 57.1295 171.609C50.7003 141.937 53.6108 129.118 88.0853 133.245Z" fill="#616161"/>
<mask id="mask7_655_1135" style="mask-type:luminance" maskUnits="userSpaceOnUse" x="54" y="132" width="55" height="96">
<path d="M88.0853 133.245C95.8437 134.198 109.371 136.248 108.563 159.132C107.755 182.017 104.749 219.026 104.749 219.026C104.749 219.026 65.9478 237.212 61.543 220.341C61.543 220.341 63.5586 201.279 57.1295 171.609C50.7003 141.937 53.6108 129.118 88.0853 133.245Z" fill="white"/>
</mask>
<g mask="url(#mask7_655_1135)">
<path opacity="0.2" d="M110.527 197.429C110.527 197.429 105.461 198.763 89.9442 189.499C65.6178 174.944 62.8897 153.585 56.0609 157.092C49.232 160.6 62.8115 229.482 62.8115 229.482L88.0067 231.217H111.36L110.527 197.429Z" fill="#616161"/>
</g>
<path d="M88.0853 133.245C95.8437 134.198 109.371 136.248 108.563 159.132C107.755 182.017 104.749 219.026 104.749 219.026C104.749 219.026 65.9478 237.212 61.543 220.341C61.543 220.341 63.5586 201.279 57.1295 171.609C50.7003 141.937 53.6108 129.118 88.0853 133.245Z" stroke="#616161" stroke-linecap="round" stroke-linejoin="round"/>
<path d="M43.2979 187.926C42.8635 188.041 42.403 188.184 41.9165 188.355" stroke="#616161" stroke-width="0.75" stroke-linecap="round" stroke-linejoin="round"/>
<path d="M49.7099 188.355C49.7099 188.355 48.0766 187.078 44.4971 187.669" stroke="#616161" stroke-width="0.75" stroke-linecap="round" stroke-linejoin="round"/>
<path d="M91.0823 133.665C91.0823 133.665 104.523 133.76 110.544 137.725C110.544 137.725 121.187 135.742 125.409 137.725L129.223 122.084C129.223 122.084 134.245 119.434 136.652 123.4C136.652 123.4 138.459 147.227 135.452 149.181C132.447 151.135 108.572 157.112 108.572 157.112C108.572 157.112 93.3239 152.079 91.0823 133.665Z" fill="#616161"/>
<mask id="mask8_655_1135" style="mask-type:luminance" maskUnits="userSpaceOnUse" x="91" y="121" width="47" height="37">
<path d="M91.0823 133.665C91.0823 133.665 104.523 133.76 110.544 137.725C110.544 137.725 121.187 135.742 125.409 137.725L129.223 122.084C129.223 122.084 134.245 119.434 136.652 123.4C136.652 123.4 138.459 147.227 135.452 149.181C132.447 151.135 108.572 157.112 108.572 157.112C108.572 157.112 93.3239 152.079 91.0823 133.665Z" fill="white"/>
</mask>
<g mask="url(#mask8_655_1135)">
<path opacity="0.2" d="M108.459 153.07C108.459 153.07 107.755 146.942 118.015 147.732C128.276 148.524 136.26 148.743 137.277 143.453C138.294 138.163 149.545 129.014 145.965 146.141L142.342 163.297L120.761 164.861L108.459 153.07Z" fill="#616161"/>
</g>
<path d="M91.0823 133.665C91.0823 133.665 104.523 133.76 110.544 137.725C110.544 137.725 121.187 135.742 125.409 137.725L129.223 122.084C129.223 122.084 134.245 119.434 136.652 123.4C136.652 123.4 138.459 147.227 135.452 149.181C132.447 151.135 108.572 157.112 108.572 157.112C108.572 157.112 93.3239 152.079 91.0823 133.665Z" stroke="#616161" stroke-linecap="round" stroke-linejoin="round"/>
<path d="M127.902 138.897C129.063 139.935 130.06 141.175 130.857 142.566" stroke="#616161" stroke-width="0.75" stroke-linecap="round" stroke-linejoin="round"/>
<path d="M125.73 137.878C126.058 137.876 126.381 137.954 126.678 138.106" stroke="#616161" stroke-width="0.75" stroke-linecap="round" stroke-linejoin="round"/>
<path d="M56.8427 164.861C56.3736 159.923 55.1051 150.859 55.6003 144.587" stroke="#616161" stroke-width="0.75" stroke-linecap="round" stroke-linejoin="round"/>
<path d="M53.2893 153.07C53.2893 153.07 55.6351 168.32 56.7646 168.32" stroke="#616161" stroke-width="0.75" stroke-linecap="round" stroke-linejoin="round"/>
<path d="M61.7253 209.704V218.264" stroke="#616161" stroke-width="0.75" stroke-linecap="round" stroke-linejoin="round"/>
<path d="M74.9658 231.236C74.9658 231.236 76.2257 240.91 80.1006 246.886L74.9658 231.236Z" fill="#999999"/>
<path d="M74.9658 231.236C74.9658 231.236 76.2257 240.91 80.1006 246.886" stroke="#616161" stroke-linecap="round" stroke-linejoin="round"/>
<path d="M128.128 120.283L127.259 123.828C127.259 123.828 133.133 122.303 138.328 125.363L137.798 121.217C137.798 121.217 134.436 118.462 128.128 120.283Z" fill="#92E3A9" stroke="#616161" stroke-linecap="round" stroke-linejoin="round"/>
<path d="M96.0433 211.687C91.8123 213.746 83.4197 215.557 66.9385 213.775" stroke="#616161" stroke-width="0.75" stroke-linecap="round" stroke-linejoin="round"/>
<path d="M100.283 207.894C99.9228 208.77 99.3444 209.516 98.615 210.048" stroke="#616161" stroke-width="0.75" stroke-linecap="round" stroke-linejoin="round"/>
<path d="M111.933 138.172L118.789 142.824" stroke="#616161" stroke-width="0.75" stroke-linecap="round" stroke-linejoin="round"/>
<path d="M101.23 177.318C105.612 171.66 108.337 164.685 109.05 157.302" stroke="#616161" stroke-width="0.75" stroke-linecap="round" stroke-linejoin="round"/>
<path d="M97.2332 175.935C91.6631 182.993 84.706 188.572 76.8857 192.253" stroke="#616161" stroke-width="0.75" stroke-linecap="round" stroke-linejoin="round"/>
<path d="M100.64 171.094C99.988 172.123 99.3011 173.124 98.5803 174.106" stroke="#616161" stroke-width="0.75" stroke-linecap="round" stroke-linejoin="round"/>
<path d="M102.733 167.643C102.403 168.254 102.055 168.845 101.708 169.436" stroke="#616161" stroke-width="0.75" stroke-linecap="round" stroke-linejoin="round"/>
<path d="M65.1746 203.938C73.9674 208.346 83.7491 209.815 93.2979 208.161" stroke="#616161" stroke-width="0.75" stroke-linecap="round" stroke-linejoin="round"/>
<path d="M88.6929 85.5794C89.5907 85.1507 90.4466 84.6236 91.2473 84.0067" stroke="#616161" stroke-width="0.75" stroke-linecap="round" stroke-linejoin="round"/>
<path d="M67.5289 108.083C67.5289 108.083 62.7072 98.3801 68.2763 93.0902C72.5246 89.0676 80.1006 88.6869 86.1652 86.609" stroke="#616161" stroke-width="0.75" stroke-linecap="round" stroke-linejoin="round"/>
<path d="M71.5867 101.191C71.3152 100.309 71.2713 99.3624 71.4583 98.4545C71.6453 97.5467 72.056 96.7128 72.6463 96.0446C75.9568 92.5943 85.6174 92.2323 90.4307 86.9803" stroke="#616161" stroke-width="0.75" stroke-linecap="round" stroke-linejoin="round"/>
<path d="M73.55 105.681C73.1506 105.078 72.7966 104.44 72.4897 103.774" stroke="#616161" stroke-width="0.75" stroke-linecap="round" stroke-linejoin="round"/>
</g>
<defs>
<clipPath id="clip0_655_1135">
<rect width="400" height="400" fill="white"/>
</clipPath>
</defs>
</svg>
