<svg width="601" height="601" viewBox="0 0 601 601" fill="none" xmlns="http://www.w3.org/2000/svg">
<path d="M563.15 521.514C527.592 570.348 454.49 594.979 342.084 600.092C195.332 606.765 128.17 576.706 60.2383 508.439H551.063L563.15 521.514Z" fill="white"/>
<path d="M1 508.382H545.397" stroke="#263238" stroke-linecap="round" stroke-linejoin="round"/>
<path d="M551.089 64.1113V508.382L587.078 547.864" stroke="white" stroke-linecap="round" stroke-linejoin="round"/>
<path d="M443.59 90.4183V13.1725" stroke="white" stroke-linecap="round" stroke-linejoin="round"/>
<path d="M413.201 123.757C413.117 119.322 413.841 114.913 415.33 110.788C416.82 106.664 419.044 102.907 421.874 99.7377C424.703 96.5685 428.081 94.0507 431.809 92.3318C435.537 90.6129 439.54 89.7275 443.584 89.7275C447.628 89.7275 451.631 90.6129 455.359 92.3318C459.087 94.0507 462.464 96.5685 465.294 99.7377C468.124 102.907 470.348 106.664 471.837 110.788C473.327 114.913 474.051 119.322 473.967 123.757H413.201Z" stroke="white" stroke-linecap="round" stroke-linejoin="round"/>
<path d="M60.2383 508.382H35.3577" stroke="#263238" stroke-linecap="round" stroke-linejoin="round"/>
<path d="M161.092 330.476H134.998V508.397H161.092V330.476Z" stroke="white" stroke-linecap="round" stroke-linejoin="round"/>
<path d="M125.664 343.68H20.2283V386.886H125.664V343.68Z" stroke="white" stroke-linecap="round" stroke-linejoin="round"/>
<path d="M125.664 391.597H20.2283V434.802H125.664V391.597Z" stroke="white" stroke-linecap="round" stroke-linejoin="round"/>
<path d="M125.664 439.528H20.2283V482.734H125.664V439.528Z" stroke="white" stroke-linecap="round" stroke-linejoin="round"/>
<path d="M61.8569 346.802C61.8569 348.078 62.319 349.302 63.1416 350.204C63.9641 351.107 65.0798 351.613 66.243 351.613H79.6493C80.2264 351.615 80.7981 351.492 81.3318 351.251C81.8655 351.01 82.3505 350.656 82.7592 350.209C83.1679 349.762 83.4921 349.231 83.7133 348.646C83.9346 348.062 84.0485 347.435 84.0485 346.802" stroke="white" stroke-linecap="round" stroke-linejoin="round"/>
<path d="M61.8569 394.719C61.8672 395.989 62.3335 397.203 63.1545 398.099C63.9756 398.994 65.0853 399.498 66.243 399.502H79.6493C80.816 399.502 81.935 398.994 82.76 398.089C83.585 397.183 84.0485 395.956 84.0485 394.676" stroke="white" stroke-linecap="round" stroke-linejoin="round"/>
<path d="M61.8569 442.65C61.8569 443.927 62.3186 445.153 63.1408 446.057C63.963 446.962 65.0786 447.472 66.243 447.476H79.6493C80.227 447.476 80.7991 447.351 81.3328 447.109C81.8665 446.866 82.3515 446.511 82.76 446.062C83.1685 445.614 83.4925 445.082 83.7136 444.497C83.9347 443.911 84.0485 443.284 84.0485 442.65" stroke="white" stroke-linecap="round" stroke-linejoin="round"/>
<path d="M130.729 508.397H11.6912V330.476H130.729" stroke="white" stroke-linecap="round" stroke-linejoin="round"/>
<path d="M232.405 422.014V489.321L264.531 501.737C264.931 501.892 265.278 502.178 265.523 502.558C265.769 502.938 265.901 503.391 265.901 503.857V505.948C265.902 506.295 265.829 506.638 265.687 506.949C265.546 507.261 265.34 507.531 265.087 507.74C264.833 507.948 264.539 508.089 264.227 508.151C263.915 508.213 263.595 508.194 263.291 508.096L230.291 497.47L229.69 506.163C229.653 506.768 229.407 507.335 229.002 507.747C228.597 508.16 228.063 508.387 227.51 508.382H225.813C225.262 508.38 224.732 508.151 224.328 507.74C223.924 507.328 223.676 506.765 223.633 506.163L223.033 497.47L190.046 508.096C189.742 508.191 189.422 508.207 189.111 508.144C188.801 508.081 188.507 507.94 188.255 507.732C188.002 507.524 187.796 507.255 187.654 506.945C187.512 506.636 187.437 506.294 187.435 505.948V503.857C187.435 503.391 187.567 502.938 187.813 502.558C188.058 502.178 188.405 501.892 188.805 501.737L220.944 489.321V422.014" stroke="white" stroke-linecap="round" stroke-linejoin="round"/>
<path d="M217.746 397.64V378.135" stroke="white" stroke-linecap="round" stroke-linejoin="round"/>
<path d="M210.214 378.135V397.64" stroke="white" stroke-linecap="round" stroke-linejoin="round"/>
<path d="M185.15 374.67C179.798 374.441 176.013 370.631 176.013 364.044V329.889C176.1 327.822 176.732 325.827 177.832 324.147C178.933 322.466 180.455 321.173 182.213 320.423" stroke="white" stroke-linecap="round" stroke-linejoin="round"/>
<path d="M183.675 325.564V363.901C183.675 370.517 188.492 374.169 194.562 372.995C207.804 370.318 221.426 370.974 234.402 374.914C240.381 376.689 245.081 373.482 245.081 366.894V328.558C245.004 326.884 244.493 325.269 243.607 323.903C242.721 322.538 241.498 321.48 240.081 320.853C223.54 314.709 205.748 313.85 188.779 318.376C187.35 318.838 186.09 319.781 185.174 321.07C184.259 322.36 183.734 323.931 183.675 325.564Z" stroke="white" stroke-linecap="round" stroke-linejoin="round"/>
<path d="M208.321 400.476H190.959C189.496 400.474 188.047 400.788 186.694 401.401C185.342 402.014 184.113 402.914 183.077 404.048C182.042 405.183 181.221 406.53 180.66 408.013C180.1 409.496 179.812 411.086 179.812 412.691C179.812 414.176 180.349 415.6 181.306 416.651C182.264 417.701 183.562 418.291 184.916 418.291H205.11" stroke="white" stroke-linecap="round" stroke-linejoin="round"/>
<path d="M211.049 418.291H268.382C269.735 418.291 271.034 417.701 271.991 416.651C272.948 415.6 273.486 414.176 273.486 412.691C273.486 411.086 273.197 409.496 272.637 408.013C272.076 406.53 271.255 405.183 270.22 404.048C269.184 402.914 267.955 402.014 266.603 401.401C265.25 400.788 263.801 400.474 262.338 400.476H217.093C215.63 400.474 214.18 400.788 212.828 401.401C211.476 402.014 210.247 402.914 209.211 404.048C208.176 405.183 207.354 406.53 206.794 408.013C206.234 409.496 205.945 411.086 205.945 412.691C205.945 414.176 206.483 415.6 207.44 416.651C208.397 417.701 209.696 418.291 211.049 418.291Z" stroke="white" stroke-linecap="round" stroke-linejoin="round"/>
<path d="M480.99 300.46C481.672 300.445 482.326 300.16 482.833 299.657C483.339 299.154 483.662 298.468 483.744 297.725L489.461 239.339C489.505 238.994 489.48 238.643 489.387 238.31C489.295 237.977 489.138 237.67 488.927 237.41C488.716 237.15 488.456 236.943 488.165 236.804C487.875 236.665 487.56 236.597 487.242 236.604" stroke="white" stroke-linecap="round" stroke-linejoin="round"/>
<path d="M339.577 354.191H523.558V335.46H339.577V354.191Z" stroke="white" stroke-linecap="round" stroke-linejoin="round"/>
<path d="M274.086 335.445V354.177H336.732" stroke="white" stroke-linecap="round" stroke-linejoin="round"/>
<path d="M529.471 333.441V321.727H350.073" stroke="white" stroke-linecap="round" stroke-linejoin="round"/>
<path d="M268.16 333.455H347.214V321.74H268.16V333.455Z" stroke="white" stroke-linecap="round" stroke-linejoin="round"/>
<path d="M513.572 357.313V508.382H517.553L518.989 357.313" stroke="white" stroke-linecap="round" stroke-linejoin="round"/>
<path d="M508.167 357.313L509.59 508.382H513.572V357.313" stroke="white" stroke-linecap="round" stroke-linejoin="round"/>
<path d="M460.965 357.313V508.382H464.946L466.369 357.313" stroke="white" stroke-linecap="round" stroke-linejoin="round"/>
<path d="M455.561 357.313L456.983 508.382H460.965V357.313" stroke="white" stroke-linecap="round" stroke-linejoin="round"/>
<path d="M336.666 357.313V508.382H340.661L342.084 357.313" stroke="white" stroke-linecap="round" stroke-linejoin="round"/>
<path d="M331.262 357.313L332.685 508.382H336.666V357.313" stroke="white" stroke-linecap="round" stroke-linejoin="round"/>
<path d="M284.059 357.313V508.382H288.041L289.464 357.313" stroke="white" stroke-linecap="round" stroke-linejoin="round"/>
<path d="M278.655 357.313L280.078 508.382H284.059V357.313" stroke="white" stroke-linecap="round" stroke-linejoin="round"/>
<path d="M418.762 318.089H380.057V321.726H418.762V318.089Z" stroke="white" stroke-linecap="round" stroke-linejoin="round"/>
<path d="M489.892 321.727H480.911C480.312 321.727 479.738 321.466 479.314 321.001C478.891 320.536 478.653 319.906 478.653 319.249V316.127H492.151V319.249C492.151 319.906 491.913 320.536 491.489 321.001C491.066 321.466 490.491 321.727 489.892 321.727Z" stroke="white" stroke-linecap="round" stroke-linejoin="round"/>
<path d="M492.151 316.155C492.151 314.036 489.122 312.303 485.389 312.303C481.655 312.303 478.64 314.036 478.64 316.155H492.151Z" stroke="white" stroke-linecap="round" stroke-linejoin="round"/>
<path d="M478.64 316.155C478.64 314.036 481.668 312.303 485.389 312.303V316.155H478.64Z" stroke="white" stroke-linecap="round" stroke-linejoin="round"/>
<path d="M478.183 300.46H402.732C402.415 300.468 402.1 300.399 401.809 300.26C401.518 300.121 401.258 299.914 401.047 299.654C400.836 299.394 400.679 299.087 400.587 298.754C400.494 298.421 400.469 298.07 400.513 297.725L406.23 239.34C406.314 238.597 406.639 237.913 407.144 237.411C407.65 236.909 408.303 236.623 408.985 236.604H484.449C484.765 236.599 485.079 236.669 485.369 236.809C485.659 236.949 485.918 237.156 486.129 237.415C486.339 237.675 486.496 237.981 486.589 238.313C486.682 238.645 486.709 238.995 486.668 239.34L480.95 297.725C480.868 298.471 480.543 299.159 480.034 299.662C479.525 300.165 478.868 300.448 478.183 300.46Z" stroke="white" stroke-linecap="round" stroke-linejoin="round"/>
<path d="M451.37 302.021L452.663 315.167H455.508L454.216 302.021" stroke="white" stroke-linecap="round" stroke-linejoin="round"/>
<path d="M432.86 302.021L434.152 315.167H452.663L451.37 302.021" stroke="white" stroke-linecap="round" stroke-linejoin="round"/>
<path d="M475.037 296.235H406.713C406.437 296.242 406.163 296.184 405.91 296.063C405.657 295.942 405.43 295.763 405.247 295.537C405.063 295.311 404.926 295.043 404.846 294.754C404.765 294.464 404.743 294.158 404.781 293.858L409.742 243.206C409.814 242.559 410.097 241.962 410.538 241.525C410.979 241.088 411.55 240.841 412.144 240.829H480.467C480.744 240.822 481.018 240.881 481.271 241.001C481.524 241.122 481.75 241.301 481.934 241.528C482.118 241.754 482.255 242.021 482.335 242.311C482.415 242.6 482.437 242.906 482.399 243.206L477.439 293.858C477.367 294.505 477.084 295.102 476.643 295.539C476.201 295.976 475.631 296.223 475.037 296.235Z" stroke="white" stroke-linecap="round" stroke-linejoin="round"/>
<path d="M458.367 315.167H420.837V321.74H458.367V315.167Z" stroke="white" stroke-linecap="round" stroke-linejoin="round"/>
<path d="M469.345 315.167H458.367V321.74H469.345V315.167Z" stroke="white" stroke-linecap="round" stroke-linejoin="round"/>
<path d="M504.969 253.216H382.068V283.59H504.969V253.216Z" fill="white" stroke="white" stroke-linecap="round" stroke-linejoin="round"/>
<path d="M396.923 271.59L394.939 269.928L395.265 272.592C395.294 272.768 395.287 272.948 395.245 273.121C395.203 273.293 395.127 273.453 395.023 273.59C394.918 273.726 394.787 273.836 394.64 273.911C394.492 273.986 394.331 274.025 394.169 274.024C394.006 274.025 393.845 273.986 393.698 273.911C393.55 273.836 393.419 273.726 393.315 273.59C393.21 273.453 393.134 273.293 393.092 273.121C393.05 272.948 393.043 272.768 393.072 272.592L393.399 269.928L391.401 271.59C391.276 271.692 391.133 271.764 390.981 271.801C390.829 271.839 390.672 271.84 390.519 271.807C390.366 271.773 390.222 271.704 390.095 271.605C389.968 271.506 389.862 271.379 389.783 271.232C389.703 271.084 389.654 270.919 389.638 270.748C389.621 270.578 389.639 270.405 389.688 270.242C389.737 270.08 389.818 269.93 389.924 269.805C390.031 269.679 390.161 269.579 390.305 269.513L392.589 268.468L390.305 267.422C390.16 267.354 390.03 267.254 389.924 267.127C389.817 266.999 389.737 266.849 389.687 266.685C389.638 266.521 389.621 266.348 389.637 266.176C389.654 266.004 389.703 265.839 389.783 265.69C389.86 265.541 389.966 265.412 390.093 265.311C390.22 265.211 390.365 265.141 390.518 265.107C390.671 265.073 390.829 265.076 390.982 265.115C391.134 265.153 391.277 265.227 391.401 265.331L393.385 266.993L393.059 264.329C393.03 264.153 393.037 263.973 393.079 263.801C393.121 263.628 393.197 263.468 393.302 263.331C393.406 263.195 393.537 263.085 393.685 263.01C393.832 262.935 393.993 262.896 394.156 262.897C394.318 262.896 394.479 262.935 394.627 263.01C394.774 263.085 394.905 263.195 395.01 263.331C395.114 263.468 395.19 263.628 395.232 263.801C395.274 263.973 395.281 264.153 395.252 264.329L394.926 266.993L396.91 265.331C397.034 265.227 397.177 265.153 397.33 265.115C397.482 265.076 397.64 265.073 397.793 265.107C397.947 265.141 398.092 265.211 398.218 265.311C398.345 265.412 398.451 265.541 398.529 265.69C398.608 265.839 398.657 266.004 398.674 266.176C398.69 266.348 398.673 266.521 398.624 266.685C398.574 266.849 398.494 266.999 398.387 267.127C398.281 267.254 398.151 267.354 398.007 267.422L395.722 268.468L398.007 269.513C398.151 269.579 398.28 269.679 398.387 269.805C398.493 269.93 398.574 270.08 398.623 270.242C398.673 270.405 398.69 270.578 398.674 270.748C398.657 270.919 398.608 271.084 398.529 271.232C398.449 271.377 398.344 271.502 398.218 271.6C398.092 271.697 397.949 271.765 397.798 271.799C397.647 271.833 397.491 271.831 397.34 271.795C397.19 271.759 397.048 271.689 396.923 271.59Z" fill="#0F0A38"/>
<path d="M414.637 271.59L412.653 269.928L412.979 272.592C413.008 272.768 413.001 272.948 412.959 273.121C412.917 273.293 412.841 273.453 412.737 273.59C412.632 273.726 412.501 273.836 412.354 273.911C412.206 273.986 412.045 274.025 411.883 274.024C411.72 274.025 411.56 273.987 411.413 273.912C411.266 273.837 411.135 273.727 411.032 273.59C410.928 273.453 410.854 273.292 410.813 273.12C410.773 272.947 410.768 272.767 410.799 272.592L411.125 269.928L409.141 271.59C409.015 271.692 408.871 271.764 408.718 271.802C408.565 271.839 408.407 271.841 408.253 271.808C408.099 271.774 407.954 271.705 407.826 271.606C407.698 271.507 407.59 271.379 407.51 271.232C407.433 271.082 407.386 270.917 407.372 270.746C407.357 270.575 407.376 270.403 407.427 270.241C407.477 270.079 407.558 269.93 407.665 269.805C407.771 269.679 407.901 269.58 408.045 269.513L410.316 268.468L408.045 267.422C407.9 267.354 407.771 267.253 407.664 267.127C407.557 267 407.476 266.85 407.426 266.687C407.375 266.523 407.357 266.35 407.371 266.178C407.386 266.007 407.433 265.84 407.51 265.69C407.589 265.54 407.696 265.411 407.824 265.31C407.952 265.21 408.098 265.14 408.252 265.107C408.406 265.073 408.565 265.075 408.719 265.114C408.872 265.153 409.016 265.227 409.141 265.332L411.125 266.993L410.799 264.329C410.768 264.154 410.773 263.974 410.813 263.802C410.854 263.629 410.928 263.469 411.032 263.332C411.135 263.195 411.266 263.085 411.413 263.009C411.56 262.934 411.72 262.896 411.883 262.897C412.045 262.896 412.206 262.935 412.354 263.01C412.501 263.085 412.632 263.195 412.737 263.331C412.841 263.468 412.917 263.628 412.959 263.801C413.001 263.973 413.008 264.153 412.979 264.329L412.653 266.993L414.637 265.332C414.761 265.227 414.904 265.153 415.057 265.115C415.209 265.076 415.367 265.073 415.52 265.107C415.674 265.141 415.819 265.211 415.945 265.311C416.072 265.412 416.178 265.541 416.256 265.69C416.335 265.839 416.384 266.004 416.401 266.176C416.417 266.348 416.4 266.521 416.351 266.685C416.301 266.849 416.221 266.999 416.114 267.127C416.008 267.254 415.878 267.354 415.734 267.422L413.462 268.468L415.734 269.513C415.878 269.579 416.007 269.679 416.114 269.805C416.22 269.93 416.301 270.08 416.35 270.242C416.4 270.405 416.417 270.578 416.401 270.748C416.384 270.919 416.335 271.084 416.256 271.232C416.177 271.379 416.07 271.506 415.943 271.605C415.816 271.704 415.672 271.773 415.519 271.807C415.366 271.84 415.209 271.839 415.057 271.801C414.905 271.764 414.762 271.692 414.637 271.59Z" fill="#0F0A38"/>
<path d="M432.351 271.59L430.367 269.929L430.693 272.592C430.724 272.767 430.719 272.947 430.679 273.12C430.639 273.292 430.564 273.453 430.461 273.59C430.357 273.727 430.227 273.837 430.08 273.912C429.933 273.987 429.772 274.025 429.61 274.024C429.446 274.028 429.284 273.991 429.136 273.917C428.987 273.842 428.855 273.733 428.75 273.595C428.645 273.458 428.569 273.297 428.528 273.123C428.487 272.95 428.482 272.768 428.513 272.592L428.84 269.929L426.855 271.59C426.73 271.692 426.587 271.764 426.435 271.801C426.283 271.839 426.126 271.841 425.973 271.807C425.821 271.773 425.676 271.704 425.549 271.605C425.422 271.506 425.316 271.379 425.237 271.232C425.158 271.084 425.108 270.919 425.092 270.748C425.076 270.578 425.093 270.405 425.142 270.243C425.192 270.08 425.272 269.93 425.379 269.805C425.485 269.679 425.615 269.58 425.759 269.513L428.03 268.468L425.759 267.423C425.614 267.355 425.484 267.254 425.378 267.127C425.271 267 425.191 266.849 425.142 266.685C425.092 266.521 425.075 266.348 425.092 266.176C425.108 266.005 425.157 265.839 425.237 265.69C425.314 265.541 425.42 265.412 425.547 265.311C425.674 265.211 425.819 265.141 425.972 265.108C426.125 265.074 426.283 265.076 426.436 265.115C426.588 265.153 426.731 265.227 426.855 265.332L428.84 266.993L428.513 264.329C428.482 264.153 428.487 263.972 428.528 263.798C428.569 263.625 428.645 263.463 428.75 263.326C428.855 263.189 428.987 263.079 429.136 263.005C429.284 262.931 429.446 262.894 429.61 262.897C429.772 262.896 429.933 262.934 430.08 263.01C430.227 263.085 430.357 263.195 430.461 263.332C430.564 263.469 430.639 263.629 430.679 263.802C430.719 263.974 430.724 264.154 430.693 264.329L430.367 266.993L432.351 265.332C432.475 265.227 432.618 265.153 432.771 265.115C432.923 265.076 433.081 265.074 433.234 265.108C433.388 265.141 433.533 265.211 433.66 265.311C433.786 265.412 433.892 265.541 433.97 265.69C434.047 265.84 434.094 266.007 434.108 266.178C434.123 266.35 434.104 266.523 434.053 266.687C434.003 266.85 433.922 267 433.815 267.127C433.709 267.253 433.579 267.354 433.435 267.423L431.163 268.468L433.435 269.513C433.579 269.58 433.708 269.679 433.815 269.805C433.921 269.93 434.002 270.08 434.051 270.243C434.101 270.405 434.118 270.578 434.102 270.748C434.085 270.919 434.036 271.084 433.957 271.232C433.877 271.377 433.772 271.502 433.646 271.6C433.52 271.698 433.377 271.765 433.226 271.799C433.075 271.833 432.919 271.832 432.768 271.796C432.618 271.76 432.476 271.689 432.351 271.59Z" fill="#0F0A38"/>
<path d="M450.143 271.59L448.146 269.928L448.472 272.592C448.503 272.767 448.499 272.947 448.458 273.12C448.418 273.292 448.343 273.453 448.24 273.59C448.136 273.727 448.006 273.837 447.859 273.912C447.712 273.987 447.551 274.025 447.389 274.024C447.226 274.025 447.066 273.986 446.918 273.911C446.77 273.836 446.64 273.726 446.535 273.59C446.43 273.453 446.354 273.293 446.313 273.121C446.271 272.948 446.264 272.768 446.292 272.592L446.619 269.928L444.635 271.59C444.51 271.692 444.367 271.764 444.215 271.801C444.063 271.839 443.905 271.84 443.753 271.807C443.6 271.773 443.455 271.704 443.328 271.605C443.202 271.506 443.095 271.379 443.016 271.232C442.937 271.084 442.887 270.919 442.871 270.748C442.855 270.578 442.872 270.405 442.921 270.242C442.971 270.08 443.051 269.93 443.158 269.805C443.264 269.679 443.394 269.579 443.538 269.513L445.823 268.468L443.538 267.422C443.393 267.354 443.264 267.254 443.157 267.127C443.051 266.999 442.97 266.849 442.921 266.685C442.871 266.521 442.854 266.348 442.871 266.176C442.887 266.004 442.937 265.839 443.016 265.69C443.094 265.541 443.199 265.412 443.326 265.311C443.453 265.211 443.598 265.141 443.751 265.107C443.905 265.073 444.063 265.076 444.215 265.115C444.367 265.153 444.511 265.227 444.635 265.332L446.619 266.993L446.292 264.329C446.264 264.153 446.271 263.973 446.313 263.801C446.354 263.628 446.43 263.468 446.535 263.331C446.64 263.195 446.77 263.085 446.918 263.01C447.066 262.935 447.226 262.896 447.389 262.897C447.551 262.896 447.712 262.934 447.859 263.009C448.006 263.085 448.136 263.195 448.24 263.332C448.343 263.469 448.418 263.629 448.458 263.802C448.499 263.974 448.503 264.154 448.472 264.329L448.146 266.993L450.143 265.332C450.268 265.227 450.411 265.153 450.563 265.115C450.715 265.076 450.874 265.073 451.027 265.107C451.18 265.141 451.325 265.211 451.452 265.311C451.579 265.412 451.684 265.541 451.762 265.69C451.839 265.839 451.887 266.005 451.902 266.176C451.918 266.347 451.9 266.52 451.851 266.683C451.802 266.846 451.722 266.996 451.617 267.124C451.512 267.251 451.383 267.353 451.24 267.422L448.955 268.468L451.227 269.513C451.371 269.58 451.5 269.679 451.607 269.805C451.713 269.93 451.795 270.079 451.845 270.241C451.896 270.403 451.914 270.575 451.9 270.746C451.886 270.917 451.839 271.082 451.762 271.232C451.683 271.379 451.577 271.506 451.45 271.605C451.323 271.704 451.178 271.773 451.025 271.807C450.873 271.84 450.715 271.839 450.563 271.801C450.411 271.764 450.268 271.692 450.143 271.59Z" fill="#0F0A38"/>
<path d="M467.792 271.59L465.808 269.928L466.134 272.592C466.163 272.768 466.156 272.948 466.114 273.121C466.073 273.293 465.997 273.453 465.892 273.59C465.787 273.726 465.657 273.836 465.509 273.911C465.361 273.986 465.201 274.025 465.038 274.024C464.875 274.025 464.715 273.986 464.567 273.911C464.419 273.836 464.289 273.726 464.184 273.59C464.079 273.453 464.003 273.293 463.961 273.121C463.92 272.948 463.913 272.768 463.941 272.592L464.268 269.928L462.284 271.59C462.159 271.692 462.016 271.764 461.864 271.801C461.712 271.839 461.554 271.84 461.401 271.807C461.249 271.773 461.104 271.704 460.977 271.605C460.851 271.506 460.744 271.379 460.665 271.232C460.586 271.084 460.536 270.919 460.52 270.748C460.504 270.578 460.521 270.405 460.57 270.242C460.62 270.08 460.7 269.93 460.807 269.805C460.913 269.679 461.043 269.579 461.187 269.513L463.471 268.468L461.187 267.422C461.042 267.354 460.913 267.254 460.806 267.127C460.7 266.999 460.619 266.849 460.57 266.685C460.52 266.521 460.503 266.348 460.52 266.176C460.536 266.004 460.586 265.839 460.665 265.69C460.743 265.541 460.848 265.412 460.975 265.311C461.102 265.211 461.247 265.141 461.4 265.107C461.553 265.073 461.712 265.076 461.864 265.115C462.016 265.153 462.159 265.227 462.284 265.331L464.268 266.993L463.941 264.329C463.913 264.153 463.92 263.973 463.961 263.801C464.003 263.628 464.079 263.468 464.184 263.331C464.289 263.195 464.419 263.085 464.567 263.01C464.715 262.935 464.875 262.896 465.038 262.897C465.201 262.896 465.361 262.935 465.509 263.01C465.657 263.085 465.787 263.195 465.892 263.331C465.997 263.468 466.073 263.628 466.114 263.801C466.156 263.973 466.163 264.153 466.134 264.329L465.808 266.892L467.792 265.231C467.916 265.127 468.06 265.053 468.212 265.014C468.364 264.976 468.522 264.973 468.676 265.007C468.829 265.041 468.974 265.11 469.101 265.211C469.228 265.311 469.333 265.44 469.411 265.589C469.49 265.738 469.54 265.904 469.556 266.076C469.573 266.247 469.556 266.421 469.506 266.585C469.457 266.749 469.376 266.899 469.27 267.026C469.163 267.153 469.033 267.254 468.889 267.322L466.604 268.367L468.889 269.413C469.033 269.479 469.163 269.579 469.269 269.704C469.376 269.83 469.456 269.979 469.506 270.142C469.555 270.305 469.572 270.477 469.556 270.648C469.54 270.819 469.49 270.983 469.411 271.131C469.34 271.287 469.239 271.423 469.116 271.533C468.993 271.642 468.85 271.721 468.697 271.764C468.543 271.807 468.383 271.814 468.227 271.784C468.071 271.754 467.923 271.688 467.792 271.59Z" fill="#0F0A38"/>
<path d="M497.411 268.41C497.411 268.41 493.795 273.351 489.344 273.351C484.893 273.351 481.29 268.41 481.29 268.41C481.29 268.41 484.893 263.455 489.305 263.455C493.717 263.455 497.411 268.41 497.411 268.41Z" fill="white" stroke="#0F0A38" stroke-linecap="round" stroke-linejoin="round"/>
<path d="M492.124 268.41C492.127 269.014 491.966 269.605 491.662 270.109C491.358 270.612 490.925 271.006 490.417 271.239C489.909 271.472 489.35 271.534 488.81 271.418C488.269 271.302 487.773 271.013 487.383 270.587C486.992 270.161 486.726 269.617 486.618 269.025C486.51 268.433 486.564 267.819 486.774 267.261C486.984 266.702 487.34 266.225 487.798 265.889C488.255 265.554 488.793 265.374 489.344 265.374C489.708 265.372 490.07 265.45 490.407 265.601C490.744 265.753 491.051 265.976 491.309 266.258C491.568 266.541 491.773 266.876 491.913 267.245C492.052 267.614 492.124 268.01 492.124 268.41Z" fill="#0F0A38" stroke="#0F0A38" stroke-linecap="round" stroke-linejoin="round"/>
<path d="M466.304 400.734C466.304 400.734 451.358 434.602 438.225 417.417C425.093 400.232 447.285 393.788 447.285 393.788C447.285 393.788 420.551 397.254 420.551 381.358C420.551 365.462 439.583 375.4 439.583 375.4C439.583 375.4 414.859 354.249 426.895 345.327C435.275 339.112 455.43 361.552 455.43 361.552C455.43 361.552 447.729 339.613 456.736 339.112C465.743 338.61 471.696 370.431 471.696 370.431C471.696 370.431 476.669 346.988 485.728 353.733C494.788 360.478 478.614 386.513 478.614 386.513C478.614 386.513 490.258 373.897 493.43 382.847C496.602 391.797 478.614 397.755 478.614 397.755C478.614 397.755 478.483 430.564 468.523 426.582C458.563 422.601 466.304 400.734 466.304 400.734Z" fill="#92E3A9"/>
<path d="M498.169 474.285C498.169 474.285 498.169 398.757 457.206 375.887" stroke="#263238" stroke-linecap="round" stroke-linejoin="round"/>
<path d="M471.852 387.945C471.852 387.945 460.417 390.179 447.507 405.588" stroke="#263238" stroke-linecap="round" stroke-linejoin="round"/>
<path d="M463.85 380.326C463.85 380.326 451.24 384.551 439.047 383.019" stroke="#263238" stroke-linecap="round" stroke-linejoin="round"/>
<path d="M467.401 383.348C473.291 379.02 477.94 372.947 480.807 365.834" stroke="#263238" stroke-linecap="round" stroke-linejoin="round"/>
<path d="M544.013 423.002C544.013 423.002 556.623 451.572 567.706 437.079C578.789 422.587 560.057 417.131 560.057 417.131C560.057 417.131 582.614 420.066 582.614 406.648C582.614 393.229 566.557 401.607 566.557 401.607C566.557 401.607 587.444 383.764 577.262 376.231C570.186 371.004 553.177 389.921 553.177 389.921C553.177 389.921 559.704 371.419 552.042 371.004C544.379 370.588 539.418 397.425 539.418 397.425C539.418 397.425 535.215 377.634 527.579 383.334C519.942 389.034 533.583 411.001 533.583 411.001C533.583 411.001 523.754 400.347 521.078 407.908C518.402 415.47 533.583 420.482 533.583 420.482C533.583 420.482 533.688 448.149 542.095 444.827C550.501 441.505 544.013 423.002 544.013 423.002Z" fill="#92E3A9"/>
<mask id="mask0_646_275" style="mask-type:luminance" maskUnits="userSpaceOnUse" x="520" y="370" width="63" height="76">
<path d="M544.013 423.002C544.013 423.002 556.623 451.572 567.706 437.079C578.789 422.587 560.057 417.131 560.057 417.131C560.057 417.131 582.614 420.066 582.614 406.648C582.614 393.229 566.557 401.607 566.557 401.607C566.557 401.607 587.444 383.764 577.262 376.231C570.186 371.004 553.177 389.921 553.177 389.921C553.177 389.921 559.704 371.419 552.042 371.004C544.379 370.588 539.418 397.425 539.418 397.425C539.418 397.425 535.215 377.634 527.579 383.334C519.942 389.034 533.583 411.001 533.583 411.001C533.583 411.001 523.754 400.347 521.078 407.908C518.402 415.47 533.583 420.482 533.583 420.482C533.583 420.482 533.688 448.149 542.095 444.827C550.501 441.505 544.013 423.002 544.013 423.002Z" fill="white"/>
</mask>
<g mask="url(#mask0_646_275)">
<path opacity="0.1" d="M544.013 423.002C544.013 423.002 556.623 451.572 567.706 437.079C578.789 422.587 560.057 417.131 560.057 417.131C560.057 417.131 582.614 420.066 582.614 406.648C582.614 393.229 566.557 401.607 566.557 401.607C566.557 401.607 587.444 383.764 577.262 376.231C570.186 371.004 553.177 389.921 553.177 389.921C553.177 389.921 559.704 371.419 552.042 371.004C544.379 370.588 539.418 397.425 539.418 397.425C539.418 397.425 535.215 377.634 527.579 383.334C519.942 389.034 533.583 411.001 533.583 411.001C533.583 411.001 523.754 400.347 521.078 407.908C518.402 415.47 533.583 420.482 533.583 420.482C533.583 420.482 533.688 448.149 542.095 444.827C550.501 441.505 544.013 423.002 544.013 423.002Z" fill="black"/>
</g>
<path d="M542.486 407.264C524.668 421.37 522.122 470.275 522.122 470.275" stroke="#263238" stroke-linecap="round" stroke-linejoin="round"/>
<path d="M537.226 412.935C544.416 415.974 550.89 420.751 556.167 426.912" stroke="#263238" stroke-linecap="round" stroke-linejoin="round"/>
<path d="M548.243 383.348C548.243 394.031 542.473 407.264 542.473 407.264L546.703 408.696" stroke="#263238" stroke-linecap="round" stroke-linejoin="round"/>
<path d="M550.188 409.842C550.188 409.842 560.931 412.477 569.077 409.842" stroke="#263238" stroke-linecap="round" stroke-linejoin="round"/>
<path d="M505.687 349.379C505.687 349.379 475.52 350.811 477.413 333.082C478.992 318.275 500.348 328.17 500.348 328.17C500.348 328.17 482.83 305.759 494.866 296.908C506.901 288.058 514.107 313.835 514.107 313.835C514.107 313.835 521.783 276.602 535.241 282.545C544.614 286.726 529.354 317.587 529.354 317.587C529.354 317.587 547.094 304.312 552.525 312.289C557.955 320.265 531.717 337.393 531.717 337.393C531.717 337.393 552.237 328.872 552.172 340.887C552.107 352.902 523.388 352.659 523.388 352.659C523.388 352.659 539.432 356.253 534.419 364.115C529.406 371.977 514.838 358.917 514.838 358.917C514.838 358.917 495.192 374.512 492.647 363.213C490.101 351.914 505.687 349.379 505.687 349.379Z" fill="#92E3A9"/>
<mask id="mask1_646_275" style="mask-type:luminance" maskUnits="userSpaceOnUse" x="477" y="281" width="77" height="87">
<path d="M505.687 349.379C505.687 349.379 475.52 350.811 477.413 333.082C478.992 318.275 500.348 328.17 500.348 328.17C500.348 328.17 482.83 305.759 494.866 296.908C506.901 288.058 514.107 313.835 514.107 313.835C514.107 313.835 521.783 276.602 535.241 282.545C544.614 286.726 529.354 317.587 529.354 317.587C529.354 317.587 547.094 304.312 552.525 312.289C557.955 320.265 531.717 337.393 531.717 337.393C531.717 337.393 552.237 328.872 552.172 340.887C552.107 352.902 523.388 352.659 523.388 352.659C523.388 352.659 539.432 356.253 534.419 364.115C529.406 371.977 514.838 358.917 514.838 358.917C514.838 358.917 495.192 374.512 492.647 363.213C490.101 351.914 505.687 349.379 505.687 349.379Z" fill="white"/>
</mask>
<g mask="url(#mask1_646_275)">
<path opacity="0.2" d="M505.687 349.379C505.687 349.379 475.52 350.811 477.413 333.082C478.992 318.275 500.348 328.17 500.348 328.17C500.348 328.17 482.83 305.759 494.866 296.908C506.901 288.058 514.107 313.835 514.107 313.835C514.107 313.835 521.783 276.602 535.241 282.545C544.614 286.726 529.354 317.587 529.354 317.587C529.354 317.587 547.094 304.312 552.525 312.289C557.955 320.265 531.717 337.393 531.717 337.393C531.717 337.393 552.237 328.872 552.172 340.887C552.107 352.902 523.388 352.659 523.388 352.659C523.388 352.659 539.432 356.253 534.419 364.115C529.406 371.977 514.838 358.917 514.838 358.917C514.838 358.917 495.192 374.512 492.647 363.213C490.101 351.914 505.687 349.379 505.687 349.379Z" fill="white"/>
</g>
<path d="M509.852 474.284C509.852 474.284 505.035 380.799 522.109 318.189" stroke="#263238" stroke-linecap="round" stroke-linejoin="round"/>
<path d="M488.9 335.259C488.9 335.259 501.615 334.085 516.64 343.135" stroke="#263238" stroke-linecap="round" stroke-linejoin="round"/>
<path d="M499.474 305.816C499.474 305.816 512.188 319.478 517.37 339.112" stroke="#263238" stroke-linecap="round" stroke-linejoin="round"/>
<path d="M518.506 333.326C518.506 333.326 526.769 323.301 537.226 320.724" stroke="#263238" stroke-linecap="round" stroke-linejoin="round"/>
<path d="M542.212 465.034H477.243L482.465 529.663C482.52 530.343 482.805 530.976 483.264 531.437C483.723 531.898 484.323 532.154 484.945 532.155L486.25 548.122C486.309 548.804 486.597 549.436 487.058 549.897C487.519 550.358 488.12 550.614 488.744 550.614H530.712C531.334 550.613 531.933 550.357 532.392 549.896C532.851 549.435 533.136 548.802 533.192 548.122L534.497 532.155C535.121 532.154 535.722 531.899 536.183 531.438C536.644 530.977 536.932 530.344 536.991 529.663L542.212 465.034Z" fill="white" stroke="#263238" stroke-linecap="round" stroke-linejoin="round"/>
<path d="M542.63 470.317H476.825C475.594 470.314 474.414 469.775 473.543 468.82C472.672 467.865 472.182 466.57 472.178 465.219C472.182 463.868 472.672 462.574 473.543 461.618C474.414 460.663 475.594 460.125 476.825 460.121H542.63C543.86 460.125 545.039 460.664 545.907 461.619C546.776 462.575 547.264 463.87 547.264 465.219C547.264 466.569 546.776 467.864 545.907 468.819C545.039 469.775 543.86 470.314 542.63 470.317Z" fill="#616161" stroke="#616161" stroke-linecap="round" stroke-linejoin="round"/>
<path d="M522.514 532.341H526.821" stroke="#263238" stroke-linecap="round" stroke-linejoin="round"/>
<path d="M492.621 532.341H518.193" stroke="#263238" stroke-linecap="round" stroke-linejoin="round"/>
<path d="M365.633 1H347.84V374.312H365.633C368.466 374.308 371.182 373.071 373.184 370.871C375.186 368.672 376.311 365.691 376.311 362.583V12.7286C376.311 9.62049 375.186 6.63944 373.184 4.4403C371.182 2.24116 368.466 1.0038 365.633 1Z" fill="#999999" stroke="#263238" stroke-linecap="round" stroke-linejoin="round"/>
<path d="M360.829 1H205.997C200.59 1 196.207 5.80869 196.207 11.7405V363.571C196.207 369.503 200.59 374.312 205.997 374.312H360.829C366.236 374.312 370.619 369.503 370.619 363.571V11.7405C370.619 5.80869 366.236 1 360.829 1Z" fill="#263238" stroke="#263238" stroke-linecap="round" stroke-linejoin="round"/>
<path d="M313.613 17.4259C313.361 19.7133 312.356 21.8206 310.786 23.3506C309.215 24.8806 307.189 25.7276 305.089 25.7319H260.262C258.159 25.7342 256.128 24.8898 254.555 23.3589C252.981 21.828 251.974 19.7169 251.725 17.4259C251.461 15.1503 250.45 13.0585 248.881 11.5425C247.311 10.0265 245.292 9.19064 243.201 9.19154H211.676C209.405 9.19151 207.226 10.1784 205.616 11.9363C204.006 13.6941 203.097 16.0799 203.086 18.5716V356.697C203.09 359.195 203.996 361.59 205.606 363.356C207.216 365.123 209.399 366.117 211.676 366.12H355.151C357.429 366.12 359.613 365.128 361.224 363.36C362.835 361.593 363.74 359.197 363.74 356.697V18.5716C363.742 17.3336 363.521 16.1074 363.09 14.9633C362.659 13.8192 362.026 12.7797 361.228 11.9043C360.43 11.0289 359.482 10.3349 358.44 9.86202C357.397 9.38913 356.279 9.14668 355.151 9.14857H322.137C320.04 9.14899 318.016 9.99091 316.446 11.5156C314.876 13.0404 313.868 15.1426 313.613 17.4259Z" fill="#92E3A9"/>
<mask id="mask2_646_275" style="mask-type:luminance" maskUnits="userSpaceOnUse" x="203" y="9" width="161" height="358">
<path d="M313.613 17.4259C313.361 19.7133 312.356 21.8206 310.786 23.3506C309.215 24.8806 307.189 25.7276 305.089 25.7319H260.262C258.159 25.7342 256.128 24.8898 254.555 23.3589C252.981 21.828 251.974 19.7169 251.725 17.4259C251.461 15.1503 250.45 13.0585 248.881 11.5425C247.311 10.0265 245.292 9.19064 243.201 9.19154H211.676C209.405 9.19151 207.226 10.1784 205.616 11.9363C204.006 13.6941 203.097 16.0799 203.086 18.5716V356.697C203.09 359.195 203.996 361.59 205.606 363.356C207.216 365.123 209.399 366.117 211.676 366.12H355.151C357.429 366.12 359.613 365.128 361.224 363.36C362.835 361.593 363.74 359.197 363.74 356.697V18.5716C363.742 17.3336 363.521 16.1074 363.09 14.9633C362.659 13.8192 362.026 12.7797 361.228 11.9043C360.43 11.0289 359.482 10.3349 358.44 9.86202C357.397 9.38913 356.279 9.14668 355.151 9.14857H322.137C320.04 9.14899 318.016 9.99091 316.446 11.5156C314.876 13.0404 313.868 15.1426 313.613 17.4259Z" fill="white"/>
</mask>
<g mask="url(#mask2_646_275)">
<path opacity="0.4" d="M250.407 389.864H197.982L324.356 -18.2756H376.781L250.407 389.864Z" fill="white"/>
<path opacity="0.4" d="M287.062 389.864H273.12L399.507 -18.2756H413.449L287.062 389.864Z" fill="white"/>
</g>
<path d="M313.613 17.4259C313.361 19.7133 312.356 21.8206 310.786 23.3506C309.215 24.8806 307.189 25.7276 305.089 25.7319H260.262C258.159 25.7342 256.128 24.8898 254.555 23.3589C252.981 21.828 251.974 19.7169 251.725 17.4259C251.461 15.1503 250.45 13.0585 248.881 11.5425C247.311 10.0265 245.292 9.19064 243.201 9.19154H211.676C209.405 9.19151 207.226 10.1784 205.616 11.9363C204.006 13.6941 203.097 16.0799 203.086 18.5716V356.697C203.09 359.195 203.996 361.59 205.606 363.356C207.216 365.123 209.399 366.117 211.676 366.12H355.151C357.429 366.12 359.613 365.128 361.224 363.36C362.835 361.593 363.74 359.197 363.74 356.697V18.5716C363.742 17.3336 363.521 16.1074 363.09 14.9633C362.659 13.8192 362.026 12.7797 361.228 11.9043C360.43 11.0289 359.482 10.3349 358.44 9.86202C357.397 9.38913 356.279 9.14668 355.151 9.14857H322.137C320.04 9.14899 318.016 9.99091 316.446 11.5156C314.876 13.0404 313.868 15.1426 313.613 17.4259Z" stroke="#263238" stroke-linecap="round" stroke-linejoin="round"/>
<path d="M267.99 14.0318C267.99 14.8815 267.76 15.7121 267.33 16.4186C266.9 17.1252 266.288 17.6758 265.573 18.001C264.857 18.3261 264.07 18.4112 263.31 18.2455C262.55 18.0797 261.852 17.6705 261.305 17.0697C260.757 16.4688 260.384 15.7033 260.233 14.8699C260.082 14.0366 260.159 13.1727 260.456 12.3877C260.752 11.6027 261.254 10.9317 261.898 10.4596C262.542 9.98756 263.299 9.7356 264.074 9.7356C265.113 9.7356 266.109 10.1882 266.843 10.9939C267.577 11.7996 267.99 12.8924 267.99 14.0318Z" fill="#92E3A9" stroke="#263238" stroke-linecap="round" stroke-linejoin="round"/>
<path d="M298.954 9.8645H279.138C278.131 9.8645 277.164 10.3036 276.452 11.0851C275.74 11.8666 275.339 12.9266 275.339 14.0318C275.339 15.1371 275.74 16.197 276.452 16.9786C277.164 17.7601 278.131 18.1991 279.138 18.1991H298.954C299.961 18.1991 300.927 17.7601 301.64 16.9786C302.352 16.197 302.752 15.1371 302.752 14.0318C302.752 12.9266 302.352 11.8666 301.64 11.0851C300.927 10.3036 299.961 9.8645 298.954 9.8645Z" fill="#999999" stroke="#263238" stroke-linecap="round" stroke-linejoin="round"/>
<path d="M301.33 347.761H263.239C262.2 347.761 261.204 348.214 260.47 349.02C259.735 349.825 259.323 350.918 259.323 352.057C259.323 353.197 259.735 354.29 260.47 355.095C261.204 355.901 262.2 356.354 263.239 356.354H301.33C302.368 356.354 303.364 355.901 304.099 355.095C304.833 354.29 305.246 353.197 305.246 352.057C305.246 350.918 304.833 349.825 304.099 349.02C303.364 348.214 302.368 347.761 301.33 347.761Z" fill="#999999" stroke="#263238" stroke-linecap="round" stroke-linejoin="round"/>
<path d="M378.256 96.0035V68.0782C378.256 67.4591 378.032 66.8654 377.633 66.4276C377.234 65.9898 376.692 65.7439 376.128 65.7439C375.564 65.7439 375.022 65.9898 374.623 66.4276C374.224 66.8654 374 67.4591 374 68.0782V96.0035C374 96.6226 374.224 97.2163 374.623 97.6541C375.022 98.0919 375.564 98.3378 376.128 98.3378C376.692 98.3378 377.234 98.0919 377.633 97.6541C378.032 97.2163 378.256 96.6226 378.256 96.0035Z" fill="#263238"/>
<path d="M378.256 116.74V107.446C378.256 106.827 378.032 106.233 377.633 105.795C377.234 105.358 376.692 105.112 376.128 105.112C375.564 105.112 375.022 105.358 374.623 105.795C374.224 106.233 374 106.827 374 107.446V116.74C374 117.359 374.224 117.953 374.623 118.391C375.022 118.828 375.564 119.074 376.128 119.074C376.692 119.074 377.234 118.828 377.633 118.391C378.032 117.953 378.256 117.359 378.256 116.74Z" fill="#263238"/>
<path d="M382.211 137.333H190.176V184.792H382.211V137.333Z" fill="white" stroke="#263238" stroke-linecap="round" stroke-linejoin="round"/>
<path d="M213.386 166.075L210.279 163.483L210.788 167.65C210.822 167.917 210.803 168.188 210.733 168.446C210.663 168.704 210.544 168.942 210.383 169.146C210.223 169.349 210.024 169.513 209.801 169.625C209.579 169.738 209.336 169.797 209.091 169.798C208.845 169.799 208.601 169.741 208.377 169.629C208.152 169.518 207.952 169.355 207.79 169.151C207.628 168.948 207.508 168.708 207.437 168.449C207.367 168.19 207.348 167.918 207.381 167.65L207.89 163.483L204.731 166.075C204.537 166.237 204.314 166.353 204.077 166.414C203.839 166.475 203.593 166.48 203.353 166.428C203.114 166.377 202.887 166.27 202.688 166.115C202.489 165.961 202.322 165.761 202.199 165.53V165.445C202.076 165.212 201.999 164.954 201.974 164.686C201.95 164.419 201.977 164.149 202.055 163.894C202.133 163.64 202.259 163.406 202.426 163.209C202.592 163.012 202.795 162.856 203.021 162.752L206.585 161.12L203.021 159.473C202.795 159.369 202.592 159.213 202.426 159.016C202.259 158.819 202.133 158.586 202.055 158.331C201.977 158.076 201.95 157.806 201.974 157.539C201.999 157.271 202.076 157.013 202.199 156.781V156.709C202.313 156.469 202.473 156.259 202.668 156.093C202.863 155.927 203.088 155.808 203.328 155.746C203.568 155.683 203.818 155.678 204.06 155.731C204.302 155.783 204.531 155.892 204.731 156.05L207.838 158.642L207.329 154.475C207.295 154.208 207.314 153.936 207.385 153.678C207.456 153.419 207.576 153.181 207.738 152.978C207.901 152.776 208.101 152.614 208.325 152.504C208.55 152.394 208.793 152.339 209.039 152.341C209.284 152.341 209.526 152.398 209.748 152.509C209.971 152.619 210.17 152.782 210.331 152.984C210.492 153.186 210.611 153.424 210.681 153.681C210.751 153.938 210.77 154.209 210.736 154.475L210.227 158.642L213.334 156.05C213.528 155.888 213.752 155.774 213.99 155.714C214.228 155.654 214.475 155.65 214.715 155.703C214.954 155.756 215.181 155.864 215.379 156.02C215.578 156.176 215.744 156.377 215.866 156.609V156.68C215.989 156.913 216.066 157.171 216.09 157.438C216.115 157.706 216.088 157.976 216.01 158.231C215.932 158.485 215.806 158.719 215.639 158.916C215.472 159.113 215.27 159.269 215.044 159.373L211.48 161.019L215.044 162.652C215.27 162.756 215.472 162.912 215.639 163.109C215.806 163.306 215.932 163.539 216.01 163.794C216.088 164.049 216.115 164.319 216.09 164.586C216.066 164.854 215.989 165.112 215.866 165.344V165.43C215.75 165.661 215.591 165.862 215.4 166.021C215.209 166.18 214.989 166.293 214.756 166.354C214.522 166.415 214.28 166.421 214.044 166.373C213.808 166.325 213.584 166.223 213.386 166.075Z" fill="#0F0A38"/>
<path d="M241.073 166.075L237.966 163.483L238.475 167.65C238.507 167.917 238.486 168.189 238.415 168.447C238.343 168.705 238.223 168.943 238.061 169.146C237.899 169.349 237.7 169.512 237.477 169.625C237.254 169.737 237.011 169.796 236.765 169.798C236.52 169.797 236.278 169.738 236.055 169.625C235.832 169.513 235.634 169.349 235.473 169.146C235.313 168.942 235.193 168.704 235.123 168.446C235.054 168.188 235.035 167.917 235.068 167.65L235.564 163.483L232.471 166.075C232.277 166.237 232.054 166.353 231.816 166.414C231.579 166.475 231.332 166.48 231.093 166.428C230.853 166.377 230.627 166.27 230.428 166.115C230.228 165.961 230.062 165.761 229.938 165.531V165.445C229.815 165.212 229.739 164.954 229.714 164.687C229.689 164.419 229.716 164.149 229.794 163.894C229.872 163.64 229.998 163.406 230.165 163.209C230.332 163.012 230.535 162.856 230.761 162.752L234.311 161.12L230.761 159.473C230.535 159.369 230.332 159.213 230.165 159.016C229.998 158.819 229.872 158.586 229.794 158.331C229.716 158.076 229.689 157.806 229.714 157.539C229.739 157.271 229.815 157.013 229.938 156.781V156.709C230.061 156.477 230.227 156.276 230.425 156.12C230.624 155.964 230.85 155.856 231.09 155.803C231.329 155.75 231.576 155.754 231.814 155.814C232.052 155.874 232.276 155.989 232.471 156.15L235.564 158.743L235.068 154.575C235.035 154.309 235.053 154.039 235.123 153.781C235.193 153.524 235.313 153.286 235.474 153.084C235.634 152.882 235.833 152.72 236.056 152.609C236.279 152.498 236.521 152.441 236.765 152.441C237.01 152.441 237.253 152.498 237.476 152.609C237.7 152.72 237.899 152.882 238.061 153.084C238.223 153.286 238.343 153.523 238.415 153.78C238.486 154.038 238.507 154.309 238.475 154.575L237.966 158.743L241.073 156.15C241.267 155.989 241.489 155.874 241.726 155.814C241.964 155.755 242.21 155.751 242.448 155.804C242.686 155.857 242.912 155.965 243.109 156.121C243.307 156.277 243.471 156.478 243.592 156.709V156.781C243.715 157.013 243.792 157.271 243.817 157.539C243.842 157.806 243.814 158.076 243.736 158.331C243.658 158.586 243.532 158.819 243.365 159.016C243.199 159.213 242.996 159.369 242.77 159.473L239.206 161.12L242.77 162.752C242.996 162.856 243.199 163.012 243.365 163.209C243.532 163.406 243.658 163.64 243.736 163.894C243.814 164.149 243.842 164.419 243.817 164.687C243.792 164.954 243.715 165.212 243.592 165.445V165.531C243.47 165.761 243.305 165.96 243.107 166.115C242.909 166.269 242.683 166.376 242.445 166.427C242.206 166.479 241.961 166.474 241.724 166.413C241.488 166.352 241.266 166.237 241.073 166.075Z" fill="#0F0A38"/>
<path d="M268.695 166.075L265.601 163.483L266.11 167.65C266.142 167.917 266.121 168.189 266.05 168.447C265.978 168.705 265.858 168.943 265.696 169.146C265.534 169.349 265.335 169.512 265.112 169.625C264.889 169.737 264.646 169.796 264.4 169.798C264.154 169.796 263.912 169.737 263.689 169.625C263.465 169.512 263.266 169.349 263.104 169.146C262.943 168.943 262.822 168.705 262.751 168.447C262.679 168.189 262.659 167.917 262.69 167.65L263.199 163.483L260.158 166.075C259.964 166.237 259.741 166.353 259.503 166.414C259.266 166.475 259.019 166.48 258.78 166.428C258.54 166.377 258.314 166.27 258.115 166.115C257.916 165.961 257.749 165.761 257.625 165.531V165.445C257.502 165.212 257.426 164.954 257.401 164.687C257.376 164.419 257.404 164.149 257.481 163.894C257.559 163.64 257.686 163.406 257.852 163.209C258.019 163.012 258.222 162.856 258.448 162.752L262.011 161.12L258.448 159.473C258.222 159.369 258.019 159.213 257.852 159.016C257.686 158.819 257.559 158.586 257.481 158.331C257.404 158.076 257.376 157.806 257.401 157.539C257.426 157.271 257.502 157.013 257.625 156.781V156.709C257.748 156.477 257.914 156.276 258.112 156.12C258.311 155.964 258.537 155.856 258.777 155.803C259.016 155.75 259.263 155.754 259.501 155.814C259.739 155.874 259.963 155.989 260.158 156.15L263.251 158.743L262.742 154.575C262.711 154.309 262.731 154.038 262.803 153.78C262.874 153.523 262.995 153.286 263.157 153.084C263.319 152.882 263.518 152.72 263.742 152.609C263.965 152.498 264.207 152.441 264.452 152.441C264.698 152.441 264.94 152.498 265.163 152.609C265.387 152.72 265.586 152.882 265.748 153.084C265.91 153.286 266.03 153.523 266.102 153.78C266.173 154.038 266.194 154.309 266.162 154.575L265.653 158.743L268.695 156.05C268.89 155.888 269.113 155.774 269.351 155.714C269.589 155.654 269.836 155.65 270.076 155.703C270.315 155.756 270.542 155.864 270.74 156.02C270.939 156.176 271.105 156.377 271.227 156.609V156.68C271.353 156.911 271.432 157.169 271.459 157.436C271.485 157.703 271.46 157.974 271.383 158.229C271.306 158.484 271.18 158.719 271.014 158.916C270.847 159.113 270.644 159.269 270.418 159.373L266.854 161.02L270.405 162.652C270.631 162.756 270.834 162.912 271 163.109C271.167 163.306 271.293 163.539 271.371 163.794C271.449 164.049 271.476 164.319 271.452 164.586C271.427 164.854 271.35 165.112 271.227 165.344V165.43C271.112 165.669 270.951 165.878 270.756 166.042C270.56 166.207 270.335 166.324 270.095 166.385C269.855 166.446 269.606 166.45 269.364 166.397C269.123 166.343 268.894 166.233 268.695 166.075Z" fill="#0F0A38"/>
<path d="M296.434 166.074L293.327 163.482L293.837 167.65C293.87 167.916 293.851 168.188 293.781 168.445C293.712 168.703 293.592 168.942 293.432 169.145C293.271 169.349 293.073 169.512 292.85 169.625C292.627 169.737 292.385 169.796 292.14 169.798C291.893 169.798 291.65 169.741 291.425 169.629C291.201 169.517 291.001 169.354 290.839 169.151C290.677 168.947 290.556 168.708 290.486 168.449C290.415 168.19 290.396 167.917 290.429 167.65L290.939 163.482L287.832 166.074C287.638 166.237 287.415 166.352 287.177 166.413C286.94 166.474 286.693 166.479 286.454 166.428C286.214 166.376 285.988 166.27 285.789 166.115C285.59 165.96 285.423 165.761 285.299 165.53V165.444C285.176 165.212 285.1 164.953 285.075 164.686C285.05 164.419 285.078 164.149 285.155 163.894C285.233 163.639 285.36 163.406 285.526 163.209C285.693 163.012 285.896 162.856 286.122 162.752L289.685 161.119L286.122 159.472C285.896 159.368 285.693 159.213 285.526 159.016C285.36 158.819 285.233 158.585 285.155 158.33C285.078 158.076 285.05 157.806 285.075 157.538C285.1 157.271 285.176 157.013 285.299 156.78V156.709C285.422 156.477 285.588 156.276 285.786 156.12C285.985 155.964 286.211 155.856 286.451 155.803C286.69 155.75 286.937 155.754 287.175 155.814C287.413 155.873 287.637 155.988 287.832 156.15L290.939 158.742L290.429 154.575C290.396 154.308 290.415 154.036 290.485 153.778C290.556 153.519 290.677 153.281 290.839 153.078C291.001 152.876 291.202 152.714 291.426 152.604C291.65 152.494 291.894 152.438 292.14 152.441C292.384 152.441 292.626 152.498 292.849 152.608C293.072 152.719 293.27 152.881 293.431 153.084C293.592 153.286 293.712 153.524 293.781 153.781C293.851 154.038 293.87 154.309 293.837 154.575L293.327 158.742L296.434 156.15C296.629 155.988 296.853 155.873 297.091 155.814C297.329 155.754 297.576 155.75 297.815 155.803C298.055 155.856 298.281 155.964 298.48 156.12C298.678 156.276 298.844 156.477 298.967 156.709V156.78C299.09 157.013 299.166 157.271 299.191 157.538C299.216 157.806 299.188 158.076 299.111 158.33C299.033 158.585 298.906 158.819 298.74 159.016C298.573 159.213 298.37 159.368 298.144 159.472L294.594 161.119L298.144 162.752C298.37 162.856 298.573 163.012 298.74 163.209C298.906 163.406 299.033 163.639 299.111 163.894C299.188 164.149 299.216 164.419 299.191 164.686C299.166 164.953 299.09 165.212 298.967 165.444V165.53C298.843 165.761 298.676 165.96 298.477 166.115C298.278 166.27 298.052 166.376 297.812 166.428C297.573 166.479 297.326 166.474 297.089 166.413C296.851 166.352 296.628 166.237 296.434 166.074Z" fill="#0F0A38"/>
<path d="M324.122 166.075L321.015 163.483L321.524 167.65C321.555 167.917 321.535 168.189 321.463 168.447C321.392 168.705 321.271 168.943 321.11 169.146C320.948 169.349 320.749 169.512 320.526 169.625C320.302 169.737 320.06 169.796 319.814 169.798C319.569 169.797 319.326 169.738 319.104 169.625C318.881 169.513 318.682 169.349 318.522 169.146C318.361 168.942 318.242 168.704 318.172 168.446C318.102 168.188 318.083 167.917 318.117 167.65L318.613 163.483L315.519 166.075C315.325 166.237 315.102 166.353 314.865 166.414C314.627 166.475 314.381 166.48 314.141 166.428C313.902 166.377 313.675 166.27 313.476 166.115C313.277 165.961 313.11 165.761 312.987 165.531V165.445C312.864 165.212 312.787 164.954 312.762 164.687C312.738 164.419 312.765 164.149 312.843 163.894C312.921 163.64 313.047 163.406 313.214 163.209C313.38 163.012 313.583 162.856 313.809 162.752L317.36 161.12L313.809 159.473C313.583 159.369 313.38 159.213 313.214 159.016C313.047 158.819 312.921 158.586 312.843 158.331C312.765 158.076 312.738 157.806 312.762 157.539C312.787 157.271 312.864 157.013 312.987 156.781V156.709C313.109 156.477 313.275 156.276 313.474 156.12C313.672 155.964 313.899 155.856 314.138 155.803C314.378 155.75 314.625 155.754 314.863 155.814C315.101 155.874 315.325 155.989 315.519 156.15L318.613 158.743L318.117 154.575C318.083 154.309 318.102 154.039 318.172 153.781C318.242 153.524 318.361 153.286 318.522 153.084C318.683 152.882 318.882 152.72 319.104 152.609C319.327 152.498 319.569 152.441 319.814 152.441C320.059 152.441 320.301 152.498 320.525 152.609C320.748 152.72 320.947 152.882 321.109 153.084C321.271 153.286 321.392 153.523 321.463 153.78C321.535 154.038 321.556 154.309 321.524 154.575L321.015 158.743L324.122 156.15C324.315 155.989 324.538 155.874 324.775 155.814C325.012 155.755 325.258 155.751 325.497 155.804C325.735 155.857 325.961 155.965 326.158 156.121C326.355 156.277 326.52 156.478 326.641 156.709V156.781C326.764 157.013 326.841 157.271 326.865 157.539C326.89 157.806 326.863 158.076 326.785 158.331C326.707 158.586 326.581 158.819 326.414 159.016C326.247 159.213 326.044 159.369 325.819 159.473L322.255 161.12L325.819 162.752C326.044 162.856 326.247 163.012 326.414 163.209C326.581 163.406 326.707 163.64 326.785 163.894C326.863 164.149 326.89 164.419 326.865 164.687C326.841 164.954 326.764 165.212 326.641 165.445V165.531C326.519 165.761 326.353 165.96 326.155 166.115C325.957 166.269 325.732 166.376 325.493 166.427C325.255 166.479 325.009 166.474 324.773 166.413C324.536 166.352 324.314 166.237 324.122 166.075Z" fill="#0F0A38"/>
<path d="M370.398 161.062C370.398 161.062 364.758 168.781 357.801 168.781C350.843 168.781 345.217 161.062 345.217 161.062C345.217 161.062 350.843 153.329 357.801 153.329C364.758 153.329 370.398 161.062 370.398 161.062Z" fill="white" stroke="#0F0A38" stroke-linecap="round" stroke-linejoin="round"/>
<path d="M362.134 161.062C362.134 162.003 361.88 162.922 361.404 163.704C360.928 164.486 360.251 165.095 359.459 165.455C358.667 165.815 357.796 165.909 356.955 165.725C356.114 165.542 355.342 165.089 354.736 164.424C354.13 163.759 353.717 162.912 353.55 161.99C353.383 161.068 353.469 160.112 353.797 159.243C354.125 158.374 354.68 157.632 355.393 157.109C356.105 156.587 356.943 156.308 357.801 156.308C358.95 156.308 360.052 156.809 360.865 157.7C361.678 158.592 362.134 159.801 362.134 161.062Z" fill="#0F0A38" stroke="#0F0A38" stroke-linecap="round" stroke-linejoin="round"/>
<path d="M227.549 208.493H216.101C213.239 208.493 210.919 211.038 210.919 214.178V230.36C210.919 233.5 213.239 236.046 216.101 236.046H227.549C230.411 236.046 232.732 233.5 232.732 230.36V214.178C232.732 211.038 230.411 208.493 227.549 208.493Z" fill="#92E3A9" stroke="#263238" stroke-linecap="round" stroke-linejoin="round"/>
<path d="M251.882 208.493H240.433C237.571 208.493 235.251 211.038 235.251 214.178V230.36C235.251 233.5 237.571 236.046 240.433 236.046H251.882C254.744 236.046 257.064 233.5 257.064 230.36V214.178C257.064 211.038 254.744 208.493 251.882 208.493Z" fill="#92E3A9" stroke="#263238" stroke-linecap="round" stroke-linejoin="round"/>
<path d="M276.201 208.493H264.753C261.891 208.493 259.57 211.038 259.57 214.178V230.36C259.57 233.5 261.891 236.046 264.753 236.046H276.201C279.063 236.046 281.383 233.5 281.383 230.36V214.178C281.383 211.038 279.063 208.493 276.201 208.493Z" fill="#92E3A9" stroke="#263238" stroke-linecap="round" stroke-linejoin="round"/>
<path d="M300.52 208.493H289.072C286.21 208.493 283.89 211.038 283.89 214.178V230.36C283.89 233.5 286.21 236.046 289.072 236.046H300.52C303.382 236.046 305.703 233.5 305.703 230.36V214.178C305.703 211.038 303.382 208.493 300.52 208.493Z" fill="#92E3A9" stroke="#263238" stroke-linecap="round" stroke-linejoin="round"/>
<path d="M324.853 208.493H313.404C310.542 208.493 308.222 211.038 308.222 214.178V230.36C308.222 233.5 310.542 236.046 313.404 236.046H324.853C327.715 236.046 330.035 233.5 330.035 230.36V214.178C330.035 211.038 327.715 208.493 324.853 208.493Z" fill="#92E3A9" stroke="#263238" stroke-linecap="round" stroke-linejoin="round"/>
<path d="M349.172 208.493H337.724C334.862 208.493 332.541 211.038 332.541 214.178V230.36C332.541 233.5 334.862 236.046 337.724 236.046H349.172C352.034 236.046 354.354 233.5 354.354 230.36V214.178C354.354 211.038 352.034 208.493 349.172 208.493Z" fill="#92E3A9" stroke="#263238" stroke-linecap="round" stroke-linejoin="round"/>
<path d="M239.716 240.428H228.267C225.405 240.428 223.085 242.973 223.085 246.113V262.295C223.085 265.435 225.405 267.981 228.267 267.981H239.716C242.578 267.981 244.898 265.435 244.898 262.295V246.113C244.898 242.973 242.578 240.428 239.716 240.428Z" fill="#92E3A9" stroke="#263238" stroke-linecap="round" stroke-linejoin="round"/>
<path d="M264.035 240.428H252.586C249.724 240.428 247.404 242.973 247.404 246.113V262.295C247.404 265.435 249.724 267.981 252.586 267.981H264.035C266.897 267.981 269.217 265.435 269.217 262.295V246.113C269.217 242.973 266.897 240.428 264.035 240.428Z" fill="#92E3A9" stroke="#263238" stroke-linecap="round" stroke-linejoin="round"/>
<path d="M288.367 240.428H276.919C274.057 240.428 271.736 242.973 271.736 246.113V262.295C271.736 265.435 274.057 267.981 276.919 267.981H288.367C291.229 267.981 293.549 265.435 293.549 262.295V246.113C293.549 242.973 291.229 240.428 288.367 240.428Z" fill="#92E3A9" stroke="#263238" stroke-linecap="round" stroke-linejoin="round"/>
<path d="M312.686 240.428H301.238C298.376 240.428 296.056 242.973 296.056 246.113V262.295C296.056 265.435 298.376 267.981 301.238 267.981H312.686C315.549 267.981 317.869 265.435 317.869 262.295V246.113C317.869 242.973 315.549 240.428 312.686 240.428Z" fill="#92E3A9" stroke="#263238" stroke-linecap="round" stroke-linejoin="round"/>
<path d="M337.006 240.428H325.557C322.695 240.428 320.375 242.973 320.375 246.113V262.295C320.375 265.435 322.695 267.981 325.557 267.981H337.006C339.868 267.981 342.188 265.435 342.188 262.295V246.113C342.188 242.973 339.868 240.428 337.006 240.428Z" fill="#92E3A9" stroke="#263238" stroke-linecap="round" stroke-linejoin="round"/>
<path d="M227.549 272.363H216.101C213.239 272.363 210.919 274.908 210.919 278.048V294.23C210.919 297.37 213.239 299.916 216.101 299.916H227.549C230.411 299.916 232.732 297.37 232.732 294.23V278.048C232.732 274.908 230.411 272.363 227.549 272.363Z" fill="#92E3A9" stroke="#263238" stroke-linecap="round" stroke-linejoin="round"/>
<path d="M251.882 272.363H240.433C237.571 272.363 235.251 274.908 235.251 278.048V294.23C235.251 297.37 237.571 299.916 240.433 299.916H251.882C254.744 299.916 257.064 297.37 257.064 294.23V278.048C257.064 274.908 254.744 272.363 251.882 272.363Z" fill="#92E3A9" stroke="#263238" stroke-linecap="round" stroke-linejoin="round"/>
<path d="M276.201 272.363H264.753C261.891 272.363 259.57 274.908 259.57 278.048V294.23C259.57 297.37 261.891 299.916 264.753 299.916H276.201C279.063 299.916 281.383 297.37 281.383 294.23V278.048C281.383 274.908 279.063 272.363 276.201 272.363Z" fill="#92E3A9" stroke="#263238" stroke-linecap="round" stroke-linejoin="round"/>
<path d="M300.52 272.363H289.072C286.21 272.363 283.89 274.908 283.89 278.048V294.23C283.89 297.37 286.21 299.916 289.072 299.916H300.52C303.382 299.916 305.703 297.37 305.703 294.23V278.048C305.703 274.908 303.382 272.363 300.52 272.363Z" fill="#92E3A9" stroke="#263238" stroke-linecap="round" stroke-linejoin="round"/>
<path d="M324.853 272.363H313.404C310.542 272.363 308.222 274.908 308.222 278.048V294.23C308.222 297.37 310.542 299.916 313.404 299.916H324.853C327.715 299.916 330.035 297.37 330.035 294.23V278.048C330.035 274.908 327.715 272.363 324.853 272.363Z" fill="#92E3A9" stroke="#263238" stroke-linecap="round" stroke-linejoin="round"/>
<path d="M349.172 272.363H337.724C334.862 272.363 332.541 274.908 332.541 278.048V294.23C332.541 297.37 334.862 299.916 337.724 299.916H349.172C352.034 299.916 354.354 297.37 354.354 294.23V278.048C354.354 274.908 352.034 272.363 349.172 272.363Z" fill="#92E3A9" stroke="#263238" stroke-linecap="round" stroke-linejoin="round"/>
<path d="M239.716 304.298H228.267C225.405 304.298 223.085 306.843 223.085 309.983V326.166C223.085 329.306 225.405 331.851 228.267 331.851H239.716C242.578 331.851 244.898 329.306 244.898 326.166V309.983C244.898 306.843 242.578 304.298 239.716 304.298Z" fill="#92E3A9" stroke="#263238" stroke-linecap="round" stroke-linejoin="round"/>
<path d="M264.035 304.298H252.586C249.724 304.298 247.404 306.843 247.404 309.983V326.166C247.404 329.306 249.724 331.851 252.586 331.851H264.035C266.897 331.851 269.217 329.306 269.217 326.166V309.983C269.217 306.843 266.897 304.298 264.035 304.298Z" fill="#92E3A9" stroke="#263238" stroke-linecap="round" stroke-linejoin="round"/>
<path d="M288.367 304.298H276.919C274.057 304.298 271.736 306.843 271.736 309.983V326.166C271.736 329.306 274.057 331.851 276.919 331.851H288.367C291.229 331.851 293.549 329.306 293.549 326.166V309.983C293.549 306.843 291.229 304.298 288.367 304.298Z" fill="#92E3A9" stroke="#263238" stroke-linecap="round" stroke-linejoin="round"/>
<path d="M312.686 304.298H301.238C298.376 304.298 296.056 306.843 296.056 309.983V326.166C296.056 329.306 298.376 331.851 301.238 331.851H312.686C315.549 331.851 317.869 329.306 317.869 326.166V309.983C317.869 306.843 315.549 304.298 312.686 304.298Z" fill="#92E3A9" stroke="#263238" stroke-linecap="round" stroke-linejoin="round"/>
<path d="M337.006 304.298H325.557C322.695 304.298 320.375 306.843 320.375 309.983V326.166C320.375 329.306 322.695 331.851 325.557 331.851H337.006C339.868 331.851 342.188 329.306 342.188 326.166V309.983C342.188 306.843 339.868 304.298 337.006 304.298Z" fill="#92E3A9" stroke="#263238" stroke-linecap="round" stroke-linejoin="round"/>
<path d="M314.432 99.194C323.852 79.7331 317.108 55.5791 299.369 45.2446C281.629 34.9101 259.612 42.3085 250.192 61.7695C240.771 81.2304 247.515 105.384 265.255 115.719C282.994 126.053 305.011 118.655 314.432 99.194Z" fill="white" stroke="#263238" stroke-linecap="round" stroke-linejoin="round"/>
<path d="M282.31 120.363C290.258 120.381 297.99 117.522 304.306 112.229C295.782 108.758 286.768 106.955 277.676 106.902C271.163 106.957 264.707 108.24 258.591 110.697C265.183 116.939 273.602 120.371 282.31 120.363Z" fill="#92E3A9" stroke="#263238" stroke-linecap="round" stroke-linejoin="round"/>
<path d="M272.52 98.2662C272.52 98.2662 272.207 85.263 268.878 75.7541C265.549 66.2452 263.656 52.1966 276.358 50.2489C289.059 48.3013 294.085 50.607 301.356 49.9768C315.323 48.7882 299.933 66.3884 299.933 66.3884L281.227 74.4223C281.227 74.4223 274.739 98.8963 272.52 98.2662Z" fill="#0F0A38" stroke="#0F0A38" stroke-linecap="round" stroke-linejoin="round"/>
<path d="M271.671 102.047L274.974 87.3108L284.112 90.3468L286.866 102.348C287.123 103.496 287.608 104.568 288.284 105.489C288.961 106.409 289.814 107.156 290.782 107.675C292.16 108.377 293.472 109.226 294.698 110.21C294.698 110.21 283.811 125.518 262.912 110.21C264.295 109.105 265.794 108.187 267.377 107.474C268.433 107.006 269.372 106.27 270.119 105.327C270.865 104.384 271.397 103.259 271.671 102.047Z" fill="white"/>
<mask id="mask3_646_275" style="mask-type:luminance" maskUnits="userSpaceOnUse" x="262" y="87" width="33" height="31">
<path d="M271.671 102.047L274.974 87.3108L284.112 90.3468L286.866 102.348C287.123 103.496 287.608 104.568 288.284 105.489C288.961 106.409 289.814 107.156 290.782 107.675C292.16 108.377 293.472 109.226 294.698 110.21C294.698 110.21 283.811 125.518 262.912 110.21C264.295 109.105 265.794 108.187 267.377 107.474C268.433 107.006 269.372 106.27 270.119 105.327C270.865 104.384 271.397 103.259 271.671 102.047Z" fill="white"/>
</mask>
<g mask="url(#mask3_646_275)">
<path d="M300.22 66.8465L301.421 75.6251C301.541 76.5519 301.47 77.4965 301.212 78.389L300.52 80.7806L300.925 86.5089C300.944 86.8044 300.944 87.1012 300.925 87.3967C300.742 90.2609 299.45 104.324 291.787 104.968C284.96 105.541 278.146 97.8079 275.731 94.1418C275.127 93.2278 274.685 92.1981 274.426 91.1058L273.394 86.6521C272.422 86.6448 271.476 86.3001 270.693 85.6673C269.91 85.0345 269.329 84.146 269.034 83.1292C268.003 79.5347 266.293 77.2147 269.609 75.4246C272.924 73.6345 274.073 78.7184 274.073 78.7184C274.073 78.7184 274.935 72.804 275.848 71.1141C276.762 69.4243 279.582 67.8203 280.443 66.374C280.93 65.2258 281.324 64.0325 281.618 62.8081C281.618 62.8081 291.709 64.9419 299.371 63.2377L300.22 66.8465Z" fill="#263238" stroke="#263238" stroke-linecap="round" stroke-linejoin="round"/>
</g>
<path d="M271.671 102.047L274.974 87.3108L284.112 90.3468L286.866 102.348C287.123 103.496 287.608 104.568 288.284 105.489C288.961 106.409 289.814 107.156 290.782 107.675C292.16 108.377 293.472 109.226 294.698 110.21C294.698 110.21 283.811 125.518 262.912 110.21C264.295 109.105 265.794 108.187 267.377 107.474C268.433 107.006 269.372 106.27 270.119 105.327C270.865 104.384 271.397 103.259 271.671 102.047Z" stroke="#263238" stroke-linecap="round" stroke-linejoin="round"/>
<path d="M300.22 65.2857L301.421 74.0642C301.541 74.9911 301.469 75.9356 301.212 76.8281L300.52 79.2197L300.925 84.948C300.944 85.2483 300.944 85.5498 300.925 85.8502C300.742 88.7143 299.45 102.777 291.787 103.422C284.96 103.994 278.146 96.2613 275.731 92.5952C275.13 91.6795 274.687 90.6504 274.426 89.5592L273.394 85.1055C272.417 85.1043 271.466 84.7624 270.677 84.1292C269.889 83.4959 269.304 82.6041 269.008 81.5826C267.977 77.9881 266.267 75.6682 269.583 73.8781C272.898 72.088 274.073 77.1432 274.073 77.1432C274.073 77.1432 274.935 71.2287 275.848 69.5389C276.762 67.8491 279.582 66.2451 280.443 64.7988C280.93 63.6506 281.324 62.4573 281.618 61.2329C281.618 61.2329 291.709 63.3667 299.371 61.6625L300.22 65.2857Z" fill="white" stroke="#263238" stroke-linecap="round" stroke-linejoin="round"/>
<path d="M294.803 79.9355L297.309 86.5803C297.4 86.7966 297.441 87.0345 297.427 87.2724C297.414 87.5103 297.346 87.7406 297.231 87.9426C297.115 88.1445 296.956 88.3117 296.766 88.4289C296.577 88.5462 296.364 88.6097 296.147 88.6139L293.027 88.843" stroke="#263238" stroke-width="0.75" stroke-linecap="round" stroke-linejoin="round"/>
<path d="M287.036 91.3203C287.286 91.8862 287.647 92.3848 288.093 92.7808C288.538 93.1769 289.058 93.4608 289.614 93.6124C290.171 93.764 290.751 93.7797 291.314 93.6583C291.876 93.5369 292.408 93.2814 292.871 92.9099" stroke="#263238" stroke-width="0.75" stroke-linecap="round" stroke-linejoin="round"/>
<path d="M286.97 54.803C273.447 53.1131 270.953 58.9703 270.953 58.9703" stroke="#7F7F7F" stroke-width="0.75" stroke-linecap="round" stroke-linejoin="round"/>
<path d="M301.813 53.1846C297.93 54.2494 293.948 54.8117 289.947 54.8601" stroke="#7F7F7F" stroke-width="0.75" stroke-linecap="round" stroke-linejoin="round"/>
<path d="M289.581 59.0706C293.432 59.0706 301.212 58.2829 304.319 54.3877" stroke="#7F7F7F" stroke-width="0.75" stroke-linecap="round" stroke-linejoin="round"/>
<path d="M283.89 58.3545C284.888 58.6049 285.899 58.7867 286.918 58.8987" stroke="#7F7F7F" stroke-width="0.75" stroke-linecap="round" stroke-linejoin="round"/>
<path d="M289.372 78.9762C289.372 80.1219 288.954 81.0384 288.432 81.0384C287.91 81.0384 287.492 80.1219 287.492 78.9762C287.492 77.8306 287.923 76.9141 288.432 76.9141C288.941 76.9141 289.372 77.8449 289.372 78.9762Z" fill="#263238"/>
<path d="M298.223 78.7183C298.223 79.7064 297.857 80.5084 297.413 80.5084C296.97 80.5084 296.591 79.7064 296.591 78.7183C296.591 77.7302 296.957 76.9282 297.413 76.9282C297.87 76.9282 298.223 77.7159 298.223 78.7183Z" fill="#263238"/>
<path d="M285.365 75.9401C285.365 75.9401 286.487 72.2597 288.432 72.3599C289.033 72.4223 289.608 72.6525 290.104 73.0286C290.6 73.4047 291 73.9141 291.265 74.508" stroke="#263238" stroke-width="0.75" stroke-linecap="round" stroke-linejoin="round"/>
<path d="M298.836 74.4223C298.471 73.4342 297.91 72.3171 297.165 72.3744C295.86 72.4604 295.22 74.5225 295.22 74.5225" stroke="#263238" stroke-width="0.75" stroke-linecap="round" stroke-linejoin="round"/>
<path d="M96.5018 248.304C99.1126 241.344 92.7292 220.293 89.8705 211.657C89.7043 211.158 89.429 210.711 89.0686 210.355C88.7083 209.999 88.2739 209.746 87.8036 209.618C87.3333 209.489 86.8414 209.489 86.3711 209.617C85.9007 209.746 85.4663 209.999 85.1058 210.354C82.495 212.889 79.3752 217.815 78.853 226.952C78.853 226.952 58.9329 265.432 58.9329 282.989C58.9329 299.443 88.5912 333.713 88.5912 333.713C91.9352 332.573 94.7617 330.086 96.5018 326.753C96.5018 326.753 85.4191 296.679 76.8166 283.791C76.8036 283.805 93.5647 256.009 96.5018 248.304Z" fill="#616161"/>
<mask id="mask4_646_275" style="mask-type:luminance" maskUnits="userSpaceOnUse" x="58" y="209" width="40" height="125">
<path d="M96.5018 248.304C99.1126 241.344 92.7292 220.293 89.8705 211.657C89.7043 211.158 89.429 210.711 89.0686 210.355C88.7083 209.999 88.2739 209.746 87.8036 209.618C87.3333 209.489 86.8414 209.489 86.3711 209.617C85.9007 209.746 85.4663 209.999 85.1058 210.354C82.495 212.889 79.3752 217.815 78.853 226.952C78.853 226.952 58.9329 265.432 58.9329 282.989C58.9329 299.443 88.5912 333.713 88.5912 333.713C91.9352 332.573 94.7617 330.086 96.5018 326.753C96.5018 326.753 85.4191 296.679 76.8166 283.791C76.8036 283.805 93.5647 256.009 96.5018 248.304Z" fill="white"/>
</mask>
<g mask="url(#mask4_646_275)">
<path opacity="0.2" d="M93.1731 259.56C93.1731 259.56 83.6829 237.377 80.1192 239.368C76.5555 241.358 67.3134 278.764 70.851 284.721C74.3886 290.679 93.6822 332.739 98.5121 331.894C103.342 331.049 93.1731 259.56 93.1731 259.56Z" fill="black"/>
</g>
<path d="M96.5018 248.304C99.1126 241.344 92.7292 220.293 89.8705 211.657C89.7043 211.158 89.429 210.711 89.0686 210.355C88.7083 209.999 88.2739 209.746 87.8036 209.618C87.3333 209.489 86.8414 209.489 86.3711 209.617C85.9007 209.746 85.4663 209.999 85.1058 210.354C82.495 212.889 79.3752 217.815 78.853 226.952C78.853 226.952 58.9329 265.432 58.9329 282.989C58.9329 299.443 88.5912 333.713 88.5912 333.713C91.9352 332.573 94.7617 330.086 96.5018 326.753C96.5018 326.753 85.4191 296.679 76.8166 283.791C76.8036 283.805 93.5647 256.009 96.5018 248.304Z" stroke="#616161" stroke-linecap="round" stroke-linejoin="round"/>
<path d="M93.9825 324.032L98.46 331.894C98.46 331.894 112.401 336.677 113.85 341.732C115.299 346.787 108.159 353.833 103.916 352.415C99.674 350.998 92.7555 336.963 92.7555 336.963L87.1162 329.803L93.9825 324.032Z" fill="white" stroke="#616161" stroke-linecap="round" stroke-linejoin="round"/>
<path d="M85.1973 331.722L88.2127 335.531C92.4532 334.23 96.0782 331.196 98.3425 327.053L96.5149 322.285C96.5149 322.285 93.9433 328.901 85.1973 331.722Z" fill="#92E3A9" stroke="#616161" stroke-linecap="round" stroke-linejoin="round"/>
<path d="M103.068 542.494L99.1518 560.323C99.0217 560.92 99.0166 561.542 99.1369 562.142C99.2572 562.742 99.4998 563.304 99.8465 563.786C100.193 564.269 100.635 564.659 101.139 564.927C101.642 565.195 102.195 565.335 102.755 565.335H125.625C126.167 565.335 126.702 565.206 127.193 564.955C127.684 564.705 128.12 564.34 128.469 563.886C128.819 563.432 129.073 562.899 129.216 562.326C129.358 561.753 129.384 561.152 129.293 560.566C129.116 559.226 128.686 557.941 128.029 556.795C127.373 555.648 126.505 554.664 125.481 553.907C120.26 550.184 117.78 538.527 117.78 538.527L103.068 542.494Z" fill="#616161" stroke="#616161" stroke-linecap="round" stroke-linejoin="round"/>
<path d="M159.421 545.473C159.421 545.473 155.727 551.301 155.127 561.698C155.107 562.168 155.175 562.638 155.326 563.078C155.476 563.519 155.707 563.921 156.003 564.261C156.3 564.601 156.656 564.872 157.051 565.056C157.445 565.241 157.87 565.336 158.299 565.335H198.857C199.648 565.34 200.422 565.074 201.069 564.575C201.717 564.076 202.207 563.368 202.471 562.549C202.735 561.73 202.76 560.842 202.543 560.007C202.326 559.171 201.877 558.431 201.259 557.889C199.533 556.48 197.487 555.618 195.345 555.397C185.398 553.965 176.587 548.953 174.994 542.508L159.421 545.473Z" fill="#616161" stroke="#616161" stroke-linecap="round" stroke-linejoin="round"/>
<path d="M96.5017 326.753C96.5017 326.753 91.9068 347.604 93.7212 392.628L94.8961 443.609C94.8961 443.609 88.2908 479.411 100.966 544.227C100.966 544.227 104.882 553.822 120.664 541.821L122.492 442.936L139.005 333.713L96.5017 326.753Z" fill="#999999"/>
<mask id="mask5_646_275" style="mask-type:luminance" maskUnits="userSpaceOnUse" x="93" y="326" width="47" height="222">
<path d="M96.5017 326.753C96.5017 326.753 91.9068 347.604 93.7212 392.628L94.8961 443.609C94.8961 443.609 88.2908 479.411 100.966 544.227C100.966 544.227 104.882 553.822 120.664 541.821L122.492 442.936L139.005 333.713L96.5017 326.753Z" fill="white"/>
</mask>
<g mask="url(#mask5_646_275)">
<path opacity="0.2" d="M129.345 372.765C129.345 372.765 122.609 402.223 119.894 419.436C117.179 436.65 101.031 435.332 99.0864 446.645C97.1413 457.959 116.056 444.655 114.216 485.311C112.375 525.968 105.757 548.193 116.148 547.864C126.539 547.535 126.839 515.499 126.839 515.499L133.17 417.861V404.285L134.684 378.508L129.345 372.765Z" fill="black"/>
</g>
<path d="M96.5017 326.753C96.5017 326.753 91.9068 347.604 93.7212 392.628L94.8961 443.609C94.8961 443.609 88.2908 479.411 100.966 544.227C100.966 544.227 104.882 553.822 120.664 541.821L122.492 442.936L139.005 333.713L96.5017 326.753Z" stroke="#616161" stroke-linecap="round" stroke-linejoin="round"/>
<path d="M99.0866 454.665C98.3844 455.684 97.7351 456.745 97.1416 457.844" stroke="#616161" stroke-linecap="round" stroke-linejoin="round"/>
<path d="M99.9089 443.438C99.9089 443.438 115.051 439.471 116.083 443.438C116.97 446.889 108.786 442.836 100.705 452.517" stroke="#616161" stroke-linecap="round" stroke-linejoin="round"/>
<path d="M126.16 379.925C137.909 400.733 154.448 441.676 154.448 441.676C154.448 441.676 151.954 446.416 154.448 454.364C154.448 454.364 147.921 482.017 157.385 548.136C157.385 548.136 165.53 553.864 177.305 543.84C177.305 543.84 183.179 444.454 180.921 431.05C178.663 417.646 157.424 329.115 157.424 329.115H110.744" fill="#999999"/>
<mask id="mask6_646_275" style="mask-type:luminance" maskUnits="userSpaceOnUse" x="110" y="329" width="72" height="221">
<path d="M126.16 379.925C137.909 400.733 154.448 441.676 154.448 441.676C154.448 441.676 151.954 446.416 154.448 454.364C154.448 454.364 147.921 482.017 157.385 548.136C157.385 548.136 165.53 553.864 177.305 543.84C177.305 543.84 183.179 444.454 180.921 431.05C178.663 417.646 157.424 329.115 157.424 329.115H110.744" fill="white"/>
</mask>
<g mask="url(#mask6_646_275)">
<path opacity="0.2" d="M123.51 381.372C123.51 381.372 130.625 385.339 144.266 381.372C157.907 377.405 146.602 394.26 151.119 412.648C155.636 431.036 168.324 439.471 166.288 447.405C164.251 455.338 158.22 457.343 156.928 478.695C155.636 500.047 172.71 539.487 165.987 547.563C159.265 555.64 142.974 536.536 142.974 536.536L129.345 435.304L123.51 381.372Z" fill="black"/>
</g>
<path d="M126.16 379.925C137.909 400.733 154.448 441.676 154.448 441.676C154.448 441.676 151.954 446.416 154.448 454.364C154.448 454.364 147.921 482.017 157.385 548.136C157.385 548.136 165.53 553.864 177.305 543.84C177.305 543.84 183.179 444.454 180.921 431.05C178.663 417.646 157.424 329.115 157.424 329.115H110.744" stroke="#616161" stroke-linecap="round" stroke-linejoin="round"/>
<path d="M163.09 445.185C168.455 444.297 175.308 443.753 175.034 446.416C174.59 450.884 165.021 446.345 159.199 453.863" stroke="#616161" stroke-linecap="round" stroke-linejoin="round"/>
<path d="M156.928 446.417C156.928 446.417 157.868 446.187 159.317 445.887" stroke="#616161" stroke-linecap="round" stroke-linejoin="round"/>
<path d="M194.288 188.587L195.137 179.135C195.137 179.135 193.44 169.297 194.288 165.96C195.137 162.623 202.577 141.472 204.94 142.403C207.303 143.333 201.39 154.833 201.559 158.155C201.559 158.155 204.705 158.342 205.475 160.561C205.475 160.561 208.465 161.12 208.634 164.084C209.364 164.595 209.954 165.314 210.34 166.164C210.726 167.014 210.895 167.963 210.827 168.91C210.501 172.061 204.744 180.596 204.744 180.596L205.084 192.84L194.288 188.587Z" fill="white" stroke="#616161" stroke-linecap="round" stroke-linejoin="round"/>
<path d="M144.24 172.619C144.24 172.619 140.911 165.459 140.428 162.766C140.075 160.89 140.78 157.038 140.428 155.148C139.619 150.78 134.045 138.765 134.045 138.765C133.821 138.248 133.479 137.804 133.053 137.476L129.789 141.887H120.939L107.415 161.478L114.072 179.063L112.127 181.598C113.315 182.887 114.072 183.632 114.072 183.632L112.127 196.391L131.186 198.511L131.63 190.42H137.426C138.208 190.42 138.958 190.079 139.512 189.472C140.065 188.865 140.376 188.042 140.376 187.183V176.099L142.987 175.268C143.238 175.204 143.475 175.081 143.679 174.907C143.883 174.733 144.051 174.513 144.17 174.261C144.289 174.009 144.357 173.732 144.369 173.448C144.381 173.165 144.337 172.882 144.24 172.619Z" fill="white" stroke="#616161" stroke-linecap="round" stroke-linejoin="round"/>
<path d="M98.1466 166.246C105.822 178.648 114.072 183.632 114.072 183.632L117.323 174.767C117.323 174.767 110.796 174.008 111.775 167.048C113.302 156.78 120.912 166.017 120.912 166.017L122.557 158.084C122.557 158.084 126.617 153.3 126.33 151.625C126.112 150.408 125.825 149.207 125.468 148.03C125.468 148.03 140.154 132.693 138.6 124.144C138.6 124.144 126.369 126.864 111.775 129.872C94.0085 133.395 89.4789 152.269 98.1466 166.246Z" fill="#616161" stroke="#616161" stroke-linecap="round" stroke-linejoin="round"/>
<path d="M137.478 190.42C137.478 190.42 127.257 188.515 123.354 183.259C119.451 178.004 122.557 183.632 124.385 186.854C128.301 193.742 131.63 190.42 137.478 190.42Z" fill="#616161"/>
<path d="M131.186 174.295C131.891 175.17 132.781 175.844 133.777 176.255C134.774 176.667 135.847 176.805 136.904 176.658" stroke="#616161" stroke-width="0.75" stroke-linecap="round" stroke-linejoin="round"/>
<path d="M138.627 160.59C138.627 161.592 138.287 162.394 137.856 162.394C137.426 162.394 137.099 161.592 137.099 160.59C137.099 159.587 137.439 158.785 137.856 158.785C138.274 158.785 138.627 159.601 138.627 160.59Z" fill="#616161"/>
<path d="M138.483 155.32C137.426 155.065 136.321 155.231 135.365 155.787C134.408 156.343 133.663 157.253 133.261 158.356" stroke="#616161" stroke-width="0.75" stroke-linecap="round" stroke-linejoin="round"/>
<path d="M102.167 201.962C102.167 201.962 102.167 192.167 117.558 193.685C136.264 195.547 143.809 206.058 143.809 206.058L102.167 201.962Z" fill="#92E3A9" stroke="#616161" stroke-linecap="round" stroke-linejoin="round"/>
<path d="M132.348 200.201C144.005 201.633 164.33 204.712 163.116 239.096C161.902 273.48 157.385 329.087 157.385 329.087C157.385 329.087 99.0865 356.411 92.4682 331.063C92.4682 331.063 95.4967 302.422 85.8369 257.842C76.1771 213.261 80.5501 194 132.348 200.201Z" fill="#616161"/>
<mask id="mask7_646_275" style="mask-type:luminance" maskUnits="userSpaceOnUse" x="81" y="199" width="83" height="143">
<path d="M132.348 200.201C144.005 201.633 164.33 204.712 163.116 239.096C161.902 273.48 157.385 329.087 157.385 329.087C157.385 329.087 99.0865 356.411 92.4682 331.063C92.4682 331.063 95.4967 302.422 85.8369 257.842C76.1771 213.261 80.5501 194 132.348 200.201Z" fill="white"/>
</mask>
<g mask="url(#mask7_646_275)">
<path opacity="0.2" d="M166.066 296.637C166.066 296.637 158.455 298.642 135.141 284.722C98.5906 262.854 94.4917 230.761 84.2314 236.031C73.971 241.302 94.3742 344.797 94.3742 344.797L132.23 347.403H167.319L166.066 296.637Z" fill="#616161"/>
</g>
<path d="M132.348 200.201C144.005 201.633 164.33 204.712 163.116 239.096C161.902 273.48 157.385 329.087 157.385 329.087C157.385 329.087 99.0865 356.411 92.4682 331.063C92.4682 331.063 95.4967 302.422 85.8369 257.842C76.1771 213.261 80.5501 194 132.348 200.201Z" stroke="#616161" stroke-linecap="round" stroke-linejoin="round"/>
<path d="M65.055 282.359C64.4024 282.531 63.7105 282.746 62.9795 283.003" stroke="#616161" stroke-width="0.75" stroke-linecap="round" stroke-linejoin="round"/>
<path d="M74.689 283.003C74.689 283.003 72.2349 281.084 66.8567 281.972" stroke="#616161" stroke-width="0.75" stroke-linecap="round" stroke-linejoin="round"/>
<path d="M136.851 200.831C136.851 200.831 157.046 200.974 166.092 206.932C166.092 206.932 182.083 203.953 188.427 206.932L194.158 183.431C194.158 183.431 201.703 179.45 205.319 185.408C205.319 185.408 208.034 221.209 203.517 224.145C199.001 227.081 163.129 236.06 163.129 236.06C163.129 236.06 140.219 228.499 136.851 200.831Z" fill="#616161"/>
<mask id="mask8_646_275" style="mask-type:luminance" maskUnits="userSpaceOnUse" x="136" y="182" width="71" height="55">
<path d="M136.851 200.831C136.851 200.831 157.046 200.974 166.092 206.932C166.092 206.932 182.083 203.953 188.427 206.932L194.158 183.431C194.158 183.431 201.703 179.45 205.319 185.408C205.319 185.408 208.034 221.209 203.517 224.145C199.001 227.081 163.129 236.06 163.129 236.06C163.129 236.06 140.219 228.499 136.851 200.831Z" fill="white"/>
</mask>
<g mask="url(#mask8_646_275)">
<path opacity="0.2" d="M162.959 229.988C162.959 229.988 161.902 220.78 177.318 221.968C192.735 223.157 204.731 223.486 206.259 215.538C207.786 207.59 224.691 193.843 219.312 219.577L213.869 245.354L181.443 247.703L162.959 229.988Z" fill="#616161"/>
</g>
<path d="M136.851 200.831C136.851 200.831 157.046 200.974 166.092 206.932C166.092 206.932 182.083 203.953 188.427 206.932L194.158 183.431C194.158 183.431 201.703 179.45 205.319 185.408C205.319 185.408 208.034 221.209 203.517 224.145C199.001 227.081 163.129 236.06 163.129 236.06C163.129 236.06 140.219 228.499 136.851 200.831Z" stroke="#616161" stroke-linecap="round" stroke-linejoin="round"/>
<path d="M192.173 208.693C193.917 210.253 195.416 212.115 196.612 214.206" stroke="#616161" stroke-width="0.75" stroke-linecap="round" stroke-linejoin="round"/>
<path d="M188.91 207.161C189.402 207.159 189.887 207.276 190.333 207.504" stroke="#616161" stroke-width="0.75" stroke-linecap="round" stroke-linejoin="round"/>
<path d="M85.4061 247.703C84.7012 240.284 82.7953 226.665 83.5394 217.242" stroke="#616161" stroke-width="0.75" stroke-linecap="round" stroke-linejoin="round"/>
<path d="M80.0671 229.988C80.0671 229.988 83.5917 252.901 85.2887 252.901" stroke="#616161" stroke-width="0.75" stroke-linecap="round" stroke-linejoin="round"/>
<path d="M92.7424 315.081V327.941" stroke="#616161" stroke-width="0.75" stroke-linecap="round" stroke-linejoin="round"/>
<path d="M112.636 347.432C112.636 347.432 114.529 361.967 120.351 370.946Z" fill="#999999"/>
<path d="M112.636 347.432C112.636 347.432 114.529 361.967 120.351 370.946" stroke="#616161" stroke-linecap="round" stroke-linejoin="round"/>
<path d="M192.513 180.725L191.207 186.052C191.207 186.052 200.032 183.761 207.838 188.358L207.042 182.128C207.042 182.128 201.99 177.989 192.513 180.725Z" fill="#92E3A9" stroke="#616161" stroke-linecap="round" stroke-linejoin="round"/>
<path d="M144.305 318.06C137.948 321.154 125.338 323.875 100.575 321.197" stroke="#616161" stroke-width="0.75" stroke-linecap="round" stroke-linejoin="round"/>
<path d="M150.675 312.361C150.134 313.677 149.265 314.798 148.169 315.597" stroke="#616161" stroke-width="0.75" stroke-linecap="round" stroke-linejoin="round"/>
<path d="M168.18 207.604L178.48 214.593" stroke="#616161" stroke-width="0.75" stroke-linecap="round" stroke-linejoin="round"/>
<path d="M152.098 266.42C158.682 257.919 162.776 247.439 163.847 236.346" stroke="#616161" stroke-width="0.75" stroke-linecap="round" stroke-linejoin="round"/>
<path d="M146.093 264.343C137.724 274.947 127.271 283.33 115.521 288.86" stroke="#616161" stroke-width="0.75" stroke-linecap="round" stroke-linejoin="round"/>
<path d="M151.211 257.068C150.232 258.615 149.2 260.119 148.117 261.594" stroke="#616161" stroke-width="0.75" stroke-linecap="round" stroke-linejoin="round"/>
<path d="M154.356 251.884C153.86 252.801 153.338 253.689 152.816 254.577" stroke="#616161" stroke-width="0.75" stroke-linecap="round" stroke-linejoin="round"/>
<path d="M97.9247 306.417C111.136 313.04 125.833 315.247 140.18 312.762" stroke="#616161" stroke-width="0.75" stroke-linecap="round" stroke-linejoin="round"/>
<path d="M133.261 128.583C134.61 127.939 135.896 127.147 137.099 126.22" stroke="#616161" stroke-width="0.75" stroke-linecap="round" stroke-linejoin="round"/>
<path d="M101.462 162.394C101.462 162.394 94.2174 147.816 102.585 139.868C108.968 133.824 120.351 133.252 129.463 130.13" stroke="#616161" stroke-width="0.75" stroke-linecap="round" stroke-linejoin="round"/>
<path d="M107.559 152.04C107.151 150.715 107.085 149.292 107.366 147.928C107.647 146.564 108.264 145.311 109.151 144.307C114.125 139.123 128.64 138.579 135.872 130.688" stroke="#616161" stroke-width="0.75" stroke-linecap="round" stroke-linejoin="round"/>
<path d="M110.509 158.785C109.909 157.879 109.377 156.921 108.916 155.921" stroke="#616161" stroke-width="0.75" stroke-linecap="round" stroke-linejoin="round"/>
</svg>
