<svg width="100" height="100" viewBox="0 0 100 100" fill="none" xmlns="http://www.w3.org/2000/svg">
<circle cx="50" cy="50" r="50" fill="#150676"/>
<path d="M93 50C93 73.7482 73.7483 93 50 93C26.2518 93 7 73.7482 7 50C7 26.2518 26.2518 7 50 7C73.7483 7 93 26.2518 93 50Z" fill="#150676" stroke="white" stroke-width="4"/>
<path d="M88.5 50C88.5 71.263 71.263 88.5 50 88.5C28.737 88.5 11.5 71.263 11.5 50C11.5 28.737 28.737 11.5 50 11.5C71.263 11.5 88.5 28.737 88.5 50Z" stroke="white" stroke-width="3"/>
<path fill-rule="evenodd" clip-rule="evenodd" d="M38.369 35.802H40.669C42.194 35.802 43.6565 36.3639 44.7349 37.3641C45.8132 38.3643 46.419 39.7208 46.419 41.1353V58.202C46.419 59.6165 45.8132 60.973 44.7349 61.9732C43.6565 62.9734 42.194 63.5353 40.669 63.5353H38.369C36.844 63.5353 35.3815 62.9734 34.3032 61.9732C33.2248 60.973 32.619 59.6165 32.619 58.202V41.1353C32.619 39.7208 33.2248 38.3643 34.3032 37.3641C35.3815 36.3639 36.844 35.802 38.369 35.802ZM41.819 41.1353V58.202C41.819 58.4849 41.6979 58.7562 41.4822 58.9562C41.2665 59.1563 40.974 59.2686 40.669 59.2686H38.369C38.064 59.2686 37.7715 59.1563 37.5558 58.9562C37.3402 58.7562 37.219 58.4849 37.219 58.202V41.1353C37.219 40.8524 37.3402 40.5811 37.5558 40.3811C37.7715 40.181 38.064 40.0686 38.369 40.0686H40.669C40.974 40.0686 41.2665 40.181 41.4822 40.3811C41.6979 40.5811 41.819 40.8524 41.819 41.1353ZM61.369 35.802H59.069C57.544 35.802 56.0815 36.3639 55.0032 37.3641C53.9248 38.3643 53.319 39.7208 53.319 41.1353V58.202C53.319 59.6165 53.9248 60.973 55.0032 61.9732C56.0815 62.9734 57.544 63.5353 59.069 63.5353H61.369C62.894 63.5353 64.3565 62.9734 65.4349 61.9732C66.5132 60.973 67.119 59.6165 67.119 58.202V41.1353C67.119 39.7208 66.5132 38.3643 65.4349 37.3641C64.3565 36.3639 62.894 35.802 61.369 35.802ZM57.919 41.1353V58.202C57.919 58.4849 58.0402 58.7562 58.2558 58.9562C58.4715 59.1563 58.764 59.2686 59.069 59.2686H61.369C61.674 59.2686 61.9665 59.1563 62.1822 58.9562C62.3979 58.7562 62.519 58.4849 62.519 58.202V41.1353C62.519 40.8524 62.3979 40.5811 62.1822 40.3811C61.9665 40.181 61.674 40.0686 61.369 40.0686H59.069C58.764 40.0686 58.4715 40.181 58.2558 40.3811C58.0402 40.5811 57.919 40.8524 57.919 41.1353Z" fill="white"/>
<path d="M42.969 50.7353H56.769V55.002H42.969V50.7353ZM42.969 44.3353H56.769V48.602H42.969V44.3353Z" fill="white"/>
<path fill-rule="evenodd" clip-rule="evenodd" d="M67.9861 46.475C67.6266 46.469 67.267 46.4669 66.9074 46.4686H65.969C65.359 46.4686 64.774 46.2439 64.3427 45.8438C63.9113 45.4437 63.669 44.9011 63.669 44.3353C63.669 43.7695 63.9113 43.2269 64.3427 42.8268C64.774 42.4267 65.359 42.202 65.969 42.202H67.0224C67.7814 42.202 68.5588 42.202 69.2074 42.2809C69.9572 42.3748 70.868 42.6052 71.6339 43.3049L71.6454 43.3177L71.6799 43.3476C72.4343 44.058 72.6827 44.9028 72.7839 45.5961C72.869 46.1998 72.869 46.923 72.869 47.627V51.7124C72.869 52.4164 72.869 53.1374 72.7816 53.7412C72.6827 54.4345 72.4343 55.2772 71.6776 55.9897L71.6661 56.0004L71.6339 56.0324C70.868 56.7321 69.9572 56.9625 69.2097 57.0564C68.4822 57.123 67.751 57.1494 67.0201 57.1353H65.969C65.359 57.1353 64.774 56.9105 64.3427 56.5105C63.9113 56.1104 63.669 55.5678 63.669 55.002C63.669 54.4362 63.9113 53.8936 64.3427 53.4935C64.774 53.0934 65.359 52.8686 65.969 52.8686H66.9074C67.3552 52.869 67.803 52.8633 68.2506 52.8516L68.2621 52.6041C68.269 52.331 68.269 52.011 68.269 51.6057V47.7316C68.2694 47.3155 68.2633 46.8995 68.2506 46.4836L67.9861 46.475ZM31.7519 46.475C32.0486 46.4686 32.3936 46.4686 32.8306 46.4686H33.769C34.379 46.4686 34.964 46.2439 35.3954 45.8438C35.8267 45.4437 36.069 44.9011 36.069 44.3353C36.069 43.7695 35.8267 43.2269 35.3954 42.8268C34.964 42.4267 34.379 42.202 33.769 42.202H32.7156C31.9566 42.202 31.1792 42.202 30.5283 42.2809C29.7808 42.3748 28.8723 42.6052 28.1041 43.3049L28.0926 43.3177L28.0581 43.3476C27.3037 44.058 27.0553 44.9028 26.9541 45.5961C26.8823 46.2709 26.8539 46.9491 26.869 47.627V51.7124C26.869 52.4164 26.869 53.1374 26.9541 53.7412C27.0553 54.4345 27.3037 55.2772 28.0581 55.9897L28.0719 56.0004L28.1041 56.0324C28.87 56.7321 29.7808 56.9625 30.5283 57.0564C31.1792 57.1353 31.9589 57.1353 32.7179 57.1353H33.769C34.379 57.1353 34.964 56.9105 35.3954 56.5105C35.8267 56.1104 36.069 55.5678 36.069 55.002C36.069 54.4362 35.8267 53.8936 35.3954 53.4935C34.964 53.0934 34.379 52.8686 33.769 52.8686H32.8306C32.3821 52.869 31.9335 52.8633 31.4851 52.8516C31.4732 52.4357 31.4678 52.0196 31.469 51.6036V47.7316C31.4678 47.3155 31.4732 46.8995 31.4851 46.4836L31.7519 46.475Z" fill="white"/>
</svg>
