<svg width="100" height="100" viewBox="0 0 100 100" fill="none" xmlns="http://www.w3.org/2000/svg">
<circle cx="50" cy="50" r="50" fill="#0F0A38"/>
<path d="M93 50C93 73.7482 73.7483 93 50 93C26.2518 93 7 73.7482 7 50C7 26.2518 26.2518 7 50 7C73.7483 7 93 26.2518 93 50Z" fill="#0F0A38" stroke="white" stroke-width="4"/>
<path d="M88.5 50C88.5 71.263 71.263 88.5 50 88.5C28.737 88.5 11.5 71.263 11.5 50C11.5 28.737 28.737 11.5 50 11.5C71.263 11.5 88.5 28.737 88.5 50Z" stroke="white" stroke-width="3"/>
<path fill-rule="evenodd" clip-rule="evenodd" d="M38.3691 35.802H40.6691C42.1941 35.802 43.6567 36.3639 44.735 37.3641C45.8133 38.3643 46.4191 39.7208 46.4191 41.1353V58.202C46.4191 59.6165 45.8133 60.973 44.735 61.9732C43.6567 62.9734 42.1941 63.5353 40.6691 63.5353H38.3691C36.8441 63.5353 35.3816 62.9734 34.3033 61.9732C33.2249 60.973 32.6191 59.6165 32.6191 58.202V41.1353C32.6191 39.7208 33.2249 38.3643 34.3033 37.3641C35.3816 36.3639 36.8441 35.802 38.3691 35.802ZM41.8191 41.1353V58.202C41.8191 58.4849 41.698 58.7562 41.4823 58.9562C41.2667 59.1563 40.9741 59.2686 40.6691 59.2686H38.3691C38.0641 59.2686 37.7716 59.1563 37.556 58.9562C37.3403 58.7562 37.2191 58.4849 37.2191 58.202V41.1353C37.2191 40.8524 37.3403 40.5811 37.556 40.3811C37.7716 40.181 38.0641 40.0686 38.3691 40.0686H40.6691C40.9741 40.0686 41.2667 40.181 41.4823 40.3811C41.698 40.5811 41.8191 40.8524 41.8191 41.1353ZM61.3691 35.802H59.0691C57.5441 35.802 56.0816 36.3639 55.0033 37.3641C53.9249 38.3643 53.3191 39.7208 53.3191 41.1353V58.202C53.3191 59.6165 53.9249 60.973 55.0033 61.9732C56.0816 62.9734 57.5441 63.5353 59.0691 63.5353H61.3691C62.8941 63.5353 64.3567 62.9734 65.435 61.9732C66.5133 60.973 67.1191 59.6165 67.1191 58.202V41.1353C67.1191 39.7208 66.5133 38.3643 65.435 37.3641C64.3567 36.3639 62.8941 35.802 61.3691 35.802ZM57.9191 41.1353V58.202C57.9191 58.4849 58.0403 58.7562 58.256 58.9562C58.4716 59.1563 58.7641 59.2686 59.0691 59.2686H61.3691C61.6741 59.2686 61.9666 59.1563 62.1823 58.9562C62.398 58.7562 62.5191 58.4849 62.5191 58.202V41.1353C62.5191 40.8524 62.398 40.5811 62.1823 40.3811C61.9666 40.181 61.6741 40.0686 61.3691 40.0686H59.0691C58.7641 40.0686 58.4716 40.181 58.256 40.3811C58.0403 40.5811 57.9191 40.8524 57.9191 41.1353Z" fill="white"/>
<path d="M42.9691 50.7353H56.7691V55.002H42.9691V50.7353ZM42.9691 44.3353H56.7691V48.602H42.9691V44.3353Z" fill="white"/>
<path fill-rule="evenodd" clip-rule="evenodd" d="M67.9862 46.475C67.6267 46.469 67.2671 46.4669 66.9075 46.4686H65.9691C65.3591 46.4686 64.7741 46.2439 64.3428 45.8438C63.9115 45.4437 63.6691 44.9011 63.6691 44.3353C63.6691 43.7695 63.9115 43.2269 64.3428 42.8268C64.7741 42.4267 65.3591 42.202 65.9691 42.202H67.0225C67.7815 42.202 68.5589 42.202 69.2075 42.2809C69.9573 42.3748 70.8681 42.6052 71.634 43.3049L71.6455 43.3177L71.68 43.3476C72.4344 44.058 72.6828 44.9028 72.784 45.5961C72.8691 46.1998 72.8691 46.923 72.8691 47.627V51.7124C72.8691 52.4164 72.8691 53.1374 72.7817 53.7412C72.6828 54.4345 72.4344 55.2772 71.6777 55.9897L71.6662 56.0004L71.634 56.0324C70.8681 56.7321 69.9573 56.9625 69.2098 57.0564C68.4823 57.123 67.7512 57.1494 67.0202 57.1353H65.9691C65.3591 57.1353 64.7741 56.9105 64.3428 56.5105C63.9115 56.1104 63.6691 55.5678 63.6691 55.002C63.6691 54.4362 63.9115 53.8936 64.3428 53.4935C64.7741 53.0934 65.3591 52.8686 65.9691 52.8686H66.9075C67.3553 52.869 67.8031 52.8633 68.2507 52.8516L68.2622 52.6041C68.2691 52.331 68.2691 52.011 68.2691 51.6057V47.7316C68.2696 47.3155 68.2634 46.8995 68.2507 46.4836L67.9862 46.475ZM31.752 46.475C32.0487 46.4686 32.3937 46.4686 32.8307 46.4686H33.7691C34.3791 46.4686 34.9642 46.2439 35.3955 45.8438C35.8268 45.4437 36.0691 44.9011 36.0691 44.3353C36.0691 43.7695 35.8268 43.2269 35.3955 42.8268C34.9642 42.4267 34.3791 42.202 33.7691 42.202H32.7157C31.9567 42.202 31.1793 42.202 30.5284 42.2809C29.7809 42.3748 28.8724 42.6052 28.1042 43.3049L28.0927 43.3177L28.0582 43.3476C27.3038 44.058 27.0554 44.9028 26.9542 45.5961C26.8824 46.2709 26.854 46.9491 26.8691 47.627V51.7124C26.8691 52.4164 26.8691 53.1374 26.9542 53.7412C27.0554 54.4345 27.3038 55.2772 28.0582 55.9897L28.072 56.0004L28.1042 56.0324C28.8701 56.7321 29.7809 56.9625 30.5284 57.0564C31.1793 57.1353 31.959 57.1353 32.718 57.1353H33.7691C34.3791 57.1353 34.9642 56.9105 35.3955 56.5105C35.8268 56.1104 36.0691 55.5678 36.0691 55.002C36.0691 54.4362 35.8268 53.8936 35.3955 53.4935C34.9642 53.0934 34.3791 52.8686 33.7691 52.8686H32.8307C32.3822 52.869 31.9336 52.8633 31.4852 52.8516C31.4733 52.4357 31.4679 52.0196 31.4691 51.6036V47.7316C31.4679 47.3155 31.4733 46.8995 31.4852 46.4836L31.752 46.475Z" fill="white"/>
</svg>
