<svg width="54" height="54" viewBox="0 0 54 54" fill="none" xmlns="http://www.w3.org/2000/svg">
<rect width="54" height="54" rx="8" fill="#0F0A38"/>
<path fill-rule="evenodd" clip-rule="evenodd" d="M7.85449 35.6727V34.0363C7.85449 32.9514 8.1993 31.9108 8.81305 31.1436C9.42681 30.3764 10.2592 29.9454 11.1272 29.9454H21.5999C22.4679 29.9454 23.3004 30.3764 23.9141 31.1436C24.5279 31.9108 24.8727 32.9514 24.8727 34.0363V35.6727C24.8727 36.7577 24.5279 37.7982 23.9141 38.5654C23.3004 39.3326 22.4679 39.7636 21.5999 39.7636H11.1272C10.2592 39.7636 9.42681 39.3326 8.81305 38.5654C8.1993 37.7982 7.85449 36.7577 7.85449 35.6727ZM11.1272 33.2182H21.5999C21.7735 33.2182 21.94 33.3044 22.0628 33.4578C22.1855 33.6112 22.2545 33.8193 22.2545 34.0363V35.6727C22.2545 35.8897 22.1855 36.0978 22.0628 36.2512C21.94 36.4047 21.7735 36.4909 21.5999 36.4909H11.1272C10.9536 36.4909 10.7871 36.4047 10.6644 36.2512C10.5416 36.0978 10.4727 35.8897 10.4727 35.6727V34.0363C10.4727 33.8193 10.5416 33.6112 10.6644 33.4578C10.7871 33.3044 10.9536 33.2182 11.1272 33.2182ZM7.85449 19.3091V20.9454C7.85449 22.0304 8.1993 23.0709 8.81305 23.8381C9.42681 24.6053 10.2592 25.0363 11.1272 25.0363H21.5999C22.4679 25.0363 23.3004 24.6053 23.9141 23.8381C24.5279 23.0709 24.8727 22.0304 24.8727 20.9454V19.3091C24.8727 18.2241 24.5279 17.1835 23.9141 16.4164C23.3004 15.6492 22.4679 15.2182 21.5999 15.2182H11.1272C10.2592 15.2182 9.42681 15.6492 8.81305 16.4164C8.1993 17.1835 7.85449 18.2241 7.85449 19.3091ZM11.1272 21.7636H21.5999C21.7735 21.7636 21.94 21.6774 22.0628 21.524C22.1855 21.3705 22.2545 21.1624 22.2545 20.9454V19.3091C22.2545 19.0921 22.1855 18.884 22.0628 18.7305C21.94 18.5771 21.7735 18.4909 21.5999 18.4909H11.1272C10.9536 18.4909 10.7871 18.5771 10.6644 18.7305C10.5416 18.884 10.4727 19.0921 10.4727 19.3091L10.4727 20.9454C10.4727 21.1624 10.5416 21.3705 10.6644 21.524C10.7871 21.6774 10.9536 21.7636 11.1272 21.7636Z" fill="white"/>
<path d="M17.0182 32.4L17.0182 22.5818H19.6364L19.6364 32.4H17.0182ZM13.0909 32.4L13.0909 22.5818H15.7091L15.7091 32.4H13.0909Z" fill="white"/>
<path fill-rule="evenodd" clip-rule="evenodd" d="M14.404 14.6013C14.4003 14.8571 14.399 15.1129 14.4 15.3687V16.0364C14.4 16.4704 14.2621 16.8866 14.0166 17.1935C13.7711 17.5003 13.4381 17.6727 13.091 17.6727C12.7438 17.6727 12.4108 17.5003 12.1653 17.1935C11.9198 16.8866 11.7819 16.4704 11.7819 16.0364V15.2869C11.7819 14.7469 11.7819 14.1938 11.8303 13.7324C11.8879 13.1989 12.0293 12.5509 12.4587 12.006L12.4665 11.9978L12.4848 11.9733C12.9208 11.4365 13.4392 11.2598 13.8646 11.1878C14.2351 11.1273 14.6789 11.1273 15.1109 11.1273H17.6178C18.0498 11.1273 18.4923 11.1273 18.8627 11.1895C19.2882 11.2598 19.8053 11.4365 20.2425 11.9749L20.2491 11.9831L20.2687 12.006C20.6981 12.5509 20.8395 13.1989 20.8971 13.7307C20.938 14.2483 20.9541 14.7685 20.9455 15.2885V16.0364C20.9455 16.4704 20.8076 16.8866 20.5621 17.1935C20.3166 17.5003 19.9836 17.6727 19.6364 17.6727C19.2892 17.6727 18.9562 17.5003 18.7107 17.1935C18.4652 16.8866 18.3273 16.4704 18.3273 16.0364V15.3687C18.3275 15.0501 18.3241 14.7316 18.3168 14.4131L18.165 14.4049C17.9974 14.4 17.8011 14.4 17.5523 14.4H15.175C14.9197 14.3997 14.6644 14.4041 14.4092 14.4131L14.404 14.6013ZM14.404 40.3805C14.4 40.1695 14.4 39.924 14.4 39.6131V38.9455C14.4 38.5115 14.2621 38.0953 14.0166 37.7884C13.7711 37.4815 13.4381 37.3091 13.091 37.3091C12.7438 37.3091 12.4108 37.4815 12.1653 37.7884C11.9198 38.0953 11.7819 38.5115 11.7819 38.9455V39.6949C11.7819 40.2349 11.7819 40.788 11.8303 41.2511C11.8879 41.7829 12.0293 42.4293 12.4587 42.9758L12.4665 42.984L12.4848 43.0085C12.9208 43.5453 13.4392 43.722 13.8646 43.794C14.2787 43.8451 14.6949 43.8653 15.1109 43.8545H17.6178C18.0498 43.8545 18.4923 43.8545 18.8627 43.794C19.2882 43.722 19.8053 43.5453 20.2425 43.0085L20.2491 42.9987L20.2687 42.9758C20.6981 42.4309 20.8395 41.7829 20.8971 41.2511C20.9455 40.788 20.9455 40.2333 20.9455 39.6933V38.9455C20.9455 38.5115 20.8076 38.0953 20.5621 37.7884C20.3166 37.4815 19.9836 37.3091 19.6364 37.3091C19.2892 37.3091 18.9562 37.4815 18.7107 37.7884C18.4652 38.0953 18.3273 38.5115 18.3273 38.9455V39.6131C18.3276 39.9322 18.3241 40.2514 18.3168 40.5704C18.0616 40.5789 17.8063 40.5827 17.551 40.5818H15.175C14.9197 40.5827 14.6644 40.5789 14.4092 40.5704L14.404 40.3805Z" fill="white"/>
<path d="M26.6392 41.9091V38.8329L29.3638 38.3056V19.9364L26.6392 19.4091V16.3153H29.3638H38.8209C40.7779 16.3153 42.4654 16.661 43.8834 17.3524C45.3013 18.0321 46.3912 18.9872 47.1529 20.2177C47.9146 21.4364 48.2955 22.8603 48.2955 24.4892C48.2955 26.1181 47.9146 27.5478 47.1529 28.7782C46.3912 29.997 45.3013 30.9462 43.8834 31.6259C42.4654 32.2939 40.7779 32.6278 38.8209 32.6278H34.4966V38.3056L37.2388 38.8329V41.9091H26.6392ZM34.4966 28.6728H38.8209C40.2506 28.6728 41.3287 28.286 42.0552 27.5126C42.7935 26.7274 43.1627 25.7314 43.1627 24.5243C43.1627 23.2939 42.7935 22.2802 42.0552 21.4833C41.3287 20.6747 40.2506 20.2704 38.8209 20.2704H34.4966V28.6728Z" fill="white"/>
</svg>
