<svg width="80" height="80" viewBox="0 0 80 80" fill="none" xmlns="http://www.w3.org/2000/svg">
<path d="M24.8 25.9V40.25C24.8 40.7833 24.9167 41.1667 25.15 41.4C25.4167 41.6333 25.9833 41.75 26.85 41.75H30.55V46.5H24.2C22.3 46.5 20.7667 46.3 19.6 45.9C18.4667 45.5 17.6167 44.8 17.05 43.8C16.5167 42.7667 16.1667 41.6667 16 40.5C15.8667 39.3333 15.8 37.7667 15.8 35.8C15.8 33.8 15.8667 32.2833 16 31.25C16.1667 30.2167 16.5167 29.25 17.05 28.35C17.6167 27.45 18.4667 26.8167 19.6 26.45C20.7667 26.0833 22.3 25.9 24.2 25.9H24.8ZM32.55 41.75H33.15C34.5833 41.75 35.6833 41.7833 36.45 41.85C37.25 41.8833 38.0167 42.0333 38.75 42.3C39.4833 42.5333 39.9833 42.8167 40.25 43.15C40.55 43.4833 40.8167 44.0667 41.05 44.9C41.3167 45.7 41.4667 46.5667 41.5 47.5C41.5333 48.4333 41.55 49.7667 41.55 51.5C41.55 53.2333 41.5333 54.6167 41.5 55.65C41.4667 56.65 41.3167 57.6167 41.05 58.55C40.8167 59.45 40.55 60.0833 40.25 60.45C39.9833 60.8167 39.4833 61.15 38.75 61.45C38.0167 61.7167 37.25 61.8833 36.45 61.95C35.6833 61.9833 34.5833 62 33.15 62H32.55V41.75ZM16.5 50.85H22.8C23.2667 50.85 23.55 50.9167 23.65 51.05C23.75 51.1833 23.8 51.4667 23.8 51.9V55.8C23.8 56.3333 23.8667 56.7167 24 56.95C24.1667 57.15 24.55 57.25 25.15 57.25H30.55V62H23.2C20.7667 62 18.9167 61.5833 17.65 60.75C16.4167 59.9167 15.8 58.4667 15.8 56.4V51.9C15.8 51.2 16.0333 50.85 16.5 50.85ZM26.8 25.85H33.15C35.5833 25.85 37.4167 26.2667 38.65 27.1C39.9167 27.9333 40.55 29.3833 40.55 31.45V35.95C40.55 36.65 40.3167 37 39.85 37H33.55C33.0833 37 32.8 36.9333 32.7 36.8C32.6 36.6667 32.55 36.3833 32.55 35.95V32.05C32.55 31.5167 32.4667 31.15 32.3 30.95C32.1667 30.7167 31.8 30.6 31.2 30.6H26.8V25.85Z" fill="#0F0A38"/>
<path d="M24.8 25.9V40.25C24.8 40.7833 24.9167 41.1667 25.15 41.4C25.4167 41.6333 25.9833 41.75 26.85 41.75H30.55V46.5H24.2C22.3 46.5 20.7667 46.3 19.6 45.9C18.4667 45.5 17.6167 44.8 17.05 43.8C16.5167 42.7667 16.1667 41.6667 16 40.5C15.8667 39.3333 15.8 37.7667 15.8 35.8C15.8 33.8 15.8667 32.2833 16 31.25C16.1667 30.2167 16.5167 29.25 17.05 28.35C17.6167 27.45 18.4667 26.8167 19.6 26.45C20.7667 26.0833 22.3 25.9 24.2 25.9H24.8ZM32.55 41.75H33.15C34.5833 41.75 35.6833 41.7833 36.45 41.85C37.25 41.8833 38.0167 42.0333 38.75 42.3C39.4833 42.5333 39.9833 42.8167 40.25 43.15C40.55 43.4833 40.8167 44.0667 41.05 44.9C41.3167 45.7 41.4667 46.5667 41.5 47.5C41.5333 48.4333 41.55 49.7667 41.55 51.5C41.55 53.2333 41.5333 54.6167 41.5 55.65C41.4667 56.65 41.3167 57.6167 41.05 58.55C40.8167 59.45 40.55 60.0833 40.25 60.45C39.9833 60.8167 39.4833 61.15 38.75 61.45C38.0167 61.7167 37.25 61.8833 36.45 61.95C35.6833 61.9833 34.5833 62 33.15 62H32.55V41.75ZM16.5 50.85H22.8C23.2667 50.85 23.55 50.9167 23.65 51.05C23.75 51.1833 23.8 51.4667 23.8 51.9V55.8C23.8 56.3333 23.8667 56.7167 24 56.95C24.1667 57.15 24.55 57.25 25.15 57.25H30.55V62H23.2C20.7667 62 18.9167 61.5833 17.65 60.75C16.4167 59.9167 15.8 58.4667 15.8 56.4V51.9C15.8 51.2 16.0333 50.85 16.5 50.85ZM26.8 25.85H33.15C35.5833 25.85 37.4167 26.2667 38.65 27.1C39.9167 27.9333 40.55 29.3833 40.55 31.45V35.95C40.55 36.65 40.3167 37 39.85 37H33.55C33.0833 37 32.8 36.9333 32.7 36.8C32.6 36.6667 32.55 36.3833 32.55 35.95V32.05C32.55 31.5167 32.4667 31.15 32.3 30.95C32.1667 30.7167 31.8 30.6 31.2 30.6H26.8V25.85Z" fill="#0F0A38"/>
<path d="M51.55 62H46.3C45.1667 62 44.4167 61.8167 44.05 61.45C43.7167 61.0833 43.55 60.3167 43.55 59.15V27.85C43.55 27.25 43.7167 26.7667 44.05 26.4C44.3833 26.0333 44.8167 25.85 45.35 25.85H51.55V62ZM53.55 25.85H59.9C63.0667 25.85 65.1667 26.6 66.2 28.1C67.2667 29.5667 67.8 32.5333 67.8 37C67.8 39.9667 67.4667 42.2833 66.8 43.95C66.1667 45.6167 65.3167 46.7333 64.25 47.3C63.1833 47.8333 61.7333 48.1 59.9 48.1H53.55V43.35H57.25C58.1167 43.35 58.6667 43.2333 58.9 43C59.1667 42.7667 59.3 42.4 59.3 41.9V32.1C59.3 31.5667 59.1667 31.1833 58.9 30.95C58.6667 30.7167 58.1167 30.6 57.25 30.6H53.55V25.85Z" fill="#92E3A9"/>
</svg>
