<svg width="60" height="60" viewBox="0 0 60 60" fill="none" xmlns="http://www.w3.org/2000/svg">
<rect width="60" height="60" fill="white"/>
<g clip-path="url(#clip0_664_121)">
<rect width="46" height="32" transform="matrix(0 -1 1 0 0 52)" fill="white"/>
<path fill-rule="evenodd" clip-rule="evenodd" d="M8 38.5833V36.6667C8 35.3958 8.35119 34.1771 8.97631 33.2784C9.60143 32.3798 10.4493 31.875 11.3333 31.875H22C22.8841 31.875 23.7319 32.3798 24.357 33.2784C24.9821 34.1771 25.3333 35.3958 25.3333 36.6667V38.5833C25.3333 39.8542 24.9821 41.0729 24.357 41.9716C23.7319 42.8702 22.8841 43.375 22 43.375H11.3333C10.4493 43.375 9.60143 42.8702 8.97631 41.9716C8.35119 41.0729 8 39.8542 8 38.5833ZM11.3333 35.7083H22C22.1768 35.7083 22.3464 35.8093 22.4714 35.989C22.5964 36.1687 22.6667 36.4125 22.6667 36.6667V38.5833C22.6667 38.8375 22.5964 39.0813 22.4714 39.261C22.3464 39.4407 22.1768 39.5417 22 39.5417H11.3333C11.1565 39.5417 10.987 39.4407 10.8619 39.261C10.7369 39.0813 10.6667 38.8375 10.6667 38.5833V36.6667C10.6667 36.4125 10.7369 36.1687 10.8619 35.989C10.987 35.8093 11.1565 35.7083 11.3333 35.7083ZM8 19.4167L8 21.3333C8 22.6042 8.35119 23.8229 8.97631 24.7216C9.60143 25.6202 10.4493 26.125 11.3333 26.125H22C22.8841 26.125 23.7319 25.6202 24.357 24.7216C24.9821 23.8229 25.3333 22.6042 25.3333 21.3333V19.4167C25.3333 18.1458 24.9821 16.9271 24.357 16.0284C23.7319 15.1298 22.8841 14.625 22 14.625H11.3333C10.4493 14.625 9.60143 15.1298 8.97631 16.0284C8.35119 16.9271 8 18.1458 8 19.4167ZM11.3333 22.2917H22C22.1768 22.2917 22.3464 22.1907 22.4714 22.011C22.5964 21.8313 22.6667 21.5875 22.6667 21.3333L22.6667 19.4167C22.6667 19.1625 22.5964 18.9187 22.4714 18.739C22.3464 18.5593 22.1768 18.4583 22 18.4583H11.3333C11.1565 18.4583 10.987 18.5593 10.8619 18.739C10.7369 18.9187 10.6667 19.1625 10.6667 19.4167V21.3333C10.6667 21.5875 10.7369 21.8313 10.8619 22.011C10.987 22.1907 11.1565 22.2917 11.3333 22.2917Z" fill="#0F0A38"/>
<path d="M17.3334 34.75V23.25H20V34.75H17.3334ZM13.3334 34.75L13.3334 23.25H16V34.75H13.3334Z" fill="#0F0A38"/>
<path fill-rule="evenodd" clip-rule="evenodd" d="M14.6707 13.9024C14.6669 14.202 14.6656 14.5017 14.6667 14.8013V15.5833C14.6667 16.0917 14.5262 16.5792 14.2761 16.9386C14.0261 17.2981 13.687 17.5 13.3333 17.5C12.9797 17.5 12.6406 17.2981 12.3905 16.9386C12.1405 16.5792 12 16.0917 12 15.5833L12 14.7055C12 14.073 12 13.4252 12.0493 12.8847C12.108 12.2598 12.252 11.5008 12.6893 10.8626L12.6973 10.853L12.716 10.8243C13.16 10.1956 13.688 9.98858 14.1213 9.90425C14.4987 9.83333 14.9507 9.83333 15.3907 9.83333H17.944C18.384 9.83333 18.8347 9.83333 19.212 9.90617C19.6453 9.98858 20.172 10.1956 20.6173 10.8262L20.624 10.8358L20.644 10.8626C21.0813 11.5008 21.2253 12.2598 21.284 12.8827C21.3256 13.489 21.3421 14.0983 21.3333 14.7074V15.5833C21.3333 16.0917 21.1929 16.5792 20.9428 16.9386C20.6928 17.2981 20.3536 17.5 20 17.5C19.6464 17.5 19.3072 17.2981 19.0572 16.9386C18.8071 16.5792 18.6667 16.0917 18.6667 15.5833V14.8013C18.6669 14.4282 18.6633 14.055 18.656 13.682L18.5013 13.6724C18.3307 13.6667 18.1307 13.6667 17.8773 13.6667H15.456C15.196 13.6663 14.9359 13.6714 14.676 13.682L14.6707 13.9024ZM14.6707 44.0976C14.6667 43.8503 14.6667 43.5628 14.6667 43.1987V42.4167C14.6667 41.9083 14.5262 41.4208 14.2761 41.0614C14.0261 40.7019 13.687 40.5 13.3333 40.5C12.9797 40.5 12.6406 40.7019 12.3905 41.0614C12.1405 41.4208 12 41.9083 12 42.4167V43.2945C12 43.927 12 44.5748 12.0493 45.1173C12.108 45.7402 12.252 46.4973 12.6893 47.1374L12.6973 47.147L12.716 47.1758C13.16 47.8044 13.688 48.0114 14.1213 48.0958C14.5431 48.1556 14.967 48.1793 15.3907 48.1667H17.944C18.384 48.1667 18.8347 48.1667 19.212 48.0958C19.6453 48.0114 20.172 47.8044 20.6173 47.1758L20.624 47.1643L20.644 47.1374C21.0813 46.4992 21.2253 45.7402 21.284 45.1173C21.3333 44.5748 21.3333 43.9251 21.3333 43.2926V42.4167C21.3333 41.9083 21.1929 41.4208 20.9428 41.0614C20.6928 40.7019 20.3536 40.5 20 40.5C19.6464 40.5 19.3072 40.7019 19.0572 41.0614C18.8071 41.4208 18.6667 41.9083 18.6667 42.4167V43.1987C18.6669 43.5725 18.6634 43.9463 18.656 44.3199C18.3961 44.3299 18.136 44.3343 17.876 44.3333H15.456C15.196 44.3343 14.9359 44.3299 14.676 44.3199L14.6707 44.0976Z" fill="#0F0A38"/>
</g>
<path d="M29.1562 46V41.6543H30.377C31.1908 41.6543 31.7767 41.5892 32.1348 41.459C32.4928 41.3125 32.7126 41.0439 32.7939 40.6533C32.8916 40.2464 32.9404 39.6442 32.9404 38.8467V21.0732C32.9404 20.3083 32.8265 19.6816 32.5986 19.1934C32.3708 18.6888 31.6709 18.4284 30.499 18.4121C30.4176 18.4121 30.1979 18.4121 29.8398 18.4121C29.498 18.4121 29.2702 18.4121 29.1562 18.4121V14.0664H45.8799C49.07 14.0664 51.6335 14.4652 53.5703 15.2627C55.5072 16.0602 56.915 17.1751 57.7939 18.6074C58.6891 20.0234 59.1367 21.6673 59.1367 23.5391C59.1367 25.3783 58.7298 26.9977 57.916 28.3975C57.1022 29.7972 55.7269 30.8877 53.79 31.6689C51.8532 32.4502 49.1921 32.8408 45.8066 32.8408H40.9482V39.335C40.9482 40.3766 41.111 41.0277 41.4365 41.2881C41.762 41.5322 42.4375 41.6543 43.4629 41.6543H44.6836V46C43.5605 46 42.4538 45.9919 41.3633 45.9756C40.2728 45.9593 38.9707 45.9512 37.457 45.9512C35.7969 45.9512 34.3158 45.9593 33.0137 45.9756C31.7279 45.9919 30.4421 46 29.1562 46ZM40.9482 28.5439H44.9033C48.9886 28.5439 51.0312 26.8594 51.0312 23.4902C51.0312 21.8138 50.5267 20.5605 49.5176 19.7305C48.5247 18.9004 46.8402 18.4854 44.4639 18.4854H40.9482V28.5439Z" fill="#0F0A38"/>
<defs>
<clipPath id="clip0_664_121">
<rect width="46" height="32" fill="white" transform="matrix(0 -1 1 0 0 52)"/>
</clipPath>
</defs>
</svg>
