<svg width="119" height="110" viewBox="0 0 119 110" fill="none" xmlns="http://www.w3.org/2000/svg">
<path d="M58.3844 8.42187C60.4297 12.7187 57.4547 27.1562 57.4547 27.1562C57.4547 27.1562 43.5094 19.5937 41.4641 15.2969C39.4188 11 41.4641 6.01562 46.1125 4.125C50.761 2.23437 56.3391 4.125 58.3844 8.42187Z" fill="#83BF4F"/>
<path d="M61.9171 28.0156H57.0828C57.0828 20.625 61.5453 8.07812 79.3953 8.07812V12.5469C63.2187 12.5469 61.9171 26.6406 61.9171 28.0156Z" fill="#947151"/>
<path d="M58.4744 28.2508L59.5 29.2119L60.5256 28.2508C63.6721 25.3025 68.4704 22.9827 73.9777 21.7561C79.4707 20.5327 85.5539 20.4238 91.2 21.7826C96.8387 23.1396 101.996 25.9469 105.745 30.5237C109.486 35.0906 111.922 41.5381 111.922 50.3594C111.922 61.4396 104.797 75.1528 95.8686 86.2203C91.432 91.7202 86.6197 96.4786 82.1606 99.8468C77.6253 103.272 73.7127 105.062 71.0281 105.062C67.5908 105.062 65.6913 104.282 64.2447 103.517C64.0066 103.392 63.7397 103.242 63.4622 103.086C62.9698 102.81 62.4441 102.515 61.9872 102.303C61.1648 101.919 60.2476 101.625 59.1281 101.625C57.1789 101.625 55.5632 102.479 54.175 103.213C53.9819 103.315 53.7931 103.415 53.6085 103.509C52.0269 104.322 50.3238 105.062 47.7859 105.062C45.1048 105.062 41.2053 103.265 36.687 99.826C32.2451 96.445 27.4557 91.6709 23.0417 86.1599C14.1589 75.0698 7.07812 61.3558 7.07812 50.3594C7.07812 41.5381 9.51427 35.0906 13.2551 30.5237C17.004 25.9469 22.1613 23.1396 27.8 21.7826C33.4461 20.4238 39.5293 20.5327 45.0223 21.7561C50.5296 22.9827 55.3279 25.3025 58.4744 28.2508Z" fill="#0F0A38" stroke="white" stroke-width="3"/>
</svg>
