<svg width="195" height="55" viewBox="0 0 195 55" fill="none" xmlns="http://www.w3.org/2000/svg">
<rect width="195" height="55" fill="white"/>
<mask id="path-2-outside-1_633_50" maskUnits="userSpaceOnUse" x="34" y="13" width="142" height="31" fill="black">
<rect fill="white" x="34" y="13" width="142" height="31"/>
<path d="M36.2603 41V38.1802L38.7578 37.6968V20.8584L36.2603 20.375V17.5391H38.7578H47.4268C49.2207 17.5391 50.7676 17.856 52.0674 18.4897C53.3672 19.1128 54.3662 19.9883 55.0645 21.1162C55.7627 22.2334 56.1118 23.5386 56.1118 25.0317C56.1118 26.5249 55.7627 27.8354 55.0645 28.9634C54.3662 30.0806 53.3672 30.9507 52.0674 31.5737C50.7676 32.186 49.2207 32.4922 47.4268 32.4922H43.4629V37.6968L45.9766 38.1802V41H36.2603ZM43.4629 28.8667H47.4268C48.7373 28.8667 49.7256 28.5122 50.3916 27.8032C51.0684 27.0835 51.4067 26.1704 51.4067 25.064C51.4067 23.936 51.0684 23.0068 50.3916 22.2764C49.7256 21.5352 48.7373 21.1646 47.4268 21.1646H43.4629V28.8667ZM65.8604 41.3384C64.1953 41.3384 62.7397 40.9731 61.4937 40.2427C60.2476 39.5015 59.2808 38.4863 58.5933 37.1973C57.9165 35.9082 57.5781 34.4365 57.5781 32.7822V32.1377C57.5781 30.4082 57.9004 28.8774 58.5449 27.5454C59.1895 26.2026 60.0972 25.1499 61.2681 24.3872C62.4497 23.6245 63.8408 23.2432 65.4414 23.2432C67.0205 23.2432 68.3472 23.5547 69.4214 24.1777C70.4956 24.8008 71.312 25.6978 71.8706 26.8687C72.4292 28.0396 72.7085 29.4575 72.7085 31.1226V33.6846H62.4604L62.4282 33.7812C62.4927 34.5439 62.6807 35.2261 62.9922 35.8276C63.3145 36.4185 63.7656 36.8857 64.3457 37.2295C64.9258 37.5625 65.6294 37.729 66.4565 37.729C67.3159 37.729 68.1162 37.6216 68.8574 37.4067C69.6094 37.1812 70.3398 36.8535 71.0488 36.4238L72.3218 39.3242C71.6021 39.9043 70.6943 40.3877 69.5986 40.7744C68.5137 41.1504 67.2676 41.3384 65.8604 41.3384ZM62.4927 30.5747H68.3096V30.1558C68.3096 29.4468 68.2129 28.8398 68.0195 28.335C67.8369 27.8193 67.5361 27.4219 67.1172 27.1426C66.709 26.8633 66.1772 26.7236 65.522 26.7236C64.8989 26.7236 64.3726 26.8901 63.9429 27.2231C63.5132 27.5454 63.1748 27.9912 62.9277 28.5605C62.6914 29.1299 62.5303 29.7744 62.4443 30.4941L62.4927 30.5747ZM75.2383 41V38.1802L77.4941 37.6968V26.8848L74.9966 26.4014V23.5654H81.877L82.0542 25.7246L82.0864 26.1113C82.5161 25.166 83.0479 24.4517 83.6816 23.9683C84.3154 23.4849 85.0728 23.2432 85.9536 23.2432C86.2329 23.2432 86.5391 23.27 86.8721 23.3237C87.2051 23.3667 87.5005 23.4258 87.7583 23.501L87.2588 27.8354L84.9224 27.7065C84.2563 27.6743 83.7139 27.7871 83.2949 28.0449C82.8867 28.3027 82.5215 28.6733 82.1992 29.1567V37.6968L84.4551 38.1802V41H75.2383ZM96.6367 41.3384C95.3369 41.3384 94.123 41.2148 92.9951 40.9678C91.8779 40.7207 90.8037 40.3662 89.7725 39.9043L89.7241 34.9736H92.9951L93.6235 37.4873C93.9888 37.6699 94.3862 37.8149 94.8159 37.9224C95.2563 38.0298 95.7559 38.0835 96.3145 38.0835C97.3672 38.0835 98.1084 37.9116 98.5381 37.5679C98.9678 37.2241 99.1826 36.7944 99.1826 36.2788C99.1826 35.7954 98.9517 35.3711 98.4897 35.0059C98.0386 34.6299 97.1309 34.3022 95.7666 34.0229C93.7041 33.5933 92.1841 32.9272 91.2065 32.0249C90.229 31.1226 89.7402 29.9678 89.7402 28.5605C89.7402 27.5938 89.9819 26.7129 90.4653 25.918C90.9595 25.123 91.7061 24.4839 92.7051 24.0005C93.7148 23.5171 95.0039 23.2754 96.5723 23.2754C97.8828 23.2754 99.0806 23.4043 100.166 23.6621C101.261 23.9092 102.18 24.2368 102.921 24.645L102.969 29.4146H99.7144L99.2148 27.1265C98.9248 26.9116 98.5811 26.7505 98.1836 26.6431C97.7969 26.5356 97.3564 26.4819 96.8623 26.4819C96.0352 26.4819 95.4014 26.6484 94.9609 26.9814C94.5205 27.3145 94.3003 27.7441 94.3003 28.2705C94.3003 28.5713 94.3755 28.8506 94.5259 29.1084C94.687 29.3662 94.9985 29.6079 95.4604 29.8335C95.9224 30.0591 96.5938 30.2739 97.4746 30.478C99.6338 30.9722 101.208 31.6328 102.196 32.46C103.184 33.2764 103.678 34.4258 103.678 35.9082C103.678 37.5303 103.087 38.8408 101.906 39.8398C100.735 40.8389 98.9785 41.3384 96.6367 41.3384ZM114.136 41.3384C112.417 41.3384 110.94 40.9624 109.705 40.2104C108.469 39.4585 107.524 38.4165 106.869 37.0845C106.213 35.7417 105.886 34.2002 105.886 32.46V32.1216C105.886 30.3921 106.213 28.8613 106.869 27.5293C107.524 26.1865 108.464 25.1392 109.688 24.3872C110.924 23.6245 112.396 23.2432 114.104 23.2432C115.833 23.2432 117.31 23.6245 118.535 24.3872C119.759 25.1392 120.699 26.1812 121.354 27.5132C122.01 28.8452 122.337 30.3813 122.337 32.1216V32.46C122.337 34.2002 122.01 35.7417 121.354 37.0845C120.699 38.4165 119.759 39.4585 118.535 40.2104C117.31 40.9624 115.844 41.3384 114.136 41.3384ZM114.136 37.729C114.952 37.729 115.618 37.5088 116.134 37.0684C116.649 36.6279 117.031 36.0156 117.278 35.2314C117.525 34.4365 117.648 33.5127 117.648 32.46V32.1216C117.648 31.0903 117.525 30.1826 117.278 29.3984C117.031 28.6035 116.644 27.9858 116.118 27.5454C115.602 27.0942 114.931 26.8687 114.104 26.8687C113.298 26.8687 112.632 27.0942 112.105 27.5454C111.579 27.9858 111.192 28.6035 110.945 29.3984C110.709 30.1826 110.591 31.0903 110.591 32.1216V32.46C110.591 33.5127 110.709 34.4365 110.945 35.2314C111.192 36.0264 111.579 36.644 112.105 37.0845C112.632 37.5142 113.309 37.729 114.136 37.729ZM124.271 41V38.1802L126.527 37.6968V26.8848L124.029 26.4014V23.5654H130.91L131.119 26.063C131.699 25.1714 132.414 24.4785 133.262 23.9844C134.122 23.4902 135.099 23.2432 136.195 23.2432C137.924 23.2432 139.278 23.7964 140.255 24.9028C141.233 26.0093 141.722 27.7441 141.722 30.1074V37.6968L143.978 38.1802V41H134.986V38.1802L137 37.6968V30.1235C137 28.9526 136.77 28.1255 136.308 27.6421C135.846 27.1479 135.158 26.9009 134.245 26.9009C133.568 26.9009 132.978 27.0459 132.473 27.3359C131.979 27.6152 131.565 28.0181 131.232 28.5444V37.6968L133.133 38.1802V41H124.271ZM151.357 41.3384C149.628 41.3384 148.253 40.8765 147.232 39.9526C146.212 39.0181 145.702 37.7505 145.702 36.1499C145.702 34.5063 146.368 33.1743 147.7 32.1538C149.032 31.1226 150.981 30.6069 153.549 30.6069H155.853V29.3179C155.853 28.48 155.606 27.8032 155.112 27.2876C154.628 26.7612 153.898 26.498 152.92 26.498C152.416 26.498 151.964 26.5625 151.567 26.6914C151.169 26.8096 150.804 26.9814 150.471 27.207L150.101 29.5112H146.717L146.652 24.9834C147.565 24.4678 148.554 24.0488 149.617 23.7266C150.681 23.4043 151.868 23.2432 153.178 23.2432C155.456 23.2432 157.255 23.7749 158.576 24.8384C159.897 25.8911 160.558 27.4004 160.558 29.3662V36.5527C160.558 36.7891 160.558 37.0254 160.558 37.2617C160.569 37.4873 160.59 37.7075 160.623 37.9224L162.443 38.1802V41H156.61C156.492 40.6992 156.374 40.377 156.256 40.0332C156.138 39.6895 156.052 39.3457 155.998 39.002C155.439 39.7109 154.779 40.2803 154.016 40.71C153.264 41.1289 152.378 41.3384 151.357 41.3384ZM152.614 37.8579C153.27 37.8579 153.893 37.7129 154.483 37.4229C155.074 37.1221 155.531 36.73 155.853 36.2466V33.4912H153.533C152.501 33.4912 151.717 33.7275 151.18 34.2002C150.654 34.6729 150.391 35.2422 150.391 35.9082C150.391 36.5312 150.584 37.0146 150.971 37.3584C151.368 37.6914 151.916 37.8579 152.614 37.8579ZM163.861 41V38.1802L166.133 37.6968V19.1826L163.62 18.6992V15.8633H170.838V37.6968L173.11 38.1802V41H163.861Z"/>
</mask>
<path d="M36.2603 41V38.1802L38.7578 37.6968V20.8584L36.2603 20.375V17.5391H38.7578H47.4268C49.2207 17.5391 50.7676 17.856 52.0674 18.4897C53.3672 19.1128 54.3662 19.9883 55.0645 21.1162C55.7627 22.2334 56.1118 23.5386 56.1118 25.0317C56.1118 26.5249 55.7627 27.8354 55.0645 28.9634C54.3662 30.0806 53.3672 30.9507 52.0674 31.5737C50.7676 32.186 49.2207 32.4922 47.4268 32.4922H43.4629V37.6968L45.9766 38.1802V41H36.2603ZM43.4629 28.8667H47.4268C48.7373 28.8667 49.7256 28.5122 50.3916 27.8032C51.0684 27.0835 51.4067 26.1704 51.4067 25.064C51.4067 23.936 51.0684 23.0068 50.3916 22.2764C49.7256 21.5352 48.7373 21.1646 47.4268 21.1646H43.4629V28.8667ZM65.8604 41.3384C64.1953 41.3384 62.7397 40.9731 61.4937 40.2427C60.2476 39.5015 59.2808 38.4863 58.5933 37.1973C57.9165 35.9082 57.5781 34.4365 57.5781 32.7822V32.1377C57.5781 30.4082 57.9004 28.8774 58.5449 27.5454C59.1895 26.2026 60.0972 25.1499 61.2681 24.3872C62.4497 23.6245 63.8408 23.2432 65.4414 23.2432C67.0205 23.2432 68.3472 23.5547 69.4214 24.1777C70.4956 24.8008 71.312 25.6978 71.8706 26.8687C72.4292 28.0396 72.7085 29.4575 72.7085 31.1226V33.6846H62.4604L62.4282 33.7812C62.4927 34.5439 62.6807 35.2261 62.9922 35.8276C63.3145 36.4185 63.7656 36.8857 64.3457 37.2295C64.9258 37.5625 65.6294 37.729 66.4565 37.729C67.3159 37.729 68.1162 37.6216 68.8574 37.4067C69.6094 37.1812 70.3398 36.8535 71.0488 36.4238L72.3218 39.3242C71.6021 39.9043 70.6943 40.3877 69.5986 40.7744C68.5137 41.1504 67.2676 41.3384 65.8604 41.3384ZM62.4927 30.5747H68.3096V30.1558C68.3096 29.4468 68.2129 28.8398 68.0195 28.335C67.8369 27.8193 67.5361 27.4219 67.1172 27.1426C66.709 26.8633 66.1772 26.7236 65.522 26.7236C64.8989 26.7236 64.3726 26.8901 63.9429 27.2231C63.5132 27.5454 63.1748 27.9912 62.9277 28.5605C62.6914 29.1299 62.5303 29.7744 62.4443 30.4941L62.4927 30.5747ZM75.2383 41V38.1802L77.4941 37.6968V26.8848L74.9966 26.4014V23.5654H81.877L82.0542 25.7246L82.0864 26.1113C82.5161 25.166 83.0479 24.4517 83.6816 23.9683C84.3154 23.4849 85.0728 23.2432 85.9536 23.2432C86.2329 23.2432 86.5391 23.27 86.8721 23.3237C87.2051 23.3667 87.5005 23.4258 87.7583 23.501L87.2588 27.8354L84.9224 27.7065C84.2563 27.6743 83.7139 27.7871 83.2949 28.0449C82.8867 28.3027 82.5215 28.6733 82.1992 29.1567V37.6968L84.4551 38.1802V41H75.2383ZM96.6367 41.3384C95.3369 41.3384 94.123 41.2148 92.9951 40.9678C91.8779 40.7207 90.8037 40.3662 89.7725 39.9043L89.7241 34.9736H92.9951L93.6235 37.4873C93.9888 37.6699 94.3862 37.8149 94.8159 37.9224C95.2563 38.0298 95.7559 38.0835 96.3145 38.0835C97.3672 38.0835 98.1084 37.9116 98.5381 37.5679C98.9678 37.2241 99.1826 36.7944 99.1826 36.2788C99.1826 35.7954 98.9517 35.3711 98.4897 35.0059C98.0386 34.6299 97.1309 34.3022 95.7666 34.0229C93.7041 33.5933 92.1841 32.9272 91.2065 32.0249C90.229 31.1226 89.7402 29.9678 89.7402 28.5605C89.7402 27.5938 89.9819 26.7129 90.4653 25.918C90.9595 25.123 91.7061 24.4839 92.7051 24.0005C93.7148 23.5171 95.0039 23.2754 96.5723 23.2754C97.8828 23.2754 99.0806 23.4043 100.166 23.6621C101.261 23.9092 102.18 24.2368 102.921 24.645L102.969 29.4146H99.7144L99.2148 27.1265C98.9248 26.9116 98.5811 26.7505 98.1836 26.6431C97.7969 26.5356 97.3564 26.4819 96.8623 26.4819C96.0352 26.4819 95.4014 26.6484 94.9609 26.9814C94.5205 27.3145 94.3003 27.7441 94.3003 28.2705C94.3003 28.5713 94.3755 28.8506 94.5259 29.1084C94.687 29.3662 94.9985 29.6079 95.4604 29.8335C95.9224 30.0591 96.5938 30.2739 97.4746 30.478C99.6338 30.9722 101.208 31.6328 102.196 32.46C103.184 33.2764 103.678 34.4258 103.678 35.9082C103.678 37.5303 103.087 38.8408 101.906 39.8398C100.735 40.8389 98.9785 41.3384 96.6367 41.3384ZM114.136 41.3384C112.417 41.3384 110.94 40.9624 109.705 40.2104C108.469 39.4585 107.524 38.4165 106.869 37.0845C106.213 35.7417 105.886 34.2002 105.886 32.46V32.1216C105.886 30.3921 106.213 28.8613 106.869 27.5293C107.524 26.1865 108.464 25.1392 109.688 24.3872C110.924 23.6245 112.396 23.2432 114.104 23.2432C115.833 23.2432 117.31 23.6245 118.535 24.3872C119.759 25.1392 120.699 26.1812 121.354 27.5132C122.01 28.8452 122.337 30.3813 122.337 32.1216V32.46C122.337 34.2002 122.01 35.7417 121.354 37.0845C120.699 38.4165 119.759 39.4585 118.535 40.2104C117.31 40.9624 115.844 41.3384 114.136 41.3384ZM114.136 37.729C114.952 37.729 115.618 37.5088 116.134 37.0684C116.649 36.6279 117.031 36.0156 117.278 35.2314C117.525 34.4365 117.648 33.5127 117.648 32.46V32.1216C117.648 31.0903 117.525 30.1826 117.278 29.3984C117.031 28.6035 116.644 27.9858 116.118 27.5454C115.602 27.0942 114.931 26.8687 114.104 26.8687C113.298 26.8687 112.632 27.0942 112.105 27.5454C111.579 27.9858 111.192 28.6035 110.945 29.3984C110.709 30.1826 110.591 31.0903 110.591 32.1216V32.46C110.591 33.5127 110.709 34.4365 110.945 35.2314C111.192 36.0264 111.579 36.644 112.105 37.0845C112.632 37.5142 113.309 37.729 114.136 37.729ZM124.271 41V38.1802L126.527 37.6968V26.8848L124.029 26.4014V23.5654H130.91L131.119 26.063C131.699 25.1714 132.414 24.4785 133.262 23.9844C134.122 23.4902 135.099 23.2432 136.195 23.2432C137.924 23.2432 139.278 23.7964 140.255 24.9028C141.233 26.0093 141.722 27.7441 141.722 30.1074V37.6968L143.978 38.1802V41H134.986V38.1802L137 37.6968V30.1235C137 28.9526 136.77 28.1255 136.308 27.6421C135.846 27.1479 135.158 26.9009 134.245 26.9009C133.568 26.9009 132.978 27.0459 132.473 27.3359C131.979 27.6152 131.565 28.0181 131.232 28.5444V37.6968L133.133 38.1802V41H124.271ZM151.357 41.3384C149.628 41.3384 148.253 40.8765 147.232 39.9526C146.212 39.0181 145.702 37.7505 145.702 36.1499C145.702 34.5063 146.368 33.1743 147.7 32.1538C149.032 31.1226 150.981 30.6069 153.549 30.6069H155.853V29.3179C155.853 28.48 155.606 27.8032 155.112 27.2876C154.628 26.7612 153.898 26.498 152.92 26.498C152.416 26.498 151.964 26.5625 151.567 26.6914C151.169 26.8096 150.804 26.9814 150.471 27.207L150.101 29.5112H146.717L146.652 24.9834C147.565 24.4678 148.554 24.0488 149.617 23.7266C150.681 23.4043 151.868 23.2432 153.178 23.2432C155.456 23.2432 157.255 23.7749 158.576 24.8384C159.897 25.8911 160.558 27.4004 160.558 29.3662V36.5527C160.558 36.7891 160.558 37.0254 160.558 37.2617C160.569 37.4873 160.59 37.7075 160.623 37.9224L162.443 38.1802V41H156.61C156.492 40.6992 156.374 40.377 156.256 40.0332C156.138 39.6895 156.052 39.3457 155.998 39.002C155.439 39.7109 154.779 40.2803 154.016 40.71C153.264 41.1289 152.378 41.3384 151.357 41.3384ZM152.614 37.8579C153.27 37.8579 153.893 37.7129 154.483 37.4229C155.074 37.1221 155.531 36.73 155.853 36.2466V33.4912H153.533C152.501 33.4912 151.717 33.7275 151.18 34.2002C150.654 34.6729 150.391 35.2422 150.391 35.9082C150.391 36.5312 150.584 37.0146 150.971 37.3584C151.368 37.6914 151.916 37.8579 152.614 37.8579ZM163.861 41V38.1802L166.133 37.6968V19.1826L163.62 18.6992V15.8633H170.838V37.6968L173.11 38.1802V41H163.861Z" fill="#0F0A38"/>
<path d="M36.2603 41H34.2603V43H36.2603V41ZM36.2603 38.1802L35.8802 36.2166L34.2603 36.5302V38.1802H36.2603ZM38.7578 37.6968L39.1379 39.6603L40.7578 39.3468V37.6968H38.7578ZM38.7578 20.8584H40.7578V19.2084L39.1379 18.8948L38.7578 20.8584ZM36.2603 20.375H34.2603V22.025L35.8802 22.3386L36.2603 20.375ZM36.2603 17.5391V15.5391H34.2603V17.5391H36.2603ZM52.0674 18.4897L51.1908 20.2875L51.2029 20.2933L52.0674 18.4897ZM55.0645 21.1162L53.3639 22.1689L53.3685 22.1762L55.0645 21.1162ZM55.0645 28.9634L56.7605 30.0234L56.765 30.0161L55.0645 28.9634ZM52.0674 31.5737L52.9197 33.3831L52.9319 33.3772L52.0674 31.5737ZM43.4629 32.4922V30.4922H41.4629V32.4922H43.4629ZM43.4629 37.6968H41.4629V39.3488L43.0852 39.6608L43.4629 37.6968ZM45.9766 38.1802H47.9766V36.5281L46.3543 36.2162L45.9766 38.1802ZM45.9766 41V43H47.9766V41H45.9766ZM43.4629 28.8667H41.4629V30.8667H43.4629V28.8667ZM50.3916 27.8032L48.9346 26.4332L48.9339 26.4339L50.3916 27.8032ZM50.3916 22.2764L48.9039 23.6131L48.9141 23.6244L48.9245 23.6356L50.3916 22.2764ZM43.4629 21.1646V19.1646H41.4629V21.1646H43.4629ZM38.2603 41V38.1802H34.2603V41H38.2603ZM36.6403 40.1437L39.1379 39.6603L38.3778 35.7332L35.8802 36.2166L36.6403 40.1437ZM40.7578 37.6968V20.8584H36.7578V37.6968H40.7578ZM39.1379 18.8948L36.6403 18.4114L35.8802 22.3386L38.3778 22.822L39.1379 18.8948ZM38.2603 20.375V17.5391H34.2603V20.375H38.2603ZM36.2603 19.5391H38.7578V15.5391H36.2603V19.5391ZM38.7578 19.5391H47.4268V15.5391H38.7578V19.5391ZM47.4268 19.5391C48.9884 19.5391 50.2217 19.8149 51.1908 20.2874L52.9439 16.6921C51.3134 15.897 49.453 15.5391 47.4268 15.5391V19.5391ZM51.2029 20.2933C52.1891 20.766 52.8843 21.3941 53.3639 22.1689L56.765 20.0635C55.8481 18.5825 54.5453 17.4596 52.9319 16.6862L51.2029 20.2933ZM53.3685 22.1762C53.8425 22.9347 54.1118 23.8621 54.1118 25.0317H58.1118C58.1118 23.215 57.6829 21.5321 56.7604 20.0562L53.3685 22.1762ZM54.1118 25.0317C54.1118 26.2009 53.8426 27.1374 53.3639 27.9107L56.765 30.0161C57.6828 28.5335 58.1118 26.8489 58.1118 25.0317H54.1118ZM53.3685 27.9034C52.89 28.6689 52.194 29.2951 51.2029 29.7702L52.9319 33.3772C54.5403 32.6062 55.8424 31.4923 56.7604 30.0234L53.3685 27.9034ZM51.2151 29.7644C50.2396 30.224 48.9973 30.4922 47.4268 30.4922V34.4922C49.4441 34.4922 51.2956 34.1481 52.9197 33.383L51.2151 29.7644ZM47.4268 30.4922H43.4629V34.4922H47.4268V30.4922ZM41.4629 32.4922V37.6968H45.4629V32.4922H41.4629ZM43.0852 39.6608L45.5989 40.1442L46.3543 36.2162L43.8406 35.7328L43.0852 39.6608ZM43.9766 38.1802V41H47.9766V38.1802H43.9766ZM45.9766 39H36.2603V43H45.9766V39ZM43.4629 30.8667H47.4268V26.8667H43.4629V30.8667ZM47.4268 30.8667C49.0901 30.8667 50.6876 30.4092 51.8493 29.1726L48.9339 26.4339C48.7636 26.6152 48.3845 26.8667 47.4268 26.8667V30.8667ZM51.8486 29.1733C52.917 28.0371 53.4067 26.6134 53.4067 25.064H49.4067C49.4067 25.7274 49.2197 26.1299 48.9346 26.4332L51.8486 29.1733ZM53.4067 25.064C53.4067 23.504 52.924 22.067 51.8587 20.9171L48.9245 23.6356C49.2127 23.9467 49.4067 24.3681 49.4067 25.064H53.4067ZM51.8793 20.9396C50.7237 19.6536 49.1159 19.1646 47.4268 19.1646V23.1646C48.3587 23.1646 48.7274 23.4167 48.9039 23.6131L51.8793 20.9396ZM47.4268 19.1646H43.4629V23.1646H47.4268V19.1646ZM41.4629 21.1646V28.8667H45.4629V21.1646H41.4629ZM61.4937 40.2427L60.4712 41.9616L60.4822 41.9681L61.4937 40.2427ZM58.5933 37.1973L56.8224 38.127L56.8286 38.1384L58.5933 37.1973ZM58.5449 27.5454L60.3452 28.4165L60.348 28.4109L58.5449 27.5454ZM61.2681 24.3872L60.1835 22.7068L60.1765 22.7114L61.2681 24.3872ZM72.7085 33.6846V35.6846H74.7085V33.6846H72.7085ZM62.4604 33.6846V31.6846H61.0189L60.5631 33.0521L62.4604 33.6846ZM62.4282 33.7812L60.5309 33.1488L60.4007 33.5394L60.4353 33.9497L62.4282 33.7812ZM62.9922 35.8276L61.2162 36.7473L61.2261 36.7665L61.2364 36.7853L62.9922 35.8276ZM64.3457 37.2295L63.3261 38.9501L63.338 38.9571L63.35 38.964L64.3457 37.2295ZM68.8574 37.4067L69.4142 39.3277L69.4232 39.3251L69.4321 39.3224L68.8574 37.4067ZM71.0488 36.4238L72.8802 35.6201L71.9633 33.5309L70.0122 34.7134L71.0488 36.4238ZM72.3218 39.3242L73.5768 40.8814L74.768 39.9214L74.1532 38.5204L72.3218 39.3242ZM69.5986 40.7744L70.2535 42.6642L70.2643 42.6604L69.5986 40.7744ZM62.4927 30.5747L60.7777 31.6037L61.3603 32.5747H62.4927V30.5747ZM68.3096 30.5747V32.5747H70.3096V30.5747H68.3096ZM68.0195 28.335L66.1343 29.0027L66.1427 29.0266L66.1518 29.0503L68.0195 28.335ZM67.1172 27.1426L65.9878 28.7932L65.9978 28.8L66.0078 28.8067L67.1172 27.1426ZM63.9429 27.2231L65.1429 28.8231L65.1555 28.8137L65.168 28.804L63.9429 27.2231ZM62.9277 28.5605L61.093 27.7644L61.0867 27.779L61.0806 27.7938L62.9277 28.5605ZM62.4443 30.4941L60.4584 30.257L60.3773 30.9364L60.7294 31.5231L62.4443 30.4941ZM65.8604 39.3384C64.4958 39.3384 63.4002 39.042 62.5051 38.5173L60.4822 41.9681C62.0793 42.9043 63.8949 43.3384 65.8604 43.3384V39.3384ZM62.5161 38.5238C61.5863 37.9707 60.8751 37.2256 60.358 36.2561L56.8286 38.1384C57.6865 39.747 58.9088 41.0322 60.4712 41.9616L62.5161 38.5238ZM60.3641 36.2676C59.8573 35.3023 59.5781 34.1572 59.5781 32.7822H55.5781C55.5781 34.7158 55.9757 36.5141 56.8225 38.1269L60.3641 36.2676ZM59.5781 32.7822V32.1377H55.5781V32.7822H59.5781ZM59.5781 32.1377C59.5781 30.6592 59.8525 29.4348 60.3452 28.4165L56.7446 26.6743C55.9482 28.3201 55.5781 30.1572 55.5781 32.1377H59.5781ZM60.348 28.4109C60.8449 27.3756 61.516 26.6126 62.3597 26.063L60.1765 22.7114C58.6783 23.6872 57.534 25.0296 56.7419 26.6799L60.348 28.4109ZM62.3527 26.0676C63.168 25.5413 64.171 25.2432 65.4414 25.2432V21.2432C63.5107 21.2432 61.7314 21.7077 60.1835 22.7068L62.3527 26.0676ZM65.4414 25.2432C66.7622 25.2432 67.7208 25.5034 68.418 25.9078L70.4248 22.4477C68.9735 21.6059 67.2788 21.2432 65.4414 21.2432V25.2432ZM68.418 25.9078C69.1273 26.3192 69.6722 26.9055 70.0655 27.7298L73.6757 26.0075C72.9518 24.49 71.8639 23.2823 70.4248 22.4477L68.418 25.9078ZM70.0655 27.7298C70.4648 28.5668 70.7085 29.674 70.7085 31.1226H74.7085C74.7085 29.2411 74.3936 27.5123 73.6757 26.0075L70.0655 27.7298ZM70.7085 31.1226V33.6846H74.7085V31.1226H70.7085ZM72.7085 31.6846H62.4604V35.6846H72.7085V31.6846ZM60.5631 33.0521L60.5309 33.1488L64.3256 34.4137L64.3578 34.317L60.5631 33.0521ZM60.4353 33.9497C60.5191 34.9407 60.7689 35.8836 61.2162 36.7473L64.7682 34.9079C64.5924 34.5685 64.4663 34.1472 64.4211 33.6128L60.4353 33.9497ZM61.2364 36.7853C61.7313 37.6927 62.4371 38.4233 63.3261 38.9501L65.3653 35.5089C65.0942 35.3482 64.8976 35.1442 64.748 34.8699L61.2364 36.7853ZM63.35 38.964C64.297 39.5077 65.3619 39.729 66.4565 39.729V35.729C65.8969 35.729 65.5546 35.6173 65.3414 35.495L63.35 38.964ZM66.4565 39.729C67.4832 39.729 68.4728 39.6005 69.4142 39.3277L68.3006 35.4858C67.7596 35.6426 67.1486 35.729 66.4565 35.729V39.729ZM69.4321 39.3224C70.3549 39.0456 71.2399 38.6467 72.0854 38.1342L70.0122 34.7134C69.4398 35.0603 68.8638 35.3168 68.2827 35.4911L69.4321 39.3224ZM69.2174 37.2276L70.4904 40.128L74.1532 38.5204L72.8802 35.6201L69.2174 37.2276ZM71.0667 37.767C70.5621 38.1737 69.8676 38.5586 68.933 38.8884L70.2643 42.6604C71.5211 42.2168 72.642 41.6349 73.5768 40.8814L71.0667 37.767ZM68.9438 38.8847C68.1108 39.1733 67.0931 39.3384 65.8604 39.3384V43.3384C67.442 43.3384 68.9165 43.1275 70.2535 42.6642L68.9438 38.8847ZM62.4927 32.5747H68.3096V28.5747H62.4927V32.5747ZM70.3096 30.5747V30.1558H66.3096V30.5747H70.3096ZM70.3096 30.1558C70.3096 29.2744 70.1906 28.4117 69.8872 27.6197L66.1518 29.0503C66.2352 29.268 66.3096 29.6192 66.3096 30.1558H70.3096ZM69.9048 27.6673C69.5911 26.7817 69.0365 26.0184 68.2266 25.4785L66.0078 28.8067C66.0357 28.8253 66.0827 28.857 66.1343 29.0027L69.9048 27.6673ZM68.2466 25.492C67.4132 24.9217 66.4513 24.7236 65.522 24.7236V28.7236C65.9031 28.7236 66.0048 28.8048 65.9878 28.7932L68.2466 25.492ZM65.522 24.7236C64.5232 24.7236 63.5481 24.9988 62.7177 25.6423L65.168 28.804C65.197 28.7815 65.2746 28.7236 65.522 28.7236V24.7236ZM62.7429 25.6231C61.9948 26.1842 61.4566 26.9266 61.093 27.7644L64.7624 29.3567C64.893 29.0558 65.0316 28.9066 65.1429 28.8231L62.7429 25.6231ZM61.0806 27.7938C60.7629 28.5591 60.5624 29.3863 60.4584 30.257L64.4302 30.7313C64.4981 30.1625 64.6199 29.7006 64.7749 29.3273L61.0806 27.7938ZM60.7294 31.5231L60.7777 31.6037L64.2077 29.5457L64.1593 29.4651L60.7294 31.5231ZM75.2383 41H73.2383V43H75.2383V41ZM75.2383 38.1802L74.8192 36.2246L73.2383 36.5633V38.1802H75.2383ZM77.4941 37.6968L77.9132 39.6524L79.4941 39.3136V37.6968H77.4941ZM77.4941 26.8848H79.4941V25.2347L77.8742 24.9212L77.4941 26.8848ZM74.9966 26.4014H72.9966V28.0514L74.6165 28.3649L74.9966 26.4014ZM74.9966 23.5654V21.5654H72.9966V23.5654H74.9966ZM81.877 23.5654L83.8702 23.4018L83.7195 21.5654H81.877V23.5654ZM82.0542 25.7246L80.0609 25.8882L80.0611 25.8907L82.0542 25.7246ZM82.0864 26.1113L80.0933 26.2774L80.7308 33.9269L83.9072 26.9389L82.0864 26.1113ZM86.8721 23.3237L86.5536 25.2982L86.5848 25.3032L86.6161 25.3073L86.8721 23.3237ZM87.7583 23.501L89.7452 23.7299L89.9383 22.0535L88.3183 21.581L87.7583 23.501ZM87.2588 27.8354L87.1486 29.8324L89.0299 29.9362L89.2456 28.0644L87.2588 27.8354ZM84.9224 27.7065L85.0325 25.7095L85.019 25.7089L84.9224 27.7065ZM83.2949 28.0449L82.2467 26.3416L82.2368 26.3477L82.2269 26.3539L83.2949 28.0449ZM82.1992 29.1567L80.5351 28.0473L80.1992 28.5512V29.1567H82.1992ZM82.1992 37.6968H80.1992V39.3136L81.7802 39.6524L82.1992 37.6968ZM84.4551 38.1802H86.4551V36.5633L84.8741 36.2246L84.4551 38.1802ZM84.4551 41V43H86.4551V41H84.4551ZM77.2383 41V38.1802H73.2383V41H77.2383ZM75.6573 40.1358L77.9132 39.6524L77.0751 35.7412L74.8192 36.2246L75.6573 40.1358ZM79.4941 37.6968V26.8848H75.4941V37.6968H79.4941ZM77.8742 24.9212L75.3766 24.4378L74.6165 28.3649L77.1141 28.8483L77.8742 24.9212ZM76.9966 26.4014V23.5654H72.9966V26.4014H76.9966ZM74.9966 25.5654H81.877V21.5654H74.9966V25.5654ZM79.8837 23.7291L80.0609 25.8882L84.0475 25.561L83.8702 23.4018L79.8837 23.7291ZM80.0611 25.8907L80.0933 26.2774L84.0795 25.9452L84.0473 25.5585L80.0611 25.8907ZM83.9072 26.9389C84.2403 26.206 84.5907 25.7903 84.8945 25.5585L82.4687 22.378C81.505 23.113 80.7919 24.126 80.2657 25.2837L83.9072 26.9389ZM84.8945 25.5585C85.143 25.369 85.4624 25.2432 85.9536 25.2432V21.2432C84.6831 21.2432 83.4878 21.6008 82.4687 22.378L84.8945 25.5585ZM85.9536 25.2432C86.107 25.2432 86.3051 25.2581 86.5536 25.2982L87.1905 21.3492C86.7731 21.2819 86.3588 21.2432 85.9536 21.2432V25.2432ZM86.6161 25.3073C86.8705 25.3401 87.061 25.3809 87.1983 25.421L88.3183 21.581C87.9399 21.4706 87.5396 21.3933 87.128 21.3402L86.6161 25.3073ZM85.7715 23.272L85.2719 27.6065L89.2456 28.0644L89.7452 23.7299L85.7715 23.272ZM87.369 25.8385L85.0325 25.7096L84.8122 29.7035L87.1486 29.8324L87.369 25.8385ZM85.019 25.7089C84.0903 25.6639 83.1114 25.8095 82.2467 26.3416L84.3431 29.7482C84.3163 29.7647 84.4224 29.6847 84.8257 29.7042L85.019 25.7089ZM82.2269 26.3539C81.5382 26.7889 80.982 27.377 80.5351 28.0473L83.8633 30.2661C84.061 29.9697 84.2352 29.8166 84.3629 29.7359L82.2269 26.3539ZM80.1992 29.1567V37.6968H84.1992V29.1567H80.1992ZM81.7802 39.6524L84.036 40.1358L84.8741 36.2246L82.6183 35.7412L81.7802 39.6524ZM82.4551 38.1802V41H86.4551V38.1802H82.4551ZM84.4551 39H75.2383V43H84.4551V39ZM92.9951 40.9678L92.5632 42.9206L92.5672 42.9215L92.9951 40.9678ZM89.7725 39.9043L87.7726 39.9239L87.7851 41.2056L88.9549 41.7296L89.7725 39.9043ZM89.7241 34.9736V32.9736H87.7044L87.7242 34.9932L89.7241 34.9736ZM92.9951 34.9736L94.9354 34.4886L94.5567 32.9736H92.9951V34.9736ZM93.6235 37.4873L91.6833 37.9724L91.9064 38.8648L92.7291 39.2762L93.6235 37.4873ZM94.8159 37.9224L94.3308 39.8627L94.342 39.8654L94.8159 37.9224ZM98.4897 35.0059L97.2094 36.5423L97.2291 36.5588L97.2493 36.5747L98.4897 35.0059ZM95.7666 34.0229L95.3587 35.9809L95.3655 35.9823L95.7666 34.0229ZM90.4653 25.918L88.7668 24.8621L88.7616 24.8704L88.7565 24.8788L90.4653 25.918ZM92.7051 24.0005L91.8415 22.1965L91.834 22.2002L92.7051 24.0005ZM100.166 23.6621L99.7032 25.6079L99.7144 25.6106L99.7256 25.6131L100.166 23.6621ZM102.921 24.645L104.921 24.6248L104.909 23.4567L103.886 22.8931L102.921 24.645ZM102.969 29.4146V31.4146H104.99L104.969 29.3943L102.969 29.4146ZM99.7144 29.4146L97.7604 29.8411L98.1039 31.4146H99.7144V29.4146ZM99.2148 27.1265L101.169 26.6999L101.009 25.9663L100.405 25.5194L99.2148 27.1265ZM98.1836 26.6431L97.6483 28.5701L97.6618 28.5738L98.1836 26.6431ZM94.5259 29.1084L92.7983 30.1161L92.8137 30.1425L92.8299 30.1684L94.5259 29.1084ZM97.4746 30.478L97.0232 32.4264L97.0284 32.4276L97.4746 30.478ZM102.196 32.46L100.912 33.9937L100.922 34.0019L102.196 32.46ZM101.906 39.8398L100.614 38.3125L100.608 38.3184L101.906 39.8398ZM96.6367 39.3384C95.4631 39.3384 94.3942 39.2268 93.4231 39.0141L92.5672 42.9215C93.8519 43.2029 95.2107 43.3384 96.6367 43.3384V39.3384ZM93.427 39.015C92.4407 38.7968 91.4958 38.4848 90.59 38.079L88.9549 41.7296C90.1116 42.2477 91.3152 42.6446 92.5632 42.9206L93.427 39.015ZM91.7724 39.8847L91.724 34.954L87.7242 34.9932L87.7726 39.9239L91.7724 39.8847ZM89.7241 36.9736H92.9951V32.9736H89.7241V36.9736ZM91.0548 35.4587L91.6833 37.9724L95.5638 37.0022L94.9354 34.4886L91.0548 35.4587ZM92.7291 39.2762C93.2353 39.5293 93.7714 39.7228 94.3308 39.8626L95.301 35.9821C95.001 35.9071 94.7422 35.8106 94.518 35.6985L92.7291 39.2762ZM94.342 39.8654C94.9685 40.0182 95.6315 40.0835 96.3145 40.0835V36.0835C95.8802 36.0835 95.5442 36.0414 95.2898 35.9793L94.342 39.8654ZM96.3145 40.0835C97.4642 40.0835 98.7997 39.9199 99.7875 39.1296L97.2887 36.0061C97.3791 35.9338 97.3923 35.9636 97.2081 36.0063C97.0299 36.0476 96.7421 36.0835 96.3145 36.0835V40.0835ZM99.7875 39.1296C100.655 38.4357 101.183 37.4475 101.183 36.2788H97.1826C97.1826 36.2494 97.1911 36.1763 97.2326 36.0934C97.2722 36.0142 97.3104 35.9888 97.2887 36.0061L99.7875 39.1296ZM101.183 36.2788C101.183 35.0498 100.556 34.0899 99.7302 33.437L97.2493 36.5747C97.3138 36.6257 97.2912 36.6248 97.2528 36.5542C97.2335 36.5187 97.2145 36.4733 97.2011 36.4205C97.1876 36.3677 97.1826 36.3189 97.1826 36.2788H101.183ZM99.7701 33.4694C99.2875 33.0672 98.7002 32.7957 98.1496 32.5969C97.5751 32.3896 96.9068 32.2149 96.1677 32.0636L95.3655 35.9823C95.9907 36.1103 96.4583 36.2391 96.7916 36.3594C97.1486 36.4882 97.2408 36.5685 97.2094 36.5423L99.7701 33.4694ZM96.1745 32.065C94.2785 31.67 93.1619 31.1081 92.5631 30.5553L89.85 33.4945C91.2062 34.7464 93.1297 35.5165 95.3587 35.9809L96.1745 32.065ZM92.5631 30.5553C92.0217 30.0555 91.7402 29.4459 91.7402 28.5605H87.7402C87.7402 30.4897 88.4363 32.1896 89.85 33.4945L92.5631 30.5553ZM91.7402 28.5605C91.7402 27.9452 91.8889 27.4263 92.1742 26.9571L88.7565 24.8788C88.075 25.9995 87.7402 27.2423 87.7402 28.5605H91.7402ZM92.1639 26.9738C92.4237 26.5559 92.8538 26.1504 93.5762 25.8008L91.834 22.2002C90.5583 22.8174 89.4953 23.6902 88.7668 24.8621L92.1639 26.9738ZM93.5687 25.8044C94.2232 25.4911 95.1906 25.2754 96.5723 25.2754V21.2754C94.8173 21.2754 93.2065 21.5431 91.8415 22.1965L93.5687 25.8044ZM96.5723 25.2754C97.7535 25.2754 98.7933 25.3917 99.7032 25.6079L100.628 21.7163C99.3678 21.4169 98.0122 21.2754 96.5723 21.2754V25.2754ZM99.7256 25.6131C100.694 25.8315 101.423 26.1035 101.956 26.3969L103.886 22.8931C102.936 22.3701 101.829 21.9869 100.605 21.7111L99.7256 25.6131ZM100.921 24.6653L100.969 29.4348L104.969 29.3943L104.921 24.6248L100.921 24.6653ZM102.969 27.4146H99.7144V31.4146H102.969V27.4146ZM101.668 28.988L101.169 26.6999L97.2609 27.553L97.7604 29.8411L101.668 28.988ZM100.405 25.5194C99.8884 25.1364 99.3104 24.8758 98.7054 24.7123L97.6618 28.5738C97.8517 28.6251 97.9613 28.6868 98.0244 28.7336L100.405 25.5194ZM98.7189 24.716C98.1231 24.5505 97.4974 24.4819 96.8623 24.4819V28.4819C97.2155 28.4819 97.4706 28.5207 97.6483 28.5701L98.7189 24.716ZM96.8623 24.4819C95.8062 24.4819 94.6773 24.6886 93.7547 25.3861L96.1672 28.5768C96.1255 28.6083 96.2641 28.4819 96.8623 28.4819V24.4819ZM93.7547 25.3861C92.8429 26.0755 92.3003 27.0824 92.3003 28.2705H96.3003C96.3003 28.2954 96.2926 28.3733 96.2453 28.4656C96.1996 28.5549 96.1526 28.5878 96.1672 28.5768L93.7547 25.3861ZM92.3003 28.2705C92.3003 28.9225 92.4681 29.55 92.7983 30.1161L96.2534 28.1007C96.2646 28.1197 96.2781 28.149 96.2879 28.1856C96.2978 28.2222 96.3003 28.2523 96.3003 28.2705H92.3003ZM92.8299 30.1684C93.2834 30.8941 93.9907 31.3415 94.5828 31.6306L96.3381 28.0364C96.269 28.0026 96.2159 27.9733 96.1764 27.9495C96.1368 27.9255 96.1149 27.9095 96.1064 27.9029C96.0977 27.8962 96.1072 27.9025 96.1277 27.9241C96.1483 27.9459 96.1833 27.9866 96.2219 28.0484L92.8299 30.1684ZM94.5828 31.6306C95.2457 31.9544 96.088 32.2097 97.0232 32.4264L97.9261 28.5296C97.0995 28.3381 96.5991 28.1638 96.3381 28.0364L94.5828 31.6306ZM97.0284 32.4276C99.0715 32.8952 100.282 33.4663 100.912 33.9937L103.479 30.9263C102.133 29.7993 100.196 29.0491 97.9208 28.5284L97.0284 32.4276ZM100.922 34.0019C101.376 34.3766 101.678 34.918 101.678 35.9082H105.678C105.678 33.9335 104.993 32.1762 103.47 30.918L100.922 34.0019ZM101.678 35.9082C101.678 36.9742 101.322 37.714 100.614 38.3125L103.197 41.3671C104.852 39.9676 105.678 38.0863 105.678 35.9082H101.678ZM100.608 38.3184C99.9461 38.8828 98.741 39.3384 96.6367 39.3384V43.3384C99.216 43.3384 101.524 42.7949 103.204 41.3613L100.608 38.3184ZM106.869 37.0845L105.071 37.9616L105.074 37.9673L106.869 37.0845ZM106.869 27.5293L108.663 28.4121L108.666 28.4064L106.869 27.5293ZM109.688 24.3872L110.735 26.0916L110.739 26.089L109.688 24.3872ZM118.535 24.3872L117.477 26.0849L117.488 26.0915L118.535 24.3872ZM121.354 37.0845L123.149 37.9673L123.152 37.9616L121.354 37.0845ZM118.535 40.2104L117.488 38.5061L118.535 40.2104ZM117.278 35.2314L119.185 35.8325L119.188 35.8251L117.278 35.2314ZM117.278 29.3984L115.368 29.9921L115.37 29.9994L117.278 29.3984ZM116.118 27.5454L114.801 29.0506L114.817 29.0651L114.834 29.0793L116.118 27.5454ZM112.105 27.5454L113.389 29.0793L113.398 29.0717L113.407 29.0639L112.105 27.5454ZM110.945 29.3984L109.035 28.8048L109.033 28.8131L109.03 28.8213L110.945 29.3984ZM110.945 35.2314L109.028 35.8014L109.032 35.8132L109.035 35.8251L110.945 35.2314ZM112.105 37.0845L110.822 38.6183L110.831 38.6261L110.841 38.6338L112.105 37.0845ZM114.136 39.3384C112.714 39.3384 111.612 39.03 110.744 38.5021L108.665 41.9188C110.268 42.8948 112.12 43.3384 114.136 43.3384V39.3384ZM110.744 38.5021C109.843 37.9534 109.155 37.2018 108.663 36.2016L105.074 37.9673C105.893 39.6312 107.095 40.9636 108.665 41.9188L110.744 38.5021ZM108.666 36.2073C108.164 35.1793 107.886 33.9461 107.886 32.46H103.886C103.886 34.4542 104.262 36.3041 105.071 37.9616L108.666 36.2073ZM107.886 32.46V32.1216H103.886V32.46H107.886ZM107.886 32.1216C107.886 30.6478 108.164 29.4276 108.663 28.4121L105.074 26.6465C104.263 28.2951 103.886 30.1364 103.886 32.1216H107.886ZM108.666 28.4064C109.162 27.3908 109.847 26.6365 110.735 26.0915L108.642 22.6829C107.08 23.6418 105.886 24.9822 105.071 26.6522L108.666 28.4064ZM110.739 26.089C111.607 25.5534 112.7 25.2432 114.104 25.2432V21.2432C112.091 21.2432 110.241 21.6956 108.638 22.6854L110.739 26.089ZM114.104 25.2432C115.534 25.2432 116.628 25.556 117.477 26.0849L119.592 22.6895C117.992 21.6931 116.132 21.2432 114.104 21.2432V25.2432ZM117.488 26.0915C118.38 26.6391 119.066 27.3912 119.56 28.396L123.149 26.6304C122.333 24.9711 121.139 23.6393 119.581 22.6829L117.488 26.0915ZM119.56 28.396C120.059 29.4098 120.337 30.635 120.337 32.1216H124.337C124.337 30.1277 123.961 28.2806 123.149 26.6304L119.56 28.396ZM120.337 32.1216V32.46H124.337V32.1216H120.337ZM120.337 32.46C120.337 33.9461 120.059 35.1793 119.557 36.2073L123.152 37.9616C123.961 36.3041 124.337 34.4542 124.337 32.46H120.337ZM119.56 36.2016C119.066 37.2065 118.38 37.9586 117.488 38.5061L119.581 41.9148C121.139 40.9584 122.333 39.6265 123.149 37.9673L119.56 36.2016ZM117.488 38.5061C116.633 39.031 115.545 39.3384 114.136 39.3384V43.3384C116.143 43.3384 117.987 42.8938 119.581 41.9148L117.488 38.5061ZM114.136 39.729C115.327 39.729 116.485 39.3989 117.433 38.5891L114.835 35.5476C114.752 35.6187 114.577 35.729 114.136 35.729V39.729ZM117.433 38.5891C118.289 37.858 118.85 36.8978 119.185 35.8325L115.37 34.6304C115.212 35.1334 115.01 35.3979 114.835 35.5476L117.433 38.5891ZM119.188 35.8251C119.508 34.7949 119.648 33.6633 119.648 32.46H115.648C115.648 33.3621 115.542 34.0781 115.368 34.6378L119.188 35.8251ZM119.648 32.46V32.1216H115.648V32.46H119.648ZM119.648 32.1216C119.648 30.9359 119.507 29.8182 119.185 28.7974L115.37 29.9994C115.543 30.5471 115.648 31.2448 115.648 32.1216H119.648ZM119.188 28.8048C118.851 27.7216 118.28 26.7468 117.401 26.0115L114.834 29.0793C115.008 29.2249 115.211 29.4855 115.368 29.992L119.188 28.8048ZM117.435 26.0403C116.482 25.207 115.31 24.8687 114.104 24.8687V28.8687C114.551 28.8687 114.722 28.9814 114.801 29.0506L117.435 26.0403ZM114.104 24.8687C112.902 24.8687 111.75 25.2156 110.804 26.0269L113.407 29.0639C113.513 28.9728 113.693 28.8687 114.104 28.8687V24.8687ZM110.822 26.0115C109.943 26.7468 109.372 27.7216 109.035 28.8048L112.855 29.992C113.013 29.4855 113.215 29.2249 113.389 29.0793L110.822 26.0115ZM109.03 28.8213C108.725 29.8338 108.591 30.943 108.591 32.1216H112.591C112.591 31.2376 112.693 30.5314 112.86 29.9755L109.03 28.8213ZM108.591 32.1216V32.46H112.591V32.1216H108.591ZM108.591 32.46C108.591 33.6564 108.724 34.7795 109.028 35.8014L112.862 34.6615C112.694 34.0935 112.591 33.369 112.591 32.46H108.591ZM109.035 35.8251C109.372 36.9083 109.943 37.8831 110.822 38.6183L113.389 35.5506C113.215 35.405 113.013 35.1444 112.855 34.6378L109.035 35.8251ZM110.841 38.6338C111.797 39.4144 112.951 39.729 114.136 39.729V35.729C113.666 35.729 113.467 35.6139 113.37 35.5352L110.841 38.6338ZM124.271 41H122.271V43H124.271V41ZM124.271 38.1802L123.852 36.2246L122.271 36.5633V38.1802H124.271ZM126.527 37.6968L126.946 39.6524L128.527 39.3136V37.6968H126.527ZM126.527 26.8848H128.527V25.2347L126.907 24.9212L126.527 26.8848ZM124.029 26.4014H122.029V28.0514L123.649 28.3649L124.029 26.4014ZM124.029 23.5654V21.5654H122.029V23.5654H124.029ZM130.91 23.5654L132.903 23.3983L132.749 21.5654H130.91V23.5654ZM131.119 26.063L129.126 26.2301L129.614 32.0442L132.796 27.1537L131.119 26.063ZM133.262 23.9844L132.265 22.2505L132.256 22.256L133.262 23.9844ZM141.722 37.6968H139.722V39.3136L141.303 39.6524L141.722 37.6968ZM143.978 38.1802H145.978V36.5633L144.397 36.2246L143.978 38.1802ZM143.978 41V43H145.978V41H143.978ZM134.986 41H132.986V43H134.986V41ZM134.986 38.1802L134.52 36.2354L132.986 36.6034V38.1802H134.986ZM137 37.6968L137.467 39.6416L139 39.2736V37.6968H137ZM136.308 27.6421L134.847 29.0079L134.854 29.0159L134.862 29.0238L136.308 27.6421ZM132.473 27.3359L133.457 29.0771L133.469 29.0701L132.473 27.3359ZM131.232 28.5444L129.542 27.4752L129.232 27.9649V28.5444H131.232ZM131.232 37.6968H129.232V39.2519L130.739 39.6351L131.232 37.6968ZM133.133 38.1802H135.133V36.625L133.626 36.2418L133.133 38.1802ZM133.133 41V43H135.133V41H133.133ZM126.271 41V38.1802H122.271V41H126.271ZM124.69 40.1358L126.946 39.6524L126.108 35.7412L123.852 36.2246L124.69 40.1358ZM128.527 37.6968V26.8848H124.527V37.6968H128.527ZM126.907 24.9212L124.409 24.4378L123.649 28.3649L126.147 28.8483L126.907 24.9212ZM126.029 26.4014V23.5654H122.029V26.4014H126.029ZM124.029 25.5654H130.91V21.5654H124.029V25.5654ZM128.917 23.7326L129.126 26.2301L133.112 25.8958L132.903 23.3983L128.917 23.7326ZM132.796 27.1537C133.22 26.5018 133.712 26.0368 134.269 25.7127L132.256 22.256C131.115 22.9203 130.179 23.8409 129.443 24.9723L132.796 27.1537ZM134.259 25.7182C134.784 25.4164 135.411 25.2432 136.195 25.2432V21.2432C134.787 21.2432 133.459 21.5641 132.265 22.2506L134.259 25.7182ZM136.195 25.2432C137.459 25.2432 138.225 25.6252 138.757 26.227L141.754 23.5786C140.331 21.9676 138.39 21.2432 136.195 21.2432V25.2432ZM138.757 26.227C139.266 26.8033 139.722 27.955 139.722 30.1074H143.722C143.722 27.5333 143.2 25.2152 141.754 23.5786L138.757 26.227ZM139.722 30.1074V37.6968H143.722V30.1074H139.722ZM141.303 39.6524L143.558 40.1358L144.397 36.2246L142.141 35.7412L141.303 39.6524ZM141.978 38.1802V41H145.978V38.1802H141.978ZM143.978 39H134.986V43H143.978V39ZM136.986 41V38.1802H132.986V41H136.986ZM135.453 40.125L137.467 39.6416L136.534 35.752L134.52 36.2354L135.453 40.125ZM139 37.6968V30.1235H135V37.6968H139ZM139 30.1235C139 28.7932 138.758 27.3112 137.754 26.2604L134.862 29.0238C134.81 28.9699 134.849 28.9782 134.901 29.1629C134.953 29.3509 135 29.6588 135 30.1235H139ZM137.769 26.2763C136.81 25.2508 135.511 24.9009 134.245 24.9009V28.9009C134.526 28.9009 134.689 28.9395 134.769 28.9683C134.808 28.9822 134.827 28.9938 134.835 28.9986C134.842 29.0032 134.845 29.0058 134.847 29.0079L137.769 26.2763ZM134.245 24.9009C133.276 24.9009 132.331 25.111 131.476 25.6017L133.469 29.0701C133.625 28.9807 133.861 28.9009 134.245 28.9009V24.9009ZM131.489 25.5948C130.68 26.0518 130.034 26.6978 129.542 27.4752L132.922 29.6137C133.096 29.3384 133.277 29.1787 133.457 29.0771L131.489 25.5948ZM129.232 28.5444V37.6968H133.232V28.5444H129.232ZM130.739 39.6351L132.641 40.1185L133.626 36.2418L131.725 35.7584L130.739 39.6351ZM131.133 38.1802V41H135.133V38.1802H131.133ZM133.133 39H124.271V43H133.133V39ZM147.232 39.9526L145.882 41.4276L145.89 41.4353L147.232 39.9526ZM147.7 32.1538L148.916 33.7415L148.924 33.7353L147.7 32.1538ZM155.853 30.6069V32.6069H157.853V30.6069H155.853ZM155.112 27.2876L153.639 28.6404L153.653 28.6561L153.668 28.6714L155.112 27.2876ZM151.567 26.6914L152.137 28.6085L152.16 28.6015L152.184 28.5939L151.567 26.6914ZM150.471 27.207L149.349 25.5512L148.634 26.036L148.497 26.8894L150.471 27.207ZM150.101 29.5112V31.5112H151.805L152.075 29.8288L150.101 29.5112ZM146.717 29.5112L144.717 29.5397L144.745 31.5112H146.717V29.5112ZM146.652 24.9834L145.669 23.2419L144.636 23.8254L144.653 25.0119L146.652 24.9834ZM158.576 24.8384L157.322 26.3964L157.33 26.4026L158.576 24.8384ZM160.558 37.2617H158.558V37.3093L158.56 37.3568L160.558 37.2617ZM160.623 37.9224L158.645 38.219L158.866 39.6936L160.342 39.9026L160.623 37.9224ZM162.443 38.1802H164.443V36.4434L162.724 36.1999L162.443 38.1802ZM162.443 41V43H164.443V41H162.443ZM156.61 41L154.749 41.7313L155.247 43H156.61V41ZM155.998 39.002L157.974 38.6932L157.266 34.161L154.427 37.7642L155.998 39.002ZM154.016 40.71L154.99 42.4571L154.998 42.4525L154.016 40.71ZM154.483 37.4229L155.365 39.2182L155.378 39.2118L155.391 39.2052L154.483 37.4229ZM155.853 36.2466L157.517 37.356L157.853 36.8521V36.2466H155.853ZM155.853 33.4912H157.853V31.4912H155.853V33.4912ZM151.18 34.2002L149.859 32.6988L149.851 32.7054L149.844 32.7121L151.18 34.2002ZM150.971 37.3584L149.642 38.8532L149.664 38.8727L149.686 38.8914L150.971 37.3584ZM151.357 39.3384C149.992 39.3384 149.14 38.9817 148.575 38.4699L145.89 41.4353C147.366 42.7712 149.264 43.3384 151.357 43.3384V39.3384ZM148.583 38.4777C148.043 37.9826 147.702 37.286 147.702 36.1499H143.702C143.702 38.2149 144.381 40.0536 145.882 41.4276L148.583 38.4777ZM147.702 36.1499C147.702 35.1438 148.066 34.3928 148.916 33.7414L146.483 30.5662C144.67 31.9558 143.702 33.8689 143.702 36.1499H147.702ZM148.924 33.7353C149.764 33.0848 151.204 32.6069 153.549 32.6069V28.6069C150.758 28.6069 148.299 29.1603 146.475 30.5724L148.924 33.7353ZM153.549 32.6069H155.853V28.6069H153.549V32.6069ZM157.853 30.6069V29.3179H153.853V30.6069H157.853ZM157.853 29.3179C157.853 28.0599 157.468 26.8555 156.556 25.9038L153.668 28.6714C153.744 28.7509 153.853 28.9 153.853 29.3179H157.853ZM156.585 25.9348C155.599 24.8612 154.244 24.498 152.92 24.498V28.498C153.235 28.498 153.424 28.5411 153.523 28.577C153.612 28.6088 153.634 28.6353 153.639 28.6404L156.585 25.9348ZM152.92 24.498C152.248 24.498 151.583 24.5836 150.95 24.789L152.184 28.5939C152.346 28.5414 152.583 28.498 152.92 28.498V24.498ZM150.997 24.7743C150.409 24.949 149.857 25.2073 149.349 25.5512L151.593 28.8629C151.751 28.7556 151.929 28.6701 152.137 28.6085L150.997 24.7743ZM148.497 26.8894L148.126 29.1936L152.075 29.8288L152.446 27.5246L148.497 26.8894ZM150.101 27.5112H146.717V31.5112H150.101V27.5112ZM148.717 29.4828L148.652 24.9549L144.653 25.0119L144.717 29.5397L148.717 29.4828ZM147.636 26.7249C148.414 26.2856 149.266 25.9229 150.197 25.6406L149.037 21.8125C147.842 22.1748 146.717 22.65 145.669 23.2419L147.636 26.7249ZM150.197 25.6406C151.042 25.3845 152.03 25.2432 153.178 25.2432V21.2432C151.705 21.2432 150.319 21.4241 149.037 21.8125L150.197 25.6406ZM153.178 25.2432C155.156 25.2432 156.461 25.7036 157.322 26.3964L159.83 23.2804C158.048 21.8462 155.756 21.2432 153.178 21.2432V25.2432ZM157.33 26.4026C158.094 27.0112 158.558 27.8975 158.558 29.3662H162.558C162.558 26.9033 161.701 24.771 159.822 23.2742L157.33 26.4026ZM158.558 29.3662V36.5527H162.558V29.3662H158.558ZM158.558 36.5527C158.558 36.5532 158.558 36.5537 158.558 36.5541C158.558 36.5546 158.558 36.555 158.558 36.5555C158.558 36.556 158.558 36.5564 158.558 36.5569C158.558 36.5574 158.558 36.5578 158.558 36.5583C158.558 36.5587 158.558 36.5592 158.558 36.5597C158.558 36.5601 158.558 36.5606 158.558 36.561C158.558 36.5615 158.558 36.562 158.558 36.5624C158.558 36.5629 158.558 36.5634 158.558 36.5638C158.558 36.5643 158.558 36.5647 158.558 36.5652C158.558 36.5657 158.558 36.5661 158.558 36.5666C158.558 36.567 158.558 36.5675 158.558 36.568C158.558 36.5684 158.558 36.5689 158.558 36.5694C158.558 36.5698 158.558 36.5703 158.558 36.5707C158.558 36.5712 158.558 36.5717 158.558 36.5721C158.558 36.5726 158.558 36.573 158.558 36.5735C158.558 36.574 158.558 36.5744 158.558 36.5749C158.558 36.5754 158.558 36.5758 158.558 36.5763C158.558 36.5767 158.558 36.5772 158.558 36.5777C158.558 36.5781 158.558 36.5786 158.558 36.579C158.558 36.5795 158.558 36.58 158.558 36.5804C158.558 36.5809 158.558 36.5814 158.558 36.5818C158.558 36.5823 158.558 36.5827 158.558 36.5832C158.558 36.5837 158.558 36.5841 158.558 36.5846C158.558 36.585 158.558 36.5855 158.558 36.586C158.558 36.5864 158.558 36.5869 158.558 36.5874C158.558 36.5878 158.558 36.5883 158.558 36.5887C158.558 36.5892 158.558 36.5897 158.558 36.5901C158.558 36.5906 158.558 36.591 158.558 36.5915C158.558 36.592 158.558 36.5924 158.558 36.5929C158.558 36.5934 158.558 36.5938 158.558 36.5943C158.558 36.5947 158.558 36.5952 158.558 36.5957C158.558 36.5961 158.558 36.5966 158.558 36.597C158.558 36.5975 158.558 36.598 158.558 36.5984C158.558 36.5989 158.558 36.5994 158.558 36.5998C158.558 36.6003 158.558 36.6007 158.558 36.6012C158.558 36.6017 158.558 36.6021 158.558 36.6026C158.558 36.603 158.558 36.6035 158.558 36.604C158.558 36.6044 158.558 36.6049 158.558 36.6054C158.558 36.6058 158.558 36.6063 158.558 36.6067C158.558 36.6072 158.558 36.6077 158.558 36.6081C158.558 36.6086 158.558 36.609 158.558 36.6095C158.558 36.61 158.558 36.6104 158.558 36.6109C158.558 36.6114 158.558 36.6118 158.558 36.6123C158.558 36.6127 158.558 36.6132 158.558 36.6137C158.558 36.6141 158.558 36.6146 158.558 36.615C158.558 36.6155 158.558 36.616 158.558 36.6164C158.558 36.6169 158.558 36.6174 158.558 36.6178C158.558 36.6183 158.558 36.6187 158.558 36.6192C158.558 36.6197 158.558 36.6201 158.558 36.6206C158.558 36.621 158.558 36.6215 158.558 36.622C158.558 36.6224 158.558 36.6229 158.558 36.6234C158.558 36.6238 158.558 36.6243 158.558 36.6247C158.558 36.6252 158.558 36.6257 158.558 36.6261C158.558 36.6266 158.558 36.627 158.558 36.6275C158.558 36.628 158.558 36.6284 158.558 36.6289C158.558 36.6294 158.558 36.6298 158.558 36.6303C158.558 36.6307 158.558 36.6312 158.558 36.6317C158.558 36.6321 158.558 36.6326 158.558 36.633C158.558 36.6335 158.558 36.634 158.558 36.6344C158.558 36.6349 158.558 36.6354 158.558 36.6358C158.558 36.6363 158.558 36.6367 158.558 36.6372C158.558 36.6377 158.558 36.6381 158.558 36.6386C158.558 36.639 158.558 36.6395 158.558 36.64C158.558 36.6404 158.558 36.6409 158.558 36.6414C158.558 36.6418 158.558 36.6423 158.558 36.6427C158.558 36.6432 158.558 36.6437 158.558 36.6441C158.558 36.6446 158.558 36.6451 158.558 36.6455C158.558 36.646 158.558 36.6464 158.558 36.6469C158.558 36.6474 158.558 36.6478 158.558 36.6483C158.558 36.6487 158.558 36.6492 158.558 36.6497C158.558 36.6501 158.558 36.6506 158.558 36.6511C158.558 36.6515 158.558 36.652 158.558 36.6524C158.558 36.6529 158.558 36.6534 158.558 36.6538C158.558 36.6543 158.558 36.6547 158.558 36.6552C158.558 36.6557 158.558 36.6561 158.558 36.6566C158.558 36.6571 158.558 36.6575 158.558 36.658C158.558 36.6584 158.558 36.6589 158.558 36.6594C158.558 36.6598 158.558 36.6603 158.558 36.6607C158.558 36.6612 158.558 36.6617 158.558 36.6621C158.558 36.6626 158.558 36.6631 158.558 36.6635C158.558 36.664 158.558 36.6644 158.558 36.6649C158.558 36.6654 158.558 36.6658 158.558 36.6663C158.558 36.6667 158.558 36.6672 158.558 36.6677C158.558 36.6681 158.558 36.6686 158.558 36.6691C158.558 36.6695 158.558 36.67 158.558 36.6704C158.558 36.6709 158.558 36.6714 158.558 36.6718C158.558 36.6723 158.558 36.6727 158.558 36.6732C158.558 36.6737 158.558 36.6741 158.558 36.6746C158.558 36.6751 158.558 36.6755 158.558 36.676C158.558 36.6764 158.558 36.6769 158.558 36.6774C158.558 36.6778 158.558 36.6783 158.558 36.6787C158.558 36.6792 158.558 36.6797 158.558 36.6801C158.558 36.6806 158.558 36.6811 158.558 36.6815C158.558 36.682 158.558 36.6824 158.558 36.6829C158.558 36.6834 158.558 36.6838 158.558 36.6843C158.558 36.6847 158.558 36.6852 158.558 36.6857C158.558 36.6861 158.558 36.6866 158.558 36.6871C158.558 36.6875 158.558 36.688 158.558 36.6884C158.558 36.6889 158.558 36.6894 158.558 36.6898C158.558 36.6903 158.558 36.6907 158.558 36.6912C158.558 36.6917 158.558 36.6921 158.558 36.6926C158.558 36.6931 158.558 36.6935 158.558 36.694C158.558 36.6944 158.558 36.6949 158.558 36.6954C158.558 36.6958 158.558 36.6963 158.558 36.6967C158.558 36.6972 158.558 36.6977 158.558 36.6981C158.558 36.6986 158.558 36.6991 158.558 36.6995C158.558 36.7 158.558 36.7004 158.558 36.7009C158.558 36.7014 158.558 36.7018 158.558 36.7023C158.558 36.7027 158.558 36.7032 158.558 36.7037C158.558 36.7041 158.558 36.7046 158.558 36.7051C158.558 36.7055 158.558 36.706 158.558 36.7064C158.558 36.7069 158.558 36.7074 158.558 36.7078C158.558 36.7083 158.558 36.7087 158.558 36.7092C158.558 36.7097 158.558 36.7101 158.558 36.7106C158.558 36.7111 158.558 36.7115 158.558 36.712C158.558 36.7124 158.558 36.7129 158.558 36.7134C158.558 36.7138 158.558 36.7143 158.558 36.7147C158.558 36.7152 158.558 36.7157 158.558 36.7161C158.558 36.7166 158.558 36.7171 158.558 36.7175C158.558 36.718 158.558 36.7184 158.558 36.7189C158.558 36.7194 158.558 36.7198 158.558 36.7203C158.558 36.7207 158.558 36.7212 158.558 36.7217C158.558 36.7221 158.558 36.7226 158.558 36.7231C158.558 36.7235 158.558 36.724 158.558 36.7244C158.558 36.7249 158.558 36.7254 158.558 36.7258C158.558 36.7263 158.558 36.7267 158.558 36.7272C158.558 36.7277 158.558 36.7281 158.558 36.7286C158.558 36.7291 158.558 36.7295 158.558 36.73C158.558 36.7304 158.558 36.7309 158.558 36.7314C158.558 36.7318 158.558 36.7323 158.558 36.7327C158.558 36.7332 158.558 36.7337 158.558 36.7341C158.558 36.7346 158.558 36.7351 158.558 36.7355C158.558 36.736 158.558 36.7364 158.558 36.7369C158.558 36.7374 158.558 36.7378 158.558 36.7383C158.558 36.7388 158.558 36.7392 158.558 36.7397C158.558 36.7401 158.558 36.7406 158.558 36.7411C158.558 36.7415 158.558 36.742 158.558 36.7424C158.558 36.7429 158.558 36.7434 158.558 36.7438C158.558 36.7443 158.558 36.7448 158.558 36.7452C158.558 36.7457 158.558 36.7461 158.558 36.7466C158.558 36.7471 158.558 36.7475 158.558 36.748C158.558 36.7484 158.558 36.7489 158.558 36.7494C158.558 36.7498 158.558 36.7503 158.558 36.7508C158.558 36.7512 158.558 36.7517 158.558 36.7521C158.558 36.7526 158.558 36.7531 158.558 36.7535C158.558 36.754 158.558 36.7544 158.558 36.7549C158.558 36.7554 158.558 36.7558 158.558 36.7563C158.558 36.7568 158.558 36.7572 158.558 36.7577C158.558 36.7581 158.558 36.7586 158.558 36.7591C158.558 36.7595 158.558 36.76 158.558 36.7604C158.558 36.7609 158.558 36.7614 158.558 36.7618C158.558 36.7623 158.558 36.7628 158.558 36.7632C158.558 36.7637 158.558 36.7641 158.558 36.7646C158.558 36.7651 158.558 36.7655 158.558 36.766C158.558 36.7664 158.558 36.7669 158.558 36.7674C158.558 36.7678 158.558 36.7683 158.558 36.7688C158.558 36.7692 158.558 36.7697 158.558 36.7701C158.558 36.7706 158.558 36.7711 158.558 36.7715C158.558 36.772 158.558 36.7724 158.558 36.7729C158.558 36.7734 158.558 36.7738 158.558 36.7743C158.558 36.7748 158.558 36.7752 158.558 36.7757C158.558 36.7761 158.558 36.7766 158.558 36.7771C158.558 36.7775 158.558 36.778 158.558 36.7784C158.558 36.7789 158.558 36.7794 158.558 36.7798C158.558 36.7803 158.558 36.7808 158.558 36.7812C158.558 36.7817 158.558 36.7821 158.558 36.7826C158.558 36.7831 158.558 36.7835 158.558 36.784C158.558 36.7844 158.558 36.7849 158.558 36.7854C158.558 36.7858 158.558 36.7863 158.558 36.7868C158.558 36.7872 158.558 36.7877 158.558 36.7881C158.558 36.7886 158.558 36.7891 158.558 36.7895C158.558 36.79 158.558 36.7904 158.558 36.7909C158.558 36.7914 158.558 36.7918 158.558 36.7923C158.558 36.7928 158.558 36.7932 158.558 36.7937C158.558 36.7941 158.558 36.7946 158.558 36.7951C158.558 36.7955 158.558 36.796 158.558 36.7964C158.558 36.7969 158.558 36.7974 158.558 36.7978C158.558 36.7983 158.558 36.7988 158.558 36.7992C158.558 36.7997 158.558 36.8001 158.558 36.8006C158.558 36.8011 158.558 36.8015 158.558 36.802C158.558 36.8024 158.558 36.8029 158.558 36.8034C158.558 36.8038 158.558 36.8043 158.558 36.8048C158.558 36.8052 158.558 36.8057 158.558 36.8061C158.558 36.8066 158.558 36.8071 158.558 36.8075C158.558 36.808 158.558 36.8084 158.558 36.8089C158.558 36.8094 158.558 36.8098 158.558 36.8103C158.558 36.8108 158.558 36.8112 158.558 36.8117C158.558 36.8121 158.558 36.8126 158.558 36.8131C158.558 36.8135 158.558 36.814 158.558 36.8144C158.558 36.8149 158.558 36.8154 158.558 36.8158C158.558 36.8163 158.558 36.8168 158.558 36.8172C158.558 36.8177 158.558 36.8181 158.558 36.8186C158.558 36.8191 158.558 36.8195 158.558 36.82C158.558 36.8204 158.558 36.8209 158.558 36.8214C158.558 36.8218 158.558 36.8223 158.558 36.8228C158.558 36.8232 158.558 36.8237 158.558 36.8241C158.558 36.8246 158.558 36.8251 158.558 36.8255C158.558 36.826 158.558 36.8265 158.558 36.8269C158.558 36.8274 158.558 36.8278 158.558 36.8283C158.558 36.8288 158.558 36.8292 158.558 36.8297C158.558 36.8301 158.558 36.8306 158.558 36.8311C158.558 36.8315 158.558 36.832 158.558 36.8325C158.558 36.8329 158.558 36.8334 158.558 36.8338C158.558 36.8343 158.558 36.8348 158.558 36.8352C158.558 36.8357 158.558 36.8361 158.558 36.8366C158.558 36.8371 158.558 36.8375 158.558 36.838C158.558 36.8385 158.558 36.8389 158.558 36.8394C158.558 36.8398 158.558 36.8403 158.558 36.8408C158.558 36.8412 158.558 36.8417 158.558 36.8421C158.558 36.8426 158.558 36.8431 158.558 36.8435C158.558 36.844 158.558 36.8445 158.558 36.8449C158.558 36.8454 158.558 36.8458 158.558 36.8463C158.558 36.8468 158.558 36.8472 158.558 36.8477C158.558 36.8481 158.558 36.8486 158.558 36.8491C158.558 36.8495 158.558 36.85 158.558 36.8505C158.558 36.8509 158.558 36.8514 158.558 36.8518C158.558 36.8523 158.558 36.8528 158.558 36.8532C158.558 36.8537 158.558 36.8541 158.558 36.8546C158.558 36.8551 158.558 36.8555 158.558 36.856C158.558 36.8565 158.558 36.8569 158.558 36.8574C158.558 36.8578 158.558 36.8583 158.558 36.8588C158.558 36.8592 158.558 36.8597 158.558 36.8601C158.558 36.8606 158.558 36.8611 158.558 36.8615C158.558 36.862 158.558 36.8625 158.558 36.8629C158.558 36.8634 158.558 36.8638 158.558 36.8643C158.558 36.8648 158.558 36.8652 158.558 36.8657C158.558 36.8661 158.558 36.8666 158.558 36.8671C158.558 36.8675 158.558 36.868 158.558 36.8685C158.558 36.8689 158.558 36.8694 158.558 36.8698C158.558 36.8703 158.558 36.8708 158.558 36.8712C158.558 36.8717 158.558 36.8721 158.558 36.8726C158.558 36.8731 158.558 36.8735 158.558 36.874C158.558 36.8745 158.558 36.8749 158.558 36.8754C158.558 36.8758 158.558 36.8763 158.558 36.8768C158.558 36.8772 158.558 36.8777 158.558 36.8781C158.558 36.8786 158.558 36.8791 158.558 36.8795C158.558 36.88 158.558 36.8805 158.558 36.8809C158.558 36.8814 158.558 36.8818 158.558 36.8823C158.558 36.8828 158.558 36.8832 158.558 36.8837C158.558 36.8841 158.558 36.8846 158.558 36.8851C158.558 36.8855 158.558 36.886 158.558 36.8865C158.558 36.8869 158.558 36.8874 158.558 36.8878C158.558 36.8883 158.558 36.8888 158.558 36.8892C158.558 36.8897 158.558 36.8901 158.558 36.8906C158.558 36.8911 158.558 36.8915 158.558 36.892C158.558 36.8925 158.558 36.8929 158.558 36.8934C158.558 36.8938 158.558 36.8943 158.558 36.8948C158.558 36.8952 158.558 36.8957 158.558 36.8961C158.558 36.8966 158.558 36.8971 158.558 36.8975C158.558 36.898 158.558 36.8985 158.558 36.8989C158.558 36.8994 158.558 36.8998 158.558 36.9003C158.558 36.9008 158.558 36.9012 158.558 36.9017C158.558 36.9021 158.558 36.9026 158.558 36.9031C158.558 36.9035 158.558 36.904 158.558 36.9045C158.558 36.9049 158.558 36.9054 158.558 36.9058C158.558 36.9063 158.558 36.9068 158.558 36.9072C158.558 36.9077 158.558 36.9081 158.558 36.9086C158.558 36.9091 158.558 36.9095 158.558 36.91C158.558 36.9105 158.558 36.9109 158.558 36.9114C158.558 36.9118 158.558 36.9123 158.558 36.9128C158.558 36.9132 158.558 36.9137 158.558 36.9142C158.558 36.9146 158.558 36.9151 158.558 36.9155C158.558 36.916 158.558 36.9165 158.558 36.9169C158.558 36.9174 158.558 36.9178 158.558 36.9183C158.558 36.9188 158.558 36.9192 158.558 36.9197C158.558 36.9202 158.558 36.9206 158.558 36.9211C158.558 36.9215 158.558 36.922 158.558 36.9225C158.558 36.9229 158.558 36.9234 158.558 36.9238C158.558 36.9243 158.558 36.9248 158.558 36.9252C158.558 36.9257 158.558 36.9262 158.558 36.9266C158.558 36.9271 158.558 36.9275 158.558 36.928C158.558 36.9285 158.558 36.9289 158.558 36.9294C158.558 36.9298 158.558 36.9303 158.558 36.9308C158.558 36.9312 158.558 36.9317 158.558 36.9322C158.558 36.9326 158.558 36.9331 158.558 36.9335C158.558 36.934 158.558 36.9345 158.558 36.9349C158.558 36.9354 158.558 36.9358 158.558 36.9363C158.558 36.9368 158.558 36.9372 158.558 36.9377C158.558 36.9382 158.558 36.9386 158.558 36.9391C158.558 36.9395 158.558 36.94 158.558 36.9405C158.558 36.9409 158.558 36.9414 158.558 36.9418C158.558 36.9423 158.558 36.9428 158.558 36.9432C158.558 36.9437 158.558 36.9442 158.558 36.9446C158.558 36.9451 158.558 36.9455 158.558 36.946C158.558 36.9465 158.558 36.9469 158.558 36.9474C158.558 36.9478 158.558 36.9483 158.558 36.9488C158.558 36.9492 158.558 36.9497 158.558 36.9502C158.558 36.9506 158.558 36.9511 158.558 36.9515C158.558 36.952 158.558 36.9525 158.558 36.9529C158.558 36.9534 158.558 36.9538 158.558 36.9543C158.558 36.9548 158.558 36.9552 158.558 36.9557C158.558 36.9562 158.558 36.9566 158.558 36.9571C158.558 36.9575 158.558 36.958 158.558 36.9585C158.558 36.9589 158.558 36.9594 158.558 36.9598C158.558 36.9603 158.558 36.9608 158.558 36.9612C158.558 36.9617 158.558 36.9622 158.558 36.9626C158.558 36.9631 158.558 36.9635 158.558 36.964C158.558 36.9645 158.558 36.9649 158.558 36.9654C158.558 36.9658 158.558 36.9663 158.558 36.9668C158.558 36.9672 158.558 36.9677 158.558 36.9682C158.558 36.9686 158.558 36.9691 158.558 36.9695C158.558 36.97 158.558 36.9705 158.558 36.9709C158.558 36.9714 158.558 36.9718 158.558 36.9723C158.558 36.9728 158.558 36.9732 158.558 36.9737C158.558 36.9742 158.558 36.9746 158.558 36.9751C158.558 36.9755 158.558 36.976 158.558 36.9765C158.558 36.9769 158.558 36.9774 158.558 36.9778C158.558 36.9783 158.558 36.9788 158.558 36.9792C158.558 36.9797 158.558 36.9802 158.558 36.9806C158.558 36.9811 158.558 36.9815 158.558 36.982C158.558 36.9825 158.558 36.9829 158.558 36.9834C158.558 36.9838 158.558 36.9843 158.558 36.9848C158.558 36.9852 158.558 36.9857 158.558 36.9862C158.558 36.9866 158.558 36.9871 158.558 36.9875C158.558 36.988 158.558 36.9885 158.558 36.9889C158.558 36.9894 158.558 36.9898 158.558 36.9903C158.558 36.9908 158.558 36.9912 158.558 36.9917C158.558 36.9922 158.558 36.9926 158.558 36.9931C158.558 36.9935 158.558 36.994 158.558 36.9945C158.558 36.9949 158.558 36.9954 158.558 36.9958C158.558 36.9963 158.558 36.9968 158.558 36.9972C158.558 36.9977 158.558 36.9982 158.558 36.9986C158.558 36.9991 158.558 36.9995 158.558 37C158.558 37.0005 158.558 37.0009 158.558 37.0014C158.558 37.0019 158.558 37.0023 158.558 37.0028C158.558 37.0032 158.558 37.0037 158.558 37.0042C158.558 37.0046 158.558 37.0051 158.558 37.0055C158.558 37.006 158.558 37.0065 158.558 37.0069C158.558 37.0074 158.558 37.0079 158.558 37.0083C158.558 37.0088 158.558 37.0092 158.558 37.0097C158.558 37.0102 158.558 37.0106 158.558 37.0111C158.558 37.0115 158.558 37.012 158.558 37.0125C158.558 37.0129 158.558 37.0134 158.558 37.0139C158.558 37.0143 158.558 37.0148 158.558 37.0152C158.558 37.0157 158.558 37.0162 158.558 37.0166C158.558 37.0171 158.558 37.0175 158.558 37.018C158.558 37.0185 158.558 37.0189 158.558 37.0194C158.558 37.0199 158.558 37.0203 158.558 37.0208C158.558 37.0212 158.558 37.0217 158.558 37.0222C158.558 37.0226 158.558 37.0231 158.558 37.0235C158.558 37.024 158.558 37.0245 158.558 37.0249C158.558 37.0254 158.558 37.0259 158.558 37.0263C158.558 37.0268 158.558 37.0272 158.558 37.0277C158.558 37.0282 158.558 37.0286 158.558 37.0291C158.558 37.0295 158.558 37.03 158.558 37.0305C158.558 37.0309 158.558 37.0314 158.558 37.0319C158.558 37.0323 158.558 37.0328 158.558 37.0332C158.558 37.0337 158.558 37.0342 158.558 37.0346C158.558 37.0351 158.558 37.0355 158.558 37.036C158.558 37.0365 158.558 37.0369 158.558 37.0374C158.558 37.0379 158.558 37.0383 158.558 37.0388C158.558 37.0392 158.558 37.0397 158.558 37.0402C158.558 37.0406 158.558 37.0411 158.558 37.0415C158.558 37.042 158.558 37.0425 158.558 37.0429C158.558 37.0434 158.558 37.0439 158.558 37.0443C158.558 37.0448 158.558 37.0452 158.558 37.0457C158.558 37.0462 158.558 37.0466 158.558 37.0471C158.558 37.0475 158.558 37.048 158.558 37.0485C158.558 37.0489 158.558 37.0494 158.558 37.0499C158.558 37.0503 158.558 37.0508 158.558 37.0512C158.558 37.0517 158.558 37.0522 158.558 37.0526C158.558 37.0531 158.558 37.0535 158.558 37.054C158.558 37.0545 158.558 37.0549 158.558 37.0554C158.558 37.0559 158.558 37.0563 158.558 37.0568C158.558 37.0572 158.558 37.0577 158.558 37.0582C158.558 37.0586 158.558 37.0591 158.558 37.0595C158.558 37.06 158.558 37.0605 158.558 37.0609C158.558 37.0614 158.558 37.0619 158.558 37.0623C158.558 37.0628 158.558 37.0632 158.558 37.0637C158.558 37.0642 158.558 37.0646 158.558 37.0651C158.558 37.0655 158.558 37.066 158.558 37.0665C158.558 37.0669 158.558 37.0674 158.558 37.0679C158.558 37.0683 158.558 37.0688 158.558 37.0692C158.558 37.0697 158.558 37.0702 158.558 37.0706C158.558 37.0711 158.558 37.0715 158.558 37.072C158.558 37.0725 158.558 37.0729 158.558 37.0734C158.558 37.0739 158.558 37.0743 158.558 37.0748C158.558 37.0752 158.558 37.0757 158.558 37.0762C158.558 37.0766 158.558 37.0771 158.558 37.0775C158.558 37.078 158.558 37.0785 158.558 37.0789C158.558 37.0794 158.558 37.0799 158.558 37.0803C158.558 37.0808 158.558 37.0812 158.558 37.0817C158.558 37.0822 158.558 37.0826 158.558 37.0831C158.558 37.0835 158.558 37.084 158.558 37.0845C158.558 37.0849 158.558 37.0854 158.558 37.0859C158.558 37.0863 158.558 37.0868 158.558 37.0872C158.558 37.0877 158.558 37.0882 158.558 37.0886C158.558 37.0891 158.558 37.0896 158.558 37.09C158.558 37.0905 158.558 37.0909 158.558 37.0914C158.558 37.0919 158.558 37.0923 158.558 37.0928C158.558 37.0932 158.558 37.0937 158.558 37.0942C158.558 37.0946 158.558 37.0951 158.558 37.0956C158.558 37.096 158.558 37.0965 158.558 37.0969C158.558 37.0974 158.558 37.0979 158.558 37.0983C158.558 37.0988 158.558 37.0992 158.558 37.0997C158.558 37.1002 158.558 37.1006 158.558 37.1011C158.558 37.1016 158.558 37.102 158.558 37.1025C158.558 37.1029 158.558 37.1034 158.558 37.1039C158.558 37.1043 158.558 37.1048 158.558 37.1052C158.558 37.1057 158.558 37.1062 158.558 37.1066C158.558 37.1071 158.558 37.1076 158.558 37.108C158.558 37.1085 158.558 37.1089 158.558 37.1094C158.558 37.1099 158.558 37.1103 158.558 37.1108C158.558 37.1112 158.558 37.1117 158.558 37.1122C158.558 37.1126 158.558 37.1131 158.558 37.1136C158.558 37.114 158.558 37.1145 158.558 37.1149C158.558 37.1154 158.558 37.1159 158.558 37.1163C158.558 37.1168 158.558 37.1172 158.558 37.1177C158.558 37.1182 158.558 37.1186 158.558 37.1191C158.558 37.1196 158.558 37.12 158.558 37.1205C158.558 37.1209 158.558 37.1214 158.558 37.1219C158.558 37.1223 158.558 37.1228 158.558 37.1232C158.558 37.1237 158.558 37.1242 158.558 37.1246C158.558 37.1251 158.558 37.1256 158.558 37.126C158.558 37.1265 158.558 37.1269 158.558 37.1274C158.558 37.1279 158.558 37.1283 158.558 37.1288C158.558 37.1292 158.558 37.1297 158.558 37.1302C158.558 37.1306 158.558 37.1311 158.558 37.1316C158.558 37.132 158.558 37.1325 158.558 37.1329C158.558 37.1334 158.558 37.1339 158.558 37.1343C158.558 37.1348 158.558 37.1352 158.558 37.1357C158.558 37.1362 158.558 37.1366 158.558 37.1371C158.558 37.1376 158.558 37.138 158.558 37.1385C158.558 37.1389 158.558 37.1394 158.558 37.1399C158.558 37.1403 158.558 37.1408 158.558 37.1412C158.558 37.1417 158.558 37.1422 158.558 37.1426C158.558 37.1431 158.558 37.1436 158.558 37.144C158.558 37.1445 158.558 37.1449 158.558 37.1454C158.558 37.1459 158.558 37.1463 158.558 37.1468C158.558 37.1472 158.558 37.1477 158.558 37.1482C158.558 37.1486 158.558 37.1491 158.558 37.1496C158.558 37.15 158.558 37.1505 158.558 37.1509C158.558 37.1514 158.558 37.1519 158.558 37.1523C158.558 37.1528 158.558 37.1532 158.558 37.1537C158.558 37.1542 158.558 37.1546 158.558 37.1551C158.558 37.1556 158.558 37.156 158.558 37.1565C158.558 37.1569 158.558 37.1574 158.558 37.1579C158.558 37.1583 158.558 37.1588 158.558 37.1592C158.558 37.1597 158.558 37.1602 158.558 37.1606C158.558 37.1611 158.558 37.1616 158.558 37.162C158.558 37.1625 158.558 37.1629 158.558 37.1634C158.558 37.1639 158.558 37.1643 158.558 37.1648C158.558 37.1652 158.558 37.1657 158.558 37.1662C158.558 37.1666 158.558 37.1671 158.558 37.1676C158.558 37.168 158.558 37.1685 158.558 37.1689C158.558 37.1694 158.558 37.1699 158.558 37.1703C158.558 37.1708 158.558 37.1712 158.558 37.1717C158.558 37.1722 158.558 37.1726 158.558 37.1731C158.558 37.1736 158.558 37.174 158.558 37.1745C158.558 37.1749 158.558 37.1754 158.558 37.1759C158.558 37.1763 158.558 37.1768 158.558 37.1772C158.558 37.1777 158.558 37.1782 158.558 37.1786C158.558 37.1791 158.558 37.1796 158.558 37.18C158.558 37.1805 158.558 37.1809 158.558 37.1814C158.558 37.1819 158.558 37.1823 158.558 37.1828C158.558 37.1833 158.558 37.1837 158.558 37.1842C158.558 37.1846 158.558 37.1851 158.558 37.1856C158.558 37.186 158.558 37.1865 158.558 37.1869C158.558 37.1874 158.558 37.1879 158.558 37.1883C158.558 37.1888 158.558 37.1893 158.558 37.1897C158.558 37.1902 158.558 37.1906 158.558 37.1911C158.558 37.1916 158.558 37.192 158.558 37.1925C158.558 37.1929 158.558 37.1934 158.558 37.1939C158.558 37.1943 158.558 37.1948 158.558 37.1953C158.558 37.1957 158.558 37.1962 158.558 37.1966C158.558 37.1971 158.558 37.1976 158.558 37.198C158.558 37.1985 158.558 37.1989 158.558 37.1994C158.558 37.1999 158.558 37.2003 158.558 37.2008C158.558 37.2013 158.558 37.2017 158.558 37.2022C158.558 37.2026 158.558 37.2031 158.558 37.2036C158.558 37.204 158.558 37.2045 158.558 37.2049C158.558 37.2054 158.558 37.2059 158.558 37.2063C158.558 37.2068 158.558 37.2073 158.558 37.2077C158.558 37.2082 158.558 37.2086 158.558 37.2091C158.558 37.2096 158.558 37.21 158.558 37.2105C158.558 37.2109 158.558 37.2114 158.558 37.2119C158.558 37.2123 158.558 37.2128 158.558 37.2133C158.558 37.2137 158.558 37.2142 158.558 37.2146C158.558 37.2151 158.558 37.2156 158.558 37.216C158.558 37.2165 158.558 37.2169 158.558 37.2174C158.558 37.2179 158.558 37.2183 158.558 37.2188C158.558 37.2193 158.558 37.2197 158.558 37.2202C158.558 37.2206 158.558 37.2211 158.558 37.2216C158.558 37.222 158.558 37.2225 158.558 37.2229C158.558 37.2234 158.558 37.2239 158.558 37.2243C158.558 37.2248 158.558 37.2253 158.558 37.2257C158.558 37.2262 158.558 37.2266 158.558 37.2271C158.558 37.2276 158.558 37.228 158.558 37.2285C158.558 37.2289 158.558 37.2294 158.558 37.2299C158.558 37.2303 158.558 37.2308 158.558 37.2313C158.558 37.2317 158.558 37.2322 158.558 37.2326C158.558 37.2331 158.558 37.2336 158.558 37.234C158.558 37.2345 158.558 37.2349 158.558 37.2354C158.558 37.2359 158.558 37.2363 158.558 37.2368C158.558 37.2373 158.558 37.2377 158.558 37.2382C158.558 37.2386 158.558 37.2391 158.558 37.2396C158.558 37.24 158.558 37.2405 158.558 37.2409C158.558 37.2414 158.558 37.2419 158.558 37.2423C158.558 37.2428 158.558 37.2433 158.558 37.2437C158.558 37.2442 158.558 37.2446 158.558 37.2451C158.558 37.2456 158.558 37.246 158.558 37.2465C158.558 37.2469 158.558 37.2474 158.558 37.2479C158.558 37.2483 158.558 37.2488 158.558 37.2493C158.558 37.2497 158.558 37.2502 158.558 37.2506C158.558 37.2511 158.558 37.2516 158.558 37.252C158.558 37.2525 158.558 37.2529 158.558 37.2534C158.558 37.2539 158.558 37.2543 158.558 37.2548C158.558 37.2553 158.558 37.2557 158.558 37.2562C158.558 37.2566 158.558 37.2571 158.558 37.2576C158.558 37.258 158.558 37.2585 158.558 37.2589C158.558 37.2594 158.558 37.2599 158.558 37.2603C158.558 37.2608 158.558 37.2613 158.558 37.2617H162.558C162.558 37.2613 162.558 37.2608 162.558 37.2603C162.558 37.2599 162.558 37.2594 162.558 37.2589C162.558 37.2585 162.558 37.258 162.558 37.2576C162.558 37.2571 162.558 37.2566 162.558 37.2562C162.558 37.2557 162.558 37.2553 162.558 37.2548C162.558 37.2543 162.558 37.2539 162.558 37.2534C162.558 37.2529 162.558 37.2525 162.558 37.252C162.558 37.2516 162.558 37.2511 162.558 37.2506C162.558 37.2502 162.558 37.2497 162.558 37.2493C162.558 37.2488 162.558 37.2483 162.558 37.2479C162.558 37.2474 162.558 37.2469 162.558 37.2465C162.558 37.246 162.558 37.2456 162.558 37.2451C162.558 37.2446 162.558 37.2442 162.558 37.2437C162.558 37.2433 162.558 37.2428 162.558 37.2423C162.558 37.2419 162.558 37.2414 162.558 37.2409C162.558 37.2405 162.558 37.24 162.558 37.2396C162.558 37.2391 162.558 37.2386 162.558 37.2382C162.558 37.2377 162.558 37.2373 162.558 37.2368C162.558 37.2363 162.558 37.2359 162.558 37.2354C162.558 37.2349 162.558 37.2345 162.558 37.234C162.558 37.2336 162.558 37.2331 162.558 37.2326C162.558 37.2322 162.558 37.2317 162.558 37.2313C162.558 37.2308 162.558 37.2303 162.558 37.2299C162.558 37.2294 162.558 37.2289 162.558 37.2285C162.558 37.228 162.558 37.2276 162.558 37.2271C162.558 37.2266 162.558 37.2262 162.558 37.2257C162.558 37.2253 162.558 37.2248 162.558 37.2243C162.558 37.2239 162.558 37.2234 162.558 37.2229C162.558 37.2225 162.558 37.222 162.558 37.2216C162.558 37.2211 162.558 37.2206 162.558 37.2202C162.558 37.2197 162.558 37.2193 162.558 37.2188C162.558 37.2183 162.558 37.2179 162.558 37.2174C162.558 37.2169 162.558 37.2165 162.558 37.216C162.558 37.2156 162.558 37.2151 162.558 37.2146C162.558 37.2142 162.558 37.2137 162.558 37.2133C162.558 37.2128 162.558 37.2123 162.558 37.2119C162.558 37.2114 162.558 37.2109 162.558 37.2105C162.558 37.21 162.558 37.2096 162.558 37.2091C162.558 37.2086 162.558 37.2082 162.558 37.2077C162.558 37.2073 162.558 37.2068 162.558 37.2063C162.558 37.2059 162.558 37.2054 162.558 37.2049C162.558 37.2045 162.558 37.204 162.558 37.2036C162.558 37.2031 162.558 37.2026 162.558 37.2022C162.558 37.2017 162.558 37.2013 162.558 37.2008C162.558 37.2003 162.558 37.1999 162.558 37.1994C162.558 37.1989 162.558 37.1985 162.558 37.198C162.558 37.1976 162.558 37.1971 162.558 37.1966C162.558 37.1962 162.558 37.1957 162.558 37.1953C162.558 37.1948 162.558 37.1943 162.558 37.1939C162.558 37.1934 162.558 37.1929 162.558 37.1925C162.558 37.192 162.558 37.1916 162.558 37.1911C162.558 37.1906 162.558 37.1902 162.558 37.1897C162.558 37.1893 162.558 37.1888 162.558 37.1883C162.558 37.1879 162.558 37.1874 162.558 37.1869C162.558 37.1865 162.558 37.186 162.558 37.1856C162.558 37.1851 162.558 37.1846 162.558 37.1842C162.558 37.1837 162.558 37.1833 162.558 37.1828C162.558 37.1823 162.558 37.1819 162.558 37.1814C162.558 37.1809 162.558 37.1805 162.558 37.18C162.558 37.1796 162.558 37.1791 162.558 37.1786C162.558 37.1782 162.558 37.1777 162.558 37.1772C162.558 37.1768 162.558 37.1763 162.558 37.1759C162.558 37.1754 162.558 37.1749 162.558 37.1745C162.558 37.174 162.558 37.1736 162.558 37.1731C162.558 37.1726 162.558 37.1722 162.558 37.1717C162.558 37.1712 162.558 37.1708 162.558 37.1703C162.558 37.1699 162.558 37.1694 162.558 37.1689C162.558 37.1685 162.558 37.168 162.558 37.1676C162.558 37.1671 162.558 37.1666 162.558 37.1662C162.558 37.1657 162.558 37.1652 162.558 37.1648C162.558 37.1643 162.558 37.1639 162.558 37.1634C162.558 37.1629 162.558 37.1625 162.558 37.162C162.558 37.1616 162.558 37.1611 162.558 37.1606C162.558 37.1602 162.558 37.1597 162.558 37.1592C162.558 37.1588 162.558 37.1583 162.558 37.1579C162.558 37.1574 162.558 37.1569 162.558 37.1565C162.558 37.156 162.558 37.1556 162.558 37.1551C162.558 37.1546 162.558 37.1542 162.558 37.1537C162.558 37.1532 162.558 37.1528 162.558 37.1523C162.558 37.1519 162.558 37.1514 162.558 37.1509C162.558 37.1505 162.558 37.15 162.558 37.1496C162.558 37.1491 162.558 37.1486 162.558 37.1482C162.558 37.1477 162.558 37.1472 162.558 37.1468C162.558 37.1463 162.558 37.1459 162.558 37.1454C162.558 37.1449 162.558 37.1445 162.558 37.144C162.558 37.1436 162.558 37.1431 162.558 37.1426C162.558 37.1422 162.558 37.1417 162.558 37.1412C162.558 37.1408 162.558 37.1403 162.558 37.1399C162.558 37.1394 162.558 37.1389 162.558 37.1385C162.558 37.138 162.558 37.1376 162.558 37.1371C162.558 37.1366 162.558 37.1362 162.558 37.1357C162.558 37.1352 162.558 37.1348 162.558 37.1343C162.558 37.1339 162.558 37.1334 162.558 37.1329C162.558 37.1325 162.558 37.132 162.558 37.1316C162.558 37.1311 162.558 37.1306 162.558 37.1302C162.558 37.1297 162.558 37.1292 162.558 37.1288C162.558 37.1283 162.558 37.1279 162.558 37.1274C162.558 37.1269 162.558 37.1265 162.558 37.126C162.558 37.1256 162.558 37.1251 162.558 37.1246C162.558 37.1242 162.558 37.1237 162.558 37.1232C162.558 37.1228 162.558 37.1223 162.558 37.1219C162.558 37.1214 162.558 37.1209 162.558 37.1205C162.558 37.12 162.558 37.1196 162.558 37.1191C162.558 37.1186 162.558 37.1182 162.558 37.1177C162.558 37.1172 162.558 37.1168 162.558 37.1163C162.558 37.1159 162.558 37.1154 162.558 37.1149C162.558 37.1145 162.558 37.114 162.558 37.1136C162.558 37.1131 162.558 37.1126 162.558 37.1122C162.558 37.1117 162.558 37.1112 162.558 37.1108C162.558 37.1103 162.558 37.1099 162.558 37.1094C162.558 37.1089 162.558 37.1085 162.558 37.108C162.558 37.1076 162.558 37.1071 162.558 37.1066C162.558 37.1062 162.558 37.1057 162.558 37.1052C162.558 37.1048 162.558 37.1043 162.558 37.1039C162.558 37.1034 162.558 37.1029 162.558 37.1025C162.558 37.102 162.558 37.1016 162.558 37.1011C162.558 37.1006 162.558 37.1002 162.558 37.0997C162.558 37.0992 162.558 37.0988 162.558 37.0983C162.558 37.0979 162.558 37.0974 162.558 37.0969C162.558 37.0965 162.558 37.096 162.558 37.0956C162.558 37.0951 162.558 37.0946 162.558 37.0942C162.558 37.0937 162.558 37.0932 162.558 37.0928C162.558 37.0923 162.558 37.0919 162.558 37.0914C162.558 37.0909 162.558 37.0905 162.558 37.09C162.558 37.0896 162.558 37.0891 162.558 37.0886C162.558 37.0882 162.558 37.0877 162.558 37.0872C162.558 37.0868 162.558 37.0863 162.558 37.0859C162.558 37.0854 162.558 37.0849 162.558 37.0845C162.558 37.084 162.558 37.0835 162.558 37.0831C162.558 37.0826 162.558 37.0822 162.558 37.0817C162.558 37.0812 162.558 37.0808 162.558 37.0803C162.558 37.0799 162.558 37.0794 162.558 37.0789C162.558 37.0785 162.558 37.078 162.558 37.0775C162.558 37.0771 162.558 37.0766 162.558 37.0762C162.558 37.0757 162.558 37.0752 162.558 37.0748C162.558 37.0743 162.558 37.0739 162.558 37.0734C162.558 37.0729 162.558 37.0725 162.558 37.072C162.558 37.0715 162.558 37.0711 162.558 37.0706C162.558 37.0702 162.558 37.0697 162.558 37.0692C162.558 37.0688 162.558 37.0683 162.558 37.0679C162.558 37.0674 162.558 37.0669 162.558 37.0665C162.558 37.066 162.558 37.0655 162.558 37.0651C162.558 37.0646 162.558 37.0642 162.558 37.0637C162.558 37.0632 162.558 37.0628 162.558 37.0623C162.558 37.0619 162.558 37.0614 162.558 37.0609C162.558 37.0605 162.558 37.06 162.558 37.0595C162.558 37.0591 162.558 37.0586 162.558 37.0582C162.558 37.0577 162.558 37.0572 162.558 37.0568C162.558 37.0563 162.558 37.0559 162.558 37.0554C162.558 37.0549 162.558 37.0545 162.558 37.054C162.558 37.0535 162.558 37.0531 162.558 37.0526C162.558 37.0522 162.558 37.0517 162.558 37.0512C162.558 37.0508 162.558 37.0503 162.558 37.0499C162.558 37.0494 162.558 37.0489 162.558 37.0485C162.558 37.048 162.558 37.0475 162.558 37.0471C162.558 37.0466 162.558 37.0462 162.558 37.0457C162.558 37.0452 162.558 37.0448 162.558 37.0443C162.558 37.0439 162.558 37.0434 162.558 37.0429C162.558 37.0425 162.558 37.042 162.558 37.0415C162.558 37.0411 162.558 37.0406 162.558 37.0402C162.558 37.0397 162.558 37.0392 162.558 37.0388C162.558 37.0383 162.558 37.0379 162.558 37.0374C162.558 37.0369 162.558 37.0365 162.558 37.036C162.558 37.0355 162.558 37.0351 162.558 37.0346C162.558 37.0342 162.558 37.0337 162.558 37.0332C162.558 37.0328 162.558 37.0323 162.558 37.0319C162.558 37.0314 162.558 37.0309 162.558 37.0305C162.558 37.03 162.558 37.0295 162.558 37.0291C162.558 37.0286 162.558 37.0282 162.558 37.0277C162.558 37.0272 162.558 37.0268 162.558 37.0263C162.558 37.0259 162.558 37.0254 162.558 37.0249C162.558 37.0245 162.558 37.024 162.558 37.0235C162.558 37.0231 162.558 37.0226 162.558 37.0222C162.558 37.0217 162.558 37.0212 162.558 37.0208C162.558 37.0203 162.558 37.0199 162.558 37.0194C162.558 37.0189 162.558 37.0185 162.558 37.018C162.558 37.0175 162.558 37.0171 162.558 37.0166C162.558 37.0162 162.558 37.0157 162.558 37.0152C162.558 37.0148 162.558 37.0143 162.558 37.0139C162.558 37.0134 162.558 37.0129 162.558 37.0125C162.558 37.012 162.558 37.0115 162.558 37.0111C162.558 37.0106 162.558 37.0102 162.558 37.0097C162.558 37.0092 162.558 37.0088 162.558 37.0083C162.558 37.0079 162.558 37.0074 162.558 37.0069C162.558 37.0065 162.558 37.006 162.558 37.0055C162.558 37.0051 162.558 37.0046 162.558 37.0042C162.558 37.0037 162.558 37.0032 162.558 37.0028C162.558 37.0023 162.558 37.0019 162.558 37.0014C162.558 37.0009 162.558 37.0005 162.558 37C162.558 36.9995 162.558 36.9991 162.558 36.9986C162.558 36.9982 162.558 36.9977 162.558 36.9972C162.558 36.9968 162.558 36.9963 162.558 36.9958C162.558 36.9954 162.558 36.9949 162.558 36.9945C162.558 36.994 162.558 36.9935 162.558 36.9931C162.558 36.9926 162.558 36.9922 162.558 36.9917C162.558 36.9912 162.558 36.9908 162.558 36.9903C162.558 36.9898 162.558 36.9894 162.558 36.9889C162.558 36.9885 162.558 36.988 162.558 36.9875C162.558 36.9871 162.558 36.9866 162.558 36.9862C162.558 36.9857 162.558 36.9852 162.558 36.9848C162.558 36.9843 162.558 36.9838 162.558 36.9834C162.558 36.9829 162.558 36.9825 162.558 36.982C162.558 36.9815 162.558 36.9811 162.558 36.9806C162.558 36.9802 162.558 36.9797 162.558 36.9792C162.558 36.9788 162.558 36.9783 162.558 36.9778C162.558 36.9774 162.558 36.9769 162.558 36.9765C162.558 36.976 162.558 36.9755 162.558 36.9751C162.558 36.9746 162.558 36.9742 162.558 36.9737C162.558 36.9732 162.558 36.9728 162.558 36.9723C162.558 36.9718 162.558 36.9714 162.558 36.9709C162.558 36.9705 162.558 36.97 162.558 36.9695C162.558 36.9691 162.558 36.9686 162.558 36.9682C162.558 36.9677 162.558 36.9672 162.558 36.9668C162.558 36.9663 162.558 36.9658 162.558 36.9654C162.558 36.9649 162.558 36.9645 162.558 36.964C162.558 36.9635 162.558 36.9631 162.558 36.9626C162.558 36.9622 162.558 36.9617 162.558 36.9612C162.558 36.9608 162.558 36.9603 162.558 36.9598C162.558 36.9594 162.558 36.9589 162.558 36.9585C162.558 36.958 162.558 36.9575 162.558 36.9571C162.558 36.9566 162.558 36.9562 162.558 36.9557C162.558 36.9552 162.558 36.9548 162.558 36.9543C162.558 36.9538 162.558 36.9534 162.558 36.9529C162.558 36.9525 162.558 36.952 162.558 36.9515C162.558 36.9511 162.558 36.9506 162.558 36.9502C162.558 36.9497 162.558 36.9492 162.558 36.9488C162.558 36.9483 162.558 36.9478 162.558 36.9474C162.558 36.9469 162.558 36.9465 162.558 36.946C162.558 36.9455 162.558 36.9451 162.558 36.9446C162.558 36.9442 162.558 36.9437 162.558 36.9432C162.558 36.9428 162.558 36.9423 162.558 36.9418C162.558 36.9414 162.558 36.9409 162.558 36.9405C162.558 36.94 162.558 36.9395 162.558 36.9391C162.558 36.9386 162.558 36.9382 162.558 36.9377C162.558 36.9372 162.558 36.9368 162.558 36.9363C162.558 36.9358 162.558 36.9354 162.558 36.9349C162.558 36.9345 162.558 36.934 162.558 36.9335C162.558 36.9331 162.558 36.9326 162.558 36.9322C162.558 36.9317 162.558 36.9312 162.558 36.9308C162.558 36.9303 162.558 36.9298 162.558 36.9294C162.558 36.9289 162.558 36.9285 162.558 36.928C162.558 36.9275 162.558 36.9271 162.558 36.9266C162.558 36.9262 162.558 36.9257 162.558 36.9252C162.558 36.9248 162.558 36.9243 162.558 36.9238C162.558 36.9234 162.558 36.9229 162.558 36.9225C162.558 36.922 162.558 36.9215 162.558 36.9211C162.558 36.9206 162.558 36.9202 162.558 36.9197C162.558 36.9192 162.558 36.9188 162.558 36.9183C162.558 36.9178 162.558 36.9174 162.558 36.9169C162.558 36.9165 162.558 36.916 162.558 36.9155C162.558 36.9151 162.558 36.9146 162.558 36.9142C162.558 36.9137 162.558 36.9132 162.558 36.9128C162.558 36.9123 162.558 36.9118 162.558 36.9114C162.558 36.9109 162.558 36.9105 162.558 36.91C162.558 36.9095 162.558 36.9091 162.558 36.9086C162.558 36.9081 162.558 36.9077 162.558 36.9072C162.558 36.9068 162.558 36.9063 162.558 36.9058C162.558 36.9054 162.558 36.9049 162.558 36.9045C162.558 36.904 162.558 36.9035 162.558 36.9031C162.558 36.9026 162.558 36.9021 162.558 36.9017C162.558 36.9012 162.558 36.9008 162.558 36.9003C162.558 36.8998 162.558 36.8994 162.558 36.8989C162.558 36.8985 162.558 36.898 162.558 36.8975C162.558 36.8971 162.558 36.8966 162.558 36.8961C162.558 36.8957 162.558 36.8952 162.558 36.8948C162.558 36.8943 162.558 36.8938 162.558 36.8934C162.558 36.8929 162.558 36.8925 162.558 36.892C162.558 36.8915 162.558 36.8911 162.558 36.8906C162.558 36.8901 162.558 36.8897 162.558 36.8892C162.558 36.8888 162.558 36.8883 162.558 36.8878C162.558 36.8874 162.558 36.8869 162.558 36.8865C162.558 36.886 162.558 36.8855 162.558 36.8851C162.558 36.8846 162.558 36.8841 162.558 36.8837C162.558 36.8832 162.558 36.8828 162.558 36.8823C162.558 36.8818 162.558 36.8814 162.558 36.8809C162.558 36.8805 162.558 36.88 162.558 36.8795C162.558 36.8791 162.558 36.8786 162.558 36.8781C162.558 36.8777 162.558 36.8772 162.558 36.8768C162.558 36.8763 162.558 36.8758 162.558 36.8754C162.558 36.8749 162.558 36.8745 162.558 36.874C162.558 36.8735 162.558 36.8731 162.558 36.8726C162.558 36.8721 162.558 36.8717 162.558 36.8712C162.558 36.8708 162.558 36.8703 162.558 36.8698C162.558 36.8694 162.558 36.8689 162.558 36.8685C162.558 36.868 162.558 36.8675 162.558 36.8671C162.558 36.8666 162.558 36.8661 162.558 36.8657C162.558 36.8652 162.558 36.8648 162.558 36.8643C162.558 36.8638 162.558 36.8634 162.558 36.8629C162.558 36.8625 162.558 36.862 162.558 36.8615C162.558 36.8611 162.558 36.8606 162.558 36.8601C162.558 36.8597 162.558 36.8592 162.558 36.8588C162.558 36.8583 162.558 36.8578 162.558 36.8574C162.558 36.8569 162.558 36.8565 162.558 36.856C162.558 36.8555 162.558 36.8551 162.558 36.8546C162.558 36.8541 162.558 36.8537 162.558 36.8532C162.558 36.8528 162.558 36.8523 162.558 36.8518C162.558 36.8514 162.558 36.8509 162.558 36.8505C162.558 36.85 162.558 36.8495 162.558 36.8491C162.558 36.8486 162.558 36.8481 162.558 36.8477C162.558 36.8472 162.558 36.8468 162.558 36.8463C162.558 36.8458 162.558 36.8454 162.558 36.8449C162.558 36.8445 162.558 36.844 162.558 36.8435C162.558 36.8431 162.558 36.8426 162.558 36.8421C162.558 36.8417 162.558 36.8412 162.558 36.8408C162.558 36.8403 162.558 36.8398 162.558 36.8394C162.558 36.8389 162.558 36.8385 162.558 36.838C162.558 36.8375 162.558 36.8371 162.558 36.8366C162.558 36.8361 162.558 36.8357 162.558 36.8352C162.558 36.8348 162.558 36.8343 162.558 36.8338C162.558 36.8334 162.558 36.8329 162.558 36.8325C162.558 36.832 162.558 36.8315 162.558 36.8311C162.558 36.8306 162.558 36.8301 162.558 36.8297C162.558 36.8292 162.558 36.8288 162.558 36.8283C162.558 36.8278 162.558 36.8274 162.558 36.8269C162.558 36.8265 162.558 36.826 162.558 36.8255C162.558 36.8251 162.558 36.8246 162.558 36.8241C162.558 36.8237 162.558 36.8232 162.558 36.8228C162.558 36.8223 162.558 36.8218 162.558 36.8214C162.558 36.8209 162.558 36.8204 162.558 36.82C162.558 36.8195 162.558 36.8191 162.558 36.8186C162.558 36.8181 162.558 36.8177 162.558 36.8172C162.558 36.8168 162.558 36.8163 162.558 36.8158C162.558 36.8154 162.558 36.8149 162.558 36.8144C162.558 36.814 162.558 36.8135 162.558 36.8131C162.558 36.8126 162.558 36.8121 162.558 36.8117C162.558 36.8112 162.558 36.8108 162.558 36.8103C162.558 36.8098 162.558 36.8094 162.558 36.8089C162.558 36.8084 162.558 36.808 162.558 36.8075C162.558 36.8071 162.558 36.8066 162.558 36.8061C162.558 36.8057 162.558 36.8052 162.558 36.8048C162.558 36.8043 162.558 36.8038 162.558 36.8034C162.558 36.8029 162.558 36.8024 162.558 36.802C162.558 36.8015 162.558 36.8011 162.558 36.8006C162.558 36.8001 162.558 36.7997 162.558 36.7992C162.558 36.7988 162.558 36.7983 162.558 36.7978C162.558 36.7974 162.558 36.7969 162.558 36.7964C162.558 36.796 162.558 36.7955 162.558 36.7951C162.558 36.7946 162.558 36.7941 162.558 36.7937C162.558 36.7932 162.558 36.7928 162.558 36.7923C162.558 36.7918 162.558 36.7914 162.558 36.7909C162.558 36.7904 162.558 36.79 162.558 36.7895C162.558 36.7891 162.558 36.7886 162.558 36.7881C162.558 36.7877 162.558 36.7872 162.558 36.7868C162.558 36.7863 162.558 36.7858 162.558 36.7854C162.558 36.7849 162.558 36.7844 162.558 36.784C162.558 36.7835 162.558 36.7831 162.558 36.7826C162.558 36.7821 162.558 36.7817 162.558 36.7812C162.558 36.7808 162.558 36.7803 162.558 36.7798C162.558 36.7794 162.558 36.7789 162.558 36.7784C162.558 36.778 162.558 36.7775 162.558 36.7771C162.558 36.7766 162.558 36.7761 162.558 36.7757C162.558 36.7752 162.558 36.7748 162.558 36.7743C162.558 36.7738 162.558 36.7734 162.558 36.7729C162.558 36.7724 162.558 36.772 162.558 36.7715C162.558 36.7711 162.558 36.7706 162.558 36.7701C162.558 36.7697 162.558 36.7692 162.558 36.7688C162.558 36.7683 162.558 36.7678 162.558 36.7674C162.558 36.7669 162.558 36.7664 162.558 36.766C162.558 36.7655 162.558 36.7651 162.558 36.7646C162.558 36.7641 162.558 36.7637 162.558 36.7632C162.558 36.7628 162.558 36.7623 162.558 36.7618C162.558 36.7614 162.558 36.7609 162.558 36.7604C162.558 36.76 162.558 36.7595 162.558 36.7591C162.558 36.7586 162.558 36.7581 162.558 36.7577C162.558 36.7572 162.558 36.7568 162.558 36.7563C162.558 36.7558 162.558 36.7554 162.558 36.7549C162.558 36.7544 162.558 36.754 162.558 36.7535C162.558 36.7531 162.558 36.7526 162.558 36.7521C162.558 36.7517 162.558 36.7512 162.558 36.7508C162.558 36.7503 162.558 36.7498 162.558 36.7494C162.558 36.7489 162.558 36.7484 162.558 36.748C162.558 36.7475 162.558 36.7471 162.558 36.7466C162.558 36.7461 162.558 36.7457 162.558 36.7452C162.558 36.7448 162.558 36.7443 162.558 36.7438C162.558 36.7434 162.558 36.7429 162.558 36.7424C162.558 36.742 162.558 36.7415 162.558 36.7411C162.558 36.7406 162.558 36.7401 162.558 36.7397C162.558 36.7392 162.558 36.7388 162.558 36.7383C162.558 36.7378 162.558 36.7374 162.558 36.7369C162.558 36.7364 162.558 36.736 162.558 36.7355C162.558 36.7351 162.558 36.7346 162.558 36.7341C162.558 36.7337 162.558 36.7332 162.558 36.7327C162.558 36.7323 162.558 36.7318 162.558 36.7314C162.558 36.7309 162.558 36.7304 162.558 36.73C162.558 36.7295 162.558 36.7291 162.558 36.7286C162.558 36.7281 162.558 36.7277 162.558 36.7272C162.558 36.7267 162.558 36.7263 162.558 36.7258C162.558 36.7254 162.558 36.7249 162.558 36.7244C162.558 36.724 162.558 36.7235 162.558 36.7231C162.558 36.7226 162.558 36.7221 162.558 36.7217C162.558 36.7212 162.558 36.7207 162.558 36.7203C162.558 36.7198 162.558 36.7194 162.558 36.7189C162.558 36.7184 162.558 36.718 162.558 36.7175C162.558 36.7171 162.558 36.7166 162.558 36.7161C162.558 36.7157 162.558 36.7152 162.558 36.7147C162.558 36.7143 162.558 36.7138 162.558 36.7134C162.558 36.7129 162.558 36.7124 162.558 36.712C162.558 36.7115 162.558 36.7111 162.558 36.7106C162.558 36.7101 162.558 36.7097 162.558 36.7092C162.558 36.7087 162.558 36.7083 162.558 36.7078C162.558 36.7074 162.558 36.7069 162.558 36.7064C162.558 36.706 162.558 36.7055 162.558 36.7051C162.558 36.7046 162.558 36.7041 162.558 36.7037C162.558 36.7032 162.558 36.7027 162.558 36.7023C162.558 36.7018 162.558 36.7014 162.558 36.7009C162.558 36.7004 162.558 36.7 162.558 36.6995C162.558 36.6991 162.558 36.6986 162.558 36.6981C162.558 36.6977 162.558 36.6972 162.558 36.6967C162.558 36.6963 162.558 36.6958 162.558 36.6954C162.558 36.6949 162.558 36.6944 162.558 36.694C162.558 36.6935 162.558 36.6931 162.558 36.6926C162.558 36.6921 162.558 36.6917 162.558 36.6912C162.558 36.6907 162.558 36.6903 162.558 36.6898C162.558 36.6894 162.558 36.6889 162.558 36.6884C162.558 36.688 162.558 36.6875 162.558 36.6871C162.558 36.6866 162.558 36.6861 162.558 36.6857C162.558 36.6852 162.558 36.6847 162.558 36.6843C162.558 36.6838 162.558 36.6834 162.558 36.6829C162.558 36.6824 162.558 36.682 162.558 36.6815C162.558 36.6811 162.558 36.6806 162.558 36.6801C162.558 36.6797 162.558 36.6792 162.558 36.6787C162.558 36.6783 162.558 36.6778 162.558 36.6774C162.558 36.6769 162.558 36.6764 162.558 36.676C162.558 36.6755 162.558 36.6751 162.558 36.6746C162.558 36.6741 162.558 36.6737 162.558 36.6732C162.558 36.6727 162.558 36.6723 162.558 36.6718C162.558 36.6714 162.558 36.6709 162.558 36.6704C162.558 36.67 162.558 36.6695 162.558 36.6691C162.558 36.6686 162.558 36.6681 162.558 36.6677C162.558 36.6672 162.558 36.6667 162.558 36.6663C162.558 36.6658 162.558 36.6654 162.558 36.6649C162.558 36.6644 162.558 36.664 162.558 36.6635C162.558 36.6631 162.558 36.6626 162.558 36.6621C162.558 36.6617 162.558 36.6612 162.558 36.6607C162.558 36.6603 162.558 36.6598 162.558 36.6594C162.558 36.6589 162.558 36.6584 162.558 36.658C162.558 36.6575 162.558 36.6571 162.558 36.6566C162.558 36.6561 162.558 36.6557 162.558 36.6552C162.558 36.6547 162.558 36.6543 162.558 36.6538C162.558 36.6534 162.558 36.6529 162.558 36.6524C162.558 36.652 162.558 36.6515 162.558 36.6511C162.558 36.6506 162.558 36.6501 162.558 36.6497C162.558 36.6492 162.558 36.6487 162.558 36.6483C162.558 36.6478 162.558 36.6474 162.558 36.6469C162.558 36.6464 162.558 36.646 162.558 36.6455C162.558 36.6451 162.558 36.6446 162.558 36.6441C162.558 36.6437 162.558 36.6432 162.558 36.6427C162.558 36.6423 162.558 36.6418 162.558 36.6414C162.558 36.6409 162.558 36.6404 162.558 36.64C162.558 36.6395 162.558 36.639 162.558 36.6386C162.558 36.6381 162.558 36.6377 162.558 36.6372C162.558 36.6367 162.558 36.6363 162.558 36.6358C162.558 36.6354 162.558 36.6349 162.558 36.6344C162.558 36.634 162.558 36.6335 162.558 36.633C162.558 36.6326 162.558 36.6321 162.558 36.6317C162.558 36.6312 162.558 36.6307 162.558 36.6303C162.558 36.6298 162.558 36.6294 162.558 36.6289C162.558 36.6284 162.558 36.628 162.558 36.6275C162.558 36.627 162.558 36.6266 162.558 36.6261C162.558 36.6257 162.558 36.6252 162.558 36.6247C162.558 36.6243 162.558 36.6238 162.558 36.6234C162.558 36.6229 162.558 36.6224 162.558 36.622C162.558 36.6215 162.558 36.621 162.558 36.6206C162.558 36.6201 162.558 36.6197 162.558 36.6192C162.558 36.6187 162.558 36.6183 162.558 36.6178C162.558 36.6174 162.558 36.6169 162.558 36.6164C162.558 36.616 162.558 36.6155 162.558 36.615C162.558 36.6146 162.558 36.6141 162.558 36.6137C162.558 36.6132 162.558 36.6127 162.558 36.6123C162.558 36.6118 162.558 36.6114 162.558 36.6109C162.558 36.6104 162.558 36.61 162.558 36.6095C162.558 36.609 162.558 36.6086 162.558 36.6081C162.558 36.6077 162.558 36.6072 162.558 36.6067C162.558 36.6063 162.558 36.6058 162.558 36.6054C162.558 36.6049 162.558 36.6044 162.558 36.604C162.558 36.6035 162.558 36.603 162.558 36.6026C162.558 36.6021 162.558 36.6017 162.558 36.6012C162.558 36.6007 162.558 36.6003 162.558 36.5998C162.558 36.5994 162.558 36.5989 162.558 36.5984C162.558 36.598 162.558 36.5975 162.558 36.597C162.558 36.5966 162.558 36.5961 162.558 36.5957C162.558 36.5952 162.558 36.5947 162.558 36.5943C162.558 36.5938 162.558 36.5934 162.558 36.5929C162.558 36.5924 162.558 36.592 162.558 36.5915C162.558 36.591 162.558 36.5906 162.558 36.5901C162.558 36.5897 162.558 36.5892 162.558 36.5887C162.558 36.5883 162.558 36.5878 162.558 36.5874C162.558 36.5869 162.558 36.5864 162.558 36.586C162.558 36.5855 162.558 36.585 162.558 36.5846C162.558 36.5841 162.558 36.5837 162.558 36.5832C162.558 36.5827 162.558 36.5823 162.558 36.5818C162.558 36.5814 162.558 36.5809 162.558 36.5804C162.558 36.58 162.558 36.5795 162.558 36.579C162.558 36.5786 162.558 36.5781 162.558 36.5777C162.558 36.5772 162.558 36.5767 162.558 36.5763C162.558 36.5758 162.558 36.5754 162.558 36.5749C162.558 36.5744 162.558 36.574 162.558 36.5735C162.558 36.573 162.558 36.5726 162.558 36.5721C162.558 36.5717 162.558 36.5712 162.558 36.5707C162.558 36.5703 162.558 36.5698 162.558 36.5694C162.558 36.5689 162.558 36.5684 162.558 36.568C162.558 36.5675 162.558 36.567 162.558 36.5666C162.558 36.5661 162.558 36.5657 162.558 36.5652C162.558 36.5647 162.558 36.5643 162.558 36.5638C162.558 36.5634 162.558 36.5629 162.558 36.5624C162.558 36.562 162.558 36.5615 162.558 36.561C162.558 36.5606 162.558 36.5601 162.558 36.5597C162.558 36.5592 162.558 36.5587 162.558 36.5583C162.558 36.5578 162.558 36.5574 162.558 36.5569C162.558 36.5564 162.558 36.556 162.558 36.5555C162.558 36.555 162.558 36.5546 162.558 36.5541C162.558 36.5537 162.558 36.5532 162.558 36.5527H158.558ZM158.56 37.3568C158.574 37.6473 158.602 37.9348 158.645 38.219L162.6 37.6257C162.579 37.4802 162.563 37.3273 162.556 37.1666L158.56 37.3568ZM160.342 39.9026L162.163 40.1604L162.724 36.1999L160.903 35.9421L160.342 39.9026ZM160.443 38.1802V41H164.443V38.1802H160.443ZM162.443 39H156.61V43H162.443V39ZM158.472 40.2687C158.365 39.9978 158.257 39.7028 158.147 39.383L154.364 40.6834C154.491 41.0511 154.619 41.4006 154.749 41.7313L158.472 40.2687ZM158.147 39.383C158.066 39.1454 158.009 38.9158 157.974 38.6932L154.022 39.3107C154.095 39.7756 154.21 40.2335 154.364 40.6834L158.147 39.383ZM154.427 37.7642C154.025 38.2746 153.563 38.67 153.034 38.9675L154.998 42.4525C155.995 41.8906 156.854 41.1473 157.569 40.2397L154.427 37.7642ZM153.043 38.9628C152.639 39.1876 152.101 39.3384 151.357 39.3384V43.3384C152.655 43.3384 153.889 43.0702 154.99 42.4571L153.043 38.9628ZM152.614 39.8579C153.576 39.8579 154.501 39.6423 155.365 39.2182L153.602 35.6275C153.284 35.7835 152.963 35.8579 152.614 35.8579V39.8579ZM155.391 39.2052C156.244 38.771 156.979 38.1631 157.517 37.356L154.189 35.1372C154.083 35.2968 153.905 35.4731 153.576 35.6405L155.391 39.2052ZM157.853 36.2466V33.4912H153.853V36.2466H157.853ZM155.853 31.4912H153.533V35.4912H155.853V31.4912ZM153.533 31.4912C152.227 31.4912 150.894 31.7882 149.859 32.6988L152.501 35.7016C152.541 35.6669 152.776 35.4912 153.533 35.4912V31.4912ZM149.844 32.7121C148.925 33.5375 148.391 34.6357 148.391 35.9082H152.391C152.391 35.8467 152.401 35.8264 152.403 35.8209C152.407 35.8125 152.43 35.7663 152.516 35.6883L149.844 32.7121ZM148.391 35.9082C148.391 36.9754 148.742 38.053 149.642 38.8532L152.299 35.8636C152.316 35.8782 152.336 35.8993 152.354 35.9261C152.373 35.9528 152.385 35.9773 152.393 35.9953C152.407 36.0313 152.391 36.0142 152.391 35.9082H148.391ZM149.686 38.8914C150.552 39.6166 151.61 39.8579 152.614 39.8579V35.8579C152.421 35.8579 152.311 35.8345 152.261 35.8195C152.218 35.8063 152.227 35.8018 152.255 35.8254L149.686 38.8914ZM163.861 41H161.861V43H163.861V41ZM163.861 38.1802L163.445 36.224L161.861 36.5609V38.1802H163.861ZM166.133 37.6968L166.55 39.653L168.133 39.316V37.6968H166.133ZM166.133 19.1826H168.133V17.5306L166.511 17.2186L166.133 19.1826ZM163.62 18.6992H161.62V20.3512L163.242 20.6632L163.62 18.6992ZM163.62 15.8633V13.8633H161.62V15.8633H163.62ZM170.838 15.8633H172.838V13.8633H170.838V15.8633ZM170.838 37.6968H168.838V39.316L170.422 39.653L170.838 37.6968ZM173.11 38.1802H175.11V36.5609L173.527 36.224L173.11 38.1802ZM173.11 41V43H175.11V41H173.11ZM165.861 41V38.1802H161.861V41H165.861ZM164.278 40.1364L166.55 39.653L165.717 35.7406L163.445 36.224L164.278 40.1364ZM168.133 37.6968V19.1826H164.133V37.6968H168.133ZM166.511 17.2186L163.997 16.7352L163.242 20.6632L165.756 21.1466L166.511 17.2186ZM165.62 18.6992V15.8633H161.62V18.6992H165.62ZM163.62 17.8633H170.838V13.8633H163.62V17.8633ZM168.838 15.8633V37.6968H172.838V15.8633H168.838ZM170.422 39.653L172.694 40.1364L173.527 36.224L171.255 35.7406L170.422 39.653ZM171.11 38.1802V41H175.11V38.1802H171.11ZM173.11 39H163.861V43H173.11V39Z" fill="white" mask="url(#path-2-outside-1_633_50)"/>
<g clip-path="url(#clip0_633_50)">
<path fill-rule="evenodd" clip-rule="evenodd" d="M20.4 34.6667V33.3333C20.4 32.4493 20.681 31.6014 21.1811 30.9763C21.6812 30.3512 22.3594 30 23.0667 30H31.6C32.3073 30 32.9855 30.3512 33.4856 30.9763C33.9857 31.6014 34.2667 32.4493 34.2667 33.3333V34.6667C34.2667 35.5507 33.9857 36.3986 33.4856 37.0237C32.9855 37.6488 32.3073 38 31.6 38H23.0667C22.3594 38 21.6812 37.6488 21.1811 37.0237C20.681 36.3986 20.4 35.5507 20.4 34.6667ZM23.0667 32.6667H31.6C31.7415 32.6667 31.8771 32.7369 31.9772 32.8619C32.0772 32.987 32.1334 33.1565 32.1334 33.3333V34.6667C32.1334 34.8435 32.0772 35.013 31.9772 35.1381C31.8771 35.2631 31.7415 35.3333 31.6 35.3333H23.0667C22.9252 35.3333 22.7896 35.2631 22.6896 35.1381C22.5895 35.013 22.5334 34.8435 22.5334 34.6667V33.3333C22.5334 33.1565 22.5895 32.987 22.6896 32.8619C22.7896 32.7369 22.9252 32.6667 23.0667 32.6667ZM20.4 21.3333V22.6667C20.4 23.5507 20.681 24.3986 21.1811 25.0237C21.6812 25.6488 22.3594 26 23.0667 26H31.6C32.3073 26 32.9855 25.6488 33.4856 25.0237C33.9857 24.3986 34.2667 23.5507 34.2667 22.6667V21.3333C34.2667 20.4493 33.9857 19.6014 33.4856 18.9763C32.9855 18.3512 32.3073 18 31.6 18H23.0667C22.3594 18 21.6812 18.3512 21.1811 18.9763C20.681 19.6014 20.4 20.4493 20.4 21.3333ZM23.0667 23.3333H31.6C31.7415 23.3333 31.8771 23.2631 31.9772 23.1381C32.0772 23.013 32.1334 22.8435 32.1334 22.6667V21.3333C32.1334 21.1565 32.0772 20.987 31.9772 20.8619C31.8771 20.7369 31.7415 20.6667 31.6 20.6667H23.0667C22.9252 20.6667 22.7896 20.7369 22.6896 20.8619C22.5895 20.987 22.5334 21.1565 22.5334 21.3333V22.6667C22.5334 22.8435 22.5895 23.013 22.6896 23.1381C22.7896 23.2631 22.9252 23.3333 23.0667 23.3333Z" fill="#0F0A38"/>
<path d="M27.8666 32V24H30V32H27.8666ZM24.6666 32V24H26.8V32H24.6666Z" fill="#0F0A38"/>
<path fill-rule="evenodd" clip-rule="evenodd" d="M25.7365 17.4973C25.7335 17.7058 25.7324 17.9142 25.7333 18.1227V18.6667C25.7333 19.0203 25.6209 19.3594 25.4209 19.6095C25.2209 19.8595 24.9495 20 24.6666 20C24.3837 20 24.1124 19.8595 23.9124 19.6095C23.7124 19.3594 23.6 19.0203 23.6 18.6667V18.056C23.6 17.616 23.6 17.1653 23.6394 16.7893C23.6864 16.3547 23.8016 15.8267 24.1514 15.3827L24.1578 15.376L24.1728 15.356C24.528 14.9187 24.9504 14.7747 25.297 14.716C25.5989 14.6667 25.9605 14.6667 26.3125 14.6667H28.3552C28.7072 14.6667 29.0677 14.6667 29.3696 14.7173C29.7162 14.7747 30.1376 14.9187 30.4938 15.3573L30.4992 15.364L30.5152 15.3827C30.865 15.8267 30.9802 16.3547 31.0272 16.788C31.0605 17.2098 31.0737 17.6336 31.0666 18.0573V18.6667C31.0666 19.0203 30.9543 19.3594 30.7542 19.6095C30.5542 19.8595 30.2829 20 30 20C29.7171 20 29.4458 19.8595 29.2457 19.6095C29.0457 19.3594 28.9333 19.0203 28.9333 18.6667V18.1227C28.9335 17.8631 28.9307 17.6035 28.9248 17.344L28.801 17.3373C28.6645 17.3333 28.5045 17.3333 28.3018 17.3333H26.3648C26.1567 17.3331 25.9487 17.3366 25.7408 17.344L25.7365 17.4973ZM25.7365 38.5027C25.7333 38.3307 25.7333 38.1307 25.7333 37.8773V37.3333C25.7333 36.9797 25.6209 36.6406 25.4209 36.3905C25.2209 36.1405 24.9495 36 24.6666 36C24.3837 36 24.1124 36.1405 23.9124 36.3905C23.7124 36.6406 23.6 36.9797 23.6 37.3333V37.944C23.6 38.384 23.6 38.8347 23.6394 39.212C23.6864 39.6453 23.8016 40.172 24.1514 40.6173L24.1578 40.624L24.1728 40.644C24.528 41.0813 24.9504 41.2253 25.297 41.284C25.6344 41.3257 25.9735 41.3421 26.3125 41.3333H28.3552C28.7072 41.3333 29.0677 41.3333 29.3696 41.284C29.7162 41.2253 30.1376 41.0813 30.4938 40.644L30.4992 40.636L30.5152 40.6173C30.865 40.1733 30.9802 39.6453 31.0272 39.212C31.0666 38.8347 31.0666 38.3827 31.0666 37.9427V37.3333C31.0666 36.9797 30.9543 36.6406 30.7542 36.3905C30.5542 36.1405 30.2829 36 30 36C29.7171 36 29.4458 36.1405 29.2457 36.3905C29.0457 36.6406 28.9333 36.9797 28.9333 37.3333V37.8773C28.9335 38.1374 28.9307 38.3974 28.9248 38.6573C28.7168 38.6643 28.5088 38.6674 28.3008 38.6667H26.3648C26.1568 38.6674 25.9487 38.6643 25.7408 38.6573L25.7365 38.5027Z" fill="#0F0A38"/>
</g>
<defs>
<clipPath id="clip0_633_50">
<rect width="32" height="25.6" fill="white" transform="matrix(0 -1 1 0 14 44)"/>
</clipPath>
</defs>
</svg>
