<svg width="62" height="60" viewBox="0 0 62 60" fill="none" xmlns="http://www.w3.org/2000/svg">
<rect width="62" height="60" rx="8" fill="#0F0A38"/>
<g clip-path="url(#clip0_626_38)">
<path fill-rule="evenodd" clip-rule="evenodd" d="M8 40.3333V38.6667C8 37.5616 8.35119 36.5018 8.97631 35.7204C9.60143 34.939 10.4493 34.5 11.3333 34.5H22C22.8841 34.5 23.7319 34.939 24.357 35.7204C24.9821 36.5018 25.3333 37.5616 25.3333 38.6667V40.3333C25.3333 41.4384 24.9821 42.4982 24.357 43.2796C23.7319 44.061 22.8841 44.5 22 44.5H11.3333C10.4493 44.5 9.60143 44.061 8.97631 43.2796C8.35119 42.4982 8 41.4384 8 40.3333ZM11.3333 37.8333H22C22.1768 37.8333 22.3464 37.9211 22.4714 38.0774C22.5964 38.2337 22.6667 38.4457 22.6667 38.6667V40.3333C22.6667 40.5543 22.5964 40.7663 22.4714 40.9226C22.3464 41.0789 22.1768 41.1667 22 41.1667H11.3333C11.1565 41.1667 10.987 41.0789 10.8619 40.9226C10.7369 40.7663 10.6667 40.5543 10.6667 40.3333V38.6667C10.6667 38.4457 10.7369 38.2337 10.8619 38.0774C10.987 37.9211 11.1565 37.8333 11.3333 37.8333ZM8 23.6667V25.3333C8 26.4384 8.35119 27.4982 8.97631 28.2796C9.60143 29.061 10.4493 29.5 11.3333 29.5H22C22.8841 29.5 23.7319 29.061 24.357 28.2796C24.9821 27.4982 25.3333 26.4384 25.3333 25.3333V23.6667C25.3333 22.5616 24.9821 21.5018 24.357 20.7204C23.7319 19.939 22.8841 19.5 22 19.5H11.3333C10.4493 19.5 9.60143 19.939 8.97631 20.7204C8.35119 21.5018 8 22.5616 8 23.6667ZM11.3333 26.1667H22C22.1768 26.1667 22.3464 26.0789 22.4714 25.9226C22.5964 25.7663 22.6667 25.5543 22.6667 25.3333V23.6667C22.6667 23.4457 22.5964 23.2337 22.4714 23.0774C22.3464 22.9211 22.1768 22.8333 22 22.8333H11.3333C11.1565 22.8333 10.987 22.9211 10.8619 23.0774C10.7369 23.2337 10.6667 23.4457 10.6667 23.6667V25.3333C10.6667 25.5543 10.7369 25.7663 10.8619 25.9226C10.987 26.0789 11.1565 26.1667 11.3333 26.1667Z" fill="white"/>
<path d="M17.3334 37V27H20V37H17.3334ZM13.3334 37L13.3334 27H16V37H13.3334Z" fill="white"/>
<path fill-rule="evenodd" clip-rule="evenodd" d="M14.6707 18.8717C14.6669 19.1322 14.6656 19.3928 14.6667 19.6533V20.3333C14.6667 20.7754 14.5262 21.1993 14.2761 21.5118C14.0261 21.8244 13.687 22 13.3333 22C12.9797 22 12.6406 21.8244 12.3905 21.5118C12.1405 21.1993 12 20.7754 12 20.3333V19.57C12 19.02 12 18.4567 12.0493 17.9867C12.108 17.4433 12.252 16.7833 12.6893 16.2283L12.6973 16.22L12.716 16.195C13.16 15.6483 13.688 15.4683 14.1213 15.395C14.4987 15.3333 14.9507 15.3333 15.3907 15.3333H17.944C18.384 15.3333 18.8347 15.3333 19.212 15.3967C19.6453 15.4683 20.172 15.6483 20.6173 16.1967L20.624 16.205L20.644 16.2283C21.0813 16.7833 21.2253 17.4433 21.284 17.985C21.3256 18.5122 21.3421 19.042 21.3333 19.5717V20.3333C21.3333 20.7754 21.1929 21.1993 20.9428 21.5118C20.6928 21.8244 20.3536 22 20 22C19.6464 22 19.3072 21.8244 19.0572 21.5118C18.8071 21.1993 18.6667 20.7754 18.6667 20.3333V19.6533C18.6669 19.3288 18.6633 19.0044 18.656 18.68L18.5013 18.6717C18.3307 18.6667 18.1307 18.6667 17.8773 18.6667H15.456C15.196 18.6663 14.9359 18.6708 14.676 18.68L14.6707 18.8717ZM14.6707 45.1283C14.6667 44.9133 14.6667 44.6633 14.6667 44.3467V43.6667C14.6667 43.2246 14.5262 42.8007 14.2761 42.4881C14.0261 42.1756 13.687 42 13.3333 42C12.9797 42 12.6406 42.1756 12.3905 42.4881C12.1405 42.8007 12 43.2246 12 43.6667V44.43C12 44.98 12 45.5433 12.0493 46.015C12.108 46.5567 12.252 47.215 12.6893 47.7717L12.6973 47.78L12.716 47.805C13.16 48.3517 13.688 48.5317 14.1213 48.605C14.5431 48.6571 14.967 48.6776 15.3907 48.6667H17.944C18.384 48.6667 18.8347 48.6667 19.212 48.605C19.6453 48.5317 20.172 48.3517 20.6173 47.805L20.624 47.795L20.644 47.7717C21.0813 47.2167 21.2253 46.5567 21.284 46.015C21.3333 45.5433 21.3333 44.9783 21.3333 44.4283V43.6667C21.3333 43.2246 21.1929 42.8007 20.9428 42.4881C20.6928 42.1756 20.3536 42 20 42C19.6464 42 19.3072 42.1756 19.0572 42.4881C18.8071 42.8007 18.6667 43.2246 18.6667 43.6667V44.3467C18.6669 44.6717 18.6634 44.9967 18.656 45.3217C18.3961 45.3303 18.136 45.3342 17.876 45.3333H15.456C15.196 45.3342 14.9359 45.3303 14.676 45.3217L14.6707 45.1283Z" fill="white"/>
</g>
<path d="M31.3125 44V40.8711H32.1914C32.7773 40.8711 33.1992 40.8242 33.457 40.7305C33.7148 40.625 33.873 40.4316 33.9316 40.1504C34.002 39.8574 34.0371 39.4238 34.0371 38.8496V26.0527C34.0371 25.502 33.9551 25.0508 33.791 24.6992C33.627 24.3359 33.123 24.1484 32.2793 24.1367C32.2207 24.1367 32.0625 24.1367 31.8047 24.1367C31.5586 24.1367 31.3945 24.1367 31.3125 24.1367V21.0078H43.3535C45.6504 21.0078 47.4961 21.2949 48.8906 21.8691C50.2852 22.4434 51.2988 23.2461 51.9316 24.2773C52.5762 25.2969 52.8984 26.4805 52.8984 27.8281C52.8984 29.1523 52.6055 30.3184 52.0195 31.3262C51.4336 32.334 50.4434 33.1191 49.0488 33.6816C47.6543 34.2441 45.7383 34.5254 43.3008 34.5254H39.8027V39.2012C39.8027 39.9512 39.9199 40.4199 40.1543 40.6074C40.3887 40.7832 40.875 40.8711 41.6133 40.8711H42.4922V44C41.6836 44 40.8867 43.9941 40.1016 43.9824C39.3164 43.9707 38.3789 43.9648 37.2891 43.9648C36.0938 43.9648 35.0273 43.9707 34.0898 43.9824C33.1641 43.9941 32.2383 44 31.3125 44ZM39.8027 31.4316H42.6504C45.5918 31.4316 47.0625 30.2188 47.0625 27.793C47.0625 26.5859 46.6992 25.6836 45.9727 25.0859C45.2578 24.4883 44.0449 24.1895 42.334 24.1895H39.8027V31.4316Z" fill="white"/>
<defs>
<clipPath id="clip0_626_38">
<rect width="40" height="32" fill="white" transform="matrix(0 -1 1 0 0 52)"/>
</clipPath>
</defs>
</svg>
