<svg width="60" height="60" viewBox="0 0 60 60" fill="none" xmlns="http://www.w3.org/2000/svg">
<rect width="60" height="60" fill="white"/>
<g clip-path="url(#clip0_664_121)">
<rect width="46" height="32" transform="matrix(0 -1 1 0 0 52)" fill="white"/>
<path fill-rule="evenodd" clip-rule="evenodd" d="M8 38.5833V36.6667C8 35.3958 8.35119 34.1771 8.97631 33.2784C9.60143 32.3798 10.4493 31.875 11.3333 31.875H22C22.8841 31.875 23.7319 32.3798 24.357 33.2784C24.9821 34.1771 25.3333 35.3958 25.3333 36.6667V38.5833C25.3333 39.8542 24.9821 41.0729 24.357 41.9716C23.7319 42.8702 22.8841 43.375 22 43.375H11.3333C10.4493 43.375 9.60143 42.8702 8.97631 41.9716C8.35119 41.0729 8 39.8542 8 38.5833ZM11.3333 35.7083H22C22.1768 35.7083 22.3464 35.8093 22.4714 35.989C22.5964 36.1687 22.6667 36.4125 22.6667 36.6667V38.5833C22.6667 38.8375 22.5964 39.0813 22.4714 39.261C22.3464 39.4407 22.1768 39.5417 22 39.5417H11.3333C11.1565 39.5417 10.987 39.4407 10.8619 39.261C10.7369 39.0813 10.6667 38.8375 10.6667 38.5833V36.6667C10.6667 36.4125 10.7369 36.1687 10.8619 35.989C10.987 35.8093 11.1565 35.7083 11.3333 35.7083ZM8 19.4167L8 21.3333C8 22.6042 8.35119 23.8229 8.97631 24.7216C9.60143 25.6202 10.4493 26.125 11.3333 26.125H22C22.8841 26.125 23.7319 25.6202 24.357 24.7216C24.9821 23.8229 25.3333 22.6042 25.3333 21.3333V19.4167C25.3333 18.1458 24.9821 16.9271 24.357 16.0284C23.7319 15.1298 22.8841 14.625 22 14.625H11.3333C10.4493 14.625 9.60143 15.1298 8.97631 16.0284C8.35119 16.9271 8 18.1458 8 19.4167ZM11.3333 22.2917H22C22.1768 22.2917 22.3464 22.1907 22.4714 22.011C22.5964 21.8313 22.6667 21.5875 22.6667 21.3333L22.6667 19.4167C22.6667 19.1625 22.5964 18.9187 22.4714 18.739C22.3464 18.5593 22.1768 18.4583 22 18.4583H11.3333C11.1565 18.4583 10.987 18.5593 10.8619 18.739C10.7369 18.9187 10.6667 19.1625 10.6667 19.4167V21.3333C10.6667 21.5875 10.7369 21.8313 10.8619 22.011C10.987 22.1907 11.1565 22.2917 11.3333 22.2917Z" fill="#0F0A38"/>
<path d="M17.3334 34.75V23.25H20V34.75H17.3334ZM13.3334 34.75L13.3334 23.25H16V34.75H13.3334Z" fill="#0F0A38"/>
<path fill-rule="evenodd" clip-rule="evenodd" d="M14.6707 13.9024C14.6669 14.202 14.6656 14.5017 14.6667 14.8013V15.5833C14.6667 16.0917 14.5262 16.5792 14.2761 16.9386C14.0261 17.2981 13.687 17.5 13.3333 17.5C12.9797 17.5 12.6406 17.2981 12.3905 16.9386C12.1405 16.5792 12 16.0917 12 15.5833L12 14.7055C12 14.073 12 13.4252 12.0493 12.8847C12.108 12.2598 12.252 11.5008 12.6893 10.8626L12.6973 10.853L12.716 10.8243C13.16 10.1956 13.688 9.98858 14.1213 9.90425C14.4987 9.83333 14.9507 9.83333 15.3907 9.83333H17.944C18.384 9.83333 18.8347 9.83333 19.212 9.90617C19.6453 9.98858 20.172 10.1956 20.6173 10.8262L20.624 10.8358L20.644 10.8626C21.0813 11.5008 21.2253 12.2598 21.284 12.8827C21.3256 13.489 21.3421 14.0983 21.3333 14.7074V15.5833C21.3333 16.0917 21.1929 16.5792 20.9428 16.9386C20.6928 17.2981 20.3536 17.5 20 17.5C19.6464 17.5 19.3072 17.2981 19.0572 16.9386C18.8071 16.5792 18.6667 16.0917 18.6667 15.5833V14.8013C18.6669 14.4282 18.6633 14.055 18.656 13.682L18.5013 13.6724C18.3307 13.6667 18.1307 13.6667 17.8773 13.6667H15.456C15.196 13.6663 14.9359 13.6714 14.676 13.682L14.6707 13.9024ZM14.6707 44.0976C14.6667 43.8503 14.6667 43.5628 14.6667 43.1987V42.4167C14.6667 41.9083 14.5262 41.4208 14.2761 41.0614C14.0261 40.7019 13.687 40.5 13.3333 40.5C12.9797 40.5 12.6406 40.7019 12.3905 41.0614C12.1405 41.4208 12 41.9083 12 42.4167V43.2945C12 43.927 12 44.5748 12.0493 45.1173C12.108 45.7402 12.252 46.4973 12.6893 47.1374L12.6973 47.147L12.716 47.1758C13.16 47.8044 13.688 48.0114 14.1213 48.0958C14.5431 48.1556 14.967 48.1793 15.3907 48.1667H17.944C18.384 48.1667 18.8347 48.1667 19.212 48.0958C19.6453 48.0114 20.172 47.8044 20.6173 47.1758L20.624 47.1643L20.644 47.1374C21.0813 46.4992 21.2253 45.7402 21.284 45.1173C21.3333 44.5748 21.3333 43.9251 21.3333 43.2926V42.4167C21.3333 41.9083 21.1929 41.4208 20.9428 41.0614C20.6928 40.7019 20.3536 40.5 20 40.5C19.6464 40.5 19.3072 40.7019 19.0572 41.0614C18.8071 41.4208 18.6667 41.9083 18.6667 42.4167V43.1987C18.6669 43.5725 18.6634 43.9463 18.656 44.3199C18.3961 44.3299 18.136 44.3343 17.876 44.3333H15.456C15.196 44.3343 14.9359 44.3299 14.676 44.3199L14.6707 44.0976Z" fill="#0F0A38"/>
</g>
<path d="M30.0469 44V39.915H31.1943C31.9593 39.915 32.5101 39.8538 32.8467 39.7314C33.1833 39.5938 33.3898 39.3413 33.4663 38.9741C33.5581 38.5916 33.604 38.0256 33.604 37.2759V20.5688C33.604 19.8498 33.4969 19.2607 33.2827 18.8018C33.0685 18.3275 32.4106 18.0827 31.3091 18.0674C31.2326 18.0674 31.026 18.0674 30.6895 18.0674C30.3682 18.0674 30.154 18.0674 30.0469 18.0674V13.9824H45.7671C48.7658 13.9824 51.1755 14.3573 52.9961 15.1069C54.8167 15.8566 56.1401 16.9046 56.9663 18.251C57.8078 19.582 58.2285 21.1273 58.2285 22.8867C58.2285 24.6156 57.846 26.1379 57.0811 27.4536C56.3161 28.7694 55.0233 29.7944 53.2026 30.5288C51.382 31.2632 48.8805 31.6304 45.6982 31.6304H41.1313V37.7349C41.1313 38.714 41.2843 39.326 41.5903 39.5708C41.8963 39.8003 42.5312 39.915 43.4951 39.915H44.6426V44C43.5869 44 42.5465 43.9924 41.5215 43.9771C40.4964 43.9618 39.2725 43.9541 37.8496 43.9541C36.2891 43.9541 34.8968 43.9618 33.6729 43.9771C32.4642 43.9924 31.2555 44 30.0469 44ZM41.1313 27.5913H44.8491C48.6893 27.5913 50.6094 26.0078 50.6094 22.8408C50.6094 21.265 50.1351 20.0869 49.1865 19.3066C48.2533 18.5264 46.6698 18.1362 44.436 18.1362H41.1313V27.5913Z" fill="#0F0A38"/>
<defs>
<clipPath id="clip0_664_121">
<rect width="46" height="32" fill="white" transform="matrix(0 -1 1 0 0 52)"/>
</clipPath>
</defs>
</svg>
