<svg width="330" height="80" viewBox="0 0 330 80" fill="none" xmlns="http://www.w3.org/2000/svg">
<path d="M149.074 57V55.0664H150.09C150.897 55.0664 151.464 55.0078 151.789 54.8906C152.128 54.7604 152.329 54.5781 152.395 54.3438C152.473 54.1094 152.512 53.8229 152.512 53.4844V35.0078C152.512 34.487 152.368 34.1484 152.082 33.9922C151.809 33.8359 151.164 33.7513 150.148 33.7383C149.992 33.7383 149.823 33.7383 149.641 33.7383C149.471 33.7383 149.283 33.7383 149.074 33.7383V31.8047H160.578C162.714 31.8047 164.458 32.1107 165.812 32.7227C167.18 33.3346 168.189 34.1875 168.84 35.2812C169.491 36.362 169.816 37.6185 169.816 39.0508C169.816 40.4701 169.504 41.7201 168.879 42.8008C168.267 43.8815 167.284 44.7279 165.93 45.3398C164.589 45.9388 162.818 46.2383 160.617 46.2383H156.086V53.5625C156.086 54.2917 156.262 54.7279 156.613 54.8711C156.965 55.0013 157.609 55.0664 158.547 55.0664H159.543V57C158.84 57 158.163 56.9935 157.512 56.9805C156.874 56.9674 156.053 56.9609 155.051 56.9609C153.853 56.9609 152.785 56.9674 151.848 56.9805C150.91 56.9935 149.986 57 149.074 57ZM156.086 44.2266H159.816C164.139 44.2266 166.301 42.5208 166.301 39.1094C166.301 37.4167 165.812 36.1211 164.836 35.2227C163.872 34.3242 162.232 33.875 159.914 33.875H156.086V44.2266ZM180.793 57.5469C178.827 57.5469 177.134 57.1628 175.715 56.3945C174.309 55.6263 173.228 54.5521 172.473 53.1719C171.717 51.7786 171.34 50.1576 171.34 48.3086C171.34 46.4336 171.724 44.7995 172.492 43.4062C173.26 42.013 174.341 40.9323 175.734 40.1641C177.128 39.3828 178.749 38.9922 180.598 38.9922C182.473 38.9922 184.087 39.3763 185.441 40.1445C186.796 40.8997 187.837 42 188.566 43.4453C189.309 44.8776 189.686 46.6029 189.699 48.6211L188.527 48.9727H174.699C174.725 51.056 175.331 52.6901 176.516 53.875C177.714 55.0599 179.289 55.6523 181.242 55.6523C182.596 55.6523 183.781 55.3854 184.797 54.8516C185.812 54.3047 186.561 53.4062 187.043 52.1562H189.406C188.885 53.9401 187.863 55.2878 186.34 56.1992C184.816 57.0977 182.967 57.5469 180.793 57.5469ZM174.719 47.2734H186.535C186.379 45.2812 185.786 43.7188 184.758 42.5859C183.742 41.4531 182.368 40.8867 180.637 40.8867C178.983 40.8867 177.635 41.4596 176.594 42.6055C175.565 43.7513 174.94 45.3073 174.719 47.2734ZM192.277 57V55.2227C193.28 55.2227 193.99 55.1901 194.406 55.125C194.823 55.0599 195.077 54.9362 195.168 54.7539C195.259 54.5716 195.305 54.3047 195.305 53.9531V42.1562C195.305 41.7005 195.122 41.4401 194.758 41.375C194.406 41.2969 193.612 41.2578 192.375 41.2578V39.5195C192.57 39.5195 192.883 39.5195 193.312 39.5195C193.755 39.5195 194.165 39.526 194.543 39.5391C194.921 39.5391 195.109 39.5391 195.109 39.5391C195.643 39.5391 196.19 39.526 196.75 39.5C197.31 39.474 197.883 39.4544 198.469 39.4414V42.9961C199.094 41.7852 199.966 40.8346 201.086 40.1445C202.206 39.4544 203.521 39.1094 205.031 39.1094C205.617 39.1094 206.21 39.1484 206.809 39.2266V43.4844C206.613 43.4844 206.418 43.4844 206.223 43.4844C206.027 43.4844 205.832 43.4844 205.637 43.4844C205.376 42.8594 205.051 42.3646 204.66 42C204.283 41.6224 203.749 41.4336 203.059 41.4336C201.783 41.4336 200.728 42.0326 199.895 43.2305C199.074 44.4284 198.651 45.9779 198.625 47.8789C198.625 47.8789 198.625 48.0872 198.625 48.5039C198.625 48.9076 198.625 49.4154 198.625 50.0273C198.625 50.6263 198.625 51.2383 198.625 51.8633C198.625 52.4753 198.625 52.9961 198.625 53.4258C198.625 53.8555 198.625 54.0898 198.625 54.1289C198.625 54.6888 198.866 55.0143 199.348 55.1055C199.829 55.1836 200.702 55.2227 201.965 55.2227V57C201.145 57 200.344 56.9935 199.562 56.9805C198.781 56.9674 197.831 56.9609 196.711 56.9609C195.747 56.9609 194.94 56.9674 194.289 56.9805C193.651 56.9935 192.98 57 192.277 57ZM216.262 57.4102C214.921 57.4102 213.794 57.2474 212.883 56.9219C211.984 56.5833 211.249 56.069 210.676 55.3789L210.48 56.8438C210.194 56.8438 209.908 56.8438 209.621 56.8438C209.348 56.8307 209.061 56.8242 208.762 56.8242V51.1992H210.656C210.682 52.6706 211.145 53.7969 212.043 54.5781C212.941 55.3464 214.198 55.7305 215.812 55.7305C217.141 55.7305 218.221 55.4635 219.055 54.9297C219.888 54.3828 220.305 53.6471 220.305 52.7227C220.305 52.0326 220.044 51.4857 219.523 51.082C219.003 50.6654 218.312 50.3138 217.453 50.0273C216.607 49.7409 215.676 49.4544 214.66 49.168C213.436 48.7904 212.408 48.3867 211.574 47.957C210.741 47.5273 210.116 47 209.699 46.375C209.283 45.75 209.074 44.9688 209.074 44.0312C209.074 42.6641 209.641 41.5117 210.773 40.5742C211.919 39.6237 213.449 39.1484 215.363 39.1484C216.431 39.1484 217.44 39.2917 218.391 39.5781C219.341 39.8516 220.109 40.2943 220.695 40.9062C220.708 40.8802 220.747 40.763 220.812 40.5547C220.878 40.3333 220.943 40.1185 221.008 39.9102C221.073 39.6888 221.105 39.5781 221.105 39.5781C221.105 39.5781 221.216 39.5846 221.438 39.5977C221.659 39.5977 221.887 39.5977 222.121 39.5977C222.368 39.5977 222.518 39.6042 222.57 39.6172V44.9297H220.734C220.682 43.6276 220.246 42.625 219.426 41.9219C218.605 41.2057 217.434 40.8477 215.91 40.8477C214.608 40.8477 213.638 41.1341 213 41.707C212.362 42.2799 212.043 42.9375 212.043 43.6797C212.043 44.487 212.453 45.112 213.273 45.5547C214.094 45.9844 215.155 46.3685 216.457 46.707C217.863 47.0716 219.081 47.4688 220.109 47.8984C221.151 48.3151 221.952 48.862 222.512 49.5391C223.072 50.2161 223.352 51.1211 223.352 52.2539C223.352 53.3607 223.059 54.2982 222.473 55.0664C221.887 55.8346 221.06 56.4206 219.992 56.8242C218.938 57.2148 217.694 57.4102 216.262 57.4102ZM235.949 57.5469C234.113 57.5469 232.499 57.1628 231.105 56.3945C229.712 55.6263 228.618 54.5521 227.824 53.1719C227.043 51.7786 226.652 50.1445 226.652 48.2695C226.652 46.3945 227.043 44.7604 227.824 43.3672C228.618 41.974 229.712 40.8997 231.105 40.1445C232.512 39.3763 234.126 38.9922 235.949 38.9922C237.785 38.9922 239.4 39.3763 240.793 40.1445C242.199 40.8997 243.299 41.974 244.094 43.3672C244.888 44.7474 245.285 46.3815 245.285 48.2695C245.285 50.1315 244.888 51.7591 244.094 53.1523C243.312 54.5456 242.219 55.6263 240.812 56.3945C239.419 57.1628 237.798 57.5469 235.949 57.5469ZM235.949 55.5156C237.746 55.5156 239.185 54.8581 240.266 53.543C241.346 52.2279 241.887 50.4635 241.887 48.25C241.887 46.0234 241.346 44.2591 240.266 42.957C239.198 41.6549 237.759 41.0039 235.949 41.0039C234.139 41.0039 232.701 41.6549 231.633 42.957C230.565 44.2461 230.031 46.0104 230.031 48.25C230.031 50.4635 230.565 52.2279 231.633 53.543C232.701 54.8581 234.139 55.5156 235.949 55.5156ZM247.727 57C247.727 56.8958 247.727 56.7656 247.727 56.6094C247.727 56.4531 247.727 56.2904 247.727 56.1211C247.727 55.9388 247.727 55.7695 247.727 55.6133C247.727 55.457 247.727 55.3268 247.727 55.2227C248.703 55.2227 249.4 55.1966 249.816 55.1445C250.233 55.0924 250.487 54.9948 250.578 54.8516C250.682 54.6953 250.734 54.4805 250.734 54.207V41.9023C250.734 41.5768 250.539 41.388 250.148 41.3359C249.771 41.2839 249.003 41.2578 247.844 41.2578C247.844 41.1146 247.844 40.9323 247.844 40.7109C247.844 40.4896 247.837 40.2682 247.824 40.0469C247.824 39.8255 247.824 39.6497 247.824 39.5195C248.267 39.5195 248.69 39.5195 249.094 39.5195C249.51 39.5195 249.914 39.513 250.305 39.5C250.943 39.5 251.555 39.4935 252.141 39.4805C252.74 39.4544 253.326 39.4349 253.898 39.4219V42.1758C254.784 41.2122 255.806 40.4701 256.965 39.9492C258.124 39.4154 259.348 39.1484 260.637 39.1484C262.538 39.1484 263.996 39.6628 265.012 40.6914C266.027 41.707 266.535 43.3021 266.535 45.4766V54.4219C266.535 54.8255 266.737 55.0534 267.141 55.1055C267.544 55.1576 268.254 55.1966 269.27 55.2227V57C268.632 57 268 57 267.375 57C266.763 56.987 266.001 56.974 265.09 56.9609C264.139 56.9609 263.286 56.9674 262.531 56.9805C261.776 56.9935 261.021 57 260.266 57V55.2227C261.255 55.2227 261.952 55.1966 262.355 55.1445C262.772 55.0924 263.02 55.0013 263.098 54.8711C263.189 54.7409 263.234 54.5586 263.234 54.3242V46.6094C263.234 44.8516 263.007 43.543 262.551 42.6836C262.095 41.8242 261.132 41.3945 259.66 41.3945C258.241 41.3945 257.076 41.7201 256.164 42.3711C255.253 43.0221 254.549 43.6602 254.055 44.2852C254.042 44.7669 254.029 45.2552 254.016 45.75C254.003 46.2318 253.996 46.7331 253.996 47.2539V54.3047C253.996 54.7604 254.224 55.0273 254.68 55.1055C255.148 55.1836 255.91 55.2227 256.965 55.2227V57C256.288 57 255.617 57 254.953 57C254.302 56.987 253.501 56.974 252.551 56.9609C251.574 56.9609 250.708 56.9674 249.953 56.9805C249.198 56.9935 248.456 57 247.727 57ZM277.883 57.4102C276.021 57.4102 274.53 56.9089 273.41 55.9062C272.29 54.9036 271.73 53.6276 271.73 52.0781C271.73 50.4115 272.395 49.0703 273.723 48.0547C275.051 47.0391 276.906 46.5312 279.289 46.5312C280.096 46.5312 280.917 46.5964 281.75 46.7266C282.596 46.8438 283.449 47.013 284.309 47.2344V44.3438C284.309 43.1719 283.911 42.2734 283.117 41.6484C282.336 41.0104 281.132 40.6914 279.504 40.6914C276.835 40.6914 275.246 41.7721 274.738 43.9336L272.941 43.7188L273.195 40.2812C274.029 39.9036 275.005 39.5977 276.125 39.3633C277.245 39.1159 278.495 38.9922 279.875 38.9922C282.635 38.9922 284.608 39.4935 285.793 40.4961C286.991 41.4987 287.59 43.0742 287.59 45.2227V52.625C287.59 53.5234 287.635 54.1549 287.727 54.5195C287.818 54.8841 287.993 55.099 288.254 55.1641C288.514 55.2292 288.905 55.2617 289.426 55.2617H290.305V57C290.096 56.987 289.888 56.9805 289.68 56.9805C289.471 56.9805 289.263 56.987 289.055 57C288.846 57 288.638 57 288.43 57C287.727 57.013 287.036 57.026 286.359 57.0391C285.682 57.0521 285.038 57.0651 284.426 57.0781V54.4023C283.645 55.3919 282.714 56.1406 281.633 56.6484C280.565 57.1562 279.315 57.4102 277.883 57.4102ZM278.879 55.5352C279.725 55.5352 280.565 55.3594 281.398 55.0078C282.232 54.6432 282.922 54.1094 283.469 53.4062C284.029 52.7031 284.309 51.8242 284.309 50.7695V48.8555C283.527 48.6341 282.785 48.4648 282.082 48.3477C281.379 48.2305 280.695 48.1719 280.031 48.1719C278.469 48.1719 277.232 48.5104 276.32 49.1875C275.422 49.8516 274.973 50.7826 274.973 51.9805C274.973 53.0482 275.337 53.9076 276.066 54.5586C276.796 55.2096 277.733 55.5352 278.879 55.5352ZM292.121 57C292.121 56.8958 292.121 56.7656 292.121 56.6094C292.121 56.4531 292.115 56.2904 292.102 56.1211C292.102 55.9388 292.102 55.7695 292.102 55.6133C292.102 55.457 292.102 55.3268 292.102 55.2227C293.091 55.2227 293.788 55.1641 294.191 55.0469C294.595 54.9297 294.836 54.7539 294.914 54.5195C295.005 54.2852 295.051 53.9922 295.051 53.6406V34.5C295.051 34.0182 294.803 33.7383 294.309 33.6602C293.814 33.582 293.111 33.5365 292.199 33.5234V31.7656C292.551 31.7656 292.889 31.7656 293.215 31.7656C293.54 31.7526 293.866 31.7461 294.191 31.7461C294.53 31.7461 294.862 31.7461 295.188 31.7461C295.682 31.7331 296.184 31.7266 296.691 31.7266C297.212 31.7135 297.753 31.7005 298.312 31.6875V53.8555C298.312 54.4935 298.56 54.8841 299.055 55.0273C299.562 55.1576 300.318 55.2227 301.32 55.2227V57C300.604 57 299.888 57 299.172 57C298.469 56.987 297.635 56.974 296.672 56.9609C295.721 56.9609 294.901 56.9674 294.211 56.9805C293.521 56.9935 292.824 57 292.121 57Z" fill="#1FCB63" fill-opacity="0.8"/>
<path d="M26.7622 21.9V36.25C26.7622 36.7833 26.8788 37.1667 27.1122 37.4C27.3788 37.6333 27.9455 37.75 28.8122 37.75H32.5122V42.5H26.1622C24.2622 42.5 22.7288 42.3 21.5622 41.9C20.4288 41.5 19.5788 40.8 19.0122 39.8C18.4788 38.7667 18.1288 37.6667 17.9622 36.5C17.8288 35.3333 17.7622 33.7667 17.7622 31.8C17.7622 29.8 17.8288 28.2833 17.9622 27.25C18.1288 26.2167 18.4788 25.25 19.0122 24.35C19.5788 23.45 20.4288 22.8167 21.5622 22.45C22.7288 22.0833 24.2622 21.9 26.1622 21.9H26.7622ZM34.5122 37.75H35.1122C36.5455 37.75 37.6455 37.7833 38.4122 37.85C39.2122 37.8833 39.9788 38.0333 40.7122 38.3C41.4455 38.5333 41.9455 38.8167 42.2122 39.15C42.5122 39.4833 42.7788 40.0667 43.0122 40.9C43.2788 41.7 43.4288 42.5667 43.4622 43.5C43.4955 44.4333 43.5122 45.7667 43.5122 47.5C43.5122 49.2333 43.4955 50.6167 43.4622 51.65C43.4288 52.65 43.2788 53.6167 43.0122 54.55C42.7788 55.45 42.5122 56.0833 42.2122 56.45C41.9455 56.8167 41.4455 57.15 40.7122 57.45C39.9788 57.7167 39.2122 57.8833 38.4122 57.95C37.6455 57.9833 36.5455 58 35.1122 58H34.5122V37.75ZM18.4622 46.85H24.7622C25.2288 46.85 25.5122 46.9167 25.6122 47.05C25.7122 47.1833 25.7622 47.4667 25.7622 47.9V51.8C25.7622 52.3333 25.8288 52.7167 25.9622 52.95C26.1288 53.15 26.5122 53.25 27.1122 53.25H32.5122V58H25.1622C22.7288 58 20.8788 57.5833 19.6122 56.75C18.3788 55.9167 17.7622 54.4667 17.7622 52.4V47.9C17.7622 47.2 17.9955 46.85 18.4622 46.85ZM28.7622 21.85H35.1122C37.5455 21.85 39.3788 22.2667 40.6122 23.1C41.8788 23.9333 42.5122 25.3833 42.5122 27.45V31.95C42.5122 32.65 42.2788 33 41.8122 33H35.5122C35.0455 33 34.7622 32.9333 34.6622 32.8C34.5622 32.6667 34.5122 32.3833 34.5122 31.95V28.05C34.5122 27.5167 34.4288 27.15 34.2622 26.95C34.1288 26.7167 33.7622 26.6 33.1622 26.6H28.7622V21.85ZM71.3633 33H78.1633C81.7967 33 83.6133 34.7833 83.6133 38.35V58H77.9133C77.38 58 76.9467 57.8167 76.6133 57.45C76.28 57.0833 76.1133 56.6 76.1133 56V38.25C76.1133 37.7167 75.98 37.3333 75.7133 37.1C75.48 36.8667 74.93 36.75 74.0633 36.75H71.3633V33ZM49.0633 33H52.1133C53.58 33 54.68 33.3667 55.4133 34.1C56.18 34.8 56.5633 35.7167 56.5633 36.85V58H50.8633C50.33 58 49.8967 57.8167 49.5633 57.45C49.23 57.0833 49.0633 56.6 49.0633 56V33ZM57.8133 33H64.6133C68.2467 33 70.0633 34.7833 70.0633 38.35V58H64.3633C63.83 58 63.3967 57.8167 63.0633 57.45C62.73 57.0833 62.5633 56.6 62.5633 56V38.25C62.5633 37.7167 62.43 37.3333 62.1633 37.1C61.93 36.8667 61.38 36.75 60.5133 36.75H57.8133V33ZM101.448 36.75H98.7477C97.7144 36.75 97.131 36.9333 96.9977 37.3C96.7977 37.7333 96.6977 38.35 96.6977 39.15V51.85C96.6977 51.9167 96.6977 52.1167 96.6977 52.45C96.6977 52.7833 96.731 53.0667 96.7977 53.3C96.931 53.9333 97.581 54.25 98.7477 54.25H101.448V58H96.5977C95.331 58 94.2977 57.95 93.4977 57.85C92.6977 57.7167 91.9977 57.45 91.3977 57.05C90.7977 56.65 90.3477 56.2167 90.0477 55.75C89.7477 55.25 89.4977 54.4667 89.2977 53.4C89.0644 51.9 88.9477 49.8 88.9477 47.1C88.9477 44.4 88.9644 42.5833 88.9977 41.65C89.031 40.6833 89.081 39.6667 89.1477 38.6C89.2477 37.5333 89.3977 36.75 89.5977 36.25C89.831 35.75 90.1144 35.25 90.4477 34.75C90.8144 34.2167 91.281 33.85 91.8477 33.65C93.081 33.2167 94.6644 33 96.5977 33H101.448V36.75ZM112.698 57.65C112.698 57.8833 112.631 58 112.498 58H108.398C106.531 58 105.148 57.5667 104.248 56.7C103.381 55.8333 102.948 54.4167 102.948 52.45V33H104.998C107.098 33 108.531 33.5 109.298 34.5C110.064 35.4667 110.448 36.75 110.448 38.35V52.35C110.448 53.3833 110.664 53.9667 111.098 54.1C111.331 54.2 111.648 54.25 112.048 54.25H112.298C112.564 54.25 112.698 54.3667 112.698 54.6V57.65ZM121.991 33H127.991C128.191 33 128.291 33.1167 128.291 33.35V36.4C128.291 36.6333 128.158 36.75 127.891 36.75H125.641C124.841 36.75 124.375 36.9 124.241 37.2C124.108 37.6333 124.041 38.1167 124.041 38.65V54.15C124.041 55.2833 123.658 56.2167 122.891 56.95C122.158 57.65 121.058 58 119.591 58H116.541V38.55C116.541 36.5833 116.975 35.1667 117.841 34.3C118.741 33.4333 120.125 33 121.991 33ZM144.82 57.6C144.82 57.8 144.72 57.9333 144.52 58H140.72C138.287 58 136.52 57.5167 135.42 56.55C134.32 55.5833 133.77 53.8833 133.77 51.45V36.85H131.22C130.387 36.85 129.97 36.35 129.97 35.35V33H133.77V21.85H136.82C138.287 21.85 139.387 22.2167 140.12 22.95C140.887 23.6833 141.27 24.6167 141.27 25.75V52.35C141.27 53.5833 141.97 54.2 143.37 54.2H144.42C144.687 54.2 144.82 54.3167 144.82 54.55V57.6ZM146.37 33V35.35C146.37 36.35 145.953 36.85 145.12 36.85H142.52V33H146.37Z" fill="#150676"/>
</svg>
